<svg width="48" height="48" fill="none" xmlns="http://www.w3.org/2000/svg"><mask id="a" maskUnits="userSpaceOnUse" x="0" y="0" width="48" height="48"><path fill="#C4C4C4" d="M0 0h48v48H0z"/></mask><g mask="url(#a)"><path d="M0 15.368c0-4.857 14.38-6.227 21.028-6.95l-12.06 14.24C7.203 21.706 0 18.4 0 15.367zM32.603 48c4.852 0 6.222-14.392 6.943-21.047L25.321 39.024C26.27 40.791 29.573 48 32.603 48z" fill="#023DA2"/><path d="M5.895 33.891c-1.886 3.247-3.417 7.68-4.01 12.19 4.345-.64 8.87-1.862 12.225-3.564 10.637-5.397-2.107-19.142-8.215-8.626z" fill="#E62C34"/><path d="M26.843 3.605C32.753-.38 42.928-.456 47.333.593l-27.416 27.44c-3.857-3.86-8.635-5.417-10.979-5.387 3.945-6.132 11.995-15.056 17.905-19.04z" fill="#05C592"/><path d="M44.324 21.102c3.981-5.915 4.058-16.1 3.01-20.509l-27.417 27.44c3.856 3.86 5.413 8.643 5.383 10.99 6.127-3.95 15.042-12.006 19.024-17.921z" fill="#05C592"/><path d="M38.371 18.462a6.284 6.284 0 01-8.892 0 6.297 6.297 0 010-8.9 6.284 6.284 0 018.892 0 6.297 6.297 0 010 8.9z" fill="#fff"/></g></svg>