<svg width="48" height="48" fill="none" xmlns="http://www.w3.org/2000/svg"><g clip-path="url(#clip0)"><path fill="#023DA2" d="M1.326 18.346L23.666 1l14.648 18.866-22.34 17.346z"/><path fill="#E62C34" d="M19.495 23.556h28.283v23.885H19.495z"/><path d="M15.562 43.506c-6.399-4.54-7.906-13.407-3.367-19.806l.022-.03L23.262 8.133l23.21 16.525L35.418 40.2c-4.572 6.393-13.46 7.872-19.856 3.305z" fill="#05C592"/><path d="M18.968 39.085c-3.445-2.484-3.548-7.25-2.018-9.37l11.396 8.216c-1.391 1.93-5.381 4.036-9.378 1.154z" fill="#fff"/><circle cx="20.896" cy="23.702" r="2.932" transform="rotate(34.632 20.896 23.702)" fill="#fff"/><circle cx="32.317" cy="31.78" r="2.932" transform="rotate(34.632 32.317 31.78)" fill="#fff"/></g><defs><clipPath id="clip0"><path fill="#fff" d="M0 0h48v48H0z"/></clipPath></defs></svg>