<svg width="48" height="49" fill="none" xmlns="http://www.w3.org/2000/svg"><ellipse cx="39.548" cy="34.935" rx="4.663" ry="4.613" fill="#E62C34"/><path d="M23.209 2.276c-.824-1.272 4.174-.441 6.776.134l-.223 4.906c-1.84-1.15-5.729-3.769-6.553-5.04z" fill="#E62C34"/><path d="M47.224 41.304V7.706c-.703-1.232-1.911 22.49-6.704 27.533-1.994 2.098-4.464 2.01-5.092 1.873v4.192c0 3.518 2.935 6.732 5.874 6.732 3.788 0 5.922-2.703 5.922-6.732z" fill="#05C592"/><path d="M11.681 47.515c4.29-.746 8.15-3.086 10.531-5.258l-5.693-3.49c-1.042.581-2.573 1.824-6.175 1.824-2.438 0-4.918-2.724-5.853-4.125L0 39.718l3.769 3.887H0v4.619c2.112-.053 6.72.153 11.681-.71z" fill="#E62C34"/><path d="M47.224 7.472c0-.758-4.28-1.583-5.877-1.674v3.974c1.747-.485 5.877-1.541 5.877-2.3z" fill="#023DA2"/><path fill-rule="evenodd" clip-rule="evenodd" d="M29.26 19.949L11.694 1.712c-2.26 2.021-5.672 6.916-3.147 12.38 2.721 5.888 3.752 7.321 4.592 8.49.233.325.452.63.689 1.004-.191.175-.413.37-.657.583-1.979 1.736-5.367 4.709-4.624 7.924 1.043 4.515 4.863 9.17 9.688 10.202 7.844 1.678 12.982-1.87 15.22-8.154 2.147-6.025 2.032-12.893 1.94-18.336a182.11 182.11 0 01-.033-2.928c1 .043 2.22-.07 3.31-.607 1.27-.63 2.648-1.457 3.22-2.643V5.868c-.479-.516-1.658-1.341-3.77-2.81-1.656-1.15-4.77-.983-7.127-.857-.651.034-1.245.066-1.735.066V19.95zm7.35-13.143c.696 0 1.26-.558 1.26-1.247 0-.69-.564-1.248-1.26-1.248-.697 0-1.262.559-1.262 1.248s.565 1.247 1.261 1.247z" fill="#05C592"/><path d="M29.305 19.719H0c0 18.864 29.305 18.243 29.305 0z" fill="#023DA2"/></svg>