<svg width="51" height="60" fill="none" xmlns="http://www.w3.org/2000/svg"><path fill="#05C592" d="M.036 39.162h47.766v9.553H.036z"/><path fill="#023DA2" d="M23.92 28.53v20.185h-6.37V28.53z"/><path d="M29.605.921A18.198 18.198 0 0047.802 19.12V.92H29.605z" fill="#05C592"/><path d="M5.815 24.014C-.917 18.594.048 9.726.048 4.944c6.466 0 12.907-.303 18.633 5.391 5.727 5.694 5.221 13.786 5.221 18.223-4.703 0-11.418.827-18.087-4.544z" fill="#E62C34"/><g filter="url(#filter0_d)"><path d="M26.011 27.425c2.513-3.036 6.696-2.586 8.882-2.588.003 2.913.113 5.796-2.528 8.379-2.64 2.582-6.418 2.425-8.455 2.427-.001-2.12-.389-5.211 2.101-8.218z" fill="#E62C34"/></g><defs><filter id="filter0_d" x="7.879" y="16.813" width="43.024" height="42.832" filterUnits="userSpaceOnUse" color-interpolation-filters="sRGB"><feFlood flood-opacity="0" result="BackgroundImageFix"/><feColorMatrix in="SourceAlpha" values="0 0 0 0 0 0 0 0 0 0 0 0 0 0 0 0 0 0 127 0"/><feOffset dy="8"/><feGaussianBlur stdDeviation="8"/><feColorMatrix values="0 0 0 0 0.912 0 0 0 0 0.208 0 0 0 0 0.208 0 0 0 0.2 0"/><feBlend in2="BackgroundImageFix" result="effect1_dropShadow"/><feBlend in="SourceGraphic" in2="effect1_dropShadow" result="shape"/></filter></defs></svg>