<svg width="48" height="48" fill="none" xmlns="http://www.w3.org/2000/svg"><path fill-rule="evenodd" clip-rule="evenodd" d="M13.513 48V34.428H0V13.627h13.513V0H24v9.263C15.93 9.263 9.387 15.861 9.387 24c0 8.14 6.542 14.737 14.613 14.737V48H13.513z" fill="#023DA2"/><path fill-rule="evenodd" clip-rule="evenodd" d="M34.487 0v13.572H48v20.8H34.487V48H24v-9.263c8.07 0 14.613-6.598 14.613-14.737S32.07 9.263 24 9.263V0h10.487z" fill="#05C592"/><path d="M32.908 21.884c0-2.68-2.154-4.852-4.811-4.852-1.735 0-3.25.929-4.097 2.318a4.795 4.795 0 00-4.098-2.319c-2.657 0-4.81 2.173-4.81 4.853 0 1.459.64 2.764 1.651 3.653l6.818 6.876a.618.618 0 00.878 0l6.818-6.876a4.851 4.851 0 001.651-3.653z" fill="#E62C34"/></svg>