<svg width="64" height="80" fill="none" xmlns="http://www.w3.org/2000/svg"><path d="M17.09 56l7.558-4.928c-13.5.447-23.538-14.21-17.433-27.438C10.323 16.9 18.414 11.73 23.655 8.001H.623l5.802 6.76C-3.899 24.793-2.769 49.08 17.09 56.001z" fill="#05C592"/><g filter="url(#filter0_d)"><path d="M30.91 8l-7.559 4.928c13.501-.446 23.54 14.21 17.434 27.438C37.677 47.1 29.585 52.27 24.345 56h23.031l-5.801-6.76C51.899 39.207 50.768 14.922 30.909 8z" fill="#E62C34"/></g><path fill-rule="evenodd" clip-rule="evenodd" d="M27.83 50.922c8.284-2.015 14.458-9.805 14.458-19.107 0 9.355-6.192 17.101-14.458 19.107zM4.89 31.815c0 9.704 6.677 17.72 15.464 19.32C11.57 49.53 4.89 41.49 4.89 31.816zm0-.071c.03-8.906 5.72-16.413 13.492-18.771C10.624 15.32 4.92 22.788 4.89 31.742zm22.753-19.08a17.992 17.992 0 00-4.054-.46 17.94 17.94 0 000-.002c1.392 0 2.749.16 4.054.462zm14.645 19.048c-.046-9.354-6.296-17.12-14.645-19.048 8.347 1.935 14.599 9.722 14.645 19.048zm0 .103zM21.126 43.348c1.078 3.014 2.166 3.692 2.463 3.692.297 0 1.385-.678 2.463-3.692.31-.869.58-1.824.808-2.845h-6.542c.228 1.02.498 1.976.808 2.845zm-1.694-11.533c0 1.498.072 2.96.206 4.358h7.902c.134-1.399.206-2.86.206-4.358a45.85 45.85 0 00-.206-4.358h-7.902c-.134 1.4-.206 2.86-.206 4.358zm-3.968-4.387H9.648a16.18 16.18 0 000 8.745h5.816a50.875 50.875 0 010-8.745zm10.588-7.174c-1.078-3.014-2.166-3.692-2.463-3.692-.296 0-1.385.678-2.463 3.692a24.12 24.12 0 00-.808 2.845h6.542a24.12 24.12 0 00-.808-2.845zm11.478 7.203h-5.816a50.211 50.211 0 010 8.716h5.816a16.076 16.076 0 000-8.716zM31.114 23.1h4.418a15.142 15.142 0 00-1.655-2.07 14.581 14.581 0 00-4.232-3.09c.662 1.65 1.131 3.413 1.47 5.16zm-15.05 0c.338-1.744.806-3.508 1.469-5.16a14.576 14.576 0 00-4.233 3.09c-.619.65-1.17 1.342-1.654 2.07h4.418zm0 17.433h-4.418a15.133 15.133 0 001.655 2.07 14.581 14.581 0 004.232 3.09c-.662-1.65-1.13-3.413-1.47-5.16zm15.05-.03c-.338 1.744-.806 3.509-1.469 5.161a14.575 14.575 0 004.233-3.09c.62-.65 1.17-1.342 1.654-2.07h-4.418z" fill="#023DA2"/><defs><filter id="filter0_d" x="7.351" y="0" width="56.648" height="80" filterUnits="userSpaceOnUse" color-interpolation-filters="sRGB"><feFlood flood-opacity="0" result="BackgroundImageFix"/><feColorMatrix in="SourceAlpha" values="0 0 0 0 0 0 0 0 0 0 0 0 0 0 0 0 0 0 127 0"/><feOffset dy="8"/><feGaussianBlur stdDeviation="8"/><feColorMatrix values="0 0 0 0 0.912 0 0 0 0 0.208 0 0 0 0 0.208 0 0 0 0.2 0"/><feBlend in2="BackgroundImageFix" result="effect1_dropShadow"/><feBlend in="SourceGraphic" in2="effect1_dropShadow" result="shape"/></filter></defs></svg>