<svg width="49" height="49" fill="none" xmlns="http://www.w3.org/2000/svg"><path d="M43.402 24.084c0 3.886-1.153 7.504-3.137 10.532l2.606 4.6a23.965 23.965 0 005.354-15.133C48.225 10.784 37.429 0 24.112 0 10.796 0 0 10.783 0 24.084a23.965 23.965 0 005.354 15.133l2.605-4.601a19.152 19.152 0 01-3.137-10.532c0-10.633 8.631-19.262 19.29-19.262 10.66 0 19.29 8.63 19.29 19.262z" fill="#05C592"/><path d="M24.112 14.405c5.037 0 9.17 3.832 9.649 8.725l3.731 6.589a14.44 14.44 0 001.138-5.636c0-8.008-6.5-14.5-14.518-14.5s-14.517 6.492-14.517 14.5c0 2 .405 3.904 1.137 5.637l3.731-6.588c.48-4.894 4.612-8.727 9.65-8.727z" fill="#05C592"/><ellipse cx="24.112" cy="24.083" rx="4.822" ry="4.817" fill="#E62C34"/><path fill-rule="evenodd" clip-rule="evenodd" d="M16.364 28.405L5.566 48.225l6.187-.001 1.617-3.108h21.485l1.616 3.108h6.187L31.86 28.404a8.872 8.872 0 01-7.748 4.541 8.872 8.872 0 01-7.748-4.54zm1.208 8.635h13.08l1.943 3.733H15.63l1.943-3.733z" fill="#023DA2"/></svg>