<svg width="49" height="48" fill="none" xmlns="http://www.w3.org/2000/svg"><path d="M6.34 1.115L9.839 4.6.043 14.357v19.505l19.582-19.51 3.497 3.484V1.116H6.34z" fill="#023DA2"/><path fill-rule="evenodd" clip-rule="evenodd" d="M30.777 18.404l-4.59-4.572h22.026v21.945l-4.59-4.573-16.595 16.535-2.843.004c-.012-5.505-3.776-10.133-8.88-11.478a6.13 6.13 0 003.093-5.527l12.379-12.334zM1.305 47.768l-.006.007 4.557-.007h-4.55z" fill="#05C592"/><path fill-rule="evenodd" clip-rule="evenodd" d="M13.559 18.77l-2.7-2.689h12.956V28.99l-2.7-2.69-2.953 2.942a6.158 6.158 0 00-5.919-4.436c-3.401 0-6.158 2.747-6.158 6.136a6.13 6.13 0 003.096 5.324C4.304 37.551.65 41.833.325 47.014l-.295.294V32.25l13.529-13.48z" fill="#EF6C82"/></svg>