<svg width="49" height="49" fill="none" xmlns="http://www.w3.org/2000/svg"><path d="M10.409 4.142l9.014 10.654H1.396L10.41 4.142z" fill="#05C592"/><path d="M10.409 14.08l9.014 10.655H1.396L10.41 14.08z" fill="#05C592"/><path d="M10.409 24.02l9.014 10.655H1.396L10.41 24.02zM25.415 5.798l6.366 8.512H19.048l6.367-8.512zm0 12.32l6.366 8.512H19.048l6.367-8.512z" fill="#05C592"/><path d="M31.547 0h16.677v17.136c-9.21 0-16.677-7.672-16.677-17.136z" fill="#E62C34"/><path fill-rule="evenodd" clip-rule="evenodd" d="M43.47 24.766h-2.097l5.403-6.134h.84l-4.145 6.134zm4.146-6.134l.002-.003h-.84l-.002.003h-.704L1.251 48.224h46.973V18.632h-.608zM29.802 37.903h4.791l-6.966 10.309h-6.904l9.08-10.309zM40.25 26.041h2.359l-6.7 9.915h-4.392l8.733-9.915z" fill="#023DA2"/></svg>