<svg width="48" height="49" fill="none" xmlns="http://www.w3.org/2000/svg"><mask id="a" maskUnits="userSpaceOnUse" x="0" y="1" width="47" height="48"><path fill="#C4C4C4" d="M0 1.225h47v47H0z"/></mask><g mask="url(#a)"><path d="M41.458 23.626l-.534 1.02.534 1.02c2.035 3.889 3.103 7.601 3.212 10.737.108 3.125-.73 5.524-2.325 7.12-1.595 1.599-3.997 2.441-7.128 2.335-3.141-.106-6.861-1.173-10.759-3.21l-1.018-.532-1.02.532c-3.897 2.036-7.617 3.104-10.758 3.21-3.131.106-5.533-.736-7.128-2.335-1.594-1.596-2.433-3.995-2.325-7.12.109-3.136 1.177-6.848 3.212-10.737l.534-1.02-.534-1.02c-2.035-3.89-3.103-7.602-3.212-10.737-.108-3.126.73-5.525 2.325-7.12 1.595-1.6 3.997-2.442 7.128-2.336 3.141.107 6.861 1.174 10.759 3.21l1.018.533 1.02-.533c3.897-2.036 7.617-3.103 10.758-3.21 3.131-.106 5.533.737 7.128 2.335 1.594 1.596 2.433 3.995 2.325 7.12-.109 3.136-1.177 6.849-3.212 10.738zM27.413 39.553l-3.25 2.34 3.718 1.488c.933.374 1.855.69 2.756.943 5.328 1.503 9.123.7 11.163-1.345 2.042-2.044 2.84-5.84 1.329-11.165a27.553 27.553 0 00-.94-2.735l-1.488-3.711-2.338 3.243a48.314 48.314 0 01-5.055 5.918 48.324 48.324 0 01-5.895 5.024zM39.318 25.81l.727-1.164-.727-1.165c-1.718-2.753-3.909-5.533-6.554-8.174-2.638-2.634-5.413-4.816-8.161-6.528l-1.164-.724-1.163.724c-2.748 1.712-5.523 3.894-8.161 6.528-2.645 2.641-4.836 5.42-6.554 8.174l-.727 1.165.727 1.164c1.718 2.754 3.909 5.533 6.554 8.174 2.638 2.634 5.413 4.816 8.161 6.528l1.163.724 1.164-.724c2.748-1.712 5.523-3.894 8.161-6.528 2.645-2.64 4.836-5.42 6.554-8.174zm-.955-5.13l2.338 3.244 1.489-3.711c.371-.927.685-1.84.939-2.736 1.51-5.325.713-9.12-1.328-11.165-2.041-2.044-5.836-2.847-11.164-1.345-.901.254-1.823.57-2.756.943L24.162 7.4l3.251 2.34a48.326 48.326 0 015.895 5.023c1.91 1.908 3.6 3.9 5.055 5.918zM18.998 43.381l3.719-1.488-3.251-2.34a48.315 48.315 0 01-5.895-5.024c-1.91-1.907-3.6-3.9-5.055-5.918l-2.338-3.243-1.489 3.71a27.825 27.825 0 00-.939 2.736c-1.51 5.325-.713 9.121 1.328 11.165 2.042 2.044 5.836 2.848 11.163 1.345.902-.254 1.823-.57 2.757-.943zM4.69 20.213l1.49 3.71 2.337-3.243a48.302 48.302 0 015.055-5.918 48.317 48.317 0 015.895-5.024l3.25-2.34-3.718-1.488a27.576 27.576 0 00-2.757-.943C10.914 3.465 7.12 4.268 5.078 6.312c-2.04 2.044-2.838 5.84-1.328 11.165.254.895.568 1.81.94 2.736z" fill="#023DA2" stroke="#023DA2" stroke-width="4.4"/><path d="M15.274 15.275l8.283-7 8.167 7.099-8.282 7-8.168-7.099z" fill="#E62C34"/><path d="M9.717 11.109c-.595 5.911-.822 17.533.605 20.24.822 1.559 2.087 3.111 3.298 4.598 1.42 1.742 2.766 3.393 3.236 4.856.87 2.71 3.427 3.57 6.495 3.57v-24.6s-1.253-4.015-4.02-5.902c-3.904-2.662-9.614-2.762-9.614-2.762z" fill="#05C592"/><path d="M36.986 11.109c.595 5.911.822 17.533-.605 20.24-.822 1.559-2.087 3.112-3.298 4.598-1.42 1.742-2.766 3.393-3.236 4.856-.87 2.71-3.427 3.57-6.496 3.57v-24.6s1.254-4.015 4.02-5.902c3.905-2.662 9.615-2.762 9.615-2.762z" fill="#05C592"/><path d="M23.257 30.909c-.957-.107-2.836-3.545-3.522-5.25l3.522-4.12 3.588 4.12c-.952 1.794-2.631 5.356-3.588 5.25z" fill="#E62C34"/><circle cx="16.439" cy="20.631" r="7.246" fill="#fff"/><circle cx="30.263" cy="20.631" r="7.246" fill="#fff"/><circle cx="16.438" cy="20.631" r="3.374" fill="url(#paint0_linear)"/><circle cx="30.263" cy="20.631" r="3.374" fill="url(#paint1_linear)"/></g><defs><linearGradient id="paint0_linear" x1="15.156" y1="17.999" x2="16.438" y2="24.005" gradientUnits="userSpaceOnUse"><stop stop-color="#3D7C8F"/><stop offset="1" stop-color="#344865"/></linearGradient><linearGradient id="paint1_linear" x1="28.981" y1="17.999" x2="30.263" y2="24.005" gradientUnits="userSpaceOnUse"><stop stop-color="#3D7C8F"/><stop offset="1" stop-color="#344865"/></linearGradient></defs></svg>