<svg width="32" height="32" fill="none" xmlns="http://www.w3.org/2000/svg"><g fill="#fff"><mask id="a"><path fill-rule="evenodd" clip-rule="evenodd" d="M17.068 1.266a2 2 0 00-1.994 0L4.003 7.634A2 2 0 003 9.367v12.729a2 2 0 001.003 1.733l11.07 6.368a2 2 0 001.995 0l11.07-6.368a2 2 0 001.003-1.733V9.367a2 2 0 00-1.002-1.733L17.068 1.266zM16.07 3l11.07 6.367v12.729l-11.07 6.367L5 22.096V9.367L16.07 3zm-1.321 7.498c.103.3.39.499.72.499h1.11c.33 0 .618-.2.72-.499l.227-.698c.205-.598-.247-1.217-.905-1.217h-.144v-.02c.04-.12 0-.259-.083-.339l-.123-.12a.343.343 0 00-.494 0l-.123.12a.307.307 0 00-.082.34v.02h-.144c-.659 0-1.11.618-.905 1.216l.226.698zm8.927.239a.318.318 0 00-.082-.14.238.238 0 00-.165-.06c-.062 0-.123 0-.165.04a.344.344 0 00-.123.12c-.185.319-.535.897-.864 1.356-.967 1.356-1.954 2.314-3.352 2.353-.165 0-.33-.04-.473-.1a1.076 1.076 0 01-.638-1.156c0-.22.082-.419.185-.598.123-.18.288-.32.494-.42.288-.139.678-.159.987-.099.164.02.329.08.473.16.144.08.226.06.247-.12.02-.419-.062-.977-.453-1.237-.493-.339-1.275-.1-1.768.16-.515.26-.947.658-1.317 1.097-.247.3-.494.618-.658.977a6.317 6.317 0 00-.658-.977c-.37-.439-.802-.838-1.317-1.097-.473-.26-1.254-.499-1.768-.16-.391.26-.473.818-.453 1.237.02.16.103.2.247.12.144-.08.308-.14.473-.16.33-.06.7-.04.987.1.206.1.37.24.494.419.123.18.185.399.185.598.062.479-.206.957-.638 1.157-.144.06-.308.1-.473.1-1.398-.04-2.386-.998-3.352-2.354a18.417 18.417 0 01-.864-1.356.183.183 0 00-.124-.12.398.398 0 00-.164-.04c-.062 0-.103.02-.165.06-.04.04-.082.08-.082.14a9.503 9.503 0 00-.185 4.168c.185 1.077.843 2.733 1.954 3.291 1.11.558 2.036.14 2.674-.18.37-.199.617-.299.822-.259.144.02.206.18.103.3l-.822.997a.947.947 0 00-.227.857l-1.13.978-.248-.22a1.21 1.21 0 00.124-.538.406.406 0 00-.412-.4.406.406 0 00-.411.4.47.47 0 01-.473.458.406.406 0 00-.411.4c0 .219.185.398.411.398.226 0 .432-.06.617-.14l.555.48.988.857c.164.14.431.14.575-.04.145-.16.145-.419-.04-.558l-.638-.559.987-.857c.144.08.33.12.514.08.535-.06 1.07-.32 1.543-.58.22.689-.504 1.27-1.066 1.72-.123.098-.237.19-.333.275l-.04.039c-.207.198-.5.479-.268.76.126.156.362.222.557.276l.08.022c.103.02.206.04.309.08a3.47 3.47 0 011.262.574c.06.042.108.077.157.124.041.04.103.06.165.06.061 0 .123-.02.164-.06.034-.021.067-.049.104-.079a2.893 2.893 0 011.316-.619c.102-.02.205-.04.308-.08l.045-.012c.216-.056.458-.12.592-.287.247-.299-.102-.618-.308-.798a7.238 7.238 0 00-.358-.302c-.552-.447-1.256-1.018-1.04-1.692.472.26 1.007.498 1.542.578.185.02.35 0 .493-.08l.967.838c0 .02-.005.045-.01.07a.382.382 0 00-.01.07c0 .698.576 1.256 1.295 1.256.72 0 1.296-.558 1.296-1.256s-.576-1.257-1.296-1.257c-.37 0-.699.14-.925.38l-.823-.719a1 1 0 00-.226-.877l-.823-.998c-.082-.1-.02-.279.103-.299.206-.04.452.08.823.26.637.319 1.563.757 2.674.179 1.11-.559 1.748-2.214 1.953-3.29a10.652 10.652 0 00-.205-4.19zm-3.003 10.63a.488.488 0 01.452-.319c.268 0 .473.22.473.459 0 .26-.226.459-.473.459a.471.471 0 01-.473-.46c0-.039 0-.099.02-.139z"/></mask><path fill-rule="evenodd" clip-rule="evenodd" d="M17.068 1.266a2 2 0 00-1.994 0L4.003 7.634A2 2 0 003 9.367v12.729a2 2 0 001.003 1.733l11.07 6.368a2 2 0 001.995 0l11.07-6.368a2 2 0 001.003-1.733V9.367a2 2 0 00-1.002-1.733L17.068 1.266zM16.07 3l11.07 6.367v12.729l-11.07 6.367L5 22.096V9.367L16.07 3zm-1.321 7.498c.103.3.39.499.72.499h1.11c.33 0 .618-.2.72-.499l.227-.698c.205-.598-.247-1.217-.905-1.217h-.144v-.02c.04-.12 0-.259-.083-.339l-.123-.12a.343.343 0 00-.494 0l-.123.12a.307.307 0 00-.082.34v.02h-.144c-.659 0-1.11.618-.905 1.216l.226.698zm8.927.239a.318.318 0 00-.082-.14.238.238 0 00-.165-.06c-.062 0-.123 0-.165.04a.344.344 0 00-.123.12c-.185.319-.535.897-.864 1.356-.967 1.356-1.954 2.314-3.352 2.353-.165 0-.33-.04-.473-.1a1.076 1.076 0 01-.638-1.156c0-.22.082-.419.185-.598.123-.18.288-.32.494-.42.288-.139.678-.159.987-.099.164.02.329.08.473.16.144.08.226.06.247-.12.02-.419-.062-.977-.453-1.237-.493-.339-1.275-.1-1.768.16-.515.26-.947.658-1.317 1.097-.247.3-.494.618-.658.977a6.317 6.317 0 00-.658-.977c-.37-.439-.802-.838-1.317-1.097-.473-.26-1.254-.499-1.768-.16-.391.26-.473.818-.453 1.237.02.16.103.2.247.12.144-.08.308-.14.473-.16.33-.06.7-.04.987.1.206.1.37.24.494.419.123.18.185.399.185.598.062.479-.206.957-.638 1.157-.144.06-.308.1-.473.1-1.398-.04-2.386-.998-3.352-2.354a18.417 18.417 0 01-.864-1.356.183.183 0 00-.124-.12.398.398 0 00-.164-.04c-.062 0-.103.02-.165.06-.04.04-.082.08-.082.14a9.503 9.503 0 00-.185 4.168c.185 1.077.843 2.733 1.954 3.291 1.11.558 2.036.14 2.674-.18.37-.199.617-.299.822-.259.144.02.206.18.103.3l-.822.997a.947.947 0 00-.227.857l-1.13.978-.248-.22a1.21 1.21 0 00.124-.538.406.406 0 00-.412-.4.406.406 0 00-.411.4.47.47 0 01-.473.458.406.406 0 00-.411.4c0 .219.185.398.411.398.226 0 .432-.06.617-.14l.555.48.988.857c.164.14.431.14.575-.04.145-.16.145-.419-.04-.558l-.638-.559.987-.857c.144.08.33.12.514.08.535-.06 1.07-.32 1.543-.58.22.689-.504 1.27-1.066 1.72-.123.098-.237.19-.333.275l-.04.039c-.207.198-.5.479-.268.76.126.156.362.222.557.276l.08.022c.103.02.206.04.309.08a3.47 3.47 0 011.262.574c.06.042.108.077.157.124.041.04.103.06.165.06.061 0 .123-.02.164-.06.034-.021.067-.049.104-.079a2.893 2.893 0 011.316-.619c.102-.02.205-.04.308-.08l.045-.012c.216-.056.458-.12.592-.287.247-.299-.102-.618-.308-.798a7.238 7.238 0 00-.358-.302c-.552-.447-1.256-1.018-1.04-1.692.472.26 1.007.498 1.542.578.185.02.35 0 .493-.08l.967.838c0 .02-.005.045-.01.07a.382.382 0 00-.01.07c0 .698.576 1.256 1.295 1.256.72 0 1.296-.558 1.296-1.256s-.576-1.257-1.296-1.257c-.37 0-.699.14-.925.38l-.823-.719a1 1 0 00-.226-.877l-.823-.998c-.082-.1-.02-.279.103-.299.206-.04.452.08.823.26.637.319 1.563.757 2.674.179 1.11-.559 1.748-2.214 1.953-3.29a10.652 10.652 0 00-.205-4.19zm-3.003 10.63a.488.488 0 01.452-.319c.268 0 .473.22.473.459 0 .26-.226.459-.473.459a.471.471 0 01-.473-.46c0-.039 0-.099.02-.139z"/><path d="M15.074 1.266L14.575.4l.499.867zm1.994 0l-.499.867.499-.867zM4.003 7.634L4.5 8.5l-.498-.866zm0 16.195l.498-.866-.498.866zm11.07 6.368l.5-.867-.5.867zm1.995 0l-.499-.867.499.867zm11.07-6.368l.5.867-.5-.867zm0-16.195l-.498.866.499-.866zm-.997 1.733h1V8.79l-.5-.289-.5.867zM16.072 3l.498-.867-.498-.287-.499.287.499.867zm11.07 19.096l.5.867.5-.289v-.578h-1zm-11.07 6.367l-.499.867.499.287.498-.287-.498-.867zM5 22.096H4v.578l.501.289.499-.867zM5 9.367L4.5 8.5l-.5.29v.578h1zm9.75 1.131l-.951.308.002.009.003.008.946-.325zm2.55 0l.946.325.003-.008.003-.009-.952-.308zm.227-.698l-.946-.325-.003.008-.003.009.952.308zm-1.05-1.217h-1v1h1v-1zm0-.02l-.945-.325-.054.158v.167h1zm-.082-.339l.697-.718-.697.718zm-.123-.12l-.696.719.696-.718zm-.494 0l.696.719-.696-.718zm-.123.12l-.696-.718.696.718zm-.082.34h1v-.168l-.055-.158-.945.325zm0 .02v1h1v-1h-1zM14.523 9.8l.952-.308-.003-.009-.003-.008-.945.325zm9.154.937l.969-.247-.01-.04-.014-.038-.945.325zm-.412-.16l.437.9.144-.07.116-.112-.697-.718zm-.123.12l-.824-.567-.022.032-.019.033.865.502zm-.864 1.356l-.812-.583-.002.003.814.58zm-3.352 2.353v1h.028l-.028-1zm-.473-.1l-.404.916.01.004.01.004.384-.923zm-.638-1.156l.985.17.015-.085v-.085h-1zm.185-.598l-.824-.567-.023.034-.02.036.867.497zm.494-.42l-.437-.899.437.9zm.987-.099l-.19.982.034.007.036.004.12-.993zm.473.16l.485-.875-.485.875zm.247-.12l.993.114.004-.032.002-.033-1-.049zm-.453-1.237l-.566.825.007.004.006.005.553-.834zm-1.768.16l.45.893.007-.004.008-.004-.465-.885zm-1.317 1.097l-.764-.645-.007.008.771.637zm-.658.977l-.878.48.956 1.75.831-1.813-.91-.417zm-.658-.977l.771-.636-.007-.009-.764.645zm-1.317-1.097l-.48.877.015.008.015.008.45-.893zm-1.768-.16l-.55-.834-.003.001.553.833zm-.453 1.237l-.999.049.002.04.005.039.992-.128zm.247.12l-.485-.875.485.875zm.473-.16l.12.993.03-.004.029-.005-.179-.984zm.987.1l.437-.9-.437.9zm.494.419l.824-.567-.824.567zm.185.598h-1v.064l.008.064.992-.128zm-.638 1.157l.384.923.018-.007.018-.008-.42-.908zm-.473.1l-.028 1h.028v-1zm-3.352-2.354l.814-.58-.002-.003-.812.583zm-.864-1.356l-.946.325.032.092.049.084.865-.501zm-.124-.12l-.436.9.063.03.066.022.307-.952zm-.329.02l-.542-.84-.083.054-.07.068.695.718zm-.082.14l.965.263.035-.13v-.133h-1zm-.185 4.168l.986-.17-.001-.004-.985.174zm1.954 3.291l.45-.893-.45.893zm2.674-.18l.447.895.014-.007.013-.007-.474-.88zm.822-.259l-.19.982.027.005.026.004.137-.99zm.103.3l-.758-.652-.007.007-.006.008.771.636zm-.822.997l.726.687.024-.025.021-.026-.771-.636zm-.227.857l.654.757.444-.384-.118-.575-.98.202zm-1.13.978l-.665.747.655.582.663-.573-.654-.756zm-.248-.22l-.888-.458-.356.69.58.516.664-.748zm-.555.579l.653-.758-.474-.408-.575.247.396.919zm.555.478l.656-.755-.003-.002-.653.757zm.988.858l-.656.755.009.007.647-.762zm.575-.04l-.742-.67-.02.022-.018.022.78.626zm-.04-.558l-.66.752.028.024.03.022.601-.798zm-.638-.559l-.656-.755-.866.752.863.755.659-.752zm.987-.857l.485-.875-.613-.34-.528.46.656.755zm.514.08l-.111-.994-.05.005-.05.01.211.978zm1.543-.58l.952-.303-.369-1.156-1.064.583.48.877zm-1.066 1.72l.625.78-.625-.78zm-.333.275l-.667-.745-.013.012-.013.013.693.72zm-.04.039l.692.722.001-.001-.693-.721zm-.268.76l.78-.627-.009-.01-.771.636zm.557.276l.267-.964-.267.964zm.08.022l-.279.96.044.013.045.009.19-.982zm.309.08l-.362.932.067.026.07.017.225-.975zm1.213.539l.588-.81-.007-.004-.007-.005-.574.819zm.049.035l.588-.81-.007-.004-.581.814zm0 0l-.588.808.002.002.586-.81zm0 0l-.586.81.005.004.581-.814zm.157.124l.696-.718-.696.718zm.33 0l-.544-.84-.082.054-.071.068.696.718zm.103-.079l-.617-.788-.01.008-.008.007.635.773zm0 0l.616.787.01-.007.008-.007-.634-.773zm.102-.08l.588.808.007-.005-.595-.803zm1.213-.539l.174.985.008-.002.009-.001-.19-.982zm.309-.08l-.254-.967-.055.014-.053.021.362.932zm.045-.012l-.253-.967.253.967zm.592-.287l-.771-.636-.009.01.78.626zm-.308-.798l-.681.732.011.011.012.01.658-.753zm-.358-.302l-.63.777.63-.777zm-1.04-1.692l.48-.877-1.064-.583-.37 1.156.953.304zm1.542.578l-.148.99.02.002.02.003.108-.995zm.493-.08l.655-.755-.528-.458-.611.339.484.875zm.967.838h1v-.456l-.345-.3-.655.756zm.35-.738l-.658.754.724.632.66-.699-.726-.687zm-.823-.718l-.98-.202-.117.572.44.384.657-.754zm-.226-.877l-.772.636.01.01.008.011.754-.657zm-.823-.998l-.771.637.771-.637zm.103-.299l.16.987.015-.002.015-.003-.19-.982zm.823.26l.447-.895-.011-.005-.436.9zm2.674.179l-.45-.893-.006.003-.006.003.462.887zm1.953-3.29l.983.187.004-.021.003-.021-.99-.146zm-3.208 6.441l.889.459.033-.065.023-.069-.945-.325zM15.572 2.133a1 1 0 01.997 0l.998-1.734a3 3 0 00-2.992 0l.997 1.734zM4.502 8.5l11.07-6.367-.997-1.734-11.07 6.368L4.5 8.5zM4 9.367a1 1 0 01.5-.867l-.997-1.733A3 3 0 002 9.367h2zm0 12.729V9.367H2v12.729h2zm.501.867A1 1 0 014 22.096H2a3 3 0 001.504 2.6l.997-1.733zm11.071 6.367l-11.07-6.367-.998 1.733 11.071 6.368.997-1.734zm.997 0a1 1 0 01-.997 0l-.997 1.734a3 3 0 002.992 0l-.998-1.734zm11.071-6.367L16.57 29.33l.997 1.734 11.07-6.368-.997-1.733zm.502-.867a1 1 0 01-.502.867l.997 1.733a3 3 0 001.505-2.6h-2zm0-12.729v12.729h2V9.367h-2zM27.64 8.5a1 1 0 01.502.867h2a3 3 0 00-1.505-2.6L27.64 8.5zM16.57 2.133L27.64 8.5l.997-1.733L17.567.399l-.998 1.734zM27.64 8.5L16.57 2.133l-.998 1.734 11.07 6.367.998-1.734zm.502 13.596V9.367h-2v12.729h2zM16.569 29.33l11.071-6.367-.997-1.734-11.07 6.367.996 1.734zM4.501 22.963l11.071 6.367.997-1.734L5.5 21.23l-1 1.733zM4 9.367v12.729h2V9.367H4zm11.572-7.234L4.502 8.5l.997 1.734 11.07-6.367-.997-1.734zm-.102 7.864a.25.25 0 01.226.176l-1.892.65c.25.725.933 1.174 1.666 1.174v-2zm1.11 0h-1.11v2h1.11v-2zm-.225.176a.25.25 0 01.226-.176v2c.732 0 1.416-.45 1.665-1.174l-1.891-.65zm.22-.681l-.226.698 1.903.616.226-.698-1.903-.616zm.047.091c.005 0 .001.001-.007-.003a.06.06 0 01-.02-.018.091.091 0 01-.017-.04.1.1 0 01.003-.047l1.891.65c.442-1.284-.545-2.542-1.85-2.542v2zm-.144 0h.144v-2h-.144v2zm-1-1.02v.02h2v-.02h-2zm.221.38a.668.668 0 01-.167-.705l1.891.65a1.337 1.337 0 00-.331-1.382l-1.393 1.436zm-.123-.12l.123.12 1.393-1.437-.124-.12-1.392 1.437zm.898 0a.647.647 0 01-.449.177.647.647 0 01-.45-.177l1.393-1.436a1.343 1.343 0 00-1.886 0l1.392 1.436zm-.123.12l.123-.12-1.392-1.436-.123.12 1.392 1.435zm.167-.705c.03.088.051.217.018.367a.678.678 0 01-.185.337L14.96 7.506a1.307 1.307 0 00-.332 1.383l1.891-.65zm.055.345v-.02h-2v.02h2zm-1.144 1h.144v-2h-.144v2zm.04-.108a.103.103 0 01-.013.087.06.06 0 01-.02.018c-.009.004-.013.003-.007.003v-2c-1.306 0-2.293 1.258-1.851 2.542l1.891-.65zm.232.715l-.226-.698-1.902.616.226.698 1.902-.616zm7.197 1.125a.73.73 0 01-.167-.253l1.891-.65a1.314 1.314 0 00-.331-.533l-1.393 1.436zm.532.222a.765.765 0 01-.532-.222l1.393-1.436a1.236 1.236 0 00-.861-.342v2zm.532-.242a.864.864 0 01-.448.232c-.074.013-.134.01-.084.01v-2c-.011 0-.133-.003-.264.02a1.136 1.136 0 00-.597.302l1.393 1.436zm.004-.032a.52.52 0 01-.066.077.76.76 0 01-.198.137l-.873-1.8a1.334 1.334 0 00-.511.453l1.648 1.133zm-.875 1.373c.357-.498.725-1.109.916-1.438l-1.73-1.003c-.18.31-.51.855-.811 1.275l1.625 1.166zm-4.137 2.77c1.912-.054 3.152-1.388 4.138-2.773l-1.628-1.16c-.947 1.328-1.682 1.909-2.567 1.934l.057 2zm-.885-.176c.24.1.536.176.857.176v-2c-.003 0-.013 0-.03-.004a.35.35 0 01-.06-.019l-.767 1.847zm-1.24-2.25c-.163.952.368 1.866 1.22 2.242l.807-1.83a.1.1 0 01-.048-.043c-.01-.017-.008-.027-.008-.03l-1.97-.338zm.303-.925c-.14.246-.317.624-.317 1.095h2c0 .017-.004.02.002.004a.62.62 0 01.05-.105l-1.735-.994zm.925-.822a2.246 2.246 0 00-.881.752l1.648 1.133a.248.248 0 01.106-.085l-.873-1.8zm1.614-.182c-.457-.088-1.08-.077-1.614.182l.873 1.8a.451.451 0 01.136-.029.848.848 0 01.225.01l.38-1.963zm.768.267a2.32 2.32 0 00-.838-.278l-.24 1.986a.349.349 0 01.108.041l.97-1.749zm-1.232.641a.692.692 0 01.071-.225.9.9 0 01.998-.475c.098.022.157.056.163.059l-.97 1.75c.078.042.201.103.356.14.158.036.413.06.69-.057.587-.25.664-.835.68-.964l-1.988-.228zm-.012-.29c-.063-.041-.05-.074-.025.011.026.085.039.21.032.344l1.998.098a3.073 3.073 0 00-.113-1.013c-.108-.363-.332-.805-.786-1.106l-1.106 1.667zm-.75.212a1.97 1.97 0 01.573-.201c.197-.031.216.016.164-.02l1.133-1.648c-.546-.375-1.165-.377-1.606-.308a3.96 3.96 0 00-1.195.407l.93 1.77zm-1.018.857c.322-.38.652-.672 1.003-.85l-.9-1.785c-.678.342-1.212.848-1.631 1.345l1.528 1.29zm-.513.749c.106-.231.278-.464.52-.758l-1.542-1.272c-.252.304-.573.71-.796 1.197l1.818.833zm-2.339-.758c.204.247.395.533.552.82l1.756-.958a7.314 7.314 0 00-.765-1.134l-1.543 1.272zm-.995-.84c.35.177.681.468 1.002.849l1.53-1.29c-.42-.497-.954-1.003-1.631-1.345l-.9 1.786zm-.768-.218c-.032.022.004-.021.195.009.18.028.383.105.543.193l.961-1.754a3.77 3.77 0 00-1.195-.415c-.447-.07-1.058-.063-1.605.298l1.101 1.67zm-.004.353a1.088 1.088 0 01.031-.344c.026-.085.038-.052-.024-.01l-1.106-1.667c-.454.301-.678.743-.786 1.106a3.073 3.073 0 00-.113 1.013l1.998-.098zm-1.237-.706a.693.693 0 01.215-.073.884.884 0 01.537.078c.435.211.477.619.478.622l-1.984.256c.021.163.115.67.633.921.504.245.954.02 1.09-.055l-.969-1.749zm.838-.278a2.321 2.321 0 00-.838.278l.97 1.75a.348.348 0 01.108-.042l-.24-1.986zm1.543.193c-.534-.26-1.135-.269-1.602-.184l.358 1.968a.705.705 0 01.372.016l.873-1.8zm.882.752a2.246 2.246 0 00-.881-.752l-.873 1.8a.248.248 0 01.106.085l1.648-1.133zm.361 1.165c0-.39-.117-.81-.361-1.165l-1.648 1.133v.002a.093.093 0 01.008.026l.001.004h2zm-1.218 2.065a2.132 2.132 0 001.21-2.193l-1.984.256a.121.121 0 01-.017.07.116.116 0 01-.048.05l.839 1.817zm-.893.191c.32 0 .616-.076.857-.176l-.767-1.847a.349.349 0 01-.09.024v2zm-4.167-2.773c.987 1.385 2.226 2.719 4.139 2.773l.057-2c-.885-.024-1.62-.605-2.567-1.933l-1.629 1.16zM8.003 11.2c.19.328.56.94.916 1.437l1.625-1.166a17.44 17.44 0 01-.811-1.275l-1.73 1.003zm.434.33a.815.815 0 01-.515-.507l1.892-.65a1.182 1.182 0 00-.762-.746l-.615 1.903zm.143.008a.649.649 0 01-.272-.06l.873-1.8a1.396 1.396 0 00-.601-.14v2zm.378-.1c.019-.012-.026.02-.099.048a.782.782 0 01-.279.052v-2c-.353 0-.595.147-.707.22l1.085 1.68zm.375-.7c0 .221-.082.39-.15.489-.051.074-.107.123-.071.089L7.719 9.879c-.005.006-.102.095-.184.214a1.133 1.133 0 00-.202.644h2zm-.2 3.994A8.504 8.504 0 019.298 11l-1.93-.527a10.502 10.502 0 00-.205 4.606l1.97-.348zm1.418 2.572c-.288-.146-.606-.49-.889-1.025a5.467 5.467 0 01-.528-1.542l-1.972.338a7.46 7.46 0 00.732 2.138c.37.702.937 1.464 1.759 1.878l.898-1.787zm1.777-.18c-.611.305-1.132.504-1.777.18l-.898 1.787c1.576.792 2.907.153 3.57-.18l-.895-1.788zm1.46-.347a1.675 1.675 0 00-.857.073 4.15 4.15 0 00-.63.287l.95 1.76c.083-.044.15-.078.205-.104.056-.027.091-.04.111-.047.044-.015-.029.02-.159-.006l.38-1.963zm.672 1.932a1.174 1.174 0 00-.724-1.942l-.275 1.982a.827.827 0 01-.518-1.343l1.517 1.303zm-.81.982l.823-.997-1.543-1.273-.823.997 1.543 1.273zm-.018.02c-.004-.018 0-.022-.003-.012a.097.097 0 01-.024.043l-1.453-1.374a1.948 1.948 0 00-.479 1.746l1.959-.404zm-1.457 1.935l1.131-.977L12 19.155l-1.132.977 1.308 1.513zm-1.565-.228l.247.219 1.329-1.495-.247-.22-1.329 1.496zm-.212-1.286a.286.286 0 01-.007.059c-.005.022-.01.029-.005.02l1.777.918c.167-.324.235-.685.235-.997h-2zm.588.6a.594.594 0 01-.588-.6h2c0-.8-.662-1.4-1.412-1.4v2zm.589-.6a.594.594 0 01-.589.6v-2c-.749 0-1.411.6-1.411 1.4h2zm-1.473 1.458c.741 0 1.473-.59 1.473-1.458h-2c0-.173.078-.314.17-.402a.517.517 0 01.357-.14v2zm.589-.6a.594.594 0 01-.589.6v-2c-.75 0-1.411.599-1.411 1.4h2zm-.589-.602c.297 0 .589.24.589.601h-2c0 .8.662 1.4 1.411 1.4v-2zm.221-.058a.57.57 0 01-.221.058v2c.405 0 .75-.108 1.013-.221l-.792-1.837zm1.604.64l-.555-.479-1.306 1.515.555.479 1.306-1.515zm.99.86l-.987-.858-1.312 1.51.988.858 1.311-1.51zm-.86.09a.623.623 0 01.453-.234.57.57 0 01.399.136l-1.294 1.525c.521.443 1.45.513 2.003-.176l-1.56-1.252zm.137.865a.621.621 0 01-.099-.91l1.485 1.34c.476-.528.542-1.481-.181-2.027l-1.205 1.597zm-.694-.605l.637.559 1.318-1.505-.637-.558L11.5 22.18zm.99-2.364l-.987.857 1.312 1.51.987-.858-1.312-1.51zm.96-.143a.282.282 0 01.106-.003.223.223 0 01.075.026l-.97 1.75c.327.18.758.28 1.21.182l-.421-1.955zm1.272-.478c-.468.257-.851.425-1.173.462l.222 1.987c.748-.084 1.434-.433 1.912-.695l-.96-1.754zm.04 3.376c.26-.208.68-.54.99-.936.32-.41.657-1.073.403-1.867l-1.905.608c-.034-.106.052-.134-.076.03-.138.178-.36.362-.663.605l1.251 1.56zm-.29.24c.07-.063.162-.137.29-.24l-1.25-1.56a8.886 8.886 0 00-.375.31l1.334 1.49zm-.015.015l.04-.039-1.386-1.441-.04.038 1.386 1.442zm-.19-.598a.665.665 0 01.079.7c-.019.034-.028.039-.002.01.025-.027.056-.058.112-.11l-1.384-1.445c-.075.072-.327.301-.487.596a1.336 1.336 0 00.139 1.522l1.543-1.273zm.053-.051a3.496 3.496 0 01-.176-.054c-.008-.004.003 0 .025.015a.496.496 0 01.107.1l-1.56 1.252c.207.259.465.395.636.47.173.074.348.12.434.144l.534-1.927zm.093.026l-.093-.026-.534 1.927.068.02.559-1.92zm.39.108c-.199-.077-.388-.112-.48-.13l-.38 1.964c.055.01.084.017.109.023l.028.007.723-1.864zm1.426.652a4.472 4.472 0 00-1.562-.694l-.45 1.948c.31.072.603.2.865.384l1.147-1.639zm.056.04l-.042-.03-1.176 1.617c.021.016.04.03.056.04l1.162-1.627zm.007.005l-1.176 1.617 1.176-1.617zm-.002-.002l-1.172 1.621 1.172-1.62zm.267.217c-.11-.107-.22-.183-.272-.22l-1.162 1.628a4.747 4.747 0 01.051.037l-.01-.009 1.393-1.436zM16.026 23c.128 0 .34.038.531.222l-1.392 1.436c.272.264.609.342.86.342v-2zm-.532.222a.764.764 0 01.532-.222v2c.251 0 .588-.078.86-.342l-1.392-1.436zm.165-.134l-.022.018a.32.32 0 01-.01.009l.002-.002a.315.315 0 01.018-.013l1.086 1.68c.09-.059.17-.125.195-.146l-1.27-1.546zm.018-.015l1.233 1.575-1.233-1.575zm.13-.101a2.79 2.79 0 00-.148.116l1.27 1.546.055-.045-1.176-1.617zm1.629-.715a3.892 3.892 0 00-1.636.72l1.191 1.607c.248-.184.518-.309.792-.357l-.347-1.97zm.12-.027a2.41 2.41 0 01-.137.03l.38 1.964c.092-.018.281-.052.48-.13l-.723-1.864zm.153-.047l-.045.012.508 1.935.045-.012-.508-1.935zm.066.055a.46.46 0 01.102-.096c.022-.015.034-.019.025-.015a4.094 4.094 0 01-.192.056l.506 1.935c.095-.025.28-.071.461-.148a1.65 1.65 0 00.658-.481l-1.56-1.252zm-.186.58c.05.043.082.073.109.1.028.03.025.033.011.01a.564.564 0 01-.069-.273.664.664 0 01.144-.428l1.543 1.273c.203-.247.319-.551.313-.88a1.445 1.445 0 00-.208-.708c-.176-.3-.439-.523-.528-.6l-1.315 1.507zm-.33-.278c.141.114.236.192.306.257l1.363-1.464c-.13-.121-.284-.245-.41-.347l-1.26 1.554zm-1.363-2.773c-.25.784.08 1.44.393 1.846.303.393.715.72.97.927l1.26-1.554c-.298-.24-.513-.421-.646-.594-.123-.16-.037-.127-.072-.017l-1.905-.608zm2.642-.107c-.36-.053-.771-.226-1.21-.466l-.96 1.754c.508.279 1.166.584 1.875.69l.295-1.978zm-.138.035a.318.318 0 01.103-.037c.021-.003.022 0-.005-.003l-.214 1.988a1.8 1.8 0 001.085-.199l-.97-1.75zm2.106.956l-.967-.837-1.31 1.511.967.838 1.31-1.512zm.314 1.028l.015-.078c.005-.034.016-.106.016-.194h-2a.825.825 0 01.01-.128c.002-.012.004-.02 0-.004l1.96.404zm.01-.132a.824.824 0 01-.01.127c-.001.013-.003.022 0 .005l-1.959-.404-.014.078a1.203 1.203 0 00-.016.194h2zm.296.256c-.197 0-.295-.14-.295-.256h-2c0 1.279 1.052 2.256 2.295 2.256v-2zm.296-.256c0 .117-.099.256-.296.256v2c1.243 0 2.296-.977 2.296-2.256h-2zm-.296-.257c.197 0 .296.14.296.257h2c0-1.28-1.053-2.257-2.296-2.257v2zm-.199.066c.023-.024.082-.066.2-.066v-2a2.26 2.26 0 00-1.653.692l1.453 1.374zm-2.206-.651l.822.718 1.315-1.507-.822-.718-1.316 1.507zm-.323-.974c.005.005.005.007.005.005a.022.022 0 01-.002-.005c-.001-.003.001.002-.002.018l1.959.404a2.002 2.002 0 00-.453-1.737l-1.507 1.315zm-.84-1.018l.822.997 1.543-1.273-.822-.997-1.543 1.273zm.714-1.923a1.17 1.17 0 00-.914.782c-.105.303-.115.76.2 1.14L19.1 17.44a.814.814 0 01.148.782.83.83 0 01-.657.542l-.32-1.974zm1.419.347c-.168-.082-.378-.185-.575-.255-.2-.07-.514-.156-.874-.087l.38 1.964a.52.52 0 01-.17.006c-.028-.004-.032-.008-.004.002.027.01.07.027.135.057.066.03.14.066.235.112l.873-1.8zm1.776.192c-.633.33-1.135.128-1.765-.187l-.895 1.789c.646.323 1.994 1 3.583.172l-.923-1.774zm1.433-2.591a5.926 5.926 0 01-.541 1.563c-.281.537-.594.878-.88 1.022l.899 1.786c.825-.414 1.386-1.18 1.753-1.88a7.925 7.925 0 00.734-2.116l-1.965-.375zm-.192-3.755a9.653 9.653 0 01.185 3.796l1.979.292a11.653 11.653 0 00-.226-4.58l-1.939.492zm-1.582 9.065c-.639 0-1.2.417-1.398.994l1.891.65a.519.519 0 01-.493.356v-2zm1.473 1.459a1.47 1.47 0 00-1.473-1.459v2a.53.53 0 01-.527-.541h2zm-1.473 1.459c.741 0 1.473-.591 1.473-1.46h-2a.55.55 0 01.171-.4.516.516 0 01.356-.14v2zm-1.473-1.46c0 .793.655 1.46 1.473 1.46v-2a.53.53 0 01.527.54h-2zm.132-.597a1.196 1.196 0 00-.124.425c-.009.084-.008.159-.008.173h2c0-.026.001-.001-.002.033a.85.85 0 01-.088.286l-1.778-.917z" mask="url(#a)"/></g></svg>