<svg width="32" height="32" fill="none" xmlns="http://www.w3.org/2000/svg"><g stroke="#fff"><path d="M6 2.583V29.5l9.286-.083H24.5V2.583H6z" stroke-width="2"/><path d="M9 24.75h12.571M8.714 12.938H21.77m-.092 0c0 3.708-2.94 6.687-6.535 6.687s-6.536-2.98-6.536-6.688c0-3.708 2.94-6.687 6.536-6.687 3.595 0 6.535 2.98 6.535 6.688z" stroke-width="1.5"/><path d="M15.143 6.375V19.5m-.857-12.688s-3 1.75-3 6.125c0 4.376 3 6.126 3 6.126m1.285.437S19 17.114 19 12.937c0-4.176-3.429-6.562-3.429-6.562" stroke-width="1.5"/></g></svg>