<svg width="24" height="24" fill="none" xmlns="http://www.w3.org/2000/svg"><path d="M10.637 15.923l-2.04 2.037a.928.928 0 01-.133.111l-.023.014a.716.716 0 01-.064.038c-.026.014-.053.026-.08.038a.02.02 0 00-.008.003c-.026.01-.052.018-.076.026-.03.01-.058.015-.087.021a.94.94 0 01-.434-.021 1.125 1.125 0 01-.085-.029 1.278 1.278 0 01-.143-.076.792.792 0 01-.157-.125h-.001l-2.038-2.037a.912.912 0 111.29-1.292l.481.48V6.914a.913.913 0 111.826 0v8.197l.48-.48a.915.915 0 011.292 1.293zm7.45-8.097h-5.443a.913.913 0 010-1.826h5.443a.913.913 0 010 1.826zm-1.089 3.431h-4.354a.913.913 0 010-1.826h4.354a.913.913 0 010 1.826zm-1.088 3.431h-3.266a.913.913 0 010-1.826h3.266a.913.913 0 010 1.826zm-1.089 3.431h-2.177a.913.913 0 010-1.826h2.177a.913.913 0 010 1.826z" fill="gray"/></svg>