<svg width="27" height="30" viewBox="0 0 27 30" fill="none" xmlns="http://www.w3.org/2000/svg">
<path d="M20 20.25V20.6642L20.2929 20.9571L23 23.6642V23.75H1V23.6642L3.70711 20.9571L4 20.6642V20.25V12.75C4 8.47874 6.22937 5.13184 9.98055 4.24306L10.75 4.06075V3.27V2.25C10.75 1.55728 11.3073 1 12 1C12.6927 1 13.25 1.55728 13.25 2.25V3.27V4.06011L14.0187 4.24288C17.7562 5.13153 20 8.49463 20 12.75V20.25ZM13.7292 27.25C13.3814 27.8461 12.7344 28.25 12 28.25C11.2571 28.25 10.6124 27.8469 10.2674 27.25H13.7292Z" stroke="white" stroke-width="2"/>
<circle cx="21" cy="9.25" r="6" fill="#FFC632"/>
</svg>
