<svg width="32" height="32" viewBox="0 0 32 32" fill="none" xmlns="http://www.w3.org/2000/svg">
<path d="M6 2.58325V29.4999L15.2857 29.4166H24.5V15.9999V2.58325H14.2063H6Z" stroke="#023DA2" stroke-width="2"/>
<path d="M9 24.75H21.5714" stroke="#023DA2" stroke-width="1.5"/>
<path d="M8.71436 12.9375H21.7693" stroke="#023DA2" stroke-width="1.5"/>
<path d="M21.6786 12.9375C21.6786 16.6456 18.738 19.625 15.1429 19.625C11.5478 19.625 8.60718 16.6456 8.60718 12.9375C8.60718 9.22944 11.5478 6.25 15.1429 6.25C18.738 6.25 21.6786 9.22944 21.6786 12.9375Z" stroke="#023DA2" stroke-width="1.5"/>
<path d="M15.1428 6.375V12.9375V19.5M14.2856 6.8125C14.2856 6.8125 11.2856 8.5625 11.2856 12.9375C11.2856 17.3125 14.2856 19.0625 14.2856 19.0625" stroke="#023DA2" stroke-width="1.5"/>
<path d="M15.5713 19.5C15.5713 19.5 18.9999 17.1136 18.9999 12.9375C18.9999 8.76136 15.5713 6.375 15.5713 6.375" stroke="#023DA2" stroke-width="1.5"/>
</svg>
