<svg width="32" height="32" viewBox="0 0 32 32" fill="none" xmlns="http://www.w3.org/2000/svg">
<g opacity="">
<path d="M6 2.58325V29.4999L15.2857 29.4166H24.5V15.9999V2.58325H14.2063H6Z" stroke="white" stroke-width="2"/>
<path d="M9 24.75H21.5714" stroke="white" stroke-width="1.5"/>
<path d="M8.71429 12.9375H21.7693" stroke="white" stroke-width="1.5"/>
<path d="M21.6785 12.9375C21.6785 16.6456 18.7379 19.625 15.1428 19.625C11.5478 19.625 8.60712 16.6456 8.60712 12.9375C8.60712 9.22944 11.5478 6.25 15.1428 6.25C18.7379 6.25 21.6785 9.22944 21.6785 12.9375Z" stroke="white" stroke-width="1.5"/>
<path d="M15.1428 6.375V12.9375V19.5M14.2857 6.8125C14.2857 6.8125 11.2857 8.5625 11.2857 12.9375C11.2857 17.3125 14.2857 19.0625 14.2857 19.0625" stroke="white" stroke-width="1.5"/>
<path d="M15.5714 19.5C15.5714 19.5 19 17.1136 19 12.9375C19 8.76136 15.5714 6.375 15.5714 6.375" stroke="white" stroke-width="1.5"/>
</g>
</svg>
