<svg width="32" height="32" viewBox="0 0 32 32" fill="none" xmlns="http://www.w3.org/2000/svg">
<path fill-rule="evenodd" clip-rule="evenodd" d="M17.0679 1.26607C16.4506 0.910986 15.691 0.910986 15.0736 1.26607L4.00285 7.63357C3.38244 7.99041 3 8.65156 3 9.36726V22.0957C3 22.8114 3.38244 23.4726 4.00285 23.8294L15.0736 30.1969C15.691 30.552 16.4506 30.552 17.0679 30.1969L28.1387 23.8294C28.7591 23.4726 29.1416 22.8114 29.1416 22.0957V9.36726C29.1416 8.65156 28.7591 7.99041 28.1387 7.63357L17.0679 1.26607ZM16.0708 2.99976L27.1416 9.36726V22.0957L16.0708 28.4632L5 22.0957V9.36726L16.0708 2.99976ZM14.75 10.4981C14.8529 10.7973 15.1408 10.9967 15.4699 10.9967H16.5806C16.9097 10.9967 17.1976 10.7973 17.3005 10.4981L17.5267 9.80002C17.7324 9.20168 17.2799 8.58339 16.6217 8.58339H16.4777V8.56344C16.5189 8.44377 16.4777 8.30416 16.3955 8.22438L16.2721 8.10471C16.1281 7.9651 15.9224 7.9651 15.7784 8.10471L15.655 8.22438C15.5522 8.3241 15.5316 8.44377 15.5728 8.56344V8.58339H15.4288C14.7706 8.58339 14.3181 9.20168 14.5238 9.80002L14.75 10.4981ZM23.6768 10.7367C23.6562 10.6768 23.6357 10.6369 23.5945 10.5971C23.5534 10.5572 23.4917 10.5372 23.43 10.5372C23.3683 10.5372 23.3066 10.5372 23.2654 10.5771C23.2243 10.5971 23.1832 10.6369 23.142 10.6968C22.9569 11.0159 22.6073 11.5943 22.2782 12.053C21.3115 13.4093 20.3242 14.3666 18.9256 14.4065C18.7611 14.4065 18.5965 14.3666 18.4526 14.3068C18.0001 14.1074 17.7327 13.6287 17.815 13.15C17.815 12.9306 17.8972 12.7312 18.0001 12.5517C18.1235 12.3722 18.288 12.2325 18.4937 12.1328C18.7817 11.9932 19.1724 11.9733 19.481 12.0331C19.6455 12.053 19.8101 12.1129 19.954 12.1926C20.098 12.2724 20.1803 12.2525 20.2008 12.073C20.2214 11.6541 20.1391 11.0957 19.7483 10.8364C19.2547 10.4973 18.4731 10.7367 17.9795 10.996C17.4653 11.2552 17.0334 11.6541 16.6632 12.0929C16.4164 12.3921 16.1695 12.7112 16.005 13.0702C15.8199 12.7312 15.5936 12.3921 15.3468 12.0929C14.9766 11.6541 14.5447 11.2552 14.0305 10.996C13.5574 10.7367 12.7759 10.4973 12.2617 10.8364C11.8709 11.0957 11.7886 11.6541 11.8092 12.073C11.8297 12.2325 11.912 12.2724 12.056 12.1926C12.2 12.1129 12.3645 12.053 12.529 12.0331C12.8581 11.9733 13.2283 11.9932 13.5163 12.1328C13.722 12.2325 13.8865 12.3722 14.0099 12.5517C14.1333 12.7312 14.195 12.9506 14.195 13.15C14.2567 13.6287 13.9894 14.1074 13.5574 14.3068C13.4135 14.3666 13.2489 14.4065 13.0844 14.4065C11.6858 14.3666 10.6985 13.4093 9.73181 12.053C9.40273 11.5943 9.05307 11.0159 8.86796 10.6968C8.84739 10.6369 8.80626 10.5971 8.74456 10.5771C8.70342 10.5572 8.64172 10.5372 8.58001 10.5372C8.51831 10.5372 8.47717 10.5572 8.41547 10.5971C8.37433 10.6369 8.3332 10.6768 8.3332 10.7367C7.96298 12.0929 7.90127 13.509 8.14809 14.9051C8.3332 15.9822 8.99137 17.6376 10.102 18.196C11.2127 18.7545 12.1382 18.3357 12.7759 18.0165C13.1461 17.8171 13.3929 17.7174 13.5986 17.7573C13.7425 17.7772 13.8042 17.9368 13.7014 18.0564L12.8787 19.0537C12.6524 19.293 12.5907 19.6121 12.6524 19.9113L11.5212 20.8886L11.2744 20.6692C11.3567 20.5097 11.3978 20.3102 11.3978 20.1307C11.3978 19.9113 11.2127 19.7318 10.9865 19.7318C10.7602 19.7318 10.5751 19.9113 10.5751 20.1307C10.5751 20.39 10.3488 20.5894 10.102 20.5894C9.87579 20.5894 9.69068 20.7689 9.69068 20.9883C9.69068 21.2077 9.87579 21.3872 10.102 21.3872C10.3283 21.3872 10.534 21.3274 10.7191 21.2476L11.2744 21.7263L12.2617 22.5839C12.4262 22.7235 12.6936 22.7235 12.8376 22.544C12.9815 22.3845 12.9815 22.1252 12.7964 21.9856L12.1588 21.4271L13.1461 20.5695C13.29 20.6493 13.4752 20.6892 13.6603 20.6493C14.195 20.5894 14.7298 20.3301 15.2029 20.0709C15.4224 20.7588 14.6987 21.3391 14.1368 21.7898C14.0145 21.8878 13.8998 21.9798 13.8042 22.0653L13.7641 22.104C13.5571 22.3023 13.2644 22.5827 13.4957 22.8631C13.6217 23.0202 13.8579 23.0857 14.0528 23.1396C14.0806 23.1474 14.1076 23.1548 14.1333 23.1623C14.2362 23.1823 14.339 23.2022 14.4418 23.2421C14.8738 23.3418 15.2851 23.5213 15.6553 23.7806C15.6724 23.793 15.6886 23.8046 15.7041 23.8156L15.7041 23.8157L15.7044 23.8158C15.7634 23.858 15.8122 23.8928 15.861 23.9402C15.9022 23.9801 15.9639 24 16.0256 24C16.0873 24 16.149 23.9801 16.1901 23.9402C16.2235 23.9186 16.2569 23.8911 16.2936 23.861L16.2937 23.861C16.3247 23.8355 16.3581 23.808 16.3958 23.7806C16.7454 23.5213 17.1568 23.3219 17.6093 23.2421C17.7121 23.2222 17.815 23.2022 17.9178 23.1623L17.9632 23.1504C18.1789 23.094 18.421 23.0308 18.5554 22.8631C18.8022 22.564 18.4526 22.2449 18.2469 22.0653C18.1466 21.972 18.0221 21.871 17.8885 21.7628C17.3374 21.3161 16.633 20.7452 16.8483 20.0709C17.3213 20.3301 17.8561 20.5695 18.3909 20.6493C18.576 20.6692 18.7405 20.6493 18.8845 20.5695L19.8512 21.4072C19.8512 21.4271 19.846 21.452 19.8409 21.477C19.8358 21.5019 19.8306 21.5268 19.8306 21.5468C19.8306 22.2449 20.4065 22.8033 21.1264 22.8033C21.8463 22.8033 22.4222 22.2449 22.4222 21.5468C22.4222 20.8487 21.8463 20.2903 21.1264 20.2903C20.7562 20.2903 20.4271 20.4299 20.2008 20.6692L19.3781 19.9512C19.4398 19.652 19.3781 19.3329 19.1519 19.0736L18.3292 18.0764C18.2469 17.9767 18.3086 17.7971 18.432 17.7772C18.6377 17.7373 18.8845 17.857 19.2547 18.0365C19.8923 18.3556 20.8179 18.7944 21.9285 18.216C23.0392 17.6575 23.6768 16.0021 23.8825 14.9251C24.0882 13.529 24.0265 12.1129 23.6768 10.7367ZM20.6739 21.3673C20.7356 21.1878 20.9207 21.0482 21.1264 21.0482C21.3938 21.0482 21.5995 21.2676 21.5995 21.5069C21.5995 21.7662 21.3732 21.9656 21.1264 21.9656C20.859 21.9656 20.6533 21.7462 20.6533 21.5069C20.6533 21.467 20.6533 21.4072 20.6739 21.3673Z" fill="#023DA2"/>
</svg>
