<svg width="32" height="32" viewBox="0 0 32 32" fill="none" xmlns="http://www.w3.org/2000/svg">
<path d="M9.73413 3V24.8936" stroke="#023DA2" stroke-width="2"/>
<path d="M18.5957 14.8851C18.5957 17.3917 21.9073 21.7659 21.9073 21.7659C21.9073 21.7659 24.851 17.5957 24.851 14.8851C24.851 12.1744 23.5632 10.2979 21.7234 10.2979C19.8836 10.2978 18.5957 12.3784 18.5957 14.8851Z" stroke="#023DA2" stroke-width="1.7"/>
<path d="M22.766 14.4681C22.766 15.0439 22.2992 15.5106 21.7235 15.5106C21.1477 15.5106 20.6809 15.0439 20.6809 14.4681C20.6809 13.8923 21.1477 13.4255 21.7235 13.4255C22.2992 13.4255 22.766 13.8923 22.766 14.4681Z" fill="#023DA2"/>
<path d="M4 26.9787V6.12766L9.73404 3L15.4681 6.12766V27.0458L9.73404 24.8936L4 26.9787Z" stroke="#023DA2" stroke-width="2"/>
<path d="M15.468 6.12769H29.0212" stroke="#023DA2" stroke-width="2"/>
<path d="M27.9788 5.08521V15.5107V27.5001H21.7235H16.5107" stroke="#023DA2" stroke-width="2"/>
</svg>
