<svg width="32" height="32" viewBox="0 0 32 32" fill="none" xmlns="http://www.w3.org/2000/svg">
<g opacity="">
<mask id="path-2-inside-1" fill="white">
<path fill-rule="evenodd" clip-rule="evenodd" d="M17.0679 1.26607C16.4505 0.910986 15.6909 0.910986 15.0736 1.26607L4.00278 7.63357C3.38238 7.99041 2.99994 8.65156 2.99994 9.36726V22.0957C2.99994 22.8114 3.38238 23.4726 4.00278 23.8294L15.0736 30.1969C15.6909 30.552 16.4505 30.552 17.0679 30.1969L28.1387 23.8294C28.7591 23.4726 29.1415 22.8114 29.1415 22.0957V9.36726C29.1415 8.65156 28.7591 7.99041 28.1387 7.63357L17.0679 1.26607ZM16.0707 2.99976L27.1415 9.36726V22.0957L16.0707 28.4632L4.99994 22.0957V9.36726L16.0707 2.99976ZM14.75 10.4981C14.8528 10.7973 15.1408 10.9967 15.4699 10.9967H16.5805C16.9096 10.9967 17.1976 10.7973 17.3004 10.4981L17.5266 9.80002C17.7323 9.20168 17.2798 8.58339 16.6217 8.58339H16.4777V8.56344C16.5188 8.44377 16.4777 8.30416 16.3954 8.22438L16.272 8.10471C16.128 7.9651 15.9223 7.9651 15.7784 8.10471L15.655 8.22438C15.5521 8.3241 15.5316 8.44377 15.5727 8.56344V8.58339H15.4287C14.7705 8.58339 14.3181 9.20168 14.5237 9.80002L14.75 10.4981ZM23.6767 10.7367C23.6562 10.6768 23.6356 10.6369 23.5945 10.5971C23.5533 10.5572 23.4916 10.5372 23.4299 10.5372C23.3682 10.5372 23.3065 10.5372 23.2654 10.5771C23.2243 10.5971 23.1831 10.6369 23.142 10.6968C22.9569 11.0159 22.6072 11.5943 22.2781 12.053C21.3114 13.4093 20.3242 14.3666 18.9256 14.4065C18.761 14.4065 18.5965 14.3666 18.4525 14.3068C18 14.1074 17.7326 13.6287 17.8149 13.15C17.8149 12.9306 17.8972 12.7312 18 12.5517C18.1234 12.3722 18.288 12.2325 18.4936 12.1328C18.7816 11.9932 19.1724 11.9733 19.4809 12.0331C19.6454 12.053 19.81 12.1129 19.954 12.1926C20.0979 12.2724 20.1802 12.2525 20.2008 12.073C20.2213 11.6541 20.1391 11.0957 19.7483 10.8364C19.2547 10.4973 18.4731 10.7367 17.9795 10.996C17.4653 11.2552 17.0333 11.6541 16.6631 12.0929C16.4163 12.3921 16.1695 12.7112 16.0049 13.0702C15.8198 12.7312 15.5936 12.3921 15.3468 12.0929C14.9765 11.6541 14.5446 11.2552 14.0304 10.996C13.5574 10.7367 12.7758 10.4973 12.2616 10.8364C11.8708 11.0957 11.7885 11.6541 11.8091 12.073C11.8297 12.2325 11.9119 12.2724 12.0559 12.1926C12.1999 12.1129 12.3644 12.053 12.529 12.0331C12.8581 11.9733 13.2283 11.9932 13.5162 12.1328C13.7219 12.2325 13.8865 12.3722 14.0099 12.5517C14.1333 12.7312 14.195 12.9506 14.195 13.15C14.2567 13.6287 13.9893 14.1074 13.5574 14.3068C13.4134 14.3666 13.2489 14.4065 13.0843 14.4065C11.6857 14.3666 10.6984 13.4093 9.73175 12.053C9.40267 11.5943 9.05301 11.0159 8.8679 10.6968C8.84733 10.6369 8.8062 10.5971 8.74449 10.5771C8.70336 10.5572 8.64166 10.5372 8.57995 10.5372C8.51825 10.5372 8.47711 10.5572 8.41541 10.5971C8.37427 10.6369 8.33314 10.6768 8.33314 10.7367C7.96292 12.0929 7.90121 13.509 8.14803 14.9051C8.33314 15.9822 8.99131 17.6376 10.102 18.196C11.2126 18.7545 12.1382 18.3357 12.7758 18.0165C13.146 17.8171 13.3928 17.7174 13.5985 17.7573C13.7425 17.7772 13.8042 17.9368 13.7013 18.0564L12.8786 19.0537C12.6524 19.293 12.5907 19.6121 12.6524 19.9113L11.5212 20.8886L11.2743 20.6692C11.3566 20.5097 11.3977 20.3102 11.3977 20.1307C11.3977 19.9113 11.2126 19.7318 10.9864 19.7318C10.7601 19.7318 10.575 19.9113 10.575 20.1307C10.575 20.39 10.3488 20.5894 10.102 20.5894C9.87573 20.5894 9.69062 20.7689 9.69062 20.9883C9.69062 21.2077 9.87573 21.3872 10.102 21.3872C10.3282 21.3872 10.5339 21.3274 10.719 21.2476L11.2743 21.7263L12.2616 22.5839C12.4261 22.7235 12.6935 22.7235 12.8375 22.544C12.9815 22.3845 12.9815 22.1252 12.7964 21.9856L12.1588 21.4271L13.146 20.5695C13.29 20.6493 13.4751 20.6892 13.6602 20.6493C14.195 20.5894 14.7297 20.3301 15.2028 20.0709C15.4224 20.7588 14.6987 21.3391 14.1367 21.7898C14.0144 21.8878 13.8998 21.9798 13.8042 22.0653L13.764 22.104C13.557 22.3023 13.2643 22.5827 13.4957 22.8631C13.6216 23.0202 13.8579 23.0857 14.0527 23.1396C14.0806 23.1474 14.1076 23.1548 14.1333 23.1623C14.2361 23.1823 14.3389 23.2022 14.4418 23.2421C14.8737 23.3418 15.2851 23.5213 15.6553 23.7806C15.6723 23.793 15.6885 23.8046 15.704 23.8156L15.7041 23.8157L15.7043 23.8158C15.7633 23.858 15.8121 23.8928 15.861 23.9402C15.9021 23.9801 15.9638 24 16.0255 24C16.0872 24 16.1489 23.9801 16.1901 23.9402C16.2235 23.9186 16.2569 23.8911 16.2935 23.861L16.2936 23.861C16.3246 23.8355 16.358 23.808 16.3957 23.7806C16.7454 23.5213 17.1567 23.3219 17.6092 23.2421C17.7121 23.2222 17.8149 23.2022 17.9177 23.1623L17.9631 23.1504C18.1788 23.094 18.4209 23.0308 18.5554 22.8631C18.8022 22.564 18.4525 22.2449 18.2468 22.0653C18.1466 21.972 18.022 21.871 17.8885 21.7628C17.3373 21.3161 16.633 20.7452 16.8482 20.0709C17.3213 20.3301 17.856 20.5695 18.3908 20.6493C18.5759 20.6692 18.7405 20.6493 18.8844 20.5695L19.8511 21.4072C19.8511 21.4271 19.846 21.452 19.8408 21.477C19.8357 21.5019 19.8306 21.5268 19.8306 21.5468C19.8306 22.2449 20.4065 22.8033 21.1263 22.8033C21.8462 22.8033 22.4221 22.2449 22.4221 21.5468C22.4221 20.8487 21.8462 20.2903 21.1263 20.2903C20.7561 20.2903 20.427 20.4299 20.2008 20.6692L19.3781 19.9512C19.4398 19.652 19.3781 19.3329 19.1518 19.0736L18.3291 18.0764C18.2468 17.9767 18.3085 17.7971 18.4319 17.7772C18.6376 17.7373 18.8844 17.857 19.2547 18.0365C19.8923 18.3556 20.8178 18.7944 21.9285 18.216C23.0391 17.6575 23.6767 16.0021 23.8824 14.9251C24.0881 13.529 24.0264 12.1129 23.6767 10.7367ZM20.6738 21.3673C20.7355 21.1878 20.9207 21.0482 21.1263 21.0482C21.3937 21.0482 21.5994 21.2676 21.5994 21.5069C21.5994 21.7662 21.3731 21.9656 21.1263 21.9656C20.859 21.9656 20.6533 21.7462 20.6533 21.5069C20.6533 21.467 20.6533 21.4072 20.6738 21.3673Z"/>
</mask>
<path fill-rule="evenodd" clip-rule="evenodd" d="M17.0679 1.26607C16.4505 0.910986 15.6909 0.910986 15.0736 1.26607L4.00278 7.63357C3.38238 7.99041 2.99994 8.65156 2.99994 9.36726V22.0957C2.99994 22.8114 3.38238 23.4726 4.00278 23.8294L15.0736 30.1969C15.6909 30.552 16.4505 30.552 17.0679 30.1969L28.1387 23.8294C28.7591 23.4726 29.1415 22.8114 29.1415 22.0957V9.36726C29.1415 8.65156 28.7591 7.99041 28.1387 7.63357L17.0679 1.26607ZM16.0707 2.99976L27.1415 9.36726V22.0957L16.0707 28.4632L4.99994 22.0957V9.36726L16.0707 2.99976ZM14.75 10.4981C14.8528 10.7973 15.1408 10.9967 15.4699 10.9967H16.5805C16.9096 10.9967 17.1976 10.7973 17.3004 10.4981L17.5266 9.80002C17.7323 9.20168 17.2798 8.58339 16.6217 8.58339H16.4777V8.56344C16.5188 8.44377 16.4777 8.30416 16.3954 8.22438L16.272 8.10471C16.128 7.9651 15.9223 7.9651 15.7784 8.10471L15.655 8.22438C15.5521 8.3241 15.5316 8.44377 15.5727 8.56344V8.58339H15.4287C14.7705 8.58339 14.3181 9.20168 14.5237 9.80002L14.75 10.4981ZM23.6767 10.7367C23.6562 10.6768 23.6356 10.6369 23.5945 10.5971C23.5533 10.5572 23.4916 10.5372 23.4299 10.5372C23.3682 10.5372 23.3065 10.5372 23.2654 10.5771C23.2243 10.5971 23.1831 10.6369 23.142 10.6968C22.9569 11.0159 22.6072 11.5943 22.2781 12.053C21.3114 13.4093 20.3242 14.3666 18.9256 14.4065C18.761 14.4065 18.5965 14.3666 18.4525 14.3068C18 14.1074 17.7326 13.6287 17.8149 13.15C17.8149 12.9306 17.8972 12.7312 18 12.5517C18.1234 12.3722 18.288 12.2325 18.4936 12.1328C18.7816 11.9932 19.1724 11.9733 19.4809 12.0331C19.6454 12.053 19.81 12.1129 19.954 12.1926C20.0979 12.2724 20.1802 12.2525 20.2008 12.073C20.2213 11.6541 20.1391 11.0957 19.7483 10.8364C19.2547 10.4973 18.4731 10.7367 17.9795 10.996C17.4653 11.2552 17.0333 11.6541 16.6631 12.0929C16.4163 12.3921 16.1695 12.7112 16.0049 13.0702C15.8198 12.7312 15.5936 12.3921 15.3468 12.0929C14.9765 11.6541 14.5446 11.2552 14.0304 10.996C13.5574 10.7367 12.7758 10.4973 12.2616 10.8364C11.8708 11.0957 11.7885 11.6541 11.8091 12.073C11.8297 12.2325 11.9119 12.2724 12.0559 12.1926C12.1999 12.1129 12.3644 12.053 12.529 12.0331C12.8581 11.9733 13.2283 11.9932 13.5162 12.1328C13.7219 12.2325 13.8865 12.3722 14.0099 12.5517C14.1333 12.7312 14.195 12.9506 14.195 13.15C14.2567 13.6287 13.9893 14.1074 13.5574 14.3068C13.4134 14.3666 13.2489 14.4065 13.0843 14.4065C11.6857 14.3666 10.6984 13.4093 9.73175 12.053C9.40267 11.5943 9.05301 11.0159 8.8679 10.6968C8.84733 10.6369 8.8062 10.5971 8.74449 10.5771C8.70336 10.5572 8.64166 10.5372 8.57995 10.5372C8.51825 10.5372 8.47711 10.5572 8.41541 10.5971C8.37427 10.6369 8.33314 10.6768 8.33314 10.7367C7.96292 12.0929 7.90121 13.509 8.14803 14.9051C8.33314 15.9822 8.99131 17.6376 10.102 18.196C11.2126 18.7545 12.1382 18.3357 12.7758 18.0165C13.146 17.8171 13.3928 17.7174 13.5985 17.7573C13.7425 17.7772 13.8042 17.9368 13.7013 18.0564L12.8786 19.0537C12.6524 19.293 12.5907 19.6121 12.6524 19.9113L11.5212 20.8886L11.2743 20.6692C11.3566 20.5097 11.3977 20.3102 11.3977 20.1307C11.3977 19.9113 11.2126 19.7318 10.9864 19.7318C10.7601 19.7318 10.575 19.9113 10.575 20.1307C10.575 20.39 10.3488 20.5894 10.102 20.5894C9.87573 20.5894 9.69062 20.7689 9.69062 20.9883C9.69062 21.2077 9.87573 21.3872 10.102 21.3872C10.3282 21.3872 10.5339 21.3274 10.719 21.2476L11.2743 21.7263L12.2616 22.5839C12.4261 22.7235 12.6935 22.7235 12.8375 22.544C12.9815 22.3845 12.9815 22.1252 12.7964 21.9856L12.1588 21.4271L13.146 20.5695C13.29 20.6493 13.4751 20.6892 13.6602 20.6493C14.195 20.5894 14.7297 20.3301 15.2028 20.0709C15.4224 20.7588 14.6987 21.3391 14.1367 21.7898C14.0144 21.8878 13.8998 21.9798 13.8042 22.0653L13.764 22.104C13.557 22.3023 13.2643 22.5827 13.4957 22.8631C13.6216 23.0202 13.8579 23.0857 14.0527 23.1396C14.0806 23.1474 14.1076 23.1548 14.1333 23.1623C14.2361 23.1823 14.3389 23.2022 14.4418 23.2421C14.8737 23.3418 15.2851 23.5213 15.6553 23.7806C15.6723 23.793 15.6885 23.8046 15.704 23.8156L15.7041 23.8157L15.7043 23.8158C15.7633 23.858 15.8121 23.8928 15.861 23.9402C15.9021 23.9801 15.9638 24 16.0255 24C16.0872 24 16.1489 23.9801 16.1901 23.9402C16.2235 23.9186 16.2569 23.8911 16.2935 23.861L16.2936 23.861C16.3246 23.8355 16.358 23.808 16.3957 23.7806C16.7454 23.5213 17.1567 23.3219 17.6092 23.2421C17.7121 23.2222 17.8149 23.2022 17.9177 23.1623L17.9631 23.1504C18.1788 23.094 18.4209 23.0308 18.5554 22.8631C18.8022 22.564 18.4525 22.2449 18.2468 22.0653C18.1466 21.972 18.022 21.871 17.8885 21.7628C17.3373 21.3161 16.633 20.7452 16.8482 20.0709C17.3213 20.3301 17.856 20.5695 18.3908 20.6493C18.5759 20.6692 18.7405 20.6493 18.8844 20.5695L19.8511 21.4072C19.8511 21.4271 19.846 21.452 19.8408 21.477C19.8357 21.5019 19.8306 21.5268 19.8306 21.5468C19.8306 22.2449 20.4065 22.8033 21.1263 22.8033C21.8462 22.8033 22.4221 22.2449 22.4221 21.5468C22.4221 20.8487 21.8462 20.2903 21.1263 20.2903C20.7561 20.2903 20.427 20.4299 20.2008 20.6692L19.3781 19.9512C19.4398 19.652 19.3781 19.3329 19.1518 19.0736L18.3291 18.0764C18.2468 17.9767 18.3085 17.7971 18.4319 17.7772C18.6376 17.7373 18.8844 17.857 19.2547 18.0365C19.8923 18.3556 20.8178 18.7944 21.9285 18.216C23.0391 17.6575 23.6767 16.0021 23.8824 14.9251C24.0881 13.529 24.0264 12.1129 23.6767 10.7367ZM20.6738 21.3673C20.7355 21.1878 20.9207 21.0482 21.1263 21.0482C21.3937 21.0482 21.5994 21.2676 21.5994 21.5069C21.5994 21.7662 21.3731 21.9656 21.1263 21.9656C20.859 21.9656 20.6533 21.7462 20.6533 21.5069C20.6533 21.467 20.6533 21.4072 20.6738 21.3673Z" fill="white"/>
<path d="M15.0736 1.26607L14.575 0.39922V0.39922L15.0736 1.26607ZM17.0679 1.26607L16.5693 2.13291V2.13291L17.0679 1.26607ZM4.00278 7.63357L4.50136 8.50042L4.50136 8.50042L4.00278 7.63357ZM4.00278 23.8294L4.50136 22.9626H4.50136L4.00278 23.8294ZM15.0736 30.1969L15.5722 29.3301V29.3301L15.0736 30.1969ZM17.0679 30.1969L16.5693 29.3301V29.3301L17.0679 30.1969ZM28.1387 23.8294L28.6373 24.6962V24.6962L28.1387 23.8294ZM28.1387 7.63357L27.6401 8.50042V8.50042L28.1387 7.63357ZM27.1415 9.36726H28.1415V8.78882L27.6401 8.50042L27.1415 9.36726ZM16.0707 2.99976L16.5693 2.13291L16.0707 1.84615L15.5722 2.13291L16.0707 2.99976ZM27.1415 22.0957L27.6401 22.9626L28.1415 22.6742V22.0957H27.1415ZM16.0707 28.4632L15.5722 29.3301L16.0707 29.6168L16.5693 29.3301L16.0707 28.4632ZM4.99994 22.0957H3.99994V22.6742L4.50136 22.9626L4.99994 22.0957ZM4.99994 9.36726L4.50136 8.50042L3.99994 8.78882V9.36726H4.99994ZM14.75 10.4981L13.7987 10.8064L13.8014 10.8148L13.8043 10.8232L14.75 10.4981ZM17.3004 10.4981L18.2461 10.8232L18.249 10.8148L18.2517 10.8064L17.3004 10.4981ZM17.5266 9.80002L16.581 9.47495L16.5781 9.4833L16.5754 9.49171L17.5266 9.80002ZM16.4777 8.58339H15.4777V9.58339H16.4777V8.58339ZM16.4777 8.56344L15.532 8.23837L15.4777 8.39637V8.56344H16.4777ZM16.3954 8.22438L17.0916 7.50649L17.0916 7.50648L16.3954 8.22438ZM16.272 8.10471L15.5758 8.8226L15.5759 8.82261L16.272 8.10471ZM15.7784 8.10471L16.4745 8.82261V8.82261L15.7784 8.10471ZM15.655 8.22438L14.9588 7.50648L14.9588 7.50649L15.655 8.22438ZM15.5727 8.56344H16.5727V8.39637L16.5184 8.23837L15.5727 8.56344ZM15.5727 8.58339V9.58339H16.5727V8.58339H15.5727ZM14.5237 9.80002L15.475 9.49171L15.4723 9.4833L15.4694 9.47495L14.5237 9.80002ZM23.6767 10.7367L24.646 10.4904L24.6358 10.4505L24.6224 10.4116L23.6767 10.7367ZM23.2654 10.5771L23.7017 11.4769L23.8462 11.4068L23.9615 11.295L23.2654 10.5771ZM23.142 10.6968L22.3179 10.1303L22.2962 10.1619L22.277 10.195L23.142 10.6968ZM22.2781 12.053L21.4656 11.4701L21.4638 11.4726L22.2781 12.053ZM18.9256 14.4065V15.4065H18.9398L18.9541 15.4061L18.9256 14.4065ZM18.4525 14.3068L18.0492 15.2219L18.0589 15.2261L18.0687 15.2302L18.4525 14.3068ZM17.8149 13.15L18.8005 13.3194L18.8149 13.2353V13.15H17.8149ZM18 12.5517L17.176 11.9851L17.1527 12.0189L17.1323 12.0545L18 12.5517ZM18.4936 12.1328L18.0574 11.233L18.0574 11.233L18.4936 12.1328ZM19.4809 12.0331L19.2905 13.0148L19.3253 13.0216L19.3606 13.0258L19.4809 12.0331ZM19.954 12.1926L20.4387 11.318L20.4386 11.318L19.954 12.1926ZM20.2008 12.073L21.1943 12.1868L21.198 12.1545L21.1996 12.122L20.2008 12.073ZM19.7483 10.8364L19.1821 11.6607L19.1887 11.6652L19.1954 11.6697L19.7483 10.8364ZM17.9795 10.996L18.4297 11.8889L18.4371 11.8851L18.4445 11.8813L17.9795 10.996ZM16.6631 12.0929L15.8988 11.448L15.8917 11.4565L16.6631 12.0929ZM16.0049 13.0702L15.1272 13.5494L16.083 15.3L16.914 13.4869L16.0049 13.0702ZM15.3468 12.0929L16.1182 11.4565L16.1111 11.4481L15.3468 12.0929ZM14.0304 10.996L13.5498 11.8729L13.5648 11.8811L13.5802 11.8889L14.0304 10.996ZM12.2616 10.8364L11.7111 10.0016L11.7087 10.0031L12.2616 10.8364ZM11.8091 12.073L10.8103 12.122L10.8122 12.1616L10.8173 12.2008L11.8091 12.073ZM12.0559 12.1926L11.5712 11.318L11.5712 11.318L12.0559 12.1926ZM12.529 12.0331L12.6493 13.0258L12.6787 13.0223L12.7079 13.017L12.529 12.0331ZM13.5162 12.1328L13.9525 11.233L13.9525 11.233L13.5162 12.1328ZM14.0099 12.5517L14.8339 11.9851L14.8339 11.9851L14.0099 12.5517ZM14.195 13.15H13.195V13.2142L13.2032 13.2778L14.195 13.15ZM13.5574 14.3068L13.9411 15.2302L13.959 15.2228L13.9766 15.2147L13.5574 14.3068ZM13.0843 14.4065L13.0558 15.4061L13.0701 15.4065H13.0843V14.4065ZM9.73175 12.053L10.5461 11.4726L10.5443 11.4701L9.73175 12.053ZM8.8679 10.6968L7.92221 11.0219L7.95393 11.1141L8.0029 11.1985L8.8679 10.6968ZM8.74449 10.5771L8.30823 11.4769L8.37078 11.5073L8.43692 11.5286L8.74449 10.5771ZM8.41541 10.5971L7.87251 9.75726L7.78989 9.81067L7.71926 9.87916L8.41541 10.5971ZM8.33314 10.7367L9.29784 11L9.33314 10.8707V10.7367H8.33314ZM8.14803 14.9051L9.13359 14.7358L9.13276 14.7311L8.14803 14.9051ZM10.102 18.196L10.5512 17.3026L10.102 18.196ZM12.7758 18.0165L13.2234 18.9108L13.2368 18.9041L13.2501 18.8969L12.7758 18.0165ZM13.5985 17.7573L13.4081 18.739L13.4346 18.7441L13.4613 18.7478L13.5985 17.7573ZM13.7013 18.0564L12.9429 17.4047L12.9364 17.4123L12.93 17.4201L13.7013 18.0564ZM12.8786 19.0537L13.6053 19.7406L13.6285 19.7161L13.65 19.6901L12.8786 19.0537ZM12.6524 19.9113L13.3061 20.668L13.7503 20.2843L13.6318 19.7093L12.6524 19.9113ZM11.5212 20.8886L10.8568 21.636L11.5118 22.2182L12.1749 21.6453L11.5212 20.8886ZM11.2743 20.6692L10.3855 20.2109L10.0298 20.9009L10.61 21.4166L11.2743 20.6692ZM10.719 21.2476L11.3719 20.4902L10.8979 20.0816L10.3232 20.3293L10.719 21.2476ZM11.2743 21.7263L11.9302 20.9714L11.9272 20.9688L11.2743 21.7263ZM12.2616 22.5839L11.6057 23.3389L11.6146 23.3464L12.2616 22.5839ZM12.8375 22.544L12.0951 21.8741L12.0756 21.8957L12.0574 21.9183L12.8375 22.544ZM12.7964 21.9856L12.1375 22.7378L12.165 22.7619L12.1942 22.7839L12.7964 21.9856ZM12.1588 21.4271L11.5029 20.6722L10.6375 21.424L11.4999 22.1794L12.1588 21.4271ZM13.146 20.5695L13.6307 19.6948L13.0185 19.3556L12.4902 19.8146L13.146 20.5695ZM13.6602 20.6493L13.549 19.6555L13.4989 19.6611L13.4495 19.6717L13.6602 20.6493ZM15.2028 20.0709L16.1554 19.7668L15.7864 18.6106L14.7222 19.1939L15.2028 20.0709ZM14.1367 21.7898L14.7623 22.5699L14.7623 22.5699L14.1367 21.7898ZM13.8042 22.0653L13.1372 21.3203L13.1239 21.3322L13.111 21.3446L13.8042 22.0653ZM13.764 22.104L14.4558 22.8261L14.4572 22.8248L13.764 22.104ZM13.4957 22.8631L14.2758 22.2374L14.267 22.2268L13.4957 22.8631ZM14.0527 23.1396L14.3197 22.1759L14.3197 22.1759L14.0527 23.1396ZM14.1333 23.1623L13.854 24.1225L13.8979 24.1353L13.9429 24.144L14.1333 23.1623ZM14.4418 23.2421L14.0802 24.1744L14.147 24.2003L14.2168 24.2165L14.4418 23.2421ZM15.6553 23.7806L16.2434 22.9718L16.2362 22.9666L16.2289 22.9615L15.6553 23.7806ZM15.704 23.8156L16.2922 23.0068L16.285 23.0017L15.704 23.8156ZM15.7041 23.8157L15.1159 24.6244L15.1182 24.6261L15.7041 23.8157ZM15.7043 23.8158L15.1184 24.6263L15.1232 24.6297L15.7043 23.8158ZM15.861 23.9402L16.5571 23.2223L16.5571 23.2223L15.861 23.9402ZM16.1901 23.9402L15.6472 23.1004L15.5645 23.1538L15.4939 23.2223L16.1901 23.9402ZM16.2935 23.861L15.6772 23.0735L15.6679 23.0808L15.6587 23.0883L16.2935 23.861ZM16.2936 23.861L16.9099 24.6485L16.9192 24.6412L16.9284 24.6336L16.2936 23.861ZM16.3957 23.7806L16.9839 24.5894L16.9914 24.5839L16.3957 23.7806ZM17.6092 23.2421L17.7829 24.2269L17.7913 24.2254L17.7996 24.2238L17.6092 23.2421ZM17.9177 23.1623L17.664 22.1951L17.6091 22.2095L17.5561 22.23L17.9177 23.1623ZM17.9631 23.1504L17.7103 22.1829L17.7093 22.1832L17.9631 23.1504ZM18.5554 22.8631L17.7839 22.2267L17.7753 22.2375L18.5554 22.8631ZM18.2468 22.0653L17.5655 22.7973L17.5772 22.8082L17.5893 22.8188L18.2468 22.0653ZM17.8885 21.7628L17.2588 22.5397L17.2588 22.5397L17.8885 21.7628ZM16.8482 20.0709L17.3289 19.1939L16.2646 18.6106L15.8956 19.7668L16.8482 20.0709ZM18.3908 20.6493L18.2433 21.6383L18.2634 21.6413L18.2837 21.6435L18.3908 20.6493ZM18.8844 20.5695L19.5393 19.8138L19.0111 19.356L18.3998 19.6948L18.8844 20.5695ZM19.8511 21.4072H20.8511V20.9505L20.506 20.6514L19.8511 21.4072ZM20.2008 20.6692L19.5432 21.4226L20.2673 22.0545L20.9275 21.3562L20.2008 20.6692ZM19.3781 19.9512L18.3987 19.7492L18.2808 20.3208L18.7205 20.7046L19.3781 19.9512ZM19.1518 19.0736L18.3804 19.71L18.3892 19.7207L18.3983 19.7311L19.1518 19.0736ZM18.3291 18.0764L17.5577 18.7128L17.5577 18.7128L18.3291 18.0764ZM18.4319 17.7772L18.5915 18.7644L18.607 18.7619L18.6223 18.7589L18.4319 17.7772ZM19.2547 18.0365L19.7023 17.1422L19.6909 17.1367L19.2547 18.0365ZM21.9285 18.216L21.4793 17.3226L21.4729 17.3258L21.4666 17.3291L21.9285 18.216ZM23.8824 14.9251L24.8647 15.1127L24.8687 15.0918L24.8717 15.0708L23.8824 14.9251ZM20.6738 21.3673L21.5626 21.8256L21.5959 21.761L21.6195 21.6924L20.6738 21.3673ZM15.5722 2.13291C15.8808 1.95537 16.2606 1.95537 16.5693 2.13291L17.5665 0.39922C16.6404 -0.1334 15.501 -0.133398 14.575 0.39922L15.5722 2.13291ZM4.50136 8.50042L15.5722 2.13291L14.575 0.39922L3.50421 6.76673L4.50136 8.50042ZM3.99994 9.36726C3.99994 9.00941 4.19116 8.67883 4.50136 8.50042L3.50421 6.76673C2.5736 7.30198 1.99994 8.2937 1.99994 9.36726H3.99994ZM3.99994 22.0957V9.36726H1.99994V22.0957H3.99994ZM4.50136 22.9626C4.19116 22.7841 3.99994 22.4536 3.99994 22.0957H1.99994C1.99994 23.1693 2.5736 24.161 3.50421 24.6962L4.50136 22.9626ZM15.5722 29.3301L4.50136 22.9626L3.50421 24.6962L14.575 31.0638L15.5722 29.3301ZM16.5693 29.3301C16.2606 29.5076 15.8808 29.5076 15.5722 29.3301L14.575 31.0638C15.501 31.5964 16.6404 31.5964 17.5665 31.0638L16.5693 29.3301ZM27.6401 22.9626L16.5693 29.3301L17.5665 31.0638L28.6373 24.6962L27.6401 22.9626ZM28.1415 22.0957C28.1415 22.4536 27.9503 22.7841 27.6401 22.9626L28.6373 24.6962C29.5679 24.161 30.1415 23.1693 30.1415 22.0957H28.1415ZM28.1415 9.36726V22.0957H30.1415V9.36726H28.1415ZM27.6401 8.50042C27.9503 8.67883 28.1415 9.00941 28.1415 9.36726H30.1415C30.1415 8.29371 29.5679 7.30198 28.6373 6.76673L27.6401 8.50042ZM16.5693 2.13291L27.6401 8.50042L28.6373 6.76673L17.5665 0.39922L16.5693 2.13291ZM27.6401 8.50042L16.5693 2.13291L15.5722 3.8666L26.6429 10.2341L27.6401 8.50042ZM28.1415 22.0957V9.36726H26.1415V22.0957H28.1415ZM16.5693 29.3301L27.6401 22.9626L26.6429 21.2289L15.5722 27.5964L16.5693 29.3301ZM4.50136 22.9626L15.5722 29.3301L16.5693 27.5964L5.49852 21.2289L4.50136 22.9626ZM3.99994 9.36726V22.0957H5.99994V9.36726H3.99994ZM15.5722 2.13291L4.50136 8.50042L5.49852 10.2341L16.5693 3.8666L15.5722 2.13291ZM15.4699 9.99671C15.5445 9.99671 15.6523 10.0468 15.6957 10.173L13.8043 10.8232C14.0534 11.5477 14.7371 11.9967 15.4699 11.9967V9.99671ZM16.5805 9.99671H15.4699V11.9967H16.5805V9.99671ZM16.3547 10.173C16.3981 10.0468 16.5059 9.99671 16.5805 9.99671V11.9967C17.3133 11.9967 17.997 11.5477 18.2461 10.8232L16.3547 10.173ZM16.5754 9.49171L16.3491 10.1898L18.2517 10.8064L18.4779 10.1083L16.5754 9.49171ZM16.6217 9.58339C16.6274 9.58339 16.6232 9.58422 16.6147 9.57986C16.6076 9.57622 16.6004 9.57045 16.5942 9.56206C16.588 9.5537 16.5813 9.54064 16.5783 9.52255C16.5749 9.50259 16.5775 9.48485 16.581 9.47495L18.4723 10.1251C18.9138 8.84068 17.9269 7.58339 16.6217 7.58339V9.58339ZM16.4777 9.58339H16.6217V7.58339H16.4777V9.58339ZM15.4777 8.56344V8.58339H17.4777V8.56344H15.4777ZM15.6993 8.94227C15.5962 8.84233 15.5406 8.72982 15.5145 8.6286C15.4877 8.52486 15.4807 8.38769 15.532 8.23837L17.4234 8.88852C17.5994 8.37647 17.4321 7.83668 17.0916 7.50649L15.6993 8.94227ZM15.5759 8.82261L15.6993 8.94228L17.0916 7.50648L16.9681 7.38681L15.5759 8.82261ZM16.4745 8.82261C16.3711 8.92289 16.2128 9 16.0252 9C15.8375 9 15.6793 8.92289 15.5758 8.8226L16.9682 7.38682C16.4363 6.87106 15.6141 6.87106 15.0822 7.38681L16.4745 8.82261ZM16.3511 8.94228L16.4745 8.82261L15.0822 7.38681L14.9588 7.50648L16.3511 8.94228ZM16.5184 8.23837C16.5484 8.32561 16.5693 8.45516 16.5356 8.60518C16.5013 8.75845 16.4236 8.87198 16.3511 8.94227L14.9588 7.50649C14.5616 7.89166 14.4673 8.42382 14.627 8.88852L16.5184 8.23837ZM16.5727 8.58339V8.56344H14.5727V8.58339H16.5727ZM15.4287 9.58339H15.5727V7.58339H15.4287V9.58339ZM15.4694 9.47495C15.4728 9.48485 15.4754 9.50259 15.4721 9.52255C15.4691 9.54064 15.4624 9.5537 15.4562 9.56206C15.45 9.57045 15.4428 9.57622 15.4357 9.57986C15.4271 9.58422 15.423 9.58339 15.4287 9.58339V7.58339C14.1235 7.58339 13.1365 8.84068 13.578 10.1251L15.4694 9.47495ZM15.7013 10.1898L15.475 9.49171L13.5725 10.1083L13.7987 10.8064L15.7013 10.1898ZM22.8983 11.315C22.8543 11.2722 22.8111 11.2184 22.7756 11.1565C22.7597 11.1286 22.7486 11.1049 22.7415 11.0884C22.7347 11.0725 22.7312 11.0623 22.7311 11.0618L24.6224 10.4116C24.573 10.2679 24.4853 10.068 24.2906 9.87916L22.8983 11.315ZM23.4299 11.5372C23.3017 11.5372 23.0886 11.4994 22.8983 11.315L24.2906 9.87916C24.0181 9.61491 23.6816 9.53722 23.4299 9.53722V11.5372ZM23.9615 11.295C23.7914 11.46 23.6057 11.5108 23.5136 11.527C23.4398 11.54 23.3795 11.5372 23.4299 11.5372V9.53722C23.4186 9.53722 23.2966 9.53443 23.1663 9.5574C23.0176 9.58361 22.7806 9.65431 22.5693 9.8592L23.9615 11.295ZM23.966 11.2633C23.9585 11.2742 23.9374 11.3034 23.8998 11.3399C23.8625 11.3761 23.7976 11.4304 23.7017 11.4769L22.8291 9.6773C22.566 9.80486 22.4051 10.0035 22.3179 10.1303L23.966 11.2633ZM23.0907 12.6359C23.4477 12.1382 23.8162 11.5274 24.007 11.1985L22.277 10.195C22.0975 10.5044 21.7667 11.0504 21.4656 11.4701L23.0907 12.6359ZM18.9541 15.4061C20.8664 15.3516 22.1057 14.0178 23.0924 12.6335L21.4638 11.4726C20.5172 12.8008 19.782 13.3817 18.8971 13.4069L18.9541 15.4061ZM18.0687 15.2302C18.3099 15.3304 18.6052 15.4065 18.9256 15.4065V13.4065C18.9234 13.4065 18.9131 13.4062 18.8952 13.4022C18.8775 13.3984 18.8571 13.392 18.8363 13.3834L18.0687 15.2302ZM16.8294 12.9806C16.6658 13.9325 17.1966 14.8461 18.0492 15.2219L18.8558 13.3917C18.834 13.3821 18.8177 13.3662 18.8082 13.3489C18.7989 13.3323 18.7999 13.3224 18.8005 13.3194L16.8294 12.9806ZM17.1323 12.0545C16.9913 12.3007 16.8149 12.6793 16.8149 13.15H18.8149C18.8149 13.167 18.8115 13.1703 18.8171 13.1536C18.8234 13.1349 18.8374 13.1016 18.8677 13.0488L17.1323 12.0545ZM18.0574 11.233C17.7037 11.4045 17.4025 11.6557 17.176 11.9851L18.8241 13.1182C18.8444 13.0886 18.8722 13.0606 18.9299 13.0326L18.0574 11.233ZM19.6713 11.0514C19.2142 10.9627 18.5911 10.9742 18.0574 11.233L18.9299 13.0326C18.9377 13.0288 18.9821 13.0117 19.0661 13.0044C19.147 12.9974 19.2286 13.0028 19.2905 13.0148L19.6713 11.0514ZM20.4386 11.318C20.2045 11.1882 19.917 11.0786 19.6012 11.0404L19.3606 13.0258C19.3739 13.0274 19.4155 13.0376 19.4693 13.0673L20.4386 11.318ZM19.2073 11.9591C19.209 11.9437 19.2196 11.8517 19.2783 11.7336C19.3447 11.6 19.4841 11.4151 19.7331 11.3095C19.9686 11.2096 20.1747 11.2352 20.2758 11.2586C20.3737 11.2812 20.433 11.3148 20.4387 11.318L19.4693 13.0673C19.5469 13.1104 19.6705 13.1714 19.8249 13.2071C19.9826 13.2436 20.2376 13.268 20.5142 13.1506C21.1025 12.901 21.1794 12.3163 21.1943 12.1868L19.2073 11.9591ZM19.1954 11.6697C19.1324 11.6279 19.145 11.595 19.1704 11.6804C19.1958 11.7654 19.2086 11.8901 19.202 12.0239L21.1996 12.122C21.2136 11.837 21.1955 11.473 21.0872 11.1093C20.9789 10.746 20.7549 10.3042 20.3012 10.0031L19.1954 11.6697ZM18.4445 11.8813C18.6235 11.7872 18.8366 11.7082 19.0184 11.6798C19.2153 11.649 19.234 11.6963 19.1821 11.6607L20.3145 10.0121C19.769 9.63742 19.15 9.63488 18.7093 9.70381C18.2536 9.77509 17.829 9.9454 17.5144 10.1107L18.4445 11.8813ZM17.4274 12.7378C17.7485 12.3573 18.0789 12.0657 18.4297 11.8889L17.5292 10.1031C16.8516 10.4447 16.3182 10.951 15.8988 11.4481L17.4274 12.7378ZM16.914 13.4869C17.0199 13.2559 17.1924 13.0228 17.4345 12.7293L15.8917 11.4565C15.6402 11.7614 15.3191 12.1665 15.0959 12.6536L16.914 13.4869ZM14.5754 12.7293C14.7792 12.9763 14.9704 13.2622 15.1272 13.5494L16.8827 12.591C16.6692 12.2001 16.408 11.8078 16.1181 11.4565L14.5754 12.7293ZM13.5802 11.8889C13.9309 12.0657 14.2614 12.3573 14.5825 12.7378L16.1111 11.4481C15.6917 10.951 15.1583 10.4447 14.4807 10.1031L13.5802 11.8889ZM12.8121 11.6712C12.7795 11.6927 12.8158 11.6499 13.0069 11.6798C13.1867 11.7079 13.3902 11.7854 13.5498 11.8729L14.5111 10.119C14.1976 9.94724 13.7738 9.77541 13.316 9.70381C12.8695 9.63398 12.2579 9.64099 11.7111 10.0016L12.8121 11.6712ZM12.8079 12.0239C12.8013 11.8901 12.8141 11.7654 12.8395 11.6804C12.8649 11.595 12.8775 11.6279 12.8145 11.6697L11.7087 10.0031C11.2549 10.3042 11.031 10.746 10.9227 11.1093C10.8144 11.473 10.7963 11.837 10.8103 12.122L12.8079 12.0239ZM11.5712 11.318C11.5938 11.3055 11.669 11.2658 11.7859 11.2452C11.9112 11.2231 12.1101 11.2198 12.3225 11.3228C12.7581 11.534 12.8005 11.9419 12.8009 11.9451L10.8173 12.2008C10.8383 12.3636 10.9321 12.8713 11.45 13.1224C11.954 13.3668 12.4042 13.1429 12.5406 13.0673L11.5712 11.318ZM12.4086 11.0404C12.0929 11.0786 11.8054 11.1882 11.5712 11.318L12.5406 13.0673C12.5944 13.0376 12.6359 13.0274 12.6493 13.0258L12.4086 11.0404ZM13.9525 11.233C13.4176 10.9737 12.8171 10.9643 12.3501 11.0492L12.7079 13.017C12.8991 12.9822 13.0389 13.0127 13.08 13.0326L13.9525 11.233ZM14.8339 11.9851C14.6074 11.6557 14.3062 11.4045 13.9525 11.233L13.08 13.0326C13.1377 13.0606 13.1655 13.0886 13.1858 13.1182L14.8339 11.9851ZM15.195 13.15C15.195 12.7596 15.0782 12.3404 14.8339 11.9851L13.1858 13.1182C13.1849 13.1169 13.1855 13.1175 13.1868 13.1203C13.1882 13.1232 13.1898 13.1273 13.1913 13.1323C13.1929 13.1373 13.1939 13.1421 13.1945 13.1459C13.1951 13.1499 13.195 13.1514 13.195 13.15H15.195ZM13.9766 15.2147C14.8045 14.8324 15.3044 13.9347 15.1868 13.0222L13.2032 13.2778C13.2051 13.293 13.2028 13.3191 13.1863 13.3489C13.1696 13.3792 13.149 13.3939 13.1381 13.3989L13.9766 15.2147ZM13.0843 15.4065C13.4047 15.4065 13.7 15.3304 13.9411 15.2302L13.1736 13.3834C13.1528 13.392 13.1324 13.3984 13.1146 13.4022C13.0968 13.4062 13.0865 13.4065 13.0843 13.4065V15.4065ZM8.91743 12.6335C9.90415 14.0178 11.1435 15.3516 13.0558 15.4061L13.1128 13.4069C12.2279 13.3817 11.4927 12.8008 10.5461 11.4726L8.91743 12.6335ZM8.0029 11.1985C8.19366 11.5274 8.56216 12.1382 8.91921 12.6359L10.5443 11.4701C10.2432 11.0504 9.91237 10.5044 9.73291 10.195L8.0029 11.1985ZM8.43692 11.5286C8.34138 11.4978 8.22853 11.4398 8.12547 11.3399C8.02176 11.2393 7.95765 11.1249 7.92221 11.0219L9.81359 10.3717C9.68777 10.0057 9.40441 9.73948 9.05207 9.62559L8.43692 11.5286ZM8.57995 11.5372C8.5065 11.5372 8.45001 11.5259 8.41426 11.5165C8.37779 11.5068 8.34315 11.4939 8.30823 11.4769L9.18076 9.6773C9.04693 9.61241 8.83447 9.53722 8.57995 9.53722V11.5372ZM8.95831 11.4369C8.97673 11.4249 8.93247 11.4561 8.85931 11.4845C8.76674 11.5204 8.66957 11.5372 8.57995 11.5372V9.53722C8.22652 9.53722 7.98545 9.68425 7.87251 9.75726L8.95831 11.4369ZM9.33314 10.7367C9.33314 10.9581 9.25069 11.1273 9.18289 11.2259C9.13179 11.3002 9.07604 11.3494 9.11156 11.315L7.71926 9.87916C7.71365 9.88461 7.61675 9.97366 7.5348 10.0929C7.43616 10.2364 7.33314 10.4554 7.33314 10.7367H9.33314ZM9.13276 14.7311C8.91129 13.4783 8.9671 12.2116 9.29784 11L7.36843 10.4733C6.95874 11.9742 6.89114 13.5397 7.1633 15.0792L9.13276 14.7311ZM10.5512 17.3026C10.2626 17.1575 9.94475 16.8131 9.66219 16.2781C9.38886 15.7605 9.20976 15.179 9.13358 14.7358L7.16248 15.0745C7.2714 15.7083 7.51395 16.493 7.89365 17.212C8.26412 17.9136 8.83071 18.6761 9.65275 19.0895L10.5512 17.3026ZM12.3282 17.1223C11.7166 17.4284 11.1964 17.6271 10.5512 17.3026L9.65275 19.0895C11.2288 19.882 12.5598 19.2429 13.2234 18.9108L12.3282 17.1223ZM13.7889 16.7756C13.4532 16.7105 13.1537 16.7742 12.9306 16.8491C12.7121 16.9225 12.4959 17.0315 12.3015 17.1362L13.2501 18.8969C13.3336 18.8519 13.4007 18.8177 13.4562 18.7917C13.5121 18.7654 13.5473 18.7518 13.5671 18.7452C13.6114 18.7303 13.5381 18.7642 13.4081 18.739L13.7889 16.7756ZM14.4598 18.7082C14.7305 18.3931 14.8335 17.9492 14.6838 17.5318C14.5349 17.1169 14.1687 16.8267 13.7357 16.7667L13.4613 18.7478C13.1723 18.7078 12.9089 18.5073 12.8012 18.2071C12.6926 17.9044 12.775 17.6001 12.9429 17.4047L14.4598 18.7082ZM13.65 19.6901L14.4727 18.6928L12.93 17.4201L12.1073 18.4173L13.65 19.6901ZM13.6318 19.7093C13.6281 19.6917 13.6313 19.6879 13.6289 19.6977C13.6276 19.703 13.625 19.7107 13.6202 19.7196C13.6154 19.7286 13.6099 19.7358 13.6053 19.7406L12.1519 18.3667C11.6646 18.8823 11.557 19.5507 11.673 20.1133L13.6318 19.7093ZM12.1749 21.6453L13.3061 20.668L11.9986 19.1546L10.8674 20.1319L12.1749 21.6453ZM10.61 21.4166L10.8568 21.636L12.1855 20.1412L11.9387 19.9218L10.61 21.4166ZM10.3977 20.1307C10.3977 20.1465 10.3957 20.1682 10.3909 20.1898C10.3859 20.2122 10.3814 20.2189 10.3855 20.2109L12.1631 21.1275C12.3298 20.8044 12.3977 20.4431 12.3977 20.1307H10.3977ZM10.9864 20.7318C10.6896 20.7318 10.3977 20.4924 10.3977 20.1307H12.3977C12.3977 19.3302 11.7357 18.7318 10.9864 18.7318V20.7318ZM11.575 20.1307C11.575 20.4924 11.2832 20.7318 10.9864 20.7318V18.7318C10.2371 18.7318 9.57503 19.3303 9.57503 20.1307H11.575ZM10.102 21.5894C10.8431 21.5894 11.575 20.9985 11.575 20.1307H9.57503C9.57503 19.958 9.65252 19.8168 9.74569 19.7291C9.83445 19.6456 9.95812 19.5894 10.102 19.5894V21.5894ZM10.6906 20.9883C10.6906 21.35 10.3988 21.5894 10.102 21.5894V19.5894C9.35266 19.5894 8.69062 20.1879 8.69062 20.9883H10.6906ZM10.102 20.3872C10.3988 20.3872 10.6906 20.6267 10.6906 20.9883H8.69062C8.69062 21.7888 9.35266 22.3872 10.102 22.3872V20.3872ZM10.3232 20.3293C10.2166 20.3752 10.1492 20.3872 10.102 20.3872V22.3872C10.5072 22.3872 10.8512 22.2795 11.1148 22.166L10.3232 20.3293ZM11.9272 20.9688L11.3719 20.4902L10.0661 22.0051L10.6214 22.4837L11.9272 20.9688ZM12.9174 21.829L11.9301 20.9714L10.6185 22.4812L11.6058 23.3388L12.9174 21.829ZM12.0574 21.9183C12.1847 21.7596 12.3622 21.6917 12.51 21.6848C12.6486 21.6782 12.7909 21.7216 12.9086 21.8214L11.6146 23.3464C12.1364 23.7892 13.0648 23.8588 13.6176 23.1697L12.0574 21.9183ZM12.1942 22.7839C11.8413 22.5178 11.9065 22.083 12.0951 21.8741L13.5799 23.2139C14.0564 22.6859 14.1216 21.7326 13.3985 21.1872L12.1942 22.7839ZM11.4999 22.1794L12.1375 22.7378L13.4552 21.2333L12.8176 20.6749L11.4999 22.1794ZM12.4902 19.8146L11.5029 20.6722L12.8146 22.182L13.8018 21.3244L12.4902 19.8146ZM13.4495 19.6717C13.4918 19.6626 13.5285 19.6638 13.5564 19.6686C13.5831 19.6732 13.6073 19.6818 13.6307 19.6948L12.6613 21.4442C12.988 21.6252 13.4186 21.7243 13.8709 21.6268L13.4495 19.6717ZM14.7222 19.1939C14.2541 19.4505 13.8706 19.6195 13.549 19.6555L13.7714 21.6431C14.5193 21.5594 15.2054 21.2098 15.6834 20.9478L14.7222 19.1939ZM14.7623 22.5699C15.022 22.3617 15.4428 22.0307 15.752 21.6336C16.0713 21.2233 16.4089 20.5609 16.1554 19.7668L14.2501 20.3749C14.2163 20.2688 14.3018 20.2405 14.1737 20.4051C14.0355 20.5827 13.8134 20.7672 13.5111 21.0096L14.7623 22.5699ZM14.4711 22.8104C14.5424 22.7466 14.634 22.6728 14.7623 22.5699L13.5112 21.0096C13.3948 21.1029 13.2571 21.2129 13.1372 21.3203L14.4711 22.8104ZM14.4572 22.8248L14.4974 22.7861L13.111 21.3446L13.0708 21.3832L14.4572 22.8248ZM14.267 22.2268C14.3359 22.3102 14.4057 22.4503 14.4105 22.6271C14.4148 22.7858 14.3643 22.8928 14.3455 22.9277C14.3274 22.9613 14.3182 22.966 14.3441 22.9374C14.3691 22.9098 14.4003 22.8793 14.4558 22.8261L13.0722 21.3819C12.9973 21.4537 12.7445 21.6831 12.5854 21.9778C12.4964 22.1427 12.4032 22.3848 12.4113 22.6811C12.4197 22.9956 12.5398 23.2759 12.7243 23.4995L14.267 22.2268ZM14.3197 22.1759C14.2687 22.1618 14.2335 22.152 14.2009 22.1417C14.1692 22.1318 14.1521 22.1251 14.1442 22.1217C14.136 22.1182 14.1473 22.1222 14.1693 22.1371C14.192 22.1525 14.2329 22.1841 14.2757 22.2375L12.7156 23.4888C12.9232 23.7476 13.181 23.8844 13.3525 23.9584C13.5251 24.0327 13.6996 24.0795 13.7857 24.1033L14.3197 22.1759ZM14.4126 22.2021C14.3796 22.1925 14.3463 22.1833 14.3197 22.1759L13.7857 24.1033C13.8148 24.1114 13.8355 24.1171 13.854 24.1225L14.4126 22.2021ZM14.8034 22.3098C14.6044 22.2326 14.415 22.1983 14.3237 22.1806L13.9429 24.144C13.9979 24.1547 14.0267 24.1605 14.0519 24.1666C14.074 24.1719 14.081 24.1748 14.0802 24.1744L14.8034 22.3098ZM16.2289 22.9615C15.7504 22.6264 15.22 22.3955 14.6668 22.2677L14.2168 24.2165C14.5274 24.2882 14.8197 24.4163 15.0816 24.5997L16.2289 22.9615ZM16.285 23.0017C16.2692 22.9904 16.2564 22.9813 16.2434 22.9718L15.0671 24.5894C15.0883 24.6047 15.1078 24.6187 15.123 24.6295L16.285 23.0017ZM16.2922 23.0069L16.2922 23.0069L15.1158 24.6243L15.1159 24.6244L16.2922 23.0069ZM16.2901 23.0054L16.2899 23.0052L15.1182 24.6261L15.1185 24.6262L16.2901 23.0054ZM16.5571 23.2223C16.4462 23.1147 16.3367 23.0386 16.2854 23.002L15.1232 24.6297C15.1388 24.6408 15.149 24.6481 15.1581 24.6547C15.1668 24.661 15.1715 24.6646 15.174 24.6666C15.1779 24.6696 15.1729 24.6659 15.1648 24.6581L16.5571 23.2223ZM16.0255 23C16.1538 23 16.3669 23.0378 16.5571 23.2223L15.1648 24.6581C15.4373 24.9223 15.7738 25 16.0255 25V23ZM15.4939 23.2223C15.6841 23.0378 15.8972 23 16.0255 23V25C16.2772 25 16.6137 24.9223 16.8862 24.6581L15.4939 23.2223ZM15.6587 23.0883C15.6491 23.0962 15.6426 23.1016 15.6366 23.1064C15.6309 23.1111 15.6277 23.1136 15.6261 23.1148C15.6246 23.116 15.6257 23.1151 15.6289 23.1128C15.6321 23.1104 15.6384 23.106 15.6472 23.1004L16.7329 24.78C16.8235 24.7214 16.9028 24.6547 16.9283 24.6337L15.6587 23.0883ZM15.6773 23.0735L15.6772 23.0735L16.9098 24.6485L16.9099 24.6485L15.6773 23.0735ZM15.8076 22.9719C15.7427 23.019 15.6878 23.0644 15.6588 23.0883L16.9284 24.6336C16.9614 24.6065 16.9733 24.597 16.9839 24.5893L15.8076 22.9719ZM17.4356 22.2573C16.8044 22.3686 16.2514 22.6427 15.8001 22.9774L16.9914 24.5839C17.2393 24.4 17.5091 24.2752 17.7829 24.2269L17.4356 22.2573ZM17.5561 22.23C17.557 22.2297 17.55 22.2325 17.5279 22.2378C17.5027 22.244 17.4739 22.2497 17.4189 22.2604L17.7996 24.2238C17.8909 24.2061 18.0803 24.1718 18.2794 24.0946L17.5561 22.23ZM17.7093 22.1832L17.664 22.1951L18.1715 24.1296L18.2169 24.1177L17.7093 22.1832ZM17.7753 22.2375C17.8147 22.1883 17.8531 22.1581 17.8766 22.1422C17.899 22.1271 17.9106 22.1231 17.9024 22.1266C17.8941 22.13 17.8759 22.1369 17.8414 22.1472C17.8056 22.1579 17.7668 22.1681 17.7103 22.1829L18.2159 24.1179C18.3108 24.0931 18.4957 24.0466 18.677 23.9704C18.8621 23.8927 19.1238 23.7527 19.3354 23.4888L17.7753 22.2375ZM17.5893 22.8188C17.6381 22.8613 17.6712 22.8914 17.6976 22.9187C17.7259 22.948 17.7231 22.9505 17.7092 22.9271C17.6964 22.9052 17.643 22.8086 17.6403 22.6547C17.6373 22.4757 17.7044 22.3232 17.784 22.2268L19.3267 23.4995C19.5297 23.2535 19.6457 22.9489 19.64 22.6203C19.6348 22.3168 19.5275 22.0732 19.4323 21.9117C19.256 21.6124 18.9931 21.3893 18.9044 21.3119L17.5893 22.8188ZM17.2588 22.5397C17.4003 22.6544 17.4954 22.7321 17.5655 22.7973L18.9282 21.3334C18.7977 21.2119 18.6437 21.0877 18.5182 20.986L17.2588 22.5397ZM15.8956 19.7668C15.6452 20.5513 15.9758 21.2065 16.289 21.6128C16.5918 22.0055 17.0045 22.3335 17.2588 22.5397L18.5182 20.986C18.2214 20.7454 18.0063 20.5646 17.8729 20.3916C17.75 20.2322 17.836 20.2648 17.8009 20.3749L15.8956 19.7668ZM18.5384 19.6602C18.1782 19.6065 17.7665 19.4338 17.3289 19.1939L16.3676 20.9478C16.8761 21.2265 17.5339 21.5325 18.2433 21.6383L18.5384 19.6602ZM18.3998 19.6948C18.4413 19.6718 18.4793 19.6617 18.5032 19.6581C18.5241 19.6549 18.5253 19.658 18.4979 19.655L18.2837 21.6435C18.6004 21.6776 18.9897 21.6544 19.3691 21.4442L18.3998 19.6948ZM20.506 20.6514L19.5393 19.8138L18.2296 21.3252L19.1962 22.1629L20.506 20.6514ZM20.8202 21.679C20.8219 21.6709 20.829 21.6372 20.8349 21.6009C20.8405 21.5666 20.8511 21.495 20.8511 21.4072H18.8511C18.8511 21.3704 18.8534 21.3409 18.8554 21.3218C18.8574 21.3023 18.8596 21.2875 18.8609 21.2795C18.863 21.2669 18.8649 21.2582 18.8615 21.275L20.8202 21.679ZM20.8306 21.5468C20.8306 21.5835 20.8283 21.613 20.8263 21.6321C20.8243 21.6516 20.8221 21.6664 20.8208 21.6744C20.8187 21.6871 20.8168 21.6957 20.8202 21.679L18.8615 21.275C18.8598 21.2831 18.8527 21.3167 18.8468 21.3531C18.8412 21.3874 18.8306 21.4589 18.8306 21.5468H20.8306ZM21.1263 21.8033C20.9295 21.8033 20.8306 21.6638 20.8306 21.5468H18.8306C18.8306 22.8259 19.8834 23.8033 21.1263 23.8033V21.8033ZM21.4221 21.5468C21.4221 21.6638 21.3231 21.8033 21.1263 21.8033V23.8033C22.3693 23.8033 23.4221 22.8259 23.4221 21.5468H21.4221ZM21.1263 21.2903C21.3231 21.2903 21.4221 21.4298 21.4221 21.5468H23.4221C23.4221 20.2677 22.3693 19.2903 21.1263 19.2903V21.2903ZM20.9275 21.3562C20.9503 21.332 21.0092 21.2903 21.1263 21.2903V19.2903C20.503 19.2903 19.9037 19.5277 19.4741 19.9823L20.9275 21.3562ZM18.7205 20.7046L19.5432 21.4226L20.8583 19.9158L20.0356 19.1978L18.7205 20.7046ZM18.3983 19.7311C18.4026 19.7359 18.4032 19.7377 18.4025 19.7363C18.4018 19.735 18.4011 19.7331 18.4007 19.7314C18.3998 19.7276 18.402 19.7329 18.3987 19.7492L20.3575 20.1532C20.4759 19.5791 20.357 18.9338 19.9053 18.4161L18.3983 19.7311ZM17.5577 18.7128L18.3804 19.71L19.9232 18.4372L19.1005 17.44L17.5577 18.7128ZM18.2724 16.79C17.7455 16.8752 17.4607 17.2721 17.3577 17.5718C17.2534 17.8753 17.2433 18.3316 17.5577 18.7128L19.1005 17.44C19.3326 17.7214 19.3123 18.0381 19.2491 18.222C19.1872 18.402 18.995 18.6992 18.5915 18.7644L18.2724 16.79ZM19.6909 17.1367C19.5234 17.0554 19.3132 16.952 19.1156 16.882C18.9165 16.8114 18.6022 16.7256 18.2416 16.7955L18.6223 18.7589C18.5428 18.7743 18.4815 18.7696 18.4513 18.7652C18.4242 18.7613 18.4197 18.7573 18.4476 18.7672C18.4752 18.7769 18.5173 18.794 18.5832 18.8242C18.6492 18.8543 18.7232 18.8902 18.8184 18.9363L19.6909 17.1367ZM21.4666 17.3291C20.8345 17.6582 20.3318 17.4573 19.7022 17.1422L18.8071 18.9307C19.4527 19.2539 20.8011 19.9306 22.3904 19.1029L21.4666 17.3291ZM22.9002 14.7375C22.8128 15.1951 22.6307 15.7825 22.359 16.3009C22.0777 16.8379 21.7649 17.179 21.4793 17.3226L22.3777 19.1094C23.2027 18.6946 23.764 17.9287 24.1306 17.2291C24.5069 16.5109 24.7464 15.7321 24.8647 15.1127L22.9002 14.7375ZM22.7075 10.9829C23.0235 12.2264 23.0802 13.509 22.8931 14.7793L24.8717 15.0708C25.096 13.5489 25.0293 11.9994 24.646 10.4904L22.7075 10.9829ZM21.1263 20.0482C20.4874 20.0482 19.9266 20.4648 19.7281 21.0422L21.6195 21.6924C21.5775 21.8147 21.5038 21.8991 21.4301 21.9522C21.3544 22.0066 21.2505 22.0482 21.1263 22.0482V20.0482ZM22.5994 21.5069C22.5994 20.7144 21.9451 20.0482 21.1263 20.0482V22.0482C20.8423 22.0482 20.5994 21.8207 20.5994 21.5069H22.5994ZM21.1263 22.9656C21.8675 22.9656 22.5994 22.3747 22.5994 21.5069H20.5994C20.5994 21.3342 20.6769 21.193 20.77 21.1053C20.8588 21.0217 20.9825 20.9656 21.1263 20.9656V22.9656ZM19.6533 21.5069C19.6533 22.2994 20.3075 22.9656 21.1263 22.9656V20.9656C21.4104 20.9656 21.6533 21.1931 21.6533 21.5069H19.6533ZM19.785 20.909C19.6907 21.092 19.6686 21.2616 19.6611 21.3345C19.6525 21.4181 19.6533 21.4927 19.6533 21.5069H21.6533C21.6533 21.4812 21.654 21.5059 21.6506 21.5397C21.6486 21.5592 21.6441 21.5937 21.6334 21.6376C21.623 21.6803 21.6028 21.7477 21.5626 21.8256L19.785 20.909Z" fill="white" mask="url(#path-2-inside-1)"/>
</g>
</svg>
