<svg width="32" height="32" viewBox="0 0 32 32" fill="none" xmlns="http://www.w3.org/2000/svg">
<path d="M7.51477 11.9131V25.8794H13.6V18.32H18.4V25.8794H24.4853V11.9131" stroke="white" stroke-width="2"/>
<path d="M16 6.24264L16.5429 5.40284C16.2125 5.18924 15.7875 5.18924 15.4571 5.40284L16 6.24264ZM27.4571 14.8398C27.9209 15.1396 28.54 15.0067 28.8398 14.5429C29.1396 14.0791 29.0067 13.46 28.5429 13.1602L27.4571 14.8398ZM3.45711 13.1602C2.9933 13.46 2.86037 14.0791 3.1602 14.5429C3.46003 15.0067 4.07908 15.1396 4.54289 14.8398L3.45711 13.1602ZM15.4571 7.08245L27.4571 14.8398L28.5429 13.1602L16.5429 5.40284L15.4571 7.08245ZM4.54289 14.8398L16.5429 7.08245L15.4571 5.40284L3.45711 13.1602L4.54289 14.8398Z" fill="white"/>
</svg>
