<svg width="32" height="32" viewBox="0 0 32 32" fill="none" xmlns="http://www.w3.org/2000/svg">
<g opacity="">
<path d="M9.73407 3V24.8936" stroke="white" stroke-width="2"/>
<path d="M18.5958 14.8851C18.5958 17.3917 21.9074 21.7659 21.9074 21.7659C21.9074 21.7659 24.8511 17.5957 24.8511 14.8851C24.8511 12.1744 23.5632 10.2979 21.7234 10.2979C19.8836 10.2978 18.5958 12.3784 18.5958 14.8851Z" stroke="white" stroke-width="1.7"/>
<path d="M22.266 14.4681C22.266 14.7677 22.023 15.0106 21.7234 15.0106C21.4238 15.0106 21.1808 14.7677 21.1808 14.4681C21.1808 14.1684 21.4238 13.9255 21.7234 13.9255C22.023 13.9255 22.266 14.1684 22.266 14.4681Z" fill="white" stroke="white"/>
<path d="M4 26.9787V6.12766L9.73404 3L15.4681 6.12766V27.0458L9.73404 24.8936L4 26.9787Z" stroke="white" stroke-width="2"/>
<path d="M15.4681 6.12769H29.0213" stroke="white" stroke-width="2"/>
<path d="M27.9787 5.08521V15.5107V27.5001H21.7234H16.5106" stroke="white" stroke-width="2"/>
</g>
</svg>
