<svg width="24" height="24" viewBox="0 0 24 24" fill="none" xmlns="http://www.w3.org/2000/svg">
<path d="M10.6366 15.9228L8.59759 17.9603C8.5565 18.0013 8.51085 18.0394 8.46368 18.0713C8.45607 18.0759 8.44847 18.0805 8.44086 18.085C8.41955 18.0987 8.39825 18.1124 8.37695 18.1231C8.35108 18.1368 8.32369 18.1489 8.29782 18.1611C8.29478 18.1611 8.29173 18.1626 8.28869 18.1642C8.26282 18.1733 8.23696 18.1824 8.21261 18.19C8.1837 18.1992 8.15479 18.2052 8.12587 18.2113C8.06957 18.222 8.01023 18.2281 7.9524 18.2281C7.86415 18.2281 7.77741 18.2159 7.6922 18.19C7.66633 18.1824 7.64046 18.1733 7.61612 18.1642C7.61307 18.1626 7.61003 18.1611 7.60699 18.1611C7.5796 18.1489 7.55373 18.1368 7.52786 18.1231C7.50656 18.1124 7.48525 18.1003 7.46395 18.085C7.40917 18.0516 7.35591 18.0105 7.30722 17.9603H7.3057L5.26819 15.9228C4.9106 15.5652 4.9106 14.9869 5.26819 14.6309C5.62426 14.2748 6.20249 14.2748 6.55856 14.6309L7.03941 15.1117V6.913C7.03941 6.40933 7.44721 6 7.9524 6C8.45607 6 8.8654 6.40933 8.8654 6.913V15.1102L9.34472 14.6309C9.70232 14.2748 10.279 14.2748 10.6366 14.6309C10.9927 14.9869 10.9927 15.5652 10.6366 15.9228Z" fill="#808080"/>
<path d="M18.0871 7.82599H12.644C12.1398 7.82599 11.731 7.41712 11.731 6.913C11.731 6.40887 12.1398 6 12.644 6H18.0871C18.5912 6 19.0001 6.40887 19.0001 6.913C19.0001 7.41712 18.5912 7.82599 18.0871 7.82599Z" fill="#808080"/>
<path d="M16.9985 11.2571H12.644C12.1398 11.2571 11.731 10.8483 11.731 10.3441C11.731 9.84002 12.1398 9.43115 12.644 9.43115H16.9985C17.5026 9.43115 17.9115 9.84002 17.9115 10.3441C17.9115 10.8483 17.5026 11.2571 16.9985 11.2571Z" fill="#808080"/>
<path d="M15.9097 14.6878H12.644C12.1398 14.6878 11.731 14.2789 11.731 13.7748C11.731 13.2707 12.1398 12.8618 12.644 12.8618H15.9099C16.414 12.8618 16.8229 13.2707 16.8229 13.7748C16.8229 14.2789 16.414 14.6878 15.9097 14.6878Z" fill="#808080"/>
<path d="M14.8211 18.119H12.644C12.1398 18.119 11.731 17.7101 11.731 17.206C11.731 16.7018 12.1398 16.293 12.644 16.293H14.8213C15.3254 16.293 15.7343 16.7018 15.7343 17.206C15.7343 17.7101 15.3254 18.119 14.8211 18.119Z" fill="#808080"/>
</svg>
