<?xml version="1.0" standalone="no"?>
<!DOCTYPE svg PUBLIC "-//W3C//DTD SVG 1.1//EN" "http://www.w3.org/Graphics/SVG/1.1/DTD/svg11.dtd" >
<svg xmlns="http://www.w3.org/2000/svg" xmlns:xlink="http://www.w3.org/1999/xlink" version="1.1">
<metadata>
Created by FontForge 20191125 at Fri Sep  7 14:26:01 2012
 By convertio
DIN PT is a new font family of sans serif typefaces designed in ParaType on the base of well known German font developed in Deutsches Institut fur Normung e.V. (German Institute for Standardization) that was published in 1936 and registered as DIN 1451. The font has remembering geometric design and convey strong feeling of German "ordnung". Due to it naive rude shapes DIN font becomes very popular in the last years and begets enormous modern variations. ParaType version of DIN was developed by Dmitry Kirsanov and released in 2012.
</metadata>
<defs>
<font id="DINPT-Medium" horiz-adv-x="620" >
  <font-face 
    font-family="DIN PT Medium"
    font-weight="500"
    font-stretch="normal"
    units-per-em="1000"
    panose-1="2 11 6 4 3 2 3 6 2 4"
    ascent="773"
    descent="-227"
    x-height="500"
    cap-height="700"
    bbox="-455 -212 1132 996"
    underline-thickness="50"
    underline-position="-100"
    stemh="92"
    stemv="120"
    unicode-range="U+0020-FB02"
  />
<missing-glyph horiz-adv-x="300" 
 />
    <glyph glyph-name="IJ" unicode="IJ" horiz-adv-x="750" 
d="M84 0v700h120v-700h-120zM391 142c17 -34 41 -54 82 -54c47 0 81 32 81 108v504h120v-503c0 -139 -79 -209 -197 -209c-88 0 -149 37 -187 104z" />
    <glyph glyph-name="ij" unicode="ij" horiz-adv-x="507" 
d="M70 574v126h120v-126h-120zM74 0v500h112v-500h-112zM433 500v-542c0 -123 -73 -166 -163 -166h-61v94h40c50 0 72 25 72 79v535h112zM317 576v124h120v-124h-120z" />
    <glyph glyph-name="afii10017.var.accented" unicode="&#x410;`" horiz-adv-x="628" 
d="M8 0l250 700h112l250 -700h-126l-57 171h-246l-57 -171h-126zM222 271h184l-92 273zM334 750h-100l72 160h128z" />
    <glyph glyph-name="afii10022.var.accented" unicode="&#x415;`" horiz-adv-x="594" 
d="M554 100v-100h-470v700h460v-100h-340v-190h280v-100h-280v-210h350zM317 750h-100l72 160h128z" />
    <glyph glyph-name="afii10026.var.accented" unicode="&#x418;`" horiz-adv-x="728" 
d="M524 0v502l-320 -502h-120v700h120v-502l320 502h120v-700h-120zM384 750h-100l72 160h128z" />
    <glyph glyph-name="afii10032.var.accented" unicode="&#x41e;`" horiz-adv-x="674" 
d="M608 198c-23 -123 -121 -210 -271 -210s-248 87 -271 210c-10 52 -12 82 -12 152s2 99 12 152c23 122 121 210 271 210s248 -88 271 -210c10 -53 12 -82 12 -152s-2 -100 -12 -152zM337 88c84 0 134 53 148 123c9 45 11 73 11 139s-2 94 -11 139c-14 70 -64 123 -148 123
s-134 -54 -148 -123c-10 -45 -11 -73 -11 -139s1 -94 11 -139c15 -70 64 -123 148 -123zM357 750h-100l72 160h128z" />
    <glyph glyph-name="afii10037.var.accented" unicode="&#x423;`" horiz-adv-x="588" 
d="M265 190l-259 510h134l181 -362l133 362h128l-200 -520c-40 -105 -77 -180 -210 -180h-46v100h21c76 0 98 41 118 90zM314 750h-100l72 160h128z" />
    <glyph glyph-name="afii10045.var.accented" unicode="&#x42b;`" horiz-adv-x="870" 
d="M84 700h120v-267h129c143 0 256 -70 256 -216s-113 -217 -256 -217h-249v700zM204 333v-233h114c86 0 149 35 149 117s-63 116 -149 116h-114zM666 0v700h120v-700h-120zM455 750h-100l72 160h128z" />
    <glyph glyph-name="afii10047.var.accented" unicode="&#x42d;`" horiz-adv-x="642" 
d="M218 312v100h245c-1 35 -3 54 -9 80c-16 65 -62 120 -152 120c-80 0 -133 -44 -158 -110l-105 46c33 88 123 164 263 164c150 0 251 -89 274 -211c10 -53 12 -81 12 -151s-2 -99 -12 -151c-23 -123 -124 -211 -274 -211c-160 0 -246 82 -272 175l106 45
c29 -78 76 -120 166 -120s140 58 153 124c6 32 9 50 9 100h-246zM341 750h-100l72 160h128z" />
    <glyph glyph-name="afii10048.var.accented" unicode="&#x42e;`" horiz-adv-x="924" 
d="M858 199c-23 -123 -114 -210 -264 -210s-240 87 -263 210c-8 40 -11 65 -12 112h-115v-311h-120v700h120v-288h116c1 34 4 56 11 89c24 122 113 210 263 210s241 -88 264 -210c10 -53 12 -81 12 -151s-2 -99 -12 -151zM594 90c84 0 128 52 143 122c10 45 11 72 11 138
s-1 93 -11 138c-15 70 -59 122 -143 122s-128 -53 -142 -122c-10 -45 -11 -72 -11 -138s1 -93 11 -138c15 -70 58 -122 142 -122zM482 750h-100l72 160h128z" />
    <glyph glyph-name="afii10049.var.accented" unicode="&#x42f;`" horiz-adv-x="640" 
d="M312 700h244v-700h-120v277h-121l-143 -277h-138l160 299c-91 31 -145 102 -145 190c0 118 82 211 263 211zM436 600h-118c-93 0 -147 -39 -147 -111c0 -70 52 -112 137 -112h128v223zM340 750h-100l72 160h128z" />
    <glyph glyph-name="afii10023.var.accented" unicode="&#x401;`" horiz-adv-x="594" 
d="M554 100v-100h-470v700h460v-100h-340v-190h280v-100h-280v-210h350zM312 750h-80l57 160h107zM113 760v124h104v-124h-104zM398 760v124h104v-124h-104z" />
    <glyph glyph-name="afii10065.var.accented" unicode="&#x430;`" horiz-adv-x="520" 
d="M450 0h-112v54c-30 -38 -77 -64 -137 -64c-100 0 -161 63 -161 153c0 120 85 167 225 167h73v26c0 54 -31 82 -81 82c-40 0 -79 -12 -108 -53l-94 51c43 67 118 94 208 94c110 0 187 -55 187 -179v-331zM338 162v56h-75c-70 0 -109 -18 -109 -68c0 -40 27 -68 77 -68
s81 31 107 80zM270 560h-90l72 150h118z" />
    <glyph glyph-name="afii10070.var.accented" unicode="&#x435;`" horiz-adv-x="526" 
d="M265 82c50 0 89 20 110 65l95 -47c-35 -76 -105 -110 -205 -110s-178 46 -205 128c-14 41 -16 78 -16 132s2 91 16 132c27 82 105 128 205 128s174 -46 201 -128c13 -41 16 -76 16 -130v-40h-322c0 -34 1 -56 12 -78c15 -33 43 -52 93 -52zM171 365
c-10 -22 -11 -40 -11 -67h206c-1 28 -2 45 -12 67c-13 30 -39 53 -89 53s-80 -23 -94 -53zM273 560h-90l72 150h118z" />
    <glyph glyph-name="afii10074.var.accented" unicode="&#x438;`" horiz-adv-x="584" 
d="M74 500h112v-331l212 331h112v-500h-112v331l-212 -331h-112v500zM322 560h-90l72 150h118z" />
    <glyph glyph-name="afii10080.var.accented" unicode="&#x43e;`" horiz-adv-x="528" 
d="M468 118c-28 -82 -104 -128 -204 -128s-176 46 -204 128c-14 41 -16 78 -16 132s2 91 16 132c28 82 104 128 204 128s176 -46 204 -128c14 -41 16 -78 16 -132s-2 -91 -16 -132zM264 82c50 0 79 25 92 61c12 33 12 65 12 107s0 74 -12 107c-13 35 -42 61 -92 61
s-79 -26 -92 -61c-12 -33 -12 -65 -12 -107s0 -74 12 -107c13 -36 42 -61 92 -61zM274 560h-90l72 150h118z" />
    <glyph glyph-name="afii10085.var.accented" unicode="&#x443;`" horiz-adv-x="482" 
d="M194 -1l-188 501h122l119 -349l111 349h120l-189 -541c-39 -110 -91 -159 -191 -159h-50v92h34c63 0 91 37 112 107zM261 560h-90l72 150h118z" />
    <glyph glyph-name="afii10093.var.accented" unicode="&#x44b;`" horiz-adv-x="746" 
d="M186 310h108c90 0 195 -34 195 -154s-105 -156 -195 -156h-220v500h112v-190zM186 224v-138h94c55 0 93 20 93 70c0 59 -49 68 -111 68h-76zM560 0v500h112v-500h-112zM383 560h-90l72 150h118z" />
    <glyph glyph-name="afii10095.var.accented" unicode="&#x44d;`" horiz-adv-x="490" 
d="M224 82c50 0 80 21 95 61c7 18 10 42 11 69h-153v92h152c-1 20 -5 38 -10 53c-14 38 -45 61 -95 61c-40 0 -76 -15 -97 -55l-97 45c34 70 104 102 194 102c100 0 179 -47 206 -129c14 -41 16 -77 16 -131s-2 -90 -16 -131c-27 -82 -106 -129 -206 -129
c-90 0 -163 34 -198 108l96 47c21 -43 62 -63 102 -63zM255 560h-90l72 150h118z" />
    <glyph glyph-name="afii10096.var.accented" unicode="&#x44e;`" horiz-adv-x="748" 
d="M688 118c-28 -82 -100 -128 -200 -128s-172 46 -200 128c-11 32 -15 61 -16 98h-86v-216h-112v500h112v-192h87c2 26 6 49 15 74c28 82 100 128 200 128s172 -46 200 -128c14 -41 16 -78 16 -132s-2 -91 -16 -132zM488 82c50 0 75 25 88 61c12 33 12 65 12 107
s0 74 -12 107c-13 35 -38 61 -88 61s-75 -26 -88 -61c-12 -33 -12 -65 -12 -107s0 -74 12 -107c13 -36 38 -61 88 -61zM384 560h-90l72 150h118z" />
    <glyph glyph-name="afii10097.var.accented" unicode="&#x44f;`" horiz-adv-x="540" 
d="M354 190h-93l-101 -190h-130l118 202c-53 19 -102 57 -102 142c0 120 111 156 191 156h229v-500h-112v190zM354 276v138h-97c-58 0 -95 -21 -95 -70c0 -58 47 -68 113 -68h79zM280 560h-90l72 150h118z" />
    <glyph glyph-name="afii10071.var.accented" unicode="&#x451;`" horiz-adv-x="526" 
d="M265 82c50 0 89 20 110 65l95 -47c-35 -76 -105 -110 -205 -110s-178 46 -205 128c-14 41 -16 78 -16 132s2 91 16 132c27 82 105 128 205 128s174 -46 201 -128c13 -41 16 -76 16 -130v-40h-322c0 -34 1 -56 12 -78c15 -33 43 -52 93 -52zM171 365
c-10 -22 -11 -40 -11 -67h206c-1 28 -2 45 -12 67c-13 30 -39 53 -89 53s-80 -23 -94 -53zM79 576v124h100v-124h-100zM347 576v124h100v-124h-100zM266 560h-75l37 150h108z" />
    <glyph glyph-name="fi" unicode="fi" horiz-adv-x="540" 
d="M314 500v-92h-112v-408h-112v408h-76v92h76v32c0 123 73 168 163 168h61v-92h-40c-50 0 -72 -26 -72 -80v-28h112zM350 574v126h120v-126h-120zM354 0v500h112v-500h-112z" />
    <glyph glyph-name="fl" unicode="fl" horiz-adv-x="578" 
d="M314 500v-92h-112v-408h-112v408h-76v92h76v32c0 123 73 168 163 168h61v-92h-40c-50 0 -72 -26 -72 -80v-28h112zM466 700v-549c0 -40 15 -69 55 -69h47v-92h-88c-80 0 -126 54 -126 144v566h112z" />
    <glyph glyph-name=".notdef" horiz-adv-x="300" 
 />
    <glyph glyph-name="space" unicode=" " horiz-adv-x="300" 
 />
    <glyph glyph-name="exclam" unicode="!" horiz-adv-x="300" 
d="M204 197h-108l-12 503h132zM88 0v124h124v-124h-124z" />
    <glyph glyph-name="quotedbl" unicode="&#x22;" horiz-adv-x="460" 
d="M380 700v-220h-112v220h112zM192 700v-220h-112v220h112z" />
    <glyph glyph-name="numbersign" unicode="#" 
d="M357 700l-60 -216h98l59 216h98l-59 -216h95l-23 -86h-95l-27 -98h95l-23 -86h-95l-59 -214h-98l59 214h-98l-58 -214h-98l58 214h-94l22 86h95l27 98h-95l23 86h95l60 216h98zM372 398h-98l-27 -98h98z" />
    <glyph glyph-name="dollar" unicode="$" 
d="M46 149l102 47c31 -62 73 -93 123 -104v216l-34 7c-97 20 -175 81 -175 201c0 111 92 184 209 194v89h86v-92c90 -12 157 -52 197 -131l-103 -45c-26 45 -57 67 -94 75v-201l34 -8c111 -24 183 -89 183 -199c0 -118 -95 -194 -217 -207v-91h-86v92
c-111 11 -179 64 -225 157zM454 189c0 56 -35 87 -97 102v-200c59 10 97 48 97 98zM178 519c0 -50 35 -83 93 -97v187c-52 -8 -93 -39 -93 -90z" />
    <glyph glyph-name="percent" unicode="%" horiz-adv-x="852" 
d="M362 468c-17 -65 -71 -98 -137 -98s-120 33 -137 98c-7 26 -8 45 -8 72c0 28 1 46 8 72c17 65 71 98 137 98s120 -33 137 -98c7 -26 8 -44 8 -72c0 -27 -1 -46 -8 -72zM225 440c52 0 65 46 65 100s-13 100 -65 100s-65 -46 -65 -100s13 -100 65 -100zM262 -20h-86
l415 740h86zM764 88c-17 -65 -71 -98 -137 -98s-120 33 -137 98c-7 26 -8 45 -8 72c0 28 1 46 8 72c17 65 71 98 137 98s120 -33 137 -98c7 -26 8 -44 8 -72c0 -27 -1 -46 -8 -72zM627 60c52 0 65 46 65 100s-13 100 -65 100s-65 -46 -65 -100s13 -100 65 -100z" />
    <glyph glyph-name="ampersand" unicode="&#x26;" horiz-adv-x="660" 
d="M520 0l-43 54c-50 -43 -115 -66 -192 -66c-124 0 -241 67 -241 199c0 92 59 145 158 207c-43 54 -83 108 -83 165c0 100 86 153 186 153c96 0 185 -57 185 -163c0 -70 -30 -120 -131 -188l123 -154c24 31 45 84 54 121l107 -35c-12 -52 -47 -124 -91 -172l98 -121h-130z
M410 137l-139 172c-71 -43 -103 -76 -103 -126c0 -61 47 -93 117 -93c54 0 99 20 125 47zM235 549c0 -35 23 -64 54 -102c68 41 85 70 85 102c0 42 -30 63 -69 63c-36 0 -70 -16 -70 -63z" />
    <glyph glyph-name="quotesingle" unicode="'" horiz-adv-x="272" 
d="M192 700v-220h-112v220h112z" />
    <glyph glyph-name="parenleft" unicode="(" horiz-adv-x="360" 
d="M94 588c18 117 76 193 148 227l58 -96c-46 -27 -77 -77 -89 -156c-8 -50 -11 -132 -11 -213s4 -163 11 -213c9 -66 34 -123 89 -156l-58 -96c-72 34 -130 109 -148 227c-9 55 -14 158 -14 238s5 183 14 238z" />
    <glyph glyph-name="parenright" unicode=")" horiz-adv-x="360" 
d="M266 112c-18 -117 -76 -193 -148 -227l-58 96c46 27 77 77 89 156c8 50 11 132 11 213s-4 163 -11 213c-9 66 -34 123 -89 156l58 96c72 -34 130 -109 148 -227c9 -55 14 -158 14 -238s-5 -183 -14 -238z" />
    <glyph glyph-name="asterisk" unicode="*" horiz-adv-x="500" 
d="M289 700l-5 -111l90 64l40 -65l-99 -58l99 -59l-40 -65l-90 64l5 -110h-78l6 110l-90 -64l-41 65l100 59l-100 58l41 65l90 -64l-6 111h78z" />
    <glyph glyph-name="plus" unicode="+" 
d="M356 500v-154h154v-92h-154v-154h-92v154h-154v92h154v154h92z" />
    <glyph glyph-name="comma" unicode="," horiz-adv-x="292" 
d="M84 -146v270h124v-154z" />
    <glyph glyph-name="hyphen" unicode="-" horiz-adv-x="348" 
d="M54 220v100h240v-100h-240z" />
    <glyph glyph-name="period" unicode="." horiz-adv-x="292" 
d="M84 0v124h124v-124h-124z" />
    <glyph glyph-name="slash" unicode="/" horiz-adv-x="366" 
d="M366 780l-271 -860h-95l270 860h96z" />
    <glyph glyph-name="zero" unicode="0" 
d="M558 192c-25 -125 -118 -202 -248 -202s-223 77 -248 202c-11 55 -12 88 -12 158s1 103 12 158c25 125 118 202 248 202s223 -77 248 -202c11 -55 12 -88 12 -158s-1 -103 -12 -158zM310 86c79 0 119 54 130 121c8 48 10 77 10 143s-2 95 -10 143
c-11 67 -51 121 -130 121s-119 -54 -131 -121c-8 -48 -9 -77 -9 -143s1 -95 9 -143c12 -67 52 -121 131 -121z" />
    <glyph glyph-name="one" unicode="1" 
d="M375 700v-604h130v-96h-376v96h130v488l-144 -100v116l144 100h116z" />
    <glyph glyph-name="two" unicode="2" 
d="M542 0h-472v88l242 243c67 68 118 118 118 184c0 60 -42 99 -112 99c-60 0 -106 -28 -135 -99l-103 39c40 113 141 156 241 156c110 0 229 -57 229 -197c0 -100 -69 -172 -158 -261l-157 -156h307v-96z" />
    <glyph glyph-name="three" unicode="3" 
d="M231 316v96h66c64 0 115 33 115 104c0 68 -45 98 -112 98c-54 0 -107 -28 -138 -101l-100 46c38 78 117 151 243 151c150 0 225 -85 225 -184c0 -70 -35 -125 -99 -155v-4c74 -27 119 -83 119 -165c0 -125 -97 -212 -247 -212c-146 0 -217 71 -253 159l102 43
c24 -60 68 -106 148 -106c75 0 130 38 130 119c0 76 -53 111 -133 111h-66z" />
    <glyph glyph-name="four" unicode="4" 
d="M353 253v283l-189 -283h189zM353 0v157h-319v96l301 447h134v-447h101v-96h-101v-157h-116z" />
    <glyph glyph-name="five" unicode="5" 
d="M320 389c-52 0 -89 -21 -122 -71h-110v382h428v-96h-312v-171c42 38 83 52 141 52c93 0 161 -53 186 -135c11 -37 15 -64 15 -113s-4 -75 -15 -111c-25 -82 -108 -136 -216 -136c-121 0 -200 54 -241 145l102 43c25 -54 61 -92 136 -92c54 0 87 26 100 62
c11 28 14 47 14 89s-3 62 -14 91c-13 35 -40 61 -92 61z" />
    <glyph glyph-name="six" unicode="6" 
d="M188 509c-10 -39 -12 -73 -12 -129c39 48 94 81 167 81c93 0 158 -40 192 -113c15 -33 25 -72 25 -121s-10 -86 -25 -119c-34 -73 -109 -118 -222 -118c-136 0 -218 81 -241 206c-10 55 -12 94 -12 154s3 99 12 154c22 133 123 206 243 206s196 -58 232 -150l-101 -44
c-29 70 -69 98 -131 98c-74 0 -112 -48 -127 -105zM320 365c-68 0 -116 -44 -142 -100c0 -22 0 -61 20 -109c17 -42 52 -70 110 -70c60 0 97 20 115 57c12 25 17 45 17 82s-5 59 -17 84c-18 36 -45 56 -103 56z" />
    <glyph glyph-name="seven" unicode="7" 
d="M142 -12l280 616h-332v96h460v-78l-284 -634h-124z" />
    <glyph glyph-name="eight" unicode="8" 
d="M50 192c0 82 42 146 134 175c-73 27 -102 93 -102 161c0 110 88 182 228 182s228 -72 228 -182c0 -68 -36 -134 -106 -161c92 -29 138 -93 138 -175c0 -132 -110 -202 -260 -202s-260 70 -260 202zM310 318c-94 0 -140 -54 -140 -118c0 -62 52 -114 140 -114
s140 52 140 114c0 64 -46 118 -140 118zM310 414c70 0 110 52 110 104c0 58 -44 96 -110 96s-110 -38 -110 -96c0 -52 34 -104 110 -104z" />
    <glyph glyph-name="nine" unicode="9" 
d="M432 191c10 39 12 73 12 129c-39 -48 -94 -81 -167 -81c-93 0 -158 40 -192 113c-15 33 -25 72 -25 121s10 86 25 119c34 73 109 118 222 118c136 0 218 -81 241 -206c10 -55 12 -94 12 -154s-3 -99 -12 -154c-22 -133 -123 -206 -243 -206s-196 58 -232 150l101 44
c29 -70 69 -98 131 -98c74 0 112 48 127 105zM300 335c68 0 116 44 142 100c0 22 0 61 -20 109c-17 42 -52 70 -110 70c-60 0 -97 -20 -115 -57c-12 -25 -17 -45 -17 -82s5 -59 17 -84c18 -36 45 -56 103 -56z" />
    <glyph glyph-name="colon" unicode=":" horiz-adv-x="292" 
d="M84 0v124h124v-124h-124zM84 300v124h124v-124h-124z" />
    <glyph glyph-name="semicolon" unicode=";" horiz-adv-x="292" 
d="M84 300v124h124v-124h-124zM84 -146v270h124v-154z" />
    <glyph glyph-name="less" unicode="&#x3c;" 
d="M510 462l-285 -162l285 -162v-108l-400 235v70l400 235v-108z" />
    <glyph glyph-name="equal" unicode="=" 
d="M110 446h400v-92h-400v92zM110 246h400v-92h-400v92z" />
    <glyph glyph-name="greater" unicode="&#x3e;" 
d="M110 138l285 162l-285 162v108l400 -235v-70l-400 -235v108z" />
    <glyph glyph-name="question" unicode="?" horiz-adv-x="600" 
d="M342 184h-120v20c0 54 17 85 67 145c63 77 107 121 107 177c0 61 -42 90 -91 90c-47 0 -95 -26 -126 -97l-105 40c42 104 140 151 234 151c105 0 208 -57 208 -182c0 -79 -48 -126 -116 -211c-36 -45 -58 -73 -58 -113v-20zM220 0v124h124v-124h-124z" />
    <glyph glyph-name="at" unicode="@" horiz-adv-x="790" 
d="M551 552v-258c0 -36 10 -63 46 -63s46 39 50 57c7 34 9 53 9 84s-3 71 -12 113c-15 68 -54 151 -249 151s-234 -83 -249 -151c-9 -42 -12 -102 -12 -133s3 -91 12 -133c15 -70 54 -157 249 -157c161 0 205 38 239 68l65 -44c-38 -45 -111 -96 -304 -96
c-250 0 -309 123 -330 219c-8 37 -11 113 -11 143s3 106 11 143c21 96 80 215 330 215s309 -119 330 -215c8 -37 11 -93 11 -123s-3 -65 -9 -93c-15 -70 -65 -122 -139 -122s-97 36 -112 68h-4c-24 -46 -60 -68 -104 -68c-67 0 -125 46 -138 131c-5 36 -5 53 -5 72
c0 18 0 36 5 72c13 85 71 128 138 128c44 0 77 -13 99 -53h4v45h80zM471 358v20c0 65 -30 109 -83 109c-38 0 -66 -23 -73 -66c-4 -24 -4 -41 -4 -63c0 -21 0 -39 4 -61c8 -44 35 -67 73 -67c53 0 83 58 83 128z" />
    <glyph glyph-name="A" unicode="A" horiz-adv-x="628" 
d="M8 0l250 700h112l250 -700h-126l-57 171h-246l-57 -171h-126zM222 271h184l-92 273z" />
    <glyph glyph-name="B" unicode="B" horiz-adv-x="660" 
d="M84 700h271c160 0 237 -65 237 -175c0 -90 -46 -132 -107 -157v-4c78 -23 121 -78 121 -168c0 -120 -84 -196 -244 -196h-278v700zM331 311h-127v-211h138c90 0 140 34 140 104c0 80 -51 107 -151 107zM331 600h-127v-189h136c90 0 132 38 132 98c0 67 -51 91 -141 91z
" />
    <glyph glyph-name="C" unicode="C" horiz-adv-x="638" 
d="M340 88c90 0 141 53 163 126l105 -41c-27 -108 -118 -185 -268 -185s-248 87 -274 210c-11 52 -12 82 -12 152s1 99 12 152c25 122 124 210 274 210c140 0 228 -66 262 -171l-106 -38c-25 69 -66 109 -156 109s-131 -54 -148 -117c-12 -45 -14 -74 -14 -145
s2 -100 14 -145c17 -62 58 -117 148 -117z" />
    <glyph glyph-name="D" unicode="D" horiz-adv-x="690" 
d="M624 204c-23 -127 -121 -204 -276 -204h-264v700h264c155 0 253 -78 276 -204c9 -53 12 -81 12 -146s-3 -94 -12 -146zM204 100h140c94 0 143 48 157 119c9 45 11 70 11 131s-2 86 -11 131c-14 71 -63 119 -157 119h-140v-500z" />
    <glyph glyph-name="E" unicode="E" horiz-adv-x="594" 
d="M554 100v-100h-470v700h460v-100h-340v-190h280v-100h-280v-210h350z" />
    <glyph glyph-name="F" unicode="F" horiz-adv-x="554" 
d="M84 0v700h450v-100h-330v-200h270v-100h-270v-300h-120z" />
    <glyph glyph-name="G" unicode="G" horiz-adv-x="674" 
d="M340 88c120 0 150 95 154 178h-145v100h271c0 -80 0 -112 -11 -168c-21 -111 -109 -210 -269 -210c-150 0 -248 87 -274 210c-11 52 -12 82 -12 152s1 99 12 152c25 122 124 210 274 210c140 0 228 -66 262 -171l-106 -38c-25 69 -66 109 -156 109s-131 -54 -148 -117
c-12 -45 -14 -74 -14 -145s2 -100 14 -145c17 -62 58 -117 148 -117z" />
    <glyph glyph-name="H" unicode="H" horiz-adv-x="718" 
d="M84 0v700h120v-290h310v290h120v-700h-120v310h-310v-310h-120z" />
    <glyph glyph-name="I" unicode="I" horiz-adv-x="288" 
d="M84 0v700h120v-700h-120z" />
    <glyph glyph-name="J" unicode="J" horiz-adv-x="460" 
d="M101 142c17 -34 41 -54 82 -54c47 0 81 32 81 108v504h120v-503c0 -139 -79 -209 -197 -209c-88 0 -149 37 -187 104z" />
    <glyph glyph-name="K" unicode="K" horiz-adv-x="630" 
d="M84 0v700h120v-316l256 316h142l-229 -280l257 -420h-142l-193 324l-91 -112v-212h-120z" />
    <glyph glyph-name="L" unicode="L" horiz-adv-x="524" 
d="M84 0v700h120v-600h310v-100h-430z" />
    <glyph glyph-name="M" unicode="M" horiz-adv-x="844" 
d="M84 0v700h156l182 -408l182 408h156v-700h-120v487h-4l-166 -367h-96l-166 367h-4v-487h-120z" />
    <glyph glyph-name="N" unicode="N" horiz-adv-x="728" 
d="M204 482v-482h-120v700h120l320 -482v482h120v-700h-120z" />
    <glyph glyph-name="O" unicode="O" horiz-adv-x="674" 
d="M608 198c-23 -123 -121 -210 -271 -210s-248 87 -271 210c-10 52 -12 82 -12 152s2 99 12 152c23 122 121 210 271 210s248 -88 271 -210c10 -53 12 -82 12 -152s-2 -100 -12 -152zM337 88c84 0 134 53 148 123c9 45 11 73 11 139s-2 94 -11 139c-14 70 -64 123 -148 123
s-134 -54 -148 -123c-10 -45 -11 -73 -11 -139s1 -94 11 -139c15 -70 64 -123 148 -123z" />
    <glyph glyph-name="P" unicode="P" 
d="M84 700h244c170 0 258 -77 258 -213s-88 -214 -258 -214h-124v-273h-120v700zM204 373h120c100 0 138 44 138 114s-38 113 -138 113h-120v-227z" />
    <glyph glyph-name="Q" unicode="Q" horiz-adv-x="674" 
d="M608 198c-7 -38 -22 -73 -43 -103l85 -84l-72 -70l-86 86c-42 -25 -95 -39 -155 -39c-150 0 -248 87 -271 210c-10 52 -12 82 -12 152s2 99 12 152c23 122 121 210 271 210s248 -88 271 -210c10 -53 12 -82 12 -152s-2 -100 -12 -152zM337 88c29 0 55 6 76 18l-79 79
l72 70l71 -72c3 9 6 18 8 28c9 45 11 73 11 139s-2 94 -11 139c-14 70 -64 123 -148 123s-134 -54 -148 -123c-10 -45 -11 -73 -11 -139s1 -94 11 -139c15 -70 64 -123 148 -123z" />
    <glyph glyph-name="R" unicode="R" horiz-adv-x="646" 
d="M84 700h249c180 0 259 -89 259 -207c0 -88 -53 -155 -146 -186l170 -307h-138l-153 285h-121v-285h-120v700zM317 600h-113v-215h123c90 0 141 38 141 108s-51 107 -151 107z" />
    <glyph glyph-name="S" unicode="S" horiz-adv-x="600" 
d="M36 149l102 47c41 -77 101 -106 171 -106c80 0 131 39 131 99s-37 90 -107 104l-106 22c-97 20 -175 81 -175 201s107 195 237 195c120 0 207 -40 255 -135l-103 -45c-38 63 -88 79 -152 79s-117 -31 -117 -91c0 -50 32 -84 91 -97l118 -25c111 -24 183 -89 183 -199
c0 -130 -115 -209 -255 -209s-221 55 -273 160z" />
    <glyph glyph-name="T" unicode="T" horiz-adv-x="530" 
d="M205 0v600h-195v100h510v-100h-195v-600h-120z" />
    <glyph glyph-name="U" unicode="U" horiz-adv-x="700" 
d="M196 700v-434c0 -112 51 -177 154 -177c102 0 154 65 154 177v434h120v-449c0 -170 -107 -262 -274 -262s-274 92 -274 262v449h120z" />
    <glyph glyph-name="V" unicode="V" horiz-adv-x="596" 
d="M242 0l-236 700h128l164 -500l164 500h128l-236 -700h-112z" />
    <glyph glyph-name="W" unicode="W" horiz-adv-x="908" 
d="M594 0l-140 480l-140 -480h-106l-198 700h126l128 -476l135 476h110l135 -476l128 476h126l-198 -700h-106z" />
    <glyph glyph-name="X" unicode="X" horiz-adv-x="600" 
d="M10 0l220 363l-200 337h138l132 -239l132 239h138l-197 -337l217 -363h-140l-150 265l-150 -265h-140z" />
    <glyph glyph-name="Y" unicode="Y" horiz-adv-x="574" 
d="M347 0h-120v281l-221 419h136l145 -286l145 286h136l-221 -419v-281z" />
    <glyph glyph-name="Z" unicode="Z" horiz-adv-x="540" 
d="M30 0v86l320 514h-299v100h447v-86l-321 -514h333v-100h-480z" />
    <glyph glyph-name="bracketleft" unicode="[" horiz-adv-x="360" 
d="M80 -80v860h240v-92h-128v-676h128v-92h-240z" />
    <glyph glyph-name="backslash" unicode="\" horiz-adv-x="366" 
d="M0 780h96l270 -860h-96z" />
    <glyph glyph-name="bracketright" unicode="]" horiz-adv-x="360" 
d="M280 780v-860h-240v92h128v676h-128v92h240z" />
    <glyph glyph-name="asciicircum" unicode="^" 
d="M358 700l162 -260h-112l-98 167l-98 -167h-112l162 260h96z" />
    <glyph glyph-name="underscore" unicode="_" horiz-adv-x="600" 
d="M600 -74v-76h-600v76h600z" />
    <glyph glyph-name="grave" unicode="`" horiz-adv-x="500" 
d="M240 560l-100 150h117l73 -150h-90z" />
    <glyph glyph-name="a" unicode="a" horiz-adv-x="520" 
d="M450 0h-112v54c-30 -38 -77 -64 -137 -64c-100 0 -161 63 -161 153c0 120 85 167 225 167h73v26c0 54 -31 82 -81 82c-40 0 -79 -12 -108 -53l-94 51c43 67 118 94 208 94c110 0 187 -55 187 -179v-331zM338 162v56h-75c-70 0 -109 -18 -109 -68c0 -40 27 -68 77 -68
s81 31 107 80z" />
    <glyph glyph-name="b" unicode="b" horiz-adv-x="552" 
d="M74 0v700h112v-250h4c33 41 86 60 136 60c72 0 137 -37 166 -119c14 -40 16 -87 16 -141s-2 -102 -16 -142c-29 -82 -94 -118 -166 -118c-50 0 -103 19 -136 60h-4v-50h-112zM186 300v-100c0 -70 44 -118 104 -118c40 0 76 21 90 63c10 30 12 55 12 105s-2 76 -12 105
c-15 43 -50 63 -90 63c-60 0 -104 -48 -104 -118z" />
    <glyph glyph-name="c" unicode="c" horiz-adv-x="484" 
d="M266 82c40 0 79 24 96 67l96 -47c-33 -74 -102 -112 -192 -112c-100 0 -179 47 -206 129c-14 41 -16 77 -16 131s2 90 16 131c27 82 106 129 206 129c90 0 156 -32 188 -106l-97 -45c-17 44 -51 59 -91 59c-50 0 -80 -27 -94 -67c-9 -26 -12 -59 -12 -101s2 -75 12 -101
c15 -42 44 -67 94 -67z" />
    <glyph glyph-name="d" unicode="d" horiz-adv-x="552" 
d="M478 700v-700h-112v50h-4c-33 -41 -86 -60 -136 -60c-72 0 -137 36 -166 118c-14 40 -16 88 -16 142s2 101 16 141c29 82 94 119 166 119c50 0 103 -19 136 -60h4v250h112zM366 200v100c0 70 -44 118 -104 118c-40 0 -75 -20 -90 -63c-10 -29 -12 -55 -12 -105
s2 -75 12 -105c14 -42 50 -63 90 -63c60 0 104 48 104 118z" />
    <glyph glyph-name="e" unicode="e" horiz-adv-x="526" 
d="M265 82c50 0 89 20 110 65l95 -47c-35 -76 -105 -110 -205 -110s-178 46 -205 128c-14 41 -16 78 -16 132s2 91 16 132c27 82 105 128 205 128s174 -46 201 -128c13 -41 16 -76 16 -130v-40h-322c0 -34 1 -56 12 -78c15 -33 43 -52 93 -52zM171 365
c-10 -22 -11 -40 -11 -67h206c-1 28 -2 45 -12 67c-13 30 -39 53 -89 53s-80 -23 -94 -53z" />
    <glyph glyph-name="f" unicode="f" horiz-adv-x="324" 
d="M314 500v-92h-112v-408h-112v408h-76v92h76v42c0 123 73 168 163 168h61v-92h-40c-50 0 -72 -26 -72 -80v-38h112z" />
    <glyph glyph-name="g" unicode="g" horiz-adv-x="552" 
d="M478 500v-495c0 -125 -78 -215 -218 -215c-100 0 -160 29 -202 95l95 49c28 -38 58 -54 104 -54c72 0 109 52 109 129v41h-4c-33 -41 -86 -60 -136 -60c-72 0 -137 37 -166 119c-14 40 -16 87 -16 141s2 102 16 142c29 82 94 118 166 118c50 0 103 -19 136 -60h4v50h112z
M366 200v100c0 70 -44 118 -104 118c-40 0 -76 -21 -90 -63c-10 -30 -12 -55 -12 -105s2 -76 12 -105c15 -43 50 -63 90 -63c60 0 104 48 104 118z" />
    <glyph glyph-name="h" unicode="h" horiz-adv-x="564" 
d="M74 0v700h112v-250h4c30 34 78 60 134 60c100 0 170 -60 170 -200v-310h-112v300c0 80 -34 118 -94 118c-70 0 -102 -57 -102 -117v-301h-112z" />
    <glyph glyph-name="i" unicode="i" horiz-adv-x="260" 
d="M70 574v126h120v-126h-120zM74 0v500h112v-500h-112z" />
    <glyph glyph-name="j" unicode="j" horiz-adv-x="262" 
d="M188 500v-542c0 -123 -73 -166 -163 -166h-61v94h40c50 0 72 25 72 79v535h112zM72 576v124h120v-124h-120z" />
    <glyph glyph-name="k" unicode="k" horiz-adv-x="526" 
d="M74 0v700h112v-396l180 196h140l-174 -187l194 -313h-136l-136 230l-68 -74v-156h-112z" />
    <glyph glyph-name="l" unicode="l" horiz-adv-x="298" 
d="M186 700v-549c0 -40 15 -69 55 -69h47v-92h-88c-80 0 -126 54 -126 144v566h112z" />
    <glyph glyph-name="m" unicode="m" horiz-adv-x="864" 
d="M378 0v300c0 80 -32 118 -92 118c-70 0 -100 -57 -100 -117v-301h-112v500h112v-50h4c30 34 76 60 132 60c62 0 112 -25 141 -76h4c34 40 81 76 159 76c100 0 168 -60 168 -200v-310h-112v300c0 80 -32 118 -92 118c-67 0 -100 -51 -100 -108v-310h-112z" />
    <glyph glyph-name="n" unicode="n" horiz-adv-x="564" 
d="M74 0v500h112v-52h4c30 34 78 62 134 62c100 0 170 -60 170 -200v-310h-112v300c0 80 -34 118 -94 118c-70 0 -102 -57 -102 -117v-301h-112z" />
    <glyph glyph-name="o" unicode="o" horiz-adv-x="528" 
d="M468 118c-28 -82 -104 -128 -204 -128s-176 46 -204 128c-14 41 -16 78 -16 132s2 91 16 132c28 82 104 128 204 128s176 -46 204 -128c14 -41 16 -78 16 -132s-2 -91 -16 -132zM264 82c50 0 79 25 92 61c12 33 12 65 12 107s0 74 -12 107c-13 35 -42 61 -92 61
s-79 -26 -92 -61c-12 -33 -12 -65 -12 -107s0 -74 12 -107c13 -36 42 -61 92 -61z" />
    <glyph glyph-name="p" unicode="p" horiz-adv-x="552" 
d="M74 -200v700h112v-50h4c33 41 86 60 136 60c72 0 137 -36 166 -118c14 -40 16 -88 16 -142s-2 -101 -16 -141c-29 -82 -94 -119 -166 -119c-50 0 -103 19 -136 60h-4v-250h-112zM186 300v-100c0 -70 44 -118 104 -118c40 0 75 20 90 63c10 29 12 55 12 105s-2 75 -12 105
c-14 42 -50 63 -90 63c-60 0 -104 -48 -104 -118z" />
    <glyph glyph-name="q" unicode="q" horiz-adv-x="552" 
d="M478 500v-700h-112v250h-4c-33 -41 -86 -60 -136 -60c-72 0 -137 37 -166 119c-14 40 -16 87 -16 141s2 102 16 142c29 82 94 118 166 118c50 0 103 -19 136 -60h4v50h112zM366 200v100c0 70 -44 118 -104 118c-40 0 -76 -21 -90 -63c-10 -30 -12 -55 -12 -105
s2 -76 12 -105c15 -43 50 -63 90 -63c60 0 104 48 104 118z" />
    <glyph glyph-name="r" unicode="r" horiz-adv-x="438" 
d="M74 0v500h112v-50h4c27 33 65 60 118 60c63 0 100 -29 130 -72l-86 -63c-17 27 -40 43 -73 43c-52 0 -93 -45 -93 -116v-302h-112z" />
    <glyph glyph-name="s" unicode="s" horiz-adv-x="490" 
d="M36 94l95 48c27 -46 69 -60 119 -60s90 20 90 60s-23 59 -74 64l-56 5c-114 10 -158 67 -158 147c0 100 98 152 198 152c110 0 163 -50 188 -97l-94 -50c-18 30 -40 55 -100 55c-50 0 -82 -19 -82 -55c0 -30 19 -59 68 -63l56 -4c106 -8 168 -59 168 -149
c0 -100 -100 -157 -210 -157c-120 0 -175 45 -208 104z" />
    <glyph glyph-name="t" unicode="t" horiz-adv-x="320" 
d="M14 408v92h75v150h112v-150h101v-92h-101v-254c0 -40 14 -72 54 -72h47v-92h-87c-80 0 -126 54 -126 144v274h-75z" />
    <glyph glyph-name="u" unicode="u" horiz-adv-x="564" 
d="M490 500v-500h-112v50h-4c-30 -34 -78 -61 -134 -61c-100 0 -170 61 -170 201v310h112v-300c0 -80 34 -119 94 -119c70 0 102 58 102 118v301h112z" />
    <glyph glyph-name="v" unicode="v" horiz-adv-x="492" 
d="M193 0l-187 500h122l118 -354l118 354h122l-187 -500h-106z" />
    <glyph glyph-name="w" unicode="w" horiz-adv-x="784" 
d="M503 0l-111 346l-111 -346h-106l-165 500h120l101 -350l108 350h106l108 -350l101 350h120l-165 -500h-106z" />
    <glyph glyph-name="x" unicode="x" horiz-adv-x="488" 
d="M6 0l169 265l-151 235h130l90 -152l90 152h130l-151 -235l169 -265h-132l-106 173l-106 -173h-132z" />
    <glyph glyph-name="y" unicode="y" horiz-adv-x="484" 
d="M194 -1l-188 501h122l119 -349l111 349h120l-189 -541c-39 -110 -91 -159 -191 -159h-50v92h34c63 0 91 37 112 107z" />
    <glyph glyph-name="z" unicode="z" horiz-adv-x="442" 
d="M30 0v80l230 324v4h-218v92h364v-80l-230 -324v-4h236v-92h-382z" />
    <glyph glyph-name="braceleft" unicode="{" horiz-adv-x="460" 
d="M380 688h-10c-75 0 -82 -37 -82 -132v-55c0 -95 -8 -130 -79 -151c71 -20 79 -67 79 -162v-56c0 -95 7 -120 82 -120h10v-92h-53c-135 0 -151 79 -151 179v76c0 100 -16 129 -86 129h-10v92h10c70 0 86 29 86 129v75c0 100 16 180 151 180h53v-92z" />
    <glyph glyph-name="bar" unicode="|" 
d="M366 780v-860h-112v860h112z" />
    <glyph glyph-name="braceright" unicode="}" horiz-adv-x="460" 
d="M80 12h10c75 0 82 37 82 132v55c0 95 8 130 79 151c-71 20 -79 67 -79 162v56c0 95 -7 120 -82 120h-10v92h53c135 0 151 -79 151 -179v-76c0 -100 16 -129 86 -129h10v-92h-10c-70 0 -86 -29 -86 -129v-75c0 -100 -16 -180 -151 -180h-53v92z" />
    <glyph glyph-name="asciitilde" unicode="~" 
d="M230 368c28 0 54 -10 81 -23c32 -15 56 -25 78 -25c30 0 62 23 85 48l56 -68c-35 -39 -93 -73 -141 -73c-29 0 -55 11 -82 23c-32 15 -55 25 -77 25c-30 0 -63 -23 -85 -48l-55 68c38 39 92 73 140 73z" />
    <glyph glyph-name="uni00A0" unicode="&#xa0;" horiz-adv-x="300" 
 />
    <glyph glyph-name="exclamdown" unicode="&#xa1;" horiz-adv-x="300" 
d="M96 303h108l12 -503h-132zM212 500v-124h-124v124h124z" />
    <glyph glyph-name="cent" unicode="&#xa2;" 
d="M363 700v-92c72 -7 133 -41 161 -104l-97 -45c-12 28 -33 50 -64 56v-328c33 8 56 34 69 62l96 -47c-27 -61 -94 -100 -165 -109v-93h-76v91c-87 8 -155 53 -179 128c-14 41 -16 77 -16 131s2 90 16 131c23 71 94 117 179 127v92h76zM215 249c12 -33 35 -55 72 -64v328
c-38 -9 -61 -31 -72 -62c-9 -26 -11 -59 -11 -101s2 -75 11 -101z" />
    <glyph glyph-name="sterling" unicode="&#xa3;" 
d="M370 393v-86h-150v-207h330v-100h-450v307h-66v86h66v118c0 130 108 199 217 199c100 0 177 -38 224 -122l-103 -46c-32 49 -61 68 -117 68c-57 0 -101 -41 -101 -104v-113h150z" />
    <glyph glyph-name="currency" unicode="&#xa4;" 
d="M496 104l-77 78c-33 -22 -70 -31 -109 -31c-41 0 -76 9 -109 31l-77 -78l-62 63l77 77c-22 33 -32 70 -32 109s10 75 32 108l-77 77l62 62l77 -77c33 22 69 32 109 32c39 0 75 -10 109 -33l77 78l62 -62l-77 -77c22 -33 32 -69 32 -108c0 -40 -10 -76 -32 -109l77 -77z
M421 353c0 66 -46 114 -111 114s-111 -49 -111 -114s46 -114 111 -114s111 49 111 114z" />
    <glyph glyph-name="yen" unicode="&#xa5;" 
d="M370 0h-120v167h-150v76h150v38l-26 48h-124v76h84l-154 295h136l144 -286l144 286h136l-155 -295h85v-76h-125l-25 -48v-38h150v-76h-150v-167z" />
    <glyph glyph-name="brokenbar" unicode="&#xa6;" 
d="M366 780v-340h-112v340h112zM366 -80h-112v340h112v-340z" />
    <glyph glyph-name="section" unicode="&#xa7;" horiz-adv-x="510" 
d="M183 547c0 -43 31 -68 97 -83c93 -21 176 -64 176 -186c0 -75 -37 -130 -102 -158c59 -22 101 -71 101 -136c0 -95 -76 -162 -189 -162c-107 0 -174 44 -209 106l95 47c25 -43 64 -60 109 -60c53 0 82 29 82 72c0 51 -51 73 -113 85c-93 18 -176 64 -176 186
c0 76 37 131 103 159c-52 23 -86 74 -86 133c0 95 78 160 187 160c103 0 163 -52 190 -99l-94 -49c-16 30 -40 55 -92 55c-53 0 -79 -29 -79 -70zM265 162c46 0 75 44 75 106c0 68 -34 106 -95 106c-47 0 -75 -43 -75 -106c0 -67 34 -106 95 -106z" />
    <glyph glyph-name="dieresis" unicode="&#xa8;" horiz-adv-x="500" 
d="M90 576v124h110v-124h-110zM300 576v124h110v-124h-110z" />
    <glyph glyph-name="copyright" unicode="&#xa9;" horiz-adv-x="820" 
d="M60 350c0 212 148 362 350 362s350 -150 350 -362s-148 -362 -350 -362s-350 150 -350 362zM140 350c0 -163 109 -286 270 -286s270 123 270 286s-107 286 -270 286s-270 -123 -270 -286zM420 230c44 0 63 27 82 62l66 -39c-34 -64 -87 -99 -153 -99
c-115 0 -166 90 -166 200c0 109 51 200 167 200c67 0 115 -31 148 -94l-68 -35c-18 35 -35 53 -76 53c-72 0 -85 -66 -85 -124c0 -62 21 -124 85 -124z" />
    <glyph glyph-name="ordfeminine" unicode="&#xaa;" horiz-adv-x="400" 
d="M350 338h-86v36c-28 -32 -67 -44 -103 -44c-64 0 -121 40 -121 109c0 87 80 128 174 128h50v13c0 33 -19 60 -62 60c-34 0 -60 -11 -79 -38l-74 40c36 50 95 68 160 68c83 0 141 -46 141 -132v-240zM264 459v38h-52c-46 0 -82 -10 -82 -52c0 -28 20 -45 50 -45
c27 0 61 17 84 59z" />
    <glyph glyph-name="guillemotleft" unicode="&#xab;" horiz-adv-x="614" 
d="M294 46l-244 224l244 224v-128l-108 -96l108 -96v-128zM544 46l-244 224l244 224v-128l-108 -96l108 -96v-128z" />
    <glyph glyph-name="logicalnot" unicode="&#xac;" 
d="M522 435v-265h-92v173h-332v92h424z" />
    <glyph glyph-name="uni00AD" unicode="&#xad;" horiz-adv-x="348" 
d="M54 220v100h240v-100h-240z" />
    <glyph glyph-name="registered" unicode="&#xae;" horiz-adv-x="820" 
d="M60 350c0 212 148 362 350 362s350 -150 350 -362s-148 -362 -350 -362s-350 150 -350 362zM140 350c0 -163 109 -286 270 -286s270 123 270 286s-107 286 -270 286s-270 -123 -270 -286zM355 300h52l76 -141h96l-88 154c49 19 83 54 83 114c0 100 -95 125 -165 125h-138
v-393h84v141zM355 376v100h59c45 0 74 -13 74 -49c0 -35 -29 -51 -74 -51h-59z" />
    <glyph glyph-name="macron" unicode="&#xaf;" horiz-adv-x="500" 
d="M130 586v88h240v-88h-240z" />
    <glyph glyph-name="degree" unicode="&#xb0;" 
d="M310 720c90 0 160 -69 160 -160c0 -90 -68 -160 -160 -160s-160 69 -160 160c0 92 69 160 160 160zM392 560c0 48 -34 86 -82 86c-49 0 -82 -37 -82 -86s34 -86 82 -86c49 0 82 38 82 86z" />
    <glyph glyph-name="plusminus" unicode="&#xb1;" 
d="M356 550v-154h154v-92h-154v-154h-92v154h-154v92h154v154h92zM110 92h400v-92h-400v92z" />
    <glyph glyph-name="twosuperior" unicode="&#xb2;" horiz-adv-x="400" 
d="M343 290h-288v60l120 125c46 47 78 81 78 115c0 29 -16 52 -47 52s-53 -19 -70 -56l-77 34c35 64 91 90 153 90c83 0 131 -50 131 -120c0 -49 -32 -94 -75 -140l-86 -92h161v-68z" />
    <glyph glyph-name="threesuperior" unicode="&#xb3;" horiz-adv-x="400" 
d="M159 468v68h34c37 0 57 23 57 55c0 31 -24 51 -52 51c-26 0 -52 -14 -67 -46l-76 32c21 39 68 82 148 82c86 0 137 -47 137 -112c0 -40 -25 -75 -55 -92v-4c38 -15 65 -45 65 -95c0 -76 -67 -123 -147 -123c-86 0 -131 37 -153 82l76 31c17 -28 36 -44 72 -44
s62 20 62 60c0 30 -22 55 -67 55h-34z" />
    <glyph glyph-name="acute" unicode="&#xb4;" horiz-adv-x="500" 
d="M260 560h-90l72 150h118z" />
    <glyph glyph-name="mu" unicode="&#xb5;" horiz-adv-x="572" 
d="M498 500v-500h-112v50h-4c-26 -41 -56 -60 -98 -60c-39 0 -75 21 -94 60h-4v-250h-112v700h112v-299c0 -60 41 -119 98 -119c63 0 102 59 102 117v301h112z" />
    <glyph glyph-name="mu" unicode="&#x3bc;" horiz-adv-x="572" 
d="M498 500v-500h-112v50h-4c-26 -41 -56 -60 -98 -60c-39 0 -75 21 -94 60h-4v-250h-112v700h112v-299c0 -60 41 -119 98 -119c63 0 102 59 102 117v301h112z" />
    <glyph glyph-name="paragraph" unicode="&#xb6;" horiz-adv-x="658" 
d="M273 700h311v-900h-112v808h-94v-808h-112v520c-133 0 -226 73 -226 190c0 120 93 190 233 190z" />
    <glyph glyph-name="periodcentered" unicode="&#xb7;" horiz-adv-x="292" 
d="M84 276v124h124v-124h-124z" />
    <glyph glyph-name="cedilla" unicode="&#xb8;" horiz-adv-x="500" 
d="M150 -210v60h80c24 0 40 10 40 30s-16 30 -40 30h-48v90h76v-34c60 0 98 -36 98 -86s-36 -90 -106 -90h-100z" />
    <glyph glyph-name="onesuperior" unicode="&#xb9;" horiz-adv-x="400" 
d="M243 700v-342h77v-68h-240v68h77v250l-77 -82v92l82 82h81z" />
    <glyph glyph-name="ordmasculine" unicode="&#xba;" horiz-adv-x="400" 
d="M350 431c-19 -64 -76 -101 -150 -101s-131 37 -150 101c-9 30 -10 52 -10 89c0 38 1 59 10 89c19 64 76 101 150 101s131 -37 150 -101c9 -30 10 -51 10 -89c0 -37 -1 -59 -10 -89zM200 400c30 0 50 15 60 41c10 24 10 49 10 79c0 31 0 56 -10 79c-10 25 -29 41 -60 41
s-50 -16 -61 -41c-9 -23 -9 -49 -9 -79s0 -55 9 -79c11 -26 31 -41 61 -41z" />
    <glyph glyph-name="guillemotright" unicode="&#xbb;" horiz-adv-x="614" 
d="M320 494l244 -224l-244 -224v128l108 96l-108 96v128zM70 494l244 -224l-244 -224v128l108 96l-108 96v128z" />
    <glyph glyph-name="onequarter" unicode="&#xbc;" horiz-adv-x="900" 
d="M286 -20h-86l414 740h86zM676 142v166l-106 -166h106zM676 0v74h-207v64l177 272h116v-268h58v-68h-58v-74h-86zM243 700v-342h77v-68h-240v68h77v250l-77 -82v92l82 82h81z" />
    <glyph glyph-name="onehalf" unicode="&#xbd;" horiz-adv-x="900" 
d="M281 -20h-86l414 740h86zM239 700v-342h77v-68h-240v68h77v250l-77 -82v92l82 82h81zM824 0h-288v60l120 125c46 47 78 81 78 115c0 29 -16 52 -47 52s-53 -19 -70 -56l-77 34c35 64 91 90 153 90c83 0 131 -50 131 -120c0 -49 -32 -94 -75 -140l-86 -92h161v-68z" />
    <glyph glyph-name="threequarters" unicode="&#xbe;" horiz-adv-x="900" 
d="M306 -20h-86l414 740h86zM696 142v166l-106 -166h106zM696 0v74h-207v64l177 272h116v-268h58v-68h-58v-74h-86zM169 468v68h34c37 0 57 23 57 55c0 31 -24 51 -52 51c-26 0 -52 -14 -67 -46l-76 32c21 39 68 82 148 82c86 0 137 -47 137 -112c0 -40 -25 -75 -55 -92v-4
c38 -15 65 -45 65 -95c0 -76 -67 -123 -147 -123c-86 0 -131 37 -153 82l76 31c17 -28 36 -44 72 -44s62 20 62 60c0 30 -22 55 -67 55h-34z" />
    <glyph glyph-name="questiondown" unicode="&#xbf;" horiz-adv-x="600" 
d="M258 316h120v-20c0 -54 -17 -85 -67 -145c-63 -77 -107 -121 -107 -177c0 -61 42 -90 91 -90c47 0 95 26 126 97l105 -40c-42 -104 -140 -151 -234 -151c-105 0 -208 57 -208 182c0 79 48 126 116 211c36 45 58 73 58 113v20zM380 500v-124h-124v124h124z" />
    <glyph glyph-name="Agrave" unicode="&#xc0;" horiz-adv-x="628" 
d="M8 0l250 700h112l250 -700h-126l-57 171h-246l-57 -171h-126zM222 271h184l-92 273zM394 750h-100l-100 160h127z" />
    <glyph glyph-name="Aacute" unicode="&#xc1;" horiz-adv-x="628" 
d="M8 0l250 700h112l250 -700h-126l-57 171h-246l-57 -171h-126zM222 271h184l-92 273zM334 750h-100l72 160h128z" />
    <glyph glyph-name="Acircumflex" unicode="&#xc2;" horiz-adv-x="628" 
d="M8 0l250 700h112l250 -700h-126l-57 171h-246l-57 -171h-126zM222 271h184l-92 273zM139 750l119 160h112l119 -160h-114l-61 91l-61 -91h-114z" />
    <glyph glyph-name="Atilde" unicode="&#xc3;" horiz-adv-x="628" 
d="M8 0l250 700h112l250 -700h-126l-57 171h-246l-57 -171h-126zM222 271h184l-92 273zM243 890c32 0 52 -12 81 -25c24 -11 41 -21 62 -21c26 0 51 19 73 43l60 -68c-35 -37 -86 -69 -135 -69c-32 0 -52 13 -79 26c-24 11 -43 20 -64 20c-26 0 -51 -19 -73 -42l-59 68
c38 37 85 68 134 68z" />
    <glyph glyph-name="Adieresis" unicode="&#xc4;" horiz-adv-x="628" 
d="M8 0l250 700h112l250 -700h-126l-57 171h-246l-57 -171h-126zM222 271h184l-92 273zM148 760v124h114v-124h-114zM366 760v124h114v-124h-114z" />
    <glyph glyph-name="Aring" unicode="&#xc5;" horiz-adv-x="628" 
d="M8 0l250 700h112l250 -700h-126l-57 171h-246l-57 -171h-126zM222 271h184l-92 273zM186 868c0 71 57 128 128 128s128 -57 128 -128s-57 -128 -128 -128s-128 57 -128 128zM264 868c0 -31 21 -54 50 -54s50 23 50 54s-21 54 -50 54s-50 -23 -50 -54z" />
    <glyph glyph-name="AE" unicode="&#xc6;" horiz-adv-x="930" 
d="M890 100v-100h-470v186h-183l-96 -186h-135l368 700h506v-100h-340v-190h280v-100h-280v-210h350zM287 286h133v258z" />
    <glyph glyph-name="Ccedilla" unicode="&#xc7;" horiz-adv-x="638" 
d="M260 -212v64h85c20 0 41 7 41 27s-21 27 -41 27h-53v85c-123 16 -203 97 -226 207c-11 52 -12 82 -12 152s1 99 12 152c25 122 124 210 274 210c140 0 228 -66 262 -171l-106 -38c-25 69 -66 109 -156 109s-131 -54 -148 -117c-12 -45 -14 -74 -14 -145s2 -100 14 -145
c17 -62 58 -117 148 -117s141 53 163 126l105 -41c-25 -99 -103 -171 -230 -183v-24c60 0 100 -35 100 -87s-43 -91 -108 -91h-110z" />
    <glyph glyph-name="Egrave" unicode="&#xc8;" horiz-adv-x="594" 
d="M554 100v-100h-470v700h460v-100h-340v-190h280v-100h-280v-210h350zM377 750h-100l-100 160h127z" />
    <glyph glyph-name="Eacute" unicode="&#xc9;" horiz-adv-x="594" 
d="M554 100v-100h-470v700h460v-100h-340v-190h280v-100h-280v-210h350zM317 750h-100l72 160h128z" />
    <glyph glyph-name="Ecircumflex" unicode="&#xca;" horiz-adv-x="594" 
d="M554 100v-100h-470v700h460v-100h-340v-190h280v-100h-280v-210h350zM122 750l119 160h112l119 -160h-114l-61 91l-61 -91h-114z" />
    <glyph glyph-name="Edieresis" unicode="&#xcb;" horiz-adv-x="594" 
d="M554 100v-100h-470v700h460v-100h-340v-190h280v-100h-280v-210h350zM131 760v124h114v-124h-114zM349 760v124h114v-124h-114z" />
    <glyph glyph-name="Igrave" unicode="&#xcc;" horiz-adv-x="288" 
d="M84 0v700h120v-700h-120zM224 750h-100l-100 160h127z" />
    <glyph glyph-name="Iacute" unicode="&#xcd;" horiz-adv-x="288" 
d="M84 0v700h120v-700h-120zM164 750h-100l72 160h128z" />
    <glyph glyph-name="Icircumflex" unicode="&#xce;" horiz-adv-x="288" 
d="M84 0v700h120v-700h-120zM-31 750l119 160h112l119 -160h-114l-61 91l-61 -91h-114z" />
    <glyph glyph-name="Idieresis" unicode="&#xcf;" horiz-adv-x="288" 
d="M84 0v700h120v-700h-120zM-22 760v124h114v-124h-114zM196 760v124h114v-124h-114z" />
    <glyph glyph-name="Eth" unicode="&#xd0;" horiz-adv-x="700" 
d="M634 204c-23 -127 -121 -204 -276 -204h-264v314h-84v92h84v294h264c155 0 253 -78 276 -204c9 -53 12 -81 12 -146s-3 -94 -12 -146zM214 100h140c94 0 143 48 157 119c9 45 11 70 11 131s-2 86 -11 131c-14 71 -63 119 -157 119h-140v-194h161v-92h-161v-214z" />
    <glyph glyph-name="Ntilde" unicode="&#xd1;" horiz-adv-x="728" 
d="M204 482v-482h-120v700h120l320 -482v482h120v-700h-120zM293 890c32 0 52 -12 81 -25c24 -11 41 -21 62 -21c26 0 51 19 73 43l60 -68c-35 -37 -86 -69 -135 -69c-32 0 -52 13 -79 26c-24 11 -43 20 -64 20c-26 0 -51 -19 -73 -42l-59 68c38 37 85 68 134 68z" />
    <glyph glyph-name="Ograve" unicode="&#xd2;" horiz-adv-x="674" 
d="M608 198c-23 -123 -121 -210 -271 -210s-248 87 -271 210c-10 52 -12 82 -12 152s2 99 12 152c23 122 121 210 271 210s248 -88 271 -210c10 -53 12 -82 12 -152s-2 -100 -12 -152zM337 88c84 0 134 53 148 123c9 45 11 73 11 139s-2 94 -11 139c-14 70 -64 123 -148 123
s-134 -54 -148 -123c-10 -45 -11 -73 -11 -139s1 -94 11 -139c15 -70 64 -123 148 -123zM417 750h-100l-100 160h127z" />
    <glyph glyph-name="Oacute" unicode="&#xd3;" horiz-adv-x="674" 
d="M608 198c-23 -123 -121 -210 -271 -210s-248 87 -271 210c-10 52 -12 82 -12 152s2 99 12 152c23 122 121 210 271 210s248 -88 271 -210c10 -53 12 -82 12 -152s-2 -100 -12 -152zM337 88c84 0 134 53 148 123c9 45 11 73 11 139s-2 94 -11 139c-14 70 -64 123 -148 123
s-134 -54 -148 -123c-10 -45 -11 -73 -11 -139s1 -94 11 -139c15 -70 64 -123 148 -123zM357 750h-100l72 160h128z" />
    <glyph glyph-name="Ocircumflex" unicode="&#xd4;" horiz-adv-x="674" 
d="M608 198c-23 -123 -121 -210 -271 -210s-248 87 -271 210c-10 52 -12 82 -12 152s2 99 12 152c23 122 121 210 271 210s248 -88 271 -210c10 -53 12 -82 12 -152s-2 -100 -12 -152zM337 88c84 0 134 53 148 123c9 45 11 73 11 139s-2 94 -11 139c-14 70 -64 123 -148 123
s-134 -54 -148 -123c-10 -45 -11 -73 -11 -139s1 -94 11 -139c15 -70 64 -123 148 -123zM162 750l119 160h112l119 -160h-114l-61 91l-61 -91h-114z" />
    <glyph glyph-name="Otilde" unicode="&#xd5;" horiz-adv-x="674" 
d="M608 198c-23 -123 -121 -210 -271 -210s-248 87 -271 210c-10 52 -12 82 -12 152s2 99 12 152c23 122 121 210 271 210s248 -88 271 -210c10 -53 12 -82 12 -152s-2 -100 -12 -152zM337 88c84 0 134 53 148 123c9 45 11 73 11 139s-2 94 -11 139c-14 70 -64 123 -148 123
s-134 -54 -148 -123c-10 -45 -11 -73 -11 -139s1 -94 11 -139c15 -70 64 -123 148 -123zM266 890c32 0 52 -12 81 -25c24 -11 41 -21 62 -21c26 0 51 19 73 43l60 -68c-35 -37 -86 -69 -135 -69c-32 0 -52 13 -79 26c-24 11 -43 20 -64 20c-26 0 -51 -19 -73 -42l-59 68
c38 37 85 68 134 68z" />
    <glyph glyph-name="Odieresis" unicode="&#xd6;" horiz-adv-x="674" 
d="M608 198c-23 -123 -121 -210 -271 -210s-248 87 -271 210c-10 52 -12 82 -12 152s2 99 12 152c23 122 121 210 271 210s248 -88 271 -210c10 -53 12 -82 12 -152s-2 -100 -12 -152zM337 88c84 0 134 53 148 123c9 45 11 73 11 139s-2 94 -11 139c-14 70 -64 123 -148 123
s-134 -54 -148 -123c-10 -45 -11 -73 -11 -139s1 -94 11 -139c15 -70 64 -123 148 -123zM171 760v124h114v-124h-114zM389 760v124h114v-124h-114z" />
    <glyph glyph-name="multiply" unicode="&#xd7;" 
d="M484 409l-109 -109l109 -109l-65 -65l-109 109l-109 -109l-65 65l109 109l-109 109l65 65l109 -109l109 109z" />
    <glyph glyph-name="Oslash" unicode="&#xd8;" horiz-adv-x="674" 
d="M608 198c-23 -123 -121 -210 -271 -210c-61 0 -113 14 -155 39l-56 -87l-72 48l62 97c-25 32 -42 70 -50 113c-10 52 -12 82 -12 152s2 99 12 152c23 122 121 210 271 210c60 0 113 -15 155 -40l56 88l72 -48l-62 -97c25 -32 42 -71 50 -113c10 -53 12 -82 12 -152
s-2 -100 -12 -152zM337 88c84 0 134 53 148 123c9 45 11 73 11 139c0 60 -1 107 -13 148l-242 -378c24 -20 56 -32 96 -32zM178 350c0 -58 2 -112 13 -148l242 378c-25 20 -57 32 -96 32c-84 0 -134 -54 -148 -123c-10 -45 -11 -73 -11 -139z" />
    <glyph glyph-name="Ugrave" unicode="&#xd9;" horiz-adv-x="700" 
d="M196 700v-434c0 -112 51 -177 154 -177c102 0 154 65 154 177v434h120v-449c0 -170 -107 -262 -274 -262s-274 92 -274 262v449h120zM430 750h-100l-100 160h127z" />
    <glyph glyph-name="Uacute" unicode="&#xda;" horiz-adv-x="700" 
d="M196 700v-434c0 -112 51 -177 154 -177c102 0 154 65 154 177v434h120v-449c0 -170 -107 -262 -274 -262s-274 92 -274 262v449h120zM370 750h-100l72 160h128z" />
    <glyph glyph-name="Ucircumflex" unicode="&#xdb;" horiz-adv-x="700" 
d="M196 700v-434c0 -112 51 -177 154 -177c102 0 154 65 154 177v434h120v-449c0 -170 -107 -262 -274 -262s-274 92 -274 262v449h120zM175 750l119 160h112l119 -160h-114l-61 91l-61 -91h-114z" />
    <glyph glyph-name="Udieresis" unicode="&#xdc;" horiz-adv-x="700" 
d="M196 700v-434c0 -112 51 -177 154 -177c102 0 154 65 154 177v434h120v-449c0 -170 -107 -262 -274 -262s-274 92 -274 262v449h120zM184 760v124h114v-124h-114zM402 760v124h114v-124h-114z" />
    <glyph glyph-name="Yacute" unicode="&#xdd;" horiz-adv-x="574" 
d="M347 0h-120v281l-221 419h136l145 -286l145 286h136l-221 -419v-281zM307 750h-100l72 160h128z" />
    <glyph glyph-name="Thorn" unicode="&#xde;" 
d="M80 0v700h120v-120h123c171 0 263 -84 263 -221c0 -136 -90 -221 -257 -221h-129v-138h-120zM200 238h125c97 0 137 51 137 121c0 74 -41 121 -146 121h-116v-242z" />
    <glyph glyph-name="germandbls" unicode="&#xdf;" horiz-adv-x="554" 
d="M186 0h-112v498c0 150 114 212 214 212c120 0 204 -55 204 -165c0 -60 -30 -113 -90 -136v-4c55 -14 84 -56 95 -93c10 -34 13 -63 13 -97s-2 -59 -12 -97c-19 -72 -90 -118 -200 -118h-25v92h16c50 0 83 22 95 56c9 27 10 48 10 75s-1 50 -11 75c-13 35 -44 56 -94 56
h-16v92h16c60 0 89 42 89 88c0 50 -30 84 -90 84s-102 -40 -102 -130v-488z" />
    <glyph glyph-name="agrave" unicode="&#xe0;" horiz-adv-x="520" 
d="M450 0h-112v54c-30 -38 -77 -64 -137 -64c-100 0 -161 63 -161 153c0 120 85 167 225 167h73v26c0 54 -31 82 -81 82c-40 0 -79 -12 -108 -53l-94 51c43 67 118 94 208 94c110 0 187 -55 187 -179v-331zM338 162v56h-75c-70 0 -109 -18 -109 -68c0 -40 27 -68 77 -68
s81 31 107 80zM250 560l-100 150h117l73 -150h-90z" />
    <glyph glyph-name="aacute" unicode="&#xe1;" horiz-adv-x="520" 
d="M450 0h-112v54c-30 -38 -77 -64 -137 -64c-100 0 -161 63 -161 153c0 120 85 167 225 167h73v26c0 54 -31 82 -81 82c-40 0 -79 -12 -108 -53l-94 51c43 67 118 94 208 94c110 0 187 -55 187 -179v-331zM338 162v56h-75c-70 0 -109 -18 -109 -68c0 -40 27 -68 77 -68
s81 31 107 80zM270 560h-90l72 150h118z" />
    <glyph glyph-name="acircumflex" unicode="&#xe2;" horiz-adv-x="520" 
d="M450 0h-112v54c-30 -38 -77 -64 -137 -64c-100 0 -161 63 -161 153c0 120 85 167 225 167h73v26c0 54 -31 82 -81 82c-40 0 -79 -12 -108 -53l-94 51c43 67 118 94 208 94c110 0 187 -55 187 -179v-331zM338 162v56h-75c-70 0 -109 -18 -109 -68c0 -40 27 -68 77 -68
s81 31 107 80zM92 560l117 160h102l117 -160h-105l-63 95l-63 -95h-105z" />
    <glyph glyph-name="atilde" unicode="&#xe3;" horiz-adv-x="520" 
d="M450 0h-112v54c-30 -38 -77 -64 -137 -64c-100 0 -161 63 -161 153c0 120 85 167 225 167h73v26c0 54 -31 82 -81 82c-40 0 -79 -12 -108 -53l-94 51c43 67 118 94 208 94c110 0 187 -55 187 -179v-331zM338 162v56h-75c-70 0 -109 -18 -109 -68c0 -40 27 -68 77 -68
s81 31 107 80zM191 684c31 0 48 -9 77 -21c25 -10 42 -16 62 -16c21 0 42 12 64 36l60 -57c-35 -37 -82 -66 -126 -66c-31 0 -50 10 -77 20c-25 10 -42 17 -62 17c-21 0 -42 -13 -64 -37l-59 58c38 37 81 66 125 66z" />
    <glyph glyph-name="adieresis" unicode="&#xe4;" horiz-adv-x="520" 
d="M450 0h-112v54c-30 -38 -77 -64 -137 -64c-100 0 -161 63 -161 153c0 120 85 167 225 167h73v26c0 54 -31 82 -81 82c-40 0 -79 -12 -108 -53l-94 51c43 67 118 94 208 94c110 0 187 -55 187 -179v-331zM338 162v56h-75c-70 0 -109 -18 -109 -68c0 -40 27 -68 77 -68
s81 31 107 80zM100 576v124h110v-124h-110zM310 576v124h110v-124h-110z" />
    <glyph glyph-name="aring" unicode="&#xe5;" horiz-adv-x="520" 
d="M450 0h-112v54c-30 -38 -77 -64 -137 -64c-100 0 -161 63 -161 153c0 120 85 167 225 167h73v26c0 54 -31 82 -81 82c-40 0 -79 -12 -108 -53l-94 51c43 67 118 94 208 94c110 0 187 -55 187 -179v-331zM338 162v56h-75c-70 0 -109 -18 -109 -68c0 -40 27 -68 77 -68
s81 31 107 80zM135 685c0 70 55 125 125 125s125 -55 125 -125s-55 -125 -125 -125s-125 55 -125 125zM209 685c0 -32 21 -55 51 -55s51 23 51 55s-21 55 -51 55s-51 -23 -51 -55z" />
    <glyph glyph-name="ae" unicode="&#xe6;" horiz-adv-x="816" 
d="M555 82c50 0 89 20 110 65l95 -47c-35 -76 -105 -110 -205 -110c-72 0 -132 23 -170 67c-34 -28 -81 -67 -180 -67c-100 0 -165 63 -165 153c0 116 89 157 225 157h73v36c0 54 -31 82 -81 82c-40 0 -79 -12 -108 -53l-94 51c43 67 118 94 208 94c58 0 108 -16 141 -49
c37 32 90 49 151 49c100 0 174 -46 201 -128c13 -41 16 -74 16 -128v-40h-322c0 -34 1 -58 12 -80c15 -33 43 -52 93 -52zM345 142c-5 22 -7 45 -7 72h-75c-70 0 -109 -22 -109 -68c0 -40 25 -64 71 -64c50 0 94 31 120 60zM461 365c-10 -22 -11 -38 -11 -65h206
c-1 28 -2 43 -12 65c-13 30 -39 53 -89 53s-80 -23 -94 -53z" />
    <glyph glyph-name="ccedilla" unicode="&#xe7;" horiz-adv-x="484" 
d="M182 -210v60h80c24 0 40 10 40 30s-16 30 -40 30h-48v85c-75 13 -132 57 -154 124c-14 41 -16 77 -16 131s2 90 16 131c27 82 106 129 206 129c90 0 156 -32 188 -106l-97 -45c-17 44 -51 59 -91 59c-50 0 -80 -27 -94 -67c-9 -26 -12 -59 -12 -101s2 -75 12 -101
c15 -42 44 -67 94 -67c40 0 79 24 96 67l96 -47c-30 -68 -90 -105 -168 -111v-25c60 0 98 -36 98 -86s-36 -90 -106 -90h-100z" />
    <glyph glyph-name="egrave" unicode="&#xe8;" horiz-adv-x="526" 
d="M265 82c50 0 89 20 110 65l95 -47c-35 -76 -105 -110 -205 -110s-178 46 -205 128c-14 41 -16 78 -16 132s2 91 16 132c27 82 105 128 205 128s174 -46 201 -128c13 -41 16 -76 16 -130v-40h-322c0 -34 1 -56 12 -78c15 -33 43 -52 93 -52zM171 365
c-10 -22 -11 -40 -11 -67h206c-1 28 -2 45 -12 67c-13 30 -39 53 -89 53s-80 -23 -94 -53zM253 560l-100 150h117l73 -150h-90z" />
    <glyph glyph-name="eacute" unicode="&#xe9;" horiz-adv-x="526" 
d="M265 82c50 0 89 20 110 65l95 -47c-35 -76 -105 -110 -205 -110s-178 46 -205 128c-14 41 -16 78 -16 132s2 91 16 132c27 82 105 128 205 128s174 -46 201 -128c13 -41 16 -76 16 -130v-40h-322c0 -34 1 -56 12 -78c15 -33 43 -52 93 -52zM171 365
c-10 -22 -11 -40 -11 -67h206c-1 28 -2 45 -12 67c-13 30 -39 53 -89 53s-80 -23 -94 -53zM273 560h-90l72 150h118z" />
    <glyph glyph-name="ecircumflex" unicode="&#xea;" horiz-adv-x="526" 
d="M265 82c50 0 89 20 110 65l95 -47c-35 -76 -105 -110 -205 -110s-178 46 -205 128c-14 41 -16 78 -16 132s2 91 16 132c27 82 105 128 205 128s174 -46 201 -128c13 -41 16 -76 16 -130v-40h-322c0 -34 1 -56 12 -78c15 -33 43 -52 93 -52zM171 365
c-10 -22 -11 -40 -11 -67h206c-1 28 -2 45 -12 67c-13 30 -39 53 -89 53s-80 -23 -94 -53zM95 560l117 160h102l117 -160h-105l-63 95l-63 -95h-105z" />
    <glyph glyph-name="edieresis" unicode="&#xeb;" horiz-adv-x="526" 
d="M265 82c50 0 89 20 110 65l95 -47c-35 -76 -105 -110 -205 -110s-178 46 -205 128c-14 41 -16 78 -16 132s2 91 16 132c27 82 105 128 205 128s174 -46 201 -128c13 -41 16 -76 16 -130v-40h-322c0 -34 1 -56 12 -78c15 -33 43 -52 93 -52zM171 365
c-10 -22 -11 -40 -11 -67h206c-1 28 -2 45 -12 67c-13 30 -39 53 -89 53s-80 -23 -94 -53zM103 576v124h110v-124h-110zM313 576v124h110v-124h-110z" />
    <glyph glyph-name="igrave" unicode="&#xec;" horiz-adv-x="260" 
d="M74 0v500h112v-500h-112zM120 560l-100 150h117l73 -150h-90z" />
    <glyph glyph-name="iacute" unicode="&#xed;" horiz-adv-x="260" 
d="M74 0v500h112v-500h-112zM140 560h-90l72 150h118z" />
    <glyph glyph-name="icircumflex" unicode="&#xee;" horiz-adv-x="260" 
d="M74 0v500h112v-500h-112zM-38 560l117 160h102l117 -160h-105l-63 95l-63 -95h-105z" />
    <glyph glyph-name="idieresis" unicode="&#xef;" horiz-adv-x="260" 
d="M74 0v500h112v-500h-112zM10 574v126h96v-126h-96zM154 574v126h96v-126h-96z" />
    <glyph glyph-name="eth" unicode="&#xf0;" horiz-adv-x="528" 
d="M316 676l-41 -54l84 -63c97 -73 125 -177 125 -296c0 -53 -3 -95 -15 -132c-27 -87 -94 -141 -205 -141s-184 50 -208 138c-10 30 -12 53 -12 97s2 67 12 97c25 92 103 138 184 138c40 0 76 -11 117 -42l3 2c-12 25 -31 45 -54 62l-81 61l-40 -53l-62 38l40 53l-70 48
l51 81l70 -50l40 54zM264 82c47 0 80 25 93 60c10 23 11 46 11 83s0 58 -10 81c-13 35 -45 62 -94 62s-81 -25 -94 -60c-10 -23 -10 -46 -10 -83s0 -60 10 -83c13 -35 47 -60 94 -60z" />
    <glyph glyph-name="ntilde" unicode="&#xf1;" horiz-adv-x="564" 
d="M74 0v500h112v-52h4c30 34 78 62 134 62c100 0 170 -60 170 -200v-310h-112v300c0 80 -34 118 -94 118c-70 0 -102 -57 -102 -117v-301h-112zM213 684c31 0 48 -9 77 -21c25 -10 42 -16 62 -16c21 0 42 12 64 36l60 -57c-35 -37 -82 -66 -126 -66c-31 0 -50 10 -77 20
c-25 10 -42 17 -62 17c-21 0 -42 -13 -64 -37l-59 58c38 37 81 66 125 66z" />
    <glyph glyph-name="ograve" unicode="&#xf2;" horiz-adv-x="528" 
d="M468 118c-28 -82 -104 -128 -204 -128s-176 46 -204 128c-14 41 -16 78 -16 132s2 91 16 132c28 82 104 128 204 128s176 -46 204 -128c14 -41 16 -78 16 -132s-2 -91 -16 -132zM264 82c50 0 79 25 92 61c12 33 12 65 12 107s0 74 -12 107c-13 35 -42 61 -92 61
s-79 -26 -92 -61c-12 -33 -12 -65 -12 -107s0 -74 12 -107c13 -36 42 -61 92 -61zM254 560l-100 150h117l73 -150h-90z" />
    <glyph glyph-name="oacute" unicode="&#xf3;" horiz-adv-x="528" 
d="M468 118c-28 -82 -104 -128 -204 -128s-176 46 -204 128c-14 41 -16 78 -16 132s2 91 16 132c28 82 104 128 204 128s176 -46 204 -128c14 -41 16 -78 16 -132s-2 -91 -16 -132zM264 82c50 0 79 25 92 61c12 33 12 65 12 107s0 74 -12 107c-13 35 -42 61 -92 61
s-79 -26 -92 -61c-12 -33 -12 -65 -12 -107s0 -74 12 -107c13 -36 42 -61 92 -61zM274 560h-90l72 150h118z" />
    <glyph glyph-name="ocircumflex" unicode="&#xf4;" horiz-adv-x="528" 
d="M468 118c-28 -82 -104 -128 -204 -128s-176 46 -204 128c-14 41 -16 78 -16 132s2 91 16 132c28 82 104 128 204 128s176 -46 204 -128c14 -41 16 -78 16 -132s-2 -91 -16 -132zM264 82c50 0 79 25 92 61c12 33 12 65 12 107s0 74 -12 107c-13 35 -42 61 -92 61
s-79 -26 -92 -61c-12 -33 -12 -65 -12 -107s0 -74 12 -107c13 -36 42 -61 92 -61zM96 560l117 160h102l117 -160h-105l-63 95l-63 -95h-105z" />
    <glyph glyph-name="otilde" unicode="&#xf5;" horiz-adv-x="528" 
d="M468 118c-28 -82 -104 -128 -204 -128s-176 46 -204 128c-14 41 -16 78 -16 132s2 91 16 132c28 82 104 128 204 128s176 -46 204 -128c14 -41 16 -78 16 -132s-2 -91 -16 -132zM264 82c50 0 79 25 92 61c12 33 12 65 12 107s0 74 -12 107c-13 35 -42 61 -92 61
s-79 -26 -92 -61c-12 -33 -12 -65 -12 -107s0 -74 12 -107c13 -36 42 -61 92 -61zM195 684c31 0 48 -9 77 -21c25 -10 42 -16 62 -16c21 0 42 12 64 36l60 -57c-35 -37 -82 -66 -126 -66c-31 0 -50 10 -77 20c-25 10 -42 17 -62 17c-21 0 -42 -13 -64 -37l-59 58
c38 37 81 66 125 66z" />
    <glyph glyph-name="odieresis" unicode="&#xf6;" horiz-adv-x="528" 
d="M468 118c-28 -82 -104 -128 -204 -128s-176 46 -204 128c-14 41 -16 78 -16 132s2 91 16 132c28 82 104 128 204 128s176 -46 204 -128c14 -41 16 -78 16 -132s-2 -91 -16 -132zM264 82c50 0 79 25 92 61c12 33 12 65 12 107s0 74 -12 107c-13 35 -42 61 -92 61
s-79 -26 -92 -61c-12 -33 -12 -65 -12 -107s0 -74 12 -107c13 -36 42 -61 92 -61zM104 576v124h110v-124h-110zM314 576v124h110v-124h-110z" />
    <glyph glyph-name="divide" unicode="&#xf7;" 
d="M110 346h400v-92h-400v92zM257 70v106h106v-106h-106zM257 424v106h106v-106h-106z" />
    <glyph glyph-name="oslash" unicode="&#xf8;" horiz-adv-x="528" 
d="M104 -54l-59 39l48 73c-14 17 -26 37 -33 60c-14 41 -16 78 -16 132s2 91 16 132c28 82 104 128 204 128c42 0 80 -8 112 -24l49 73l59 -39l-51 -77c15 -17 27 -38 35 -61c14 -41 16 -78 16 -132s-2 -91 -16 -132c-28 -82 -104 -128 -204 -128c-44 0 -82 9 -115 25z
M264 82c50 0 79 25 92 61c12 33 12 65 12 107c0 33 0 60 -6 86l-157 -238c15 -10 34 -16 59 -16zM160 250c0 -32 0 -59 5 -84l156 236c-15 10 -34 16 -57 16c-50 0 -79 -26 -92 -61c-12 -33 -12 -65 -12 -107z" />
    <glyph glyph-name="ugrave" unicode="&#xf9;" horiz-adv-x="564" 
d="M490 500v-500h-112v50h-4c-30 -34 -78 -61 -134 -61c-100 0 -170 61 -170 201v310h112v-300c0 -80 34 -119 94 -119c70 0 102 58 102 118v301h112zM272 560l-100 150h117l73 -150h-90z" />
    <glyph glyph-name="uacute" unicode="&#xfa;" horiz-adv-x="564" 
d="M490 500v-500h-112v50h-4c-30 -34 -78 -61 -134 -61c-100 0 -170 61 -170 201v310h112v-300c0 -80 34 -119 94 -119c70 0 102 58 102 118v301h112zM292 560h-90l72 150h118z" />
    <glyph glyph-name="ucircumflex" unicode="&#xfb;" horiz-adv-x="564" 
d="M490 500v-500h-112v50h-4c-30 -34 -78 -61 -134 -61c-100 0 -170 61 -170 201v310h112v-300c0 -80 34 -119 94 -119c70 0 102 58 102 118v301h112zM114 560l117 160h102l117 -160h-105l-63 95l-63 -95h-105z" />
    <glyph glyph-name="udieresis" unicode="&#xfc;" horiz-adv-x="564" 
d="M490 500v-500h-112v50h-4c-30 -34 -78 -61 -134 -61c-100 0 -170 61 -170 201v310h112v-300c0 -80 34 -119 94 -119c70 0 102 58 102 118v301h112zM122 576v124h110v-124h-110zM332 576v124h110v-124h-110z" />
    <glyph glyph-name="yacute" unicode="&#xfd;" horiz-adv-x="484" 
d="M194 -1l-188 501h122l119 -349l111 349h120l-189 -541c-39 -110 -91 -159 -191 -159h-50v92h34c63 0 91 37 112 107zM252 560h-90l72 150h118z" />
    <glyph glyph-name="thorn" unicode="&#xfe;" horiz-adv-x="552" 
d="M74 -200v900h112v-250h4c33 41 86 60 136 60c72 0 137 -37 166 -119c14 -40 16 -87 16 -141s-2 -102 -16 -142c-29 -82 -94 -118 -166 -118c-50 0 -103 19 -136 60h-4v-250h-112zM186 300v-100c0 -70 44 -118 104 -118c40 0 76 21 90 63c10 30 12 55 12 105
s-2 76 -12 105c-15 43 -50 63 -90 63c-60 0 -104 -48 -104 -118z" />
    <glyph glyph-name="ydieresis" unicode="&#xff;" horiz-adv-x="484" 
d="M194 -1l-188 501h122l119 -349l111 349h120l-189 -541c-39 -110 -91 -159 -191 -159h-50v92h34c63 0 91 37 112 107zM82 576v124h110v-124h-110zM292 576v124h110v-124h-110z" />
    <glyph glyph-name="Amacron" unicode="&#x100;" horiz-adv-x="628" 
d="M8 0l250 700h112l250 -700h-126l-57 171h-246l-57 -171h-126zM222 271h184l-92 273zM189 760v96h250v-96h-250z" />
    <glyph glyph-name="amacron" unicode="&#x101;" horiz-adv-x="520" 
d="M450 0h-112v54c-30 -38 -77 -64 -137 -64c-100 0 -161 63 -161 153c0 120 85 167 225 167h73v26c0 54 -31 82 -81 82c-40 0 -79 -12 -108 -53l-94 51c43 67 118 94 208 94c110 0 187 -55 187 -179v-331zM338 162v56h-75c-70 0 -109 -18 -109 -68c0 -40 27 -68 77 -68
s81 31 107 80zM140 586v88h240v-88h-240z" />
    <glyph glyph-name="Abreve" unicode="&#x102;" horiz-adv-x="628" 
d="M8 0l250 700h112l250 -700h-126l-57 171h-246l-57 -171h-126zM222 271h184l-92 273zM392 904h90c-12 -90 -82 -150 -168 -150s-157 60 -168 150h90c8 -35 36 -60 78 -60s70 25 78 60z" />
    <glyph glyph-name="abreve" unicode="&#x103;" horiz-adv-x="520" 
d="M450 0h-112v54c-30 -38 -77 -64 -137 -64c-100 0 -161 63 -161 153c0 120 85 167 225 167h73v26c0 54 -31 82 -81 82c-40 0 -79 -12 -108 -53l-94 51c43 67 118 94 208 94c110 0 187 -55 187 -179v-331zM338 162v56h-75c-70 0 -109 -18 -109 -68c0 -40 27 -68 77 -68
s81 31 107 80zM332 710h88c-12 -85 -74 -144 -160 -144s-148 59 -160 144h88c8 -30 30 -58 72 -58c44 0 64 28 72 58z" />
    <glyph glyph-name="Aogonek" unicode="&#x104;" horiz-adv-x="628" 
d="M638 -124v-76h-105c-75 0 -115 35 -115 86c0 40 22 69 50 92l26 22l-57 171h-246l-57 -171h-126l250 700h112l250 -700l-39 -32c-29 -23 -51 -45 -51 -64c0 -20 20 -28 38 -28h70zM222 271h184l-92 273z" />
    <glyph glyph-name="aogonek" unicode="&#x105;" horiz-adv-x="520" 
d="M475 -128v-72h-97c-65 0 -113 27 -113 88c0 37 23 68 51 93l22 20v53c-30 -38 -77 -64 -137 -64c-100 0 -161 63 -161 153c0 120 85 167 225 167h73v26c0 54 -31 82 -81 82c-40 0 -79 -12 -108 -53l-94 51c43 67 118 94 208 94c110 0 187 -55 187 -179v-331l-38 -30
c-29 -23 -49 -48 -49 -69s16 -29 39 -29h73zM338 162v56h-75c-70 0 -109 -18 -109 -68c0 -40 27 -68 77 -68s81 31 107 80z" />
    <glyph glyph-name="Cacute" unicode="&#x106;" horiz-adv-x="638" 
d="M340 88c90 0 141 53 163 126l105 -41c-27 -108 -118 -185 -268 -185s-248 87 -274 210c-11 52 -12 82 -12 152s1 99 12 152c25 122 124 210 274 210c140 0 228 -66 262 -171l-106 -38c-25 69 -66 109 -156 109s-131 -54 -148 -117c-12 -45 -14 -74 -14 -145
s2 -100 14 -145c17 -62 58 -117 148 -117zM339 750h-100l72 160h128z" />
    <glyph glyph-name="cacute" unicode="&#x107;" horiz-adv-x="484" 
d="M266 82c40 0 79 24 96 67l96 -47c-33 -74 -102 -112 -192 -112c-100 0 -179 47 -206 129c-14 41 -16 77 -16 131s2 90 16 131c27 82 106 129 206 129c90 0 156 -32 188 -106l-97 -45c-17 44 -51 59 -91 59c-50 0 -80 -27 -94 -67c-9 -26 -12 -59 -12 -101s2 -75 12 -101
c15 -42 44 -67 94 -67zM252 560h-90l72 150h118z" />
    <glyph glyph-name="Ccircumflex" unicode="&#x108;" horiz-adv-x="638" 
d="M340 88c90 0 141 53 163 126l105 -41c-27 -108 -118 -185 -268 -185s-248 87 -274 210c-11 52 -12 82 -12 152s1 99 12 152c25 122 124 210 274 210c140 0 228 -66 262 -171l-106 -38c-25 69 -66 109 -156 109s-131 -54 -148 -117c-12 -45 -14 -74 -14 -145
s2 -100 14 -145c17 -62 58 -117 148 -117zM154 750l119 160h112l119 -160h-114l-61 91l-61 -91h-114z" />
    <glyph glyph-name="ccircumflex" unicode="&#x109;" horiz-adv-x="484" 
d="M266 82c40 0 79 24 96 67l96 -47c-33 -74 -102 -112 -192 -112c-100 0 -179 47 -206 129c-14 41 -16 77 -16 131s2 90 16 131c27 82 106 129 206 129c90 0 156 -32 188 -106l-97 -45c-17 44 -51 59 -91 59c-50 0 -80 -27 -94 -67c-9 -26 -12 -59 -12 -101s2 -75 12 -101
c15 -42 44 -67 94 -67zM74 560l117 160h102l117 -160h-105l-63 95l-63 -95h-105z" />
    <glyph glyph-name="Cdotaccent" unicode="&#x10a;" horiz-adv-x="638" 
d="M340 88c90 0 141 53 163 126l105 -41c-27 -108 -118 -185 -268 -185s-248 87 -274 210c-11 52 -12 82 -12 152s1 99 12 152c25 122 124 210 274 210c140 0 228 -66 262 -171l-106 -38c-25 69 -66 109 -156 109s-131 -54 -148 -117c-12 -45 -14 -74 -14 -145
s2 -100 14 -145c17 -62 58 -117 148 -117zM259 760v124h120v-124h-120z" />
    <glyph glyph-name="cdotaccent" unicode="&#x10b;" horiz-adv-x="484" 
d="M266 82c40 0 79 24 96 67l96 -47c-33 -74 -102 -112 -192 -112c-100 0 -179 47 -206 129c-14 41 -16 77 -16 131s2 90 16 131c27 82 106 129 206 129c90 0 156 -32 188 -106l-97 -45c-17 44 -51 59 -91 59c-50 0 -80 -27 -94 -67c-9 -26 -12 -59 -12 -101s2 -75 12 -101
c15 -42 44 -67 94 -67zM182 576v124h120v-124h-120z" />
    <glyph glyph-name="Ccaron" unicode="&#x10c;" horiz-adv-x="638" 
d="M340 88c90 0 141 53 163 126l105 -41c-27 -108 -118 -185 -268 -185s-248 87 -274 210c-11 52 -12 82 -12 152s1 99 12 152c25 122 124 210 274 210c140 0 228 -66 262 -171l-106 -38c-25 69 -66 109 -156 109s-131 -54 -148 -117c-12 -45 -14 -74 -14 -145
s2 -100 14 -145c17 -62 58 -117 148 -117zM494 910l-119 -160h-112l-119 160h114l61 -91l61 91h114z" />
    <glyph glyph-name="ccaron" unicode="&#x10d;" horiz-adv-x="484" 
d="M266 82c40 0 79 24 96 67l96 -47c-33 -74 -102 -112 -192 -112c-100 0 -179 47 -206 129c-14 41 -16 77 -16 131s2 90 16 131c27 82 106 129 206 129c90 0 156 -32 188 -106l-97 -45c-17 44 -51 59 -91 59c-50 0 -80 -27 -94 -67c-9 -26 -12 -59 -12 -101s2 -75 12 -101
c15 -42 44 -67 94 -67zM410 710l-117 -150h-102l-117 150h106l62 -86l62 86h106z" />
    <glyph glyph-name="Dcaron" unicode="&#x10e;" horiz-adv-x="690" 
d="M624 204c-23 -127 -121 -204 -276 -204h-264v700h264c155 0 253 -78 276 -204c9 -53 12 -81 12 -146s-3 -94 -12 -146zM204 100h140c94 0 143 48 157 119c9 45 11 70 11 131s-2 86 -11 131c-14 71 -63 119 -157 119h-140v-500zM520 910l-119 -160h-112l-119 160h114
l61 -91l61 91h114z" />
    <glyph glyph-name="dcaron" unicode="&#x10f;" horiz-adv-x="552" 
d="M478 700v-700h-112v50h-4c-33 -41 -86 -60 -136 -60c-72 0 -137 36 -166 118c-14 40 -16 88 -16 142s2 101 16 141c29 82 94 119 166 119c50 0 103 -19 136 -60h4v250h112zM366 200v100c0 70 -44 118 -104 118c-40 0 -75 -20 -90 -63c-10 -29 -12 -55 -12 -105
s2 -75 12 -105c14 -42 50 -63 90 -63c60 0 104 48 104 118zM594 560h-90l62 150h118z" />
    <glyph glyph-name="Dcroat" unicode="&#x110;" horiz-adv-x="700" 
d="M634 204c-23 -127 -121 -204 -276 -204h-264v314h-84v92h84v294h264c155 0 253 -78 276 -204c9 -53 12 -81 12 -146s-3 -94 -12 -146zM214 100h140c94 0 143 48 157 119c9 45 11 70 11 131s-2 86 -11 131c-14 71 -63 119 -157 119h-140v-194h161v-92h-161v-214z" />
    <glyph glyph-name="dcroat" unicode="&#x111;" horiz-adv-x="572" 
d="M478 700v-76h84v-83h-84v-541h-112v50h-4c-33 -41 -86 -60 -136 -60c-72 0 -137 30 -166 112c-14 40 -16 82 -16 136s2 95 16 135c29 82 94 113 166 113c50 0 103 -19 136 -60h4v115h-170v83h170v76h112zM366 194v88c0 70 -44 112 -104 112c-40 0 -75 -14 -90 -57
c-10 -29 -12 -49 -12 -99s2 -69 12 -99c14 -42 50 -57 90 -57c60 0 104 42 104 112z" />
    <glyph glyph-name="Emacron" unicode="&#x112;" horiz-adv-x="594" 
d="M554 100v-100h-470v700h460v-100h-340v-190h280v-100h-280v-210h350zM172 760v96h250v-96h-250z" />
    <glyph glyph-name="emacron" unicode="&#x113;" horiz-adv-x="526" 
d="M265 82c50 0 89 20 110 65l95 -47c-35 -76 -105 -110 -205 -110s-178 46 -205 128c-14 41 -16 78 -16 132s2 91 16 132c27 82 105 128 205 128s174 -46 201 -128c13 -41 16 -76 16 -130v-40h-322c0 -34 1 -56 12 -78c15 -33 43 -52 93 -52zM171 365
c-10 -22 -11 -40 -11 -67h206c-1 28 -2 45 -12 67c-13 30 -39 53 -89 53s-80 -23 -94 -53zM143 586v88h240v-88h-240z" />
    <glyph glyph-name="Edotaccent" unicode="&#x116;" horiz-adv-x="594" 
d="M554 100v-100h-470v700h460v-100h-340v-190h280v-100h-280v-210h350zM257 760v124h120v-124h-120z" />
    <glyph glyph-name="edotaccent" unicode="&#x117;" horiz-adv-x="526" 
d="M265 82c50 0 89 20 110 65l95 -47c-35 -76 -105 -110 -205 -110s-178 46 -205 128c-14 41 -16 78 -16 132s2 91 16 132c27 82 105 128 205 128s174 -46 201 -128c13 -41 16 -76 16 -130v-40h-322c0 -34 1 -56 12 -78c15 -33 43 -52 93 -52zM171 365
c-10 -22 -11 -40 -11 -67h206c-1 28 -2 45 -12 67c-13 30 -39 53 -89 53s-80 -23 -94 -53zM203 576v124h120v-124h-120z" />
    <glyph glyph-name="Eogonek" unicode="&#x118;" horiz-adv-x="594" 
d="M572 -124v-76h-105c-65 0 -113 25 -113 76c0 44 33 73 66 102l26 22h-362v700h460v-100h-340v-190h280v-100h-280v-210h350v-100l-39 -36c-26 -24 -49 -45 -49 -64c0 -18 18 -24 36 -24h70z" />
    <glyph glyph-name="eogonek" unicode="&#x119;" horiz-adv-x="526" 
d="M371 -128v-72h-97c-65 0 -113 25 -113 76c0 43 33 74 66 102l15 13c-89 7 -157 51 -182 127c-14 41 -16 78 -16 132s2 91 16 132c27 82 105 128 205 128s174 -46 201 -128c13 -41 16 -76 16 -130v-40h-322c0 -34 1 -56 12 -78c15 -33 43 -52 93 -52s89 20 110 65l95 -47
c-25 -54 -67 -86 -124 -100l-38 -35c-26 -24 -49 -47 -49 -68c0 -18 16 -25 39 -25h73zM171 365c-10 -22 -11 -40 -11 -67h206c-1 28 -2 45 -12 67c-13 30 -39 53 -89 53s-80 -23 -94 -53z" />
    <glyph glyph-name="Ecaron" unicode="&#x11a;" horiz-adv-x="594" 
d="M554 100v-100h-470v700h460v-100h-340v-190h280v-100h-280v-210h350zM472 910l-119 -160h-112l-119 160h114l61 -91l61 91h114z" />
    <glyph glyph-name="ecaron" unicode="&#x11b;" horiz-adv-x="526" 
d="M265 82c50 0 89 20 110 65l95 -47c-35 -76 -105 -110 -205 -110s-178 46 -205 128c-14 41 -16 78 -16 132s2 91 16 132c27 82 105 128 205 128s174 -46 201 -128c13 -41 16 -76 16 -130v-40h-322c0 -34 1 -56 12 -78c15 -33 43 -52 93 -52zM171 365
c-10 -22 -11 -40 -11 -67h206c-1 28 -2 45 -12 67c-13 30 -39 53 -89 53s-80 -23 -94 -53zM431 710l-117 -150h-102l-117 150h106l62 -86l62 86h106z" />
    <glyph glyph-name="Gcircumflex" unicode="&#x11c;" horiz-adv-x="674" 
d="M340 88c120 0 150 95 154 178h-145v100h271c0 -80 0 -112 -11 -168c-21 -111 -109 -210 -269 -210c-150 0 -248 87 -274 210c-11 52 -12 82 -12 152s1 99 12 152c25 122 124 210 274 210c140 0 228 -66 262 -171l-106 -38c-25 69 -66 109 -156 109s-131 -54 -148 -117
c-12 -45 -14 -74 -14 -145s2 -100 14 -145c17 -62 58 -117 148 -117zM162 750l119 160h112l119 -160h-114l-61 91l-61 -91h-114z" />
    <glyph glyph-name="gcircumflex" unicode="&#x11d;" horiz-adv-x="552" 
d="M478 500v-495c0 -125 -78 -215 -218 -215c-100 0 -160 29 -202 95l95 49c28 -38 58 -54 104 -54c72 0 109 52 109 129v41h-4c-33 -41 -86 -60 -136 -60c-72 0 -137 37 -166 119c-14 40 -16 87 -16 141s2 102 16 142c29 82 94 118 166 118c50 0 103 -19 136 -60h4v50h112z
M366 200v100c0 70 -44 118 -104 118c-40 0 -76 -21 -90 -63c-10 -30 -12 -55 -12 -105s2 -76 12 -105c15 -43 50 -63 90 -63c60 0 104 48 104 118zM108 560l117 160h102l117 -160h-105l-63 95l-63 -95h-105z" />
    <glyph glyph-name="Gbreve" unicode="&#x11e;" horiz-adv-x="674" 
d="M340 88c120 0 150 95 154 178h-145v100h271c0 -80 0 -112 -11 -168c-21 -111 -109 -210 -269 -210c-150 0 -248 87 -274 210c-11 52 -12 82 -12 152s1 99 12 152c25 122 124 210 274 210c140 0 228 -66 262 -171l-106 -38c-25 69 -66 109 -156 109s-131 -54 -148 -117
c-12 -45 -14 -74 -14 -145s2 -100 14 -145c17 -62 58 -117 148 -117zM415 904h90c-12 -90 -82 -150 -168 -150s-157 60 -168 150h90c8 -35 36 -60 78 -60s70 25 78 60z" />
    <glyph glyph-name="gbreve" unicode="&#x11f;" horiz-adv-x="552" 
d="M478 500v-495c0 -125 -78 -215 -218 -215c-100 0 -160 29 -202 95l95 49c28 -38 58 -54 104 -54c72 0 109 52 109 129v41h-4c-33 -41 -86 -60 -136 -60c-72 0 -137 37 -166 119c-14 40 -16 87 -16 141s2 102 16 142c29 82 94 118 166 118c50 0 103 -19 136 -60h4v50h112z
M366 200v100c0 70 -44 118 -104 118c-40 0 -76 -21 -90 -63c-10 -30 -12 -55 -12 -105s2 -76 12 -105c15 -43 50 -63 90 -63c60 0 104 48 104 118zM348 710h88c-12 -85 -74 -144 -160 -144s-148 59 -160 144h88c8 -30 30 -58 72 -58c44 0 64 28 72 58z" />
    <glyph glyph-name="Gdotaccent" unicode="&#x120;" horiz-adv-x="674" 
d="M340 88c120 0 150 95 154 178h-145v100h271c0 -80 0 -112 -11 -168c-21 -111 -109 -210 -269 -210c-150 0 -248 87 -274 210c-11 52 -12 82 -12 152s1 99 12 152c25 122 124 210 274 210c140 0 228 -66 262 -171l-106 -38c-25 69 -66 109 -156 109s-131 -54 -148 -117
c-12 -45 -14 -74 -14 -145s2 -100 14 -145c17 -62 58 -117 148 -117zM277 760v124h120v-124h-120z" />
    <glyph glyph-name="gdotaccent" unicode="&#x121;" horiz-adv-x="552" 
d="M478 500v-495c0 -125 -78 -215 -218 -215c-100 0 -160 29 -202 95l95 49c28 -38 58 -54 104 -54c72 0 109 52 109 129v41h-4c-33 -41 -86 -60 -136 -60c-72 0 -137 37 -166 119c-14 40 -16 87 -16 141s2 102 16 142c29 82 94 118 166 118c50 0 103 -19 136 -60h4v50h112z
M366 200v100c0 70 -44 118 -104 118c-40 0 -76 -21 -90 -63c-10 -30 -12 -55 -12 -105s2 -76 12 -105c15 -43 50 -63 90 -63c60 0 104 48 104 118zM209 576v124h120v-124h-120z" />
    <glyph glyph-name="Gcommaaccent" unicode="&#x122;" horiz-adv-x="674" 
d="M340 88c120 0 150 95 154 178h-145v100h271c0 -80 0 -112 -11 -168c-21 -111 -109 -210 -269 -210c-150 0 -248 87 -274 210c-11 52 -12 82 -12 152s1 99 12 152c25 122 124 210 274 210c140 0 228 -66 262 -171l-106 -38c-25 69 -66 109 -156 109s-131 -54 -148 -117
c-12 -45 -14 -74 -14 -145s2 -100 14 -145c17 -62 58 -117 148 -117zM323 -210h-100l67 150h127z" />
    <glyph glyph-name="gcommaaccent" unicode="&#x123;" horiz-adv-x="552" 
d="M478 500v-495c0 -125 -78 -215 -218 -215c-100 0 -160 29 -202 95l95 49c28 -38 58 -54 104 -54c72 0 109 52 109 129v41h-4c-33 -41 -86 -60 -136 -60c-72 0 -137 37 -166 119c-14 40 -16 87 -16 141s2 102 16 142c29 82 94 118 166 118c50 0 103 -19 136 -60h4v50h112z
M366 200v100c0 70 -44 118 -104 118c-40 0 -76 -21 -90 -63c-10 -30 -12 -55 -12 -105s2 -76 12 -105c15 -43 50 -63 90 -63c60 0 104 48 104 118zM265 710h89l-66 -150h-116z" />
    <glyph glyph-name="Hcircumflex" unicode="&#x124;" horiz-adv-x="718" 
d="M84 0v700h120v-290h310v290h120v-700h-120v310h-310v-310h-120zM184 750l119 160h112l119 -160h-114l-61 91l-61 -91h-114z" />
    <glyph glyph-name="hcircumflex" unicode="&#x125;" horiz-adv-x="564" 
d="M74 0v700h112v-250h4c30 34 78 60 134 60c100 0 170 -60 170 -200v-310h-112v300c0 80 -34 118 -94 118c-70 0 -102 -57 -102 -117v-301h-112zM-6 750l117 160h102l117 -160h-105l-63 95l-63 -95h-105z" />
    <glyph glyph-name="Hbar" unicode="&#x126;" horiz-adv-x="718" 
d="M84 0v523h-70v86h70v91h120v-91h310v91h120v-91h70v-86h-70v-523h-120v310h-310v-310h-120zM204 410h310v113h-310v-113z" />
    <glyph glyph-name="hbar" unicode="&#x127;" horiz-adv-x="594" 
d="M10 537v86h94v77h112v-77h196v-86h-196v-113h4c30 34 78 60 134 60c100 0 170 -60 170 -200v-284h-112v274c0 80 -34 118 -94 118c-70 0 -102 -57 -102 -117v-275h-112v537h-94z" />
    <glyph glyph-name="Imacron" unicode="&#x12a;" horiz-adv-x="288" 
d="M84 0v700h120v-700h-120zM19 760v96h250v-96h-250z" />
    <glyph glyph-name="imacron" unicode="&#x12b;" horiz-adv-x="260" 
d="M74 0v500h112v-500h-112zM10 586v88h240v-88h-240z" />
    <glyph glyph-name="Iogonek" unicode="&#x12e;" horiz-adv-x="288" 
d="M232 -124v-76h-105c-65 0 -113 29 -113 90c0 34 21 65 48 90l22 20v700h120v-700l-39 -36c-28 -25 -39 -41 -39 -60c0 -22 18 -28 36 -28h70z" />
    <glyph glyph-name="iogonek" unicode="&#x12f;" horiz-adv-x="260" 
d="M220 -128v-72h-97c-65 0 -113 29 -113 90c0 33 16 62 42 88l22 22v500h112v-500l-35 -35c-25 -25 -43 -45 -43 -66c0 -20 16 -27 39 -27h73zM70 574v126h120v-126h-120z" />
    <glyph glyph-name="Idotaccent" unicode="&#x130;" horiz-adv-x="288" 
d="M84 0v700h120v-700h-120zM84 760v124h120v-124h-120z" />
    <glyph glyph-name="dotlessi" unicode="&#x131;" horiz-adv-x="260" 
d="M74 0v500h112v-500h-112z" />
    <glyph glyph-name="Jcircumflex" unicode="&#x134;" horiz-adv-x="460" 
d="M101 142c17 -34 41 -54 82 -54c47 0 81 32 81 108v504h120v-503c0 -139 -79 -209 -197 -209c-88 0 -149 37 -187 104zM55 750l119 160h112l119 -160h-114l-61 91l-61 -91h-114z" />
    <glyph glyph-name="jcircumflex" unicode="&#x135;" horiz-adv-x="262" 
d="M188 500v-542c0 -123 -73 -166 -163 -166h-61v94h40c50 0 72 25 72 79v535h112zM-42 560l117 160h102l117 -160h-105l-63 95l-63 -95h-105z" />
    <glyph glyph-name="Kcommaaccent" unicode="&#x136;" horiz-adv-x="630" 
d="M84 0v700h120v-316l256 316h142l-229 -280l257 -420h-142l-193 324l-91 -112v-212h-120zM304 -210h-100l67 150h127z" />
    <glyph glyph-name="kcommaaccent" unicode="&#x137;" horiz-adv-x="526" 
d="M74 0v700h112v-396l180 196h140l-174 -187l194 -313h-136l-136 230l-68 -74v-156h-112zM251 -210h-89l66 150h116z" />
    <glyph glyph-name="Lacute" unicode="&#x139;" horiz-adv-x="524" 
d="M84 0v700h120v-600h310v-100h-430zM282 750h-100l72 160h128z" />
    <glyph glyph-name="lacute" unicode="&#x13a;" horiz-adv-x="298" 
d="M186 700v-549c0 -40 15 -69 55 -69h47v-92h-88c-80 0 -126 54 -126 144v566h112zM189 750h-90l72 150h118z" />
    <glyph glyph-name="Lcommaaccent" unicode="&#x13b;" horiz-adv-x="524" 
d="M84 0v700h120v-600h310v-100h-430zM248 -210h-100l67 150h127z" />
    <glyph glyph-name="lcommaaccent" unicode="&#x13c;" horiz-adv-x="298" 
d="M186 700v-549c0 -40 15 -69 55 -69h47v-92h-88c-80 0 -126 54 -126 144v566h112zM134 -210h-89l66 150h116z" />
    <glyph glyph-name="Lcaron" unicode="&#x13d;" horiz-adv-x="524" 
d="M84 0v700h120v-600h310v-100h-430zM382 540h-100l52 160h128z" />
    <glyph glyph-name="lcaron" unicode="&#x13e;" horiz-adv-x="298" 
d="M186 700v-549c0 -40 15 -69 55 -69h47v-92h-88c-80 0 -126 54 -126 144v566h112zM301 560h-90l62 150h118z" />
    <glyph glyph-name="Ldot" unicode="&#x13f;" horiz-adv-x="524" 
d="M84 0v700h120v-600h310v-100h-430zM332 300v124h120v-124h-120z" />
    <glyph glyph-name="ldot" unicode="&#x140;" horiz-adv-x="328" 
d="M186 700v-549c0 -40 15 -69 55 -69h47v-92h-88c-80 0 -126 54 -126 144v566h112zM232 306v124h120v-124h-120z" />
    <glyph glyph-name="Lslash" unicode="&#x141;" horiz-adv-x="524" 
d="M84 0v253l-74 -50v114l74 50v333h120v-252l127 86v-114l-127 -86v-234h310v-100h-430z" />
    <glyph glyph-name="lslash" unicode="&#x142;" horiz-adv-x="288" 
d="M186 700v-260l102 63v-102l-102 -63v-187c0 -40 15 -69 55 -69h47v-92h-88c-80 0 -126 54 -126 144v136l-74 -45v102l74 45v328h112z" />
    <glyph glyph-name="Nacute" unicode="&#x143;" horiz-adv-x="728" 
d="M204 482v-482h-120v700h120l320 -482v482h120v-700h-120zM384 750h-100l72 160h128z" />
    <glyph glyph-name="nacute" unicode="&#x144;" horiz-adv-x="564" 
d="M74 0v500h112v-52h4c30 34 78 62 134 62c100 0 170 -60 170 -200v-310h-112v300c0 80 -34 118 -94 118c-70 0 -102 -57 -102 -117v-301h-112zM312 560h-90l72 150h118z" />
    <glyph glyph-name="Ncommaaccent" unicode="&#x145;" horiz-adv-x="728" 
d="M204 482v-482h-120v700h120l320 -482v482h120v-700h-120zM330 -210h-100l67 150h127z" />
    <glyph glyph-name="ncommaaccent" unicode="&#x146;" horiz-adv-x="564" 
d="M74 0v500h112v-52h4c30 34 78 62 134 62c100 0 170 -60 170 -200v-310h-112v300c0 80 -34 118 -94 118c-70 0 -102 -57 -102 -117v-301h-112zM257 -210h-89l66 150h116z" />
    <glyph glyph-name="Ncaron" unicode="&#x147;" horiz-adv-x="728" 
d="M204 482v-482h-120v700h120l320 -482v482h120v-700h-120zM539 910l-119 -160h-112l-119 160h114l61 -91l61 91h114z" />
    <glyph glyph-name="ncaron" unicode="&#x148;" horiz-adv-x="564" 
d="M74 0v500h112v-52h4c30 34 78 62 134 62c100 0 170 -60 170 -200v-310h-112v300c0 80 -34 118 -94 118c-70 0 -102 -57 -102 -117v-301h-112zM450 710l-117 -150h-102l-117 150h106l62 -86l62 86h106z" />
    <glyph glyph-name="Omacron" unicode="&#x14c;" horiz-adv-x="674" 
d="M608 198c-23 -123 -121 -210 -271 -210s-248 87 -271 210c-10 52 -12 82 -12 152s2 99 12 152c23 122 121 210 271 210s248 -88 271 -210c10 -53 12 -82 12 -152s-2 -100 -12 -152zM337 88c84 0 134 53 148 123c9 45 11 73 11 139s-2 94 -11 139c-14 70 -64 123 -148 123
s-134 -54 -148 -123c-10 -45 -11 -73 -11 -139s1 -94 11 -139c15 -70 64 -123 148 -123zM212 760v96h250v-96h-250z" />
    <glyph glyph-name="omacron" unicode="&#x14d;" horiz-adv-x="528" 
d="M468 118c-28 -82 -104 -128 -204 -128s-176 46 -204 128c-14 41 -16 78 -16 132s2 91 16 132c28 82 104 128 204 128s176 -46 204 -128c14 -41 16 -78 16 -132s-2 -91 -16 -132zM264 82c50 0 79 25 92 61c12 33 12 65 12 107s0 74 -12 107c-13 35 -42 61 -92 61
s-79 -26 -92 -61c-12 -33 -12 -65 -12 -107s0 -74 12 -107c13 -36 42 -61 92 -61zM144 586v88h240v-88h-240z" />
    <glyph glyph-name="Obreve" unicode="&#x14e;" horiz-adv-x="674" 
d="M608 198c-23 -123 -121 -210 -271 -210s-248 87 -271 210c-10 52 -12 82 -12 152s2 99 12 152c23 122 121 210 271 210s248 -88 271 -210c10 -53 12 -82 12 -152s-2 -100 -12 -152zM337 88c84 0 134 53 148 123c9 45 11 73 11 139s-2 94 -11 139c-14 70 -64 123 -148 123
s-134 -54 -148 -123c-10 -45 -11 -73 -11 -139s1 -94 11 -139c15 -70 64 -123 148 -123zM415 904h90c-12 -90 -82 -150 -168 -150s-157 60 -168 150h90c8 -35 36 -60 78 -60s70 25 78 60z" />
    <glyph glyph-name="obreve" unicode="&#x14f;" horiz-adv-x="528" 
d="M468 118c-28 -82 -104 -128 -204 -128s-176 46 -204 128c-14 41 -16 78 -16 132s2 91 16 132c28 82 104 128 204 128s176 -46 204 -128c14 -41 16 -78 16 -132s-2 -91 -16 -132zM264 82c50 0 79 25 92 61c12 33 12 65 12 107s0 74 -12 107c-13 35 -42 61 -92 61
s-79 -26 -92 -61c-12 -33 -12 -65 -12 -107s0 -74 12 -107c13 -36 42 -61 92 -61zM336 710h88c-12 -85 -74 -144 -160 -144s-148 59 -160 144h88c8 -30 30 -58 72 -58c44 0 64 28 72 58z" />
    <glyph glyph-name="Ohungarumlaut" unicode="&#x150;" horiz-adv-x="674" 
d="M608 198c-23 -123 -121 -210 -271 -210s-248 87 -271 210c-10 52 -12 82 -12 152s2 99 12 152c23 122 121 210 271 210s248 -88 271 -210c10 -53 12 -82 12 -152s-2 -100 -12 -152zM337 88c84 0 134 53 148 123c9 45 11 73 11 139s-2 94 -11 139c-14 70 -64 123 -148 123
s-134 -54 -148 -123c-10 -45 -11 -73 -11 -139s1 -94 11 -139c15 -70 64 -123 148 -123zM261 750h-94l71 160h122zM452 750h-94l71 160h122z" />
    <glyph glyph-name="ohungarumlaut" unicode="&#x151;" horiz-adv-x="528" 
d="M468 118c-28 -82 -104 -128 -204 -128s-176 46 -204 128c-14 41 -16 78 -16 132s2 91 16 132c28 82 104 128 204 128s176 -46 204 -128c14 -41 16 -78 16 -132s-2 -91 -16 -132zM264 82c50 0 79 25 92 61c12 33 12 65 12 107s0 74 -12 107c-13 35 -42 61 -92 61
s-79 -26 -92 -61c-12 -33 -12 -65 -12 -107s0 -74 12 -107c13 -36 42 -61 92 -61zM190 560h-86l71 150h112zM371 560h-86l71 150h112z" />
    <glyph glyph-name="OE" unicode="&#x152;" horiz-adv-x="1006" 
d="M966 100v-100h-470v51c-44 -41 -95 -63 -159 -63c-150 0 -248 87 -271 210c-10 52 -12 82 -12 152s2 99 12 152c23 122 121 210 271 210c64 0 115 -22 159 -64v52h460v-100h-340v-190h280v-100h-280v-210h350zM337 88c84 0 134 53 148 123c9 45 11 73 11 139
s-2 94 -11 139c-14 70 -64 123 -148 123s-134 -54 -148 -123c-10 -45 -11 -73 -11 -139s1 -94 11 -139c15 -70 64 -123 148 -123z" />
    <glyph glyph-name="oe" unicode="&#x153;" horiz-adv-x="850" 
d="M589 82c50 0 89 20 110 65l95 -47c-35 -76 -105 -110 -205 -110c-68 0 -125 23 -163 73c-38 -50 -95 -73 -162 -73c-100 0 -176 46 -204 128c-14 41 -16 78 -16 132s2 91 16 132c28 82 104 128 204 128c67 0 124 -23 162 -74c38 51 95 74 163 74c100 0 174 -46 201 -128
c13 -41 16 -76 16 -130v-40h-322c0 -34 1 -56 12 -78c15 -33 43 -52 93 -52zM264 82c50 0 79 25 92 61c12 33 12 65 12 107s0 74 -12 107c-13 35 -42 61 -92 61s-79 -26 -92 -61c-12 -33 -12 -65 -12 -107s0 -74 12 -107c13 -36 42 -61 92 -61zM495 365
c-10 -22 -11 -40 -11 -67h206c-1 28 -2 45 -12 67c-13 30 -39 53 -89 53s-80 -23 -94 -53z" />
    <glyph glyph-name="Racute" unicode="&#x154;" horiz-adv-x="646" 
d="M84 700h249c180 0 259 -89 259 -207c0 -88 -53 -155 -146 -186l170 -307h-138l-153 285h-121v-285h-120v700zM317 600h-113v-215h123c90 0 141 38 141 108s-51 107 -151 107zM343 750h-100l72 160h128z" />
    <glyph glyph-name="racute" unicode="&#x155;" horiz-adv-x="438" 
d="M74 0v500h112v-50h4c27 33 65 60 118 60c63 0 100 -29 130 -72l-86 -63c-17 27 -40 43 -73 43c-52 0 -93 -45 -93 -116v-302h-112zM229 560h-90l72 150h118z" />
    <glyph glyph-name="Rcommaaccent" unicode="&#x156;" horiz-adv-x="646" 
d="M84 700h249c180 0 259 -89 259 -207c0 -88 -53 -155 -146 -186l170 -307h-138l-153 285h-121v-285h-120v700zM317 600h-113v-215h123c90 0 141 38 141 108s-51 107 -151 107zM309 -210h-100l67 150h127z" />
    <glyph glyph-name="rcommaaccent" unicode="&#x157;" horiz-adv-x="438" 
d="M74 0v500h112v-50h4c27 33 65 60 118 60c63 0 100 -29 130 -72l-86 -63c-17 27 -40 43 -73 43c-52 0 -93 -45 -93 -116v-302h-112zM204 -210h-89l66 150h116z" />
    <glyph glyph-name="Rcaron" unicode="&#x158;" horiz-adv-x="646" 
d="M84 700h249c180 0 259 -89 259 -207c0 -88 -53 -155 -146 -186l170 -307h-138l-153 285h-121v-285h-120v700zM317 600h-113v-215h123c90 0 141 38 141 108s-51 107 -151 107zM498 910l-119 -160h-112l-119 160h114l61 -91l61 91h114z" />
    <glyph glyph-name="rcaron" unicode="&#x159;" horiz-adv-x="438" 
d="M74 0v500h112v-50h4c27 33 65 60 118 60c63 0 100 -29 130 -72l-86 -63c-17 27 -40 43 -73 43c-52 0 -93 -45 -93 -116v-302h-112zM387 710l-117 -150h-102l-117 150h106l62 -86l62 86h106z" />
    <glyph glyph-name="Sacute" unicode="&#x15a;" horiz-adv-x="600" 
d="M36 149l102 47c41 -77 101 -106 171 -106c80 0 131 39 131 99s-37 90 -107 104l-106 22c-97 20 -175 81 -175 201s107 195 237 195c120 0 207 -40 255 -135l-103 -45c-38 63 -88 79 -152 79s-117 -31 -117 -91c0 -50 32 -84 91 -97l118 -25c111 -24 183 -89 183 -199
c0 -130 -115 -209 -255 -209s-221 55 -273 160zM320 750h-100l72 160h128z" />
    <glyph glyph-name="sacute" unicode="&#x15b;" horiz-adv-x="490" 
d="M36 94l95 48c27 -46 69 -60 119 -60s90 20 90 60s-23 59 -74 64l-56 5c-114 10 -158 67 -158 147c0 100 98 152 198 152c110 0 163 -50 188 -97l-94 -50c-18 30 -40 55 -100 55c-50 0 -82 -19 -82 -55c0 -30 19 -59 68 -63l56 -4c106 -8 168 -59 168 -149
c0 -100 -100 -157 -210 -157c-120 0 -175 45 -208 104zM255 560h-90l72 150h118z" />
    <glyph glyph-name="Scircumflex" unicode="&#x15c;" horiz-adv-x="600" 
d="M36 149l102 47c41 -77 101 -106 171 -106c80 0 131 39 131 99s-37 90 -107 104l-106 22c-97 20 -175 81 -175 201s107 195 237 195c120 0 207 -40 255 -135l-103 -45c-38 63 -88 79 -152 79s-117 -31 -117 -91c0 -50 32 -84 91 -97l118 -25c111 -24 183 -89 183 -199
c0 -130 -115 -209 -255 -209s-221 55 -273 160zM125 750l119 160h112l119 -160h-114l-61 91l-61 -91h-114z" />
    <glyph glyph-name="scircumflex" unicode="&#x15d;" horiz-adv-x="490" 
d="M36 94l95 48c27 -46 69 -60 119 -60s90 20 90 60s-23 59 -74 64l-56 5c-114 10 -158 67 -158 147c0 100 98 152 198 152c110 0 163 -50 188 -97l-94 -50c-18 30 -40 55 -100 55c-50 0 -82 -19 -82 -55c0 -30 19 -59 68 -63l56 -4c106 -8 168 -59 168 -149
c0 -100 -100 -157 -210 -157c-120 0 -175 45 -208 104zM77 560l117 160h102l117 -160h-105l-63 95l-63 -95h-105z" />
    <glyph glyph-name="Scedilla" unicode="&#x15e;" horiz-adv-x="600" 
d="M228 -212v64h85c20 0 41 7 41 27s-21 27 -41 27h-53v86c-111 11 -179 65 -224 157l102 47c41 -77 101 -106 171 -106c80 0 131 39 131 99s-37 90 -107 104l-106 22c-97 20 -175 81 -175 201s107 195 237 195c120 0 207 -40 255 -135l-103 -45c-38 63 -88 79 -152 79
s-117 -31 -117 -91c0 -50 32 -84 91 -97l118 -25c111 -24 183 -89 183 -199c0 -119 -96 -195 -218 -207v-25c60 0 100 -35 100 -87s-43 -91 -108 -91h-110z" />
    <glyph glyph-name="scedilla" unicode="&#x15f;" horiz-adv-x="490" 
d="M180 -210v60h80c24 0 40 10 40 30s-16 30 -40 30h-48v81c-98 8 -146 49 -176 103l95 48c27 -46 69 -60 119 -60s90 20 90 60s-23 59 -74 64l-56 5c-114 10 -158 67 -158 147c0 100 98 152 198 152c110 0 163 -50 188 -97l-94 -50c-18 30 -40 55 -100 55
c-50 0 -82 -19 -82 -55c0 -30 19 -59 68 -63l56 -4c106 -8 168 -59 168 -149c0 -87 -75 -141 -166 -154v-27c60 0 98 -36 98 -86s-36 -90 -106 -90h-100z" />
    <glyph glyph-name="Scaron" unicode="&#x160;" horiz-adv-x="600" 
d="M36 149l102 47c41 -77 101 -106 171 -106c80 0 131 39 131 99s-37 90 -107 104l-106 22c-97 20 -175 81 -175 201s107 195 237 195c120 0 207 -40 255 -135l-103 -45c-38 63 -88 79 -152 79s-117 -31 -117 -91c0 -50 32 -84 91 -97l118 -25c111 -24 183 -89 183 -199
c0 -130 -115 -209 -255 -209s-221 55 -273 160zM475 910l-119 -160h-112l-119 160h114l61 -91l61 91h114z" />
    <glyph glyph-name="scaron" unicode="&#x161;" horiz-adv-x="490" 
d="M36 94l95 48c27 -46 69 -60 119 -60s90 20 90 60s-23 59 -74 64l-56 5c-114 10 -158 67 -158 147c0 100 98 152 198 152c110 0 163 -50 188 -97l-94 -50c-18 30 -40 55 -100 55c-50 0 -82 -19 -82 -55c0 -30 19 -59 68 -63l56 -4c106 -8 168 -59 168 -149
c0 -100 -100 -157 -210 -157c-120 0 -175 45 -208 104zM413 710l-117 -150h-102l-117 150h106l62 -86l62 86h106z" />
    <glyph glyph-name="Tcedilla" unicode="&#x162;" horiz-adv-x="530" 
d="M173 -212v64h85c20 0 41 7 41 27s-21 27 -41 27h-53v694h-195v100h510v-100h-195v-600h-34v-34c60 0 100 -35 100 -87s-43 -91 -108 -91h-110z" />
    <glyph glyph-name="tcedilla" unicode="&#x163;" horiz-adv-x="320" 
d="M80 -210v60h80c24 0 40 10 40 30s-16 30 -40 30h-48v132c-15 23 -23 54 -23 92v274h-75v92h75v150h112v-150h101v-92h-101v-254c0 -40 14 -72 54 -72h47v-92h-87c-10 0 -19 1 -27 2v-26c60 0 98 -36 98 -86s-36 -90 -106 -90h-100z" />
    <glyph glyph-name="Tcaron" unicode="&#x164;" horiz-adv-x="530" 
d="M205 0v600h-195v100h510v-100h-195v-600h-120zM440 910l-119 -160h-112l-119 160h114l61 -91l61 91h114z" />
    <glyph glyph-name="tcaron" unicode="&#x165;" horiz-adv-x="320" 
d="M14 408v92h75v150h112v-150h101v-92h-101v-254c0 -40 14 -72 54 -72h47v-92h-87c-80 0 -126 54 -126 144v274h-75zM330 560h-90l62 150h118z" />
    <glyph glyph-name="Utilde" unicode="&#x168;" horiz-adv-x="700" 
d="M196 700v-434c0 -112 51 -177 154 -177c102 0 154 65 154 177v434h120v-449c0 -170 -107 -262 -274 -262s-274 92 -274 262v449h120zM279 890c32 0 52 -12 81 -25c24 -11 41 -21 62 -21c26 0 51 19 73 43l60 -68c-35 -37 -86 -69 -135 -69c-32 0 -52 13 -79 26
c-24 11 -43 20 -64 20c-26 0 -51 -19 -73 -42l-59 68c38 37 85 68 134 68z" />
    <glyph glyph-name="utilde" unicode="&#x169;" horiz-adv-x="564" 
d="M490 500v-500h-112v50h-4c-30 -34 -78 -61 -134 -61c-100 0 -170 61 -170 201v310h112v-300c0 -80 34 -119 94 -119c70 0 102 58 102 118v301h112zM213 684c31 0 48 -9 77 -21c25 -10 42 -16 62 -16c21 0 42 12 64 36l60 -57c-35 -37 -82 -66 -126 -66
c-31 0 -50 10 -77 20c-25 10 -42 17 -62 17c-21 0 -42 -13 -64 -37l-59 58c38 37 81 66 125 66z" />
    <glyph glyph-name="Umacron" unicode="&#x16a;" horiz-adv-x="700" 
d="M196 700v-434c0 -112 51 -177 154 -177c102 0 154 65 154 177v434h120v-449c0 -170 -107 -262 -274 -262s-274 92 -274 262v449h120zM225 760v96h250v-96h-250z" />
    <glyph glyph-name="umacron" unicode="&#x16b;" horiz-adv-x="564" 
d="M490 500v-500h-112v50h-4c-30 -34 -78 -61 -134 -61c-100 0 -170 61 -170 201v310h112v-300c0 -80 34 -119 94 -119c70 0 102 58 102 118v301h112zM162 586v88h240v-88h-240z" />
    <glyph glyph-name="Ubreve" unicode="&#x16c;" horiz-adv-x="700" 
d="M196 700v-434c0 -112 51 -177 154 -177c102 0 154 65 154 177v434h120v-449c0 -170 -107 -262 -274 -262s-274 92 -274 262v449h120zM428 904h90c-12 -90 -82 -150 -168 -150s-157 60 -168 150h90c8 -35 36 -60 78 -60s70 25 78 60z" />
    <glyph glyph-name="ubreve" unicode="&#x16d;" horiz-adv-x="564" 
d="M490 500v-500h-112v50h-4c-30 -34 -78 -61 -134 -61c-100 0 -170 61 -170 201v310h112v-300c0 -80 34 -119 94 -119c70 0 102 58 102 118v301h112zM354 710h88c-12 -85 -74 -144 -160 -144s-148 59 -160 144h88c8 -30 30 -58 72 -58c44 0 64 28 72 58z" />
    <glyph glyph-name="Uring" unicode="&#x16e;" horiz-adv-x="700" 
d="M196 700v-434c0 -112 51 -177 154 -177c102 0 154 65 154 177v434h120v-449c0 -170 -107 -262 -274 -262s-274 92 -274 262v449h120zM222 868c0 71 57 128 128 128s128 -57 128 -128s-57 -128 -128 -128s-128 57 -128 128zM300 868c0 -31 21 -54 50 -54s50 23 50 54
s-21 54 -50 54s-50 -23 -50 -54z" />
    <glyph glyph-name="uring" unicode="&#x16f;" horiz-adv-x="564" 
d="M490 500v-500h-112v50h-4c-30 -34 -78 -61 -134 -61c-100 0 -170 61 -170 201v310h112v-300c0 -80 34 -119 94 -119c70 0 102 58 102 118v301h112zM157 685c0 70 55 125 125 125s125 -55 125 -125s-55 -125 -125 -125s-125 55 -125 125zM231 685c0 -32 21 -55 51 -55
s51 23 51 55s-21 55 -51 55s-51 -23 -51 -55z" />
    <glyph glyph-name="Uhungarumlaut" unicode="&#x170;" horiz-adv-x="700" 
d="M196 700v-434c0 -112 51 -177 154 -177c102 0 154 65 154 177v434h120v-449c0 -170 -107 -262 -274 -262s-274 92 -274 262v449h120zM254 750h-94l71 160h122zM445 750h-94l71 160h122z" />
    <glyph glyph-name="uhungarumlaut" unicode="&#x171;" horiz-adv-x="564" 
d="M490 500v-500h-112v50h-4c-30 -34 -78 -61 -134 -61c-100 0 -170 61 -170 201v310h112v-300c0 -80 34 -119 94 -119c70 0 102 58 102 118v301h112zM188 560h-86l71 150h112zM369 560h-86l71 150h112z" />
    <glyph glyph-name="Uogonek" unicode="&#x172;" horiz-adv-x="700" 
d="M474 -124v-76h-105c-65 0 -113 25 -113 76c0 44 28 69 58 102l11 12c-153 9 -249 99 -249 261v449h120v-434c0 -112 51 -177 154 -177c102 0 154 65 154 177v434h120v-449c0 -135 -67 -220 -178 -250l-37 -37c-25 -25 -41 -45 -41 -64c0 -18 18 -24 36 -24h70z" />
    <glyph glyph-name="uogonek" unicode="&#x173;" horiz-adv-x="564" 
d="M514 -128v-72h-97c-65 0 -113 25 -113 86c0 33 22 64 48 89l26 25v50h-4c-30 -34 -78 -61 -134 -61c-100 0 -170 61 -170 201v310h112v-300c0 -80 34 -119 94 -119c70 0 102 58 102 118v301h112v-500l-39 -38c-26 -25 -49 -44 -49 -65c0 -18 16 -25 39 -25h73z" />
    <glyph glyph-name="Ydieresis" unicode="&#x178;" horiz-adv-x="574" 
d="M347 0h-120v281l-221 419h136l145 -286l145 286h136l-221 -419v-281zM121 760v124h114v-124h-114zM339 760v124h114v-124h-114z" />
    <glyph glyph-name="Zacute" unicode="&#x179;" horiz-adv-x="540" 
d="M30 0v86l320 514h-299v100h447v-86l-321 -514h333v-100h-480zM290 750h-100l72 160h128z" />
    <glyph glyph-name="zacute" unicode="&#x17a;" horiz-adv-x="442" 
d="M30 0v80l230 324v4h-218v92h364v-80l-230 -324v-4h236v-92h-382zM225 560h-90l72 150h118z" />
    <glyph glyph-name="Zdotaccent" unicode="&#x17b;" horiz-adv-x="540" 
d="M30 0v86l320 514h-299v100h447v-86l-321 -514h333v-100h-480zM210 760v124h120v-124h-120z" />
    <glyph glyph-name="zdotaccent" unicode="&#x17c;" horiz-adv-x="442" 
d="M30 0v80l230 324v4h-218v92h364v-80l-230 -324v-4h236v-92h-382zM155 576v124h120v-124h-120z" />
    <glyph glyph-name="Zcaron" unicode="&#x17d;" horiz-adv-x="540" 
d="M30 0v86l320 514h-299v100h447v-86l-321 -514h333v-100h-480zM445 910l-119 -160h-112l-119 160h114l61 -91l61 91h114z" />
    <glyph glyph-name="zcaron" unicode="&#x17e;" horiz-adv-x="442" 
d="M30 0v80l230 324v4h-218v92h364v-80l-230 -324v-4h236v-92h-382zM383 710l-117 -150h-102l-117 150h106l62 -86l62 86h106z" />
    <glyph glyph-name="uni018F" unicode="&#x18f;" horiz-adv-x="652" 
d="M44 342v64h439c-1 35 -3 60 -9 86c-16 65 -62 120 -152 120c-80 0 -133 -44 -158 -110l-105 46c33 88 123 164 263 164c150 0 251 -89 274 -211c10 -53 12 -81 12 -151s-2 -99 -12 -151c-23 -123 -124 -211 -274 -211s-244 88 -267 211c-10 52 -11 88 -11 143zM166 306
c0 -40 1 -66 9 -98c16 -68 63 -120 147 -120c90 0 142 56 155 124c6 32 7 54 7 94h-318z" />
    <glyph glyph-name="florin" unicode="&#x192;" 
d="M118 -200l101 580h-113l16 92h112l15 85c18 106 91 153 191 153h74l-15 -92h-43c-50 0 -87 -16 -97 -78l-12 -68h126l-16 -92h-125l-101 -580h-113z" />
    <glyph glyph-name="uni01CF" unicode="&#x1cf;" horiz-adv-x="288" 
d="M84 0v700h120v-700h-120zM319 910l-119 -160h-112l-119 160h114l61 -91l61 91h114z" />
    <glyph glyph-name="uni01D0" unicode="&#x1d0;" horiz-adv-x="260" 
d="M74 0v500h112v-500h-112zM298 710l-117 -150h-102l-117 150h106l62 -86l62 86h106z" />
    <glyph glyph-name="uni01DD" unicode="&#x1dd;" horiz-adv-x="526" 
d="M261 418c-50 0 -89 -20 -110 -65l-95 47c35 76 105 110 205 110s178 -46 205 -128c14 -41 16 -78 16 -132s-2 -91 -16 -132c-27 -82 -105 -128 -205 -128s-174 46 -201 128c-13 41 -16 76 -16 130v40h322c0 34 -1 56 -12 78c-15 33 -43 52 -93 52zM355 135
c10 22 11 40 11 67h-206c1 -28 2 -45 12 -67c13 -30 39 -53 89 -53s80 23 94 53z" />
    <glyph glyph-name="Gcaron" unicode="&#x1e6;" horiz-adv-x="674" 
d="M340 88c120 0 150 95 154 178h-145v100h271c0 -80 0 -112 -11 -168c-21 -111 -109 -210 -269 -210c-150 0 -248 87 -274 210c-11 52 -12 82 -12 152s1 99 12 152c25 122 124 210 274 210c140 0 228 -66 262 -171l-106 -38c-25 69 -66 109 -156 109s-131 -54 -148 -117
c-12 -45 -14 -74 -14 -145s2 -100 14 -145c17 -62 58 -117 148 -117zM512 910l-119 -160h-112l-119 160h114l61 -91l61 91h114z" />
    <glyph glyph-name="gcaron" unicode="&#x1e7;" horiz-adv-x="552" 
d="M478 500v-495c0 -125 -78 -215 -218 -215c-100 0 -160 29 -202 95l95 49c28 -38 58 -54 104 -54c72 0 109 52 109 129v41h-4c-33 -41 -86 -60 -136 -60c-72 0 -137 37 -166 119c-14 40 -16 87 -16 141s2 102 16 142c29 82 94 118 166 118c50 0 103 -19 136 -60h4v50h112z
M366 200v100c0 70 -44 118 -104 118c-40 0 -76 -21 -90 -63c-10 -30 -12 -55 -12 -105s2 -76 12 -105c15 -43 50 -63 90 -63c60 0 104 48 104 118zM444 710l-117 -150h-102l-117 150h106l62 -86l62 86h106z" />
    <glyph glyph-name="Scommaaccent" unicode="&#x218;" horiz-adv-x="600" 
d="M36 149l102 47c41 -77 101 -106 171 -106c80 0 131 39 131 99s-37 90 -107 104l-106 22c-97 20 -175 81 -175 201s107 195 237 195c120 0 207 -40 255 -135l-103 -45c-38 63 -88 79 -152 79s-117 -31 -117 -91c0 -50 32 -84 91 -97l118 -25c111 -24 183 -89 183 -199
c0 -130 -115 -209 -255 -209s-221 55 -273 160zM286 -210h-100l67 150h127z" />
    <glyph glyph-name="scommaaccent" unicode="&#x219;" horiz-adv-x="490" 
d="M36 94l95 48c27 -46 69 -60 119 -60s90 20 90 60s-23 59 -74 64l-56 5c-114 10 -158 67 -158 147c0 100 98 152 198 152c110 0 163 -50 188 -97l-94 -50c-18 30 -40 55 -100 55c-50 0 -82 -19 -82 -55c0 -30 19 -59 68 -63l56 -4c106 -8 168 -59 168 -149
c0 -100 -100 -157 -210 -157c-120 0 -175 45 -208 104zM230 -210h-89l66 150h116z" />
    <glyph glyph-name="Tcommaaccent" unicode="&#x21a;" horiz-adv-x="530" 
d="M205 0v600h-195v100h510v-100h-195v-600h-120zM251 -210h-100l67 150h127z" />
    <glyph glyph-name="tcommaaccent" unicode="&#x21b;" horiz-adv-x="320" 
d="M14 408v92h75v150h112v-150h101v-92h-101v-254c0 -40 14 -72 54 -72h47v-92h-87c-80 0 -126 54 -126 144v274h-75zM145 -210h-89l66 150h116z" />
    <glyph glyph-name="uni0228" unicode="&#x228;" horiz-adv-x="594" 
d="M226 -212v64h85c20 0 41 7 41 27s-21 27 -41 27h-53v94h-174v700h460v-100h-340v-190h280v-100h-280v-210h350v-100h-210v-34c60 0 100 -35 100 -87s-43 -91 -108 -91h-110z" />
    <glyph glyph-name="uni0229" unicode="&#x229;" horiz-adv-x="526" 
d="M183 -210v60h80c24 0 40 10 40 30s-16 30 -40 30h-48v84c-76 13 -133 56 -155 124c-14 41 -16 78 -16 132s2 91 16 132c27 82 105 128 205 128s174 -46 201 -128c13 -41 16 -76 16 -130v-40h-322c0 -34 1 -56 12 -78c15 -33 43 -52 93 -52s89 20 110 65l95 -47
c-32 -69 -93 -103 -179 -109v-25c60 0 98 -36 98 -86s-36 -90 -106 -90h-100zM171 365c-10 -22 -11 -40 -11 -67h206c-1 28 -2 45 -12 67c-13 30 -39 53 -89 53s-80 -23 -94 -53z" />
    <glyph glyph-name="uni0237" unicode="&#x237;" horiz-adv-x="262" 
d="M188 500v-542c0 -123 -73 -166 -163 -166h-61v94h40c50 0 72 25 72 79v535h112z" />
    <glyph glyph-name="uni0259" unicode="&#x259;" horiz-adv-x="526" 
d="M261 418c-50 0 -89 -20 -110 -65l-95 47c35 76 105 110 205 110s178 -46 205 -128c14 -41 16 -78 16 -132s-2 -91 -16 -132c-27 -82 -105 -128 -205 -128s-174 46 -201 128c-13 41 -16 76 -16 130v40h322c0 34 -1 56 -12 78c-15 33 -43 52 -93 52zM355 135
c10 22 11 40 11 67h-206c1 -28 2 -45 12 -67c13 -30 39 -53 89 -53s80 23 94 53z" />
    <glyph glyph-name="afii57929" unicode="&#x2bc;" horiz-adv-x="500" 
d="M260 560h-90l62 150h118z" />
    <glyph glyph-name="circumflex" unicode="&#x2c6;" horiz-adv-x="500" 
d="M82 560l117 160h102l117 -160h-105l-63 95l-63 -95h-105z" />
    <glyph glyph-name="caron" unicode="&#x2c7;" horiz-adv-x="500" 
d="M418 710l-117 -150h-102l-117 150h106l62 -86l62 86h106z" />
    <glyph glyph-name="breve" unicode="&#x2d8;" horiz-adv-x="500" 
d="M322 710h88c-12 -85 -74 -144 -160 -144s-148 59 -160 144h88c8 -30 30 -58 72 -58c44 0 64 28 72 58z" />
    <glyph glyph-name="dotaccent" unicode="&#x2d9;" horiz-adv-x="500" 
d="M190 576v124h120v-124h-120z" />
    <glyph glyph-name="ring" unicode="&#x2da;" horiz-adv-x="500" 
d="M125 685c0 70 55 125 125 125s125 -55 125 -125s-55 -125 -125 -125s-125 55 -125 125zM199 685c0 -32 21 -55 51 -55s51 23 51 55s-21 55 -51 55s-51 -23 -51 -55z" />
    <glyph glyph-name="ogonek" unicode="&#x2db;" horiz-adv-x="500" 
d="M355 -128v-72h-97c-65 0 -113 25 -113 76c0 43 33 74 66 102l26 22h94l-39 -35c-26 -24 -49 -47 -49 -68c0 -18 16 -25 39 -25h73z" />
    <glyph glyph-name="tilde" unicode="&#x2dc;" horiz-adv-x="500" 
d="M181 684c31 0 48 -9 77 -21c25 -10 42 -16 62 -16c21 0 42 12 64 36l60 -57c-35 -37 -82 -66 -126 -66c-31 0 -50 10 -77 20c-25 10 -42 17 -62 17c-21 0 -42 -13 -64 -37l-59 58c38 37 81 66 125 66z" />
    <glyph glyph-name="hungarumlaut" unicode="&#x2dd;" horiz-adv-x="500" 
d="M156 560h-86l71 150h112zM337 560h-86l71 150h112z" />
    <glyph glyph-name="gravecomb" unicode="&#x300;" horiz-adv-x="2" 
d="M-276 560l-98 150h117l71 -150h-90z" />
    <glyph glyph-name="acutecomb" unicode="&#x301;" horiz-adv-x="2" 
d="M-195 560h-90l72 150h118z" />
    <glyph glyph-name="tonos" unicode="&#x384;" horiz-adv-x="500" 
d="M265 560h-85l51 150h118z" />
    <glyph glyph-name="dieresistonos" unicode="&#x385;" horiz-adv-x="500" 
d="M66 576v124h100v-124h-100zM334 576v124h100v-124h-100zM253 560h-75l37 150h108z" />
    <glyph glyph-name="Alphatonos" unicode="&#x386;" horiz-adv-x="626" 
d="M8 0l250 700h112l250 -700h-126l-57 171h-246l-57 -171h-126zM222 271h184l-92 273zM85 550h-95l51 150h128z" />
    <glyph glyph-name="Epsilontonos" unicode="&#x388;" horiz-adv-x="594" 
d="M554 100v-100h-470v700h460v-100h-340v-190h280v-100h-280v-210h350zM-35 550h-95l51 150h128z" />
    <glyph glyph-name="Etatonos" unicode="&#x389;" horiz-adv-x="718" 
d="M84 0v700h120v-290h310v290h120v-700h-120v310h-310v-310h-120zM-35 550h-95l51 150h128z" />
    <glyph glyph-name="Iotatonos" unicode="&#x38a;" horiz-adv-x="288" 
d="M84 0v700h120v-700h-120zM-35 550h-95l51 150h128z" />
    <glyph glyph-name="Omicrontonos" unicode="&#x38c;" horiz-adv-x="674" 
d="M608 198c-23 -123 -121 -210 -271 -210s-248 87 -271 210c-10 52 -12 82 -12 152s2 99 12 152c23 122 121 210 271 210s248 -88 271 -210c10 -53 12 -82 12 -152s-2 -100 -12 -152zM337 88c84 0 134 53 148 123c9 45 11 73 11 139s-2 94 -11 139c-14 70 -64 123 -148 123
s-134 -54 -148 -123c-10 -45 -11 -73 -11 -139s1 -94 11 -139c15 -70 64 -123 148 -123zM-5 550h-95l51 150h128z" />
    <glyph glyph-name="Upsilontonos" unicode="&#x38e;" horiz-adv-x="574" 
d="M347 0h-120v281l-221 419h136l145 -286l145 286h136l-221 -419v-281zM-95 550h-95l51 150h128z" />
    <glyph glyph-name="Omegatonos" unicode="&#x38f;" horiz-adv-x="674" 
d="M393 0v112c51 17 81 57 92 109c9 45 11 83 11 139s-2 84 -11 129c-14 70 -64 123 -148 123s-134 -54 -148 -123c-10 -45 -11 -73 -11 -129s1 -94 11 -139c11 -52 41 -92 92 -109v-112h-227v101h91v4c-42 27 -69 70 -79 123c-10 52 -12 72 -12 132s2 89 12 142
c23 122 121 210 271 210s248 -88 271 -210c10 -53 12 -82 12 -142s-2 -80 -12 -132c-10 -53 -32 -90 -77 -123v-4h89v-101h-227zM-5 550h-95l51 150h128z" />
    <glyph glyph-name="iotadieresistonos" unicode="&#x390;" horiz-adv-x="266" 
d="M186 500v-344c0 -42 14 -72 54 -72h16v-92h-56c-82 0 -126 51 -126 142v366h112zM-45 576v124h100v-124h-100zM223 576v124h100v-124h-100zM142 560h-75l37 150h108z" />
    <glyph glyph-name="Alpha" unicode="&#x391;" horiz-adv-x="626" 
d="M8 0l250 700h112l250 -700h-126l-57 171h-246l-57 -171h-126zM222 271h184l-92 273z" />
    <glyph glyph-name="Beta" unicode="&#x392;" horiz-adv-x="660" 
d="M84 700h271c160 0 237 -65 237 -175c0 -90 -46 -132 -107 -157v-4c78 -23 121 -78 121 -168c0 -120 -84 -196 -244 -196h-278v700zM331 311h-127v-211h138c90 0 140 34 140 104c0 80 -51 107 -151 107zM331 600h-127v-189h136c90 0 132 38 132 98c0 67 -51 91 -141 91z
" />
    <glyph glyph-name="Gamma" unicode="&#x393;" horiz-adv-x="544" 
d="M84 0v700h450v-102h-330v-598h-120z" />
    <glyph glyph-name="uni0394" unicode="&#x394;" horiz-adv-x="628" 
d="M8 0l250 700h112l250 -700h-612zM168 100h292l-146 444z" />
    <glyph glyph-name="uni0394" unicode="&#x2206;" horiz-adv-x="628" 
d="M8 0l250 700h112l250 -700h-612zM168 100h292l-146 444z" />
    <glyph glyph-name="Epsilon" unicode="&#x395;" horiz-adv-x="594" 
d="M554 100v-100h-470v700h460v-100h-340v-190h280v-100h-280v-210h350z" />
    <glyph glyph-name="Zeta" unicode="&#x396;" horiz-adv-x="540" 
d="M30 0v86l320 514h-299v100h447v-86l-321 -514h333v-100h-480z" />
    <glyph glyph-name="Eta" unicode="&#x397;" horiz-adv-x="718" 
d="M84 0v700h120v-290h310v290h120v-700h-120v310h-310v-310h-120z" />
    <glyph glyph-name="Theta" unicode="&#x398;" horiz-adv-x="674" 
d="M452 310h-230v100h230v-100zM608 198c-23 -123 -121 -210 -271 -210s-248 87 -271 210c-10 52 -12 82 -12 152s2 99 12 152c23 122 121 210 271 210s248 -88 271 -210c10 -53 12 -82 12 -152s-2 -100 -12 -152zM337 88c84 0 134 53 148 123c9 45 11 73 11 139
s-2 94 -11 139c-14 70 -64 123 -148 123s-134 -54 -148 -123c-10 -45 -11 -73 -11 -139s1 -94 11 -139c15 -70 64 -123 148 -123z" />
    <glyph glyph-name="Iota" unicode="&#x399;" horiz-adv-x="288" 
d="M84 0v700h120v-700h-120z" />
    <glyph glyph-name="Kappa" unicode="&#x39a;" horiz-adv-x="630" 
d="M84 0v700h120v-316l256 316h142l-229 -280l257 -420h-142l-193 324l-91 -112v-212h-120z" />
    <glyph glyph-name="Lambda" unicode="&#x39b;" horiz-adv-x="612" 
d="M306 544l-172 -544h-126l242 700h112l242 -700h-126z" />
    <glyph glyph-name="Mu" unicode="&#x39c;" horiz-adv-x="844" 
d="M84 0v700h156l182 -408l182 408h156v-700h-120v487h-4l-166 -367h-96l-166 367h-4v-487h-120z" />
    <glyph glyph-name="Nu" unicode="&#x39d;" horiz-adv-x="730" 
d="M204 482v-482h-120v700h120l320 -482v482h120v-700h-120z" />
    <glyph glyph-name="Xi" unicode="&#x39e;" horiz-adv-x="570" 
d="M520 100v-100h-470v100h470zM515 600h-460v100h460v-100zM485 310h-400v100h400v-100z" />
    <glyph glyph-name="Omicron" unicode="&#x39f;" horiz-adv-x="674" 
d="M608 198c-23 -123 -121 -210 -271 -210s-248 87 -271 210c-10 52 -12 82 -12 152s2 99 12 152c23 122 121 210 271 210s248 -88 271 -210c10 -53 12 -82 12 -152s-2 -100 -12 -152zM337 88c84 0 134 53 148 123c9 45 11 73 11 139s-2 94 -11 139c-14 70 -64 123 -148 123
s-134 -54 -148 -123c-10 -45 -11 -73 -11 -139s1 -94 11 -139c15 -70 64 -123 148 -123z" />
    <glyph glyph-name="Pi" unicode="&#x3a0;" horiz-adv-x="718" 
d="M84 0v700h550v-700h-120v600h-310v-600h-120z" />
    <glyph glyph-name="Rho" unicode="&#x3a1;" 
d="M84 700h244c170 0 258 -77 258 -213s-88 -214 -258 -214h-124v-273h-120v700zM204 373h120c100 0 138 44 138 114s-38 113 -138 113h-120v-227z" />
    <glyph glyph-name="Sigma" unicode="&#x3a3;" horiz-adv-x="560" 
d="M50 0v82l189 278l-177 258v82h437v-100h-280l165 -240l-177 -260h313v-100h-470z" />
    <glyph glyph-name="Tau" unicode="&#x3a4;" horiz-adv-x="530" 
d="M205 0v600h-195v100h510v-100h-195v-600h-120z" />
    <glyph glyph-name="Upsilon" unicode="&#x3a5;" horiz-adv-x="574" 
d="M347 0h-120v281l-221 419h136l145 -286l145 286h136l-221 -419v-281z" />
    <glyph glyph-name="Phi" unicode="&#x3a6;" horiz-adv-x="838" 
d="M780 257c-23 -105 -109 -196 -301 -197v-60h-120v60c-192 1 -278 92 -301 197c-8 37 -8 68 -8 98s0 60 8 97c23 105 108 194 301 196v52h120v-52c193 -2 278 -91 301 -196c8 -37 8 -67 8 -97s0 -61 -8 -98zM660 435c-14 53 -54 112 -181 113v-388c127 0 167 61 181 114
c8 30 8 55 8 81s0 50 -8 80zM178 435c-8 -30 -8 -54 -8 -80s0 -51 8 -81c14 -53 54 -114 181 -114v388c-127 -1 -167 -60 -181 -113z" />
    <glyph glyph-name="Chi" unicode="&#x3a7;" horiz-adv-x="600" 
d="M10 0l220 363l-200 337h138l132 -239l132 239h138l-197 -337l217 -363h-139l-151 265l-151 -265h-139z" />
    <glyph glyph-name="Psi" unicode="&#x3a8;" horiz-adv-x="822" 
d="M351 0v112c-150 8 -287 78 -287 274v314h120v-299c0 -122 57 -186 167 -189v488h120v-488c109 3 167 67 167 189v299h120v-314c0 -196 -138 -266 -287 -274v-112h-120z" />
    <glyph glyph-name="uni03A9" unicode="&#x3a9;" horiz-adv-x="674" 
d="M393 0v112c51 17 81 57 92 109c9 45 11 83 11 139s-2 84 -11 129c-14 70 -64 123 -148 123s-134 -54 -148 -123c-10 -45 -11 -73 -11 -129s1 -94 11 -139c11 -52 41 -92 92 -109v-112h-227v101h91v4c-42 27 -69 70 -79 123c-10 52 -12 72 -12 132s2 89 12 142
c23 122 121 210 271 210s248 -88 271 -210c10 -53 12 -82 12 -142s-2 -80 -12 -132c-10 -53 -32 -90 -77 -123v-4h89v-101h-227z" />
    <glyph glyph-name="uni03A9" unicode="&#x2126;" horiz-adv-x="674" 
d="M393 0v112c51 17 81 57 92 109c9 45 11 83 11 139s-2 84 -11 129c-14 70 -64 123 -148 123s-134 -54 -148 -123c-10 -45 -11 -73 -11 -129s1 -94 11 -139c11 -52 41 -92 92 -109v-112h-227v101h91v4c-42 27 -69 70 -79 123c-10 52 -12 72 -12 132s2 89 12 142
c23 122 121 210 271 210s248 -88 271 -210c10 -53 12 -82 12 -142s-2 -80 -12 -132c-10 -53 -32 -90 -77 -123v-4h89v-101h-227z" />
    <glyph glyph-name="Iotadieresis" unicode="&#x3aa;" horiz-adv-x="292" 
d="M86 0v700h120v-700h-120zM10 760v124h106v-124h-106zM176 760v124h106v-124h-106z" />
    <glyph glyph-name="Upsilondieresis" unicode="&#x3ab;" horiz-adv-x="574" 
d="M347 0h-120v281l-221 419h136l145 -286l145 286h136l-221 -419v-281zM121 760v124h114v-124h-114zM339 760v124h114v-124h-114z" />
    <glyph glyph-name="alphatonos" unicode="&#x3ac;" horiz-adv-x="552" 
d="M478 500v-500h-112v50h-4c-33 -41 -80 -60 -130 -60c-79 0 -143 36 -172 118c-14 40 -16 89 -16 142c0 54 2 102 16 142c29 82 93 118 172 118c51 0 97 -19 130 -60h4v50h112zM366 200v100c0 70 -46 118 -104 118c-43 0 -75 -19 -91 -62c-10 -29 -11 -59 -11 -106
c0 -48 1 -76 11 -106c14 -42 48 -62 91 -62c58 0 104 48 104 118zM277 560h-85l51 150h118z" />
    <glyph glyph-name="epsilontonos" unicode="&#x3ad;" horiz-adv-x="500" 
d="M460 422l-90 -57c-25 33 -60 53 -108 53c-45 0 -92 -12 -92 -58c0 -40 41 -56 87 -56h48v-92h-48c-46 0 -97 -14 -97 -64s51 -66 102 -66c66 0 98 31 122 60l90 -57c-47 -63 -131 -95 -217 -95c-106 0 -213 42 -213 148c0 60 43 108 102 120v4c-55 14 -88 52 -88 108
c0 96 93 140 199 140c96 0 165 -42 203 -88zM261 560h-85l51 150h118z" />
    <glyph glyph-name="etatonos" unicode="&#x3ae;" horiz-adv-x="564" 
d="M74 0v500h112v-50h4c30 34 78 60 134 60c100 0 170 -60 170 -200v-310h-112v300c0 80 -34 120 -94 120c-70 0 -102 -59 -102 -119v-301h-112zM283 560h-85l51 150h118z" />
    <glyph glyph-name="iotatonos" unicode="&#x3af;" horiz-adv-x="266" 
d="M186 500v-344c0 -42 14 -72 54 -72h16v-92h-56c-82 0 -126 51 -126 142v366h112zM156 560h-85l51 150h118z" />
    <glyph glyph-name="upsilondieresistonos" unicode="&#x3b0;" horiz-adv-x="560" 
d="M182 500v-297c0 -90 42 -121 98 -121s98 31 98 121v297h112v-313c0 -146 -96 -197 -210 -197s-210 51 -210 197v313h112zM96 576v124h100v-124h-100zM364 576v124h100v-124h-100zM283 560h-75l37 150h108z" />
    <glyph glyph-name="alpha" unicode="&#x3b1;" horiz-adv-x="552" 
d="M478 500v-500h-112v50h-4c-33 -41 -80 -60 -130 -60c-79 0 -143 36 -172 118c-14 40 -16 89 -16 142c0 54 2 102 16 142c29 82 93 118 172 118c51 0 97 -19 130 -60h4v50h112zM366 200v100c0 70 -46 118 -104 118c-43 0 -75 -19 -91 -62c-10 -29 -11 -59 -11 -106
c0 -48 1 -76 11 -106c14 -42 48 -62 91 -62c58 0 104 48 104 118z" />
    <glyph glyph-name="beta" unicode="&#x3b2;" horiz-adv-x="554" 
d="M186 -200h-112v698c0 150 114 212 214 212c120 0 204 -55 204 -165c0 -60 -30 -113 -90 -136v-4c55 -14 84 -56 95 -93c10 -34 13 -63 13 -97s-2 -59 -12 -97c-19 -72 -80 -128 -190 -128c-60 0 -100 32 -118 60h-4v-250zM186 488v-287c0 -65 50 -119 110 -119
c50 0 76 32 88 66c9 27 10 48 10 75s-1 50 -11 75c-13 35 -44 56 -94 56h-40v92h40c60 0 89 42 89 88c0 50 -30 84 -90 84s-102 -40 -102 -130z" />
    <glyph glyph-name="gamma" unicode="&#x3b3;" horiz-adv-x="505" 
d="M202 -200v200l-114 314c-26 73 -36 104 -80 104h-8v92h28c96 0 121 -30 160 -148l71 -214l118 352h122l-185 -500v-200h-112z" />
    <glyph glyph-name="delta" unicode="&#x3b4;" horiz-adv-x="530" 
d="M467 372c17 -40 19 -78 19 -122c0 -49 -3 -91 -17 -132c-28 -82 -103 -128 -204 -128s-176 46 -204 128c-14 41 -17 83 -17 132c0 39 3 75 17 109c17 42 49 75 97 90c-52 19 -96 53 -96 118c0 90 87 143 192 143c110 0 168 -41 210 -86l-87 -61c-30 37 -70 55 -115 55
c-44 0 -84 -15 -84 -50c0 -36 49 -47 100 -65c92 -33 160 -62 189 -131zM265 82c47 0 79 25 92 61c12 33 13 70 13 107c0 42 -1 78 -16 105c-22 40 -78 59 -104 59c-34 0 -64 -24 -78 -64c-12 -29 -12 -63 -12 -100s1 -74 13 -107c13 -36 45 -61 92 -61z" />
    <glyph glyph-name="epsilon" unicode="&#x3b5;" horiz-adv-x="500" 
d="M460 422l-90 -57c-25 33 -60 53 -108 53c-45 0 -92 -12 -92 -58c0 -40 41 -56 87 -56h48v-92h-48c-46 0 -97 -14 -97 -64s51 -66 102 -66c66 0 98 31 122 60l90 -57c-47 -63 -131 -95 -217 -95c-106 0 -213 42 -213 148c0 60 43 108 102 120v4c-55 14 -88 52 -88 108
c0 96 93 140 199 140c96 0 165 -42 203 -88z" />
    <glyph glyph-name="zeta" unicode="&#x3b6;" horiz-adv-x="440" 
d="M40 211c0 43 10 87 50 156c46 79 142 185 198 237v4h-229v92h381v-76c-74 -66 -174 -168 -234 -265c-35 -55 -50 -93 -50 -136c0 -19 0 -34 11 -51c17 -27 45 -44 103 -66l56 -20c69 -24 114 -49 114 -115c0 -39 -20 -87 -46 -137l-96 46c11 21 28 50 28 70
c0 19 -13 27 -47 41l-62 24c-81 32 -131 59 -158 115c-14 29 -19 53 -19 81z" />
    <glyph glyph-name="eta" unicode="&#x3b7;" horiz-adv-x="564" 
d="M74 0v500h112v-50h4c30 34 78 60 134 60c100 0 170 -60 170 -200v-310h-112v300c0 80 -34 120 -94 120c-70 0 -102 -59 -102 -119v-301h-112z" />
    <glyph glyph-name="theta" unicode="&#x3b8;" horiz-adv-x="564" 
d="M503 207c-13 -126 -86 -217 -221 -217s-208 91 -222 217c-6 55 -6 82 -6 143c0 60 0 87 6 143c14 125 87 217 222 217s208 -92 221 -217c6 -56 7 -83 7 -143c0 -61 -1 -88 -7 -143zM282 82c66 0 98 52 107 131c3 33 5 58 5 99h-224c0 -41 1 -66 5 -99
c9 -79 41 -131 107 -131zM174 482c-3 -28 -4 -48 -4 -78h224c0 30 -1 50 -4 78c-9 84 -42 136 -108 136s-99 -52 -108 -136z" />
    <glyph glyph-name="iota" unicode="&#x3b9;" horiz-adv-x="266" 
d="M186 500v-344c0 -42 14 -72 54 -72h16v-92h-56c-82 0 -126 51 -126 142v366h112z" />
    <glyph glyph-name="kappa" unicode="&#x3ba;" horiz-adv-x="532" 
d="M74 0v500h112v-196l180 196h140l-174 -187l194 -313h-136l-136 230l-68 -74v-156h-112z" />
    <glyph glyph-name="lambda" unicode="&#x3bb;" horiz-adv-x="508" 
d="M6 0l191 505c-25 71 -50 113 -110 113h-19v92h20c130 0 171 -56 216 -193l107 -329c23 -72 41 -106 87 -106h10v-92c-106 0 -155 27 -195 150l-67 208l-118 -348h-122z" />
    <glyph glyph-name="nu" unicode="&#x3bd;" horiz-adv-x="492" 
d="M193 0l-187 500h122l118 -354l118 354h122l-187 -500h-106z" />
    <glyph glyph-name="xi" unicode="&#x3be;" horiz-adv-x="454" 
d="M454 627l-84 -64c-25 35 -53 55 -104 55c-53 0 -92 -28 -92 -79c0 -52 42 -87 92 -87h88v-92h-80c-49 0 -91 -15 -106 -57c-7 -19 -8 -38 -8 -56c0 -24 2 -44 11 -64c13 -32 45 -54 104 -75l64 -22c69 -24 115 -49 115 -115c0 -39 -20 -87 -46 -137l-96 46
c11 21 28 50 28 70c0 19 -13 30 -49 42l-60 20c-86 30 -145 67 -169 126c-13 31 -18 58 -18 96c0 29 3 59 12 86c15 45 46 74 89 91v4c-50 22 -85 67 -85 132c0 101 91 163 201 163c103 0 155 -39 193 -83z" />
    <glyph glyph-name="omicron" unicode="&#x3bf;" horiz-adv-x="528" 
d="M468 118c-28 -82 -104 -128 -204 -128s-176 46 -204 128c-14 41 -16 78 -16 132s2 91 16 132c28 82 104 128 204 128s176 -46 204 -128c14 -41 16 -78 16 -132s-2 -91 -16 -132zM264 82c50 0 79 25 92 61c12 33 12 65 12 107s0 74 -12 107c-13 35 -42 61 -92 61
s-79 -26 -92 -61c-12 -33 -12 -65 -12 -107s0 -74 12 -107c13 -36 42 -61 92 -61z" />
    <glyph glyph-name="pi" unicode="&#x3c0;" horiz-adv-x="568" 
d="M74 500h420v-500h-112v408h-196v-408h-112v500z" />
    <glyph glyph-name="rho" unicode="&#x3c1;" horiz-adv-x="552" 
d="M74 -200v700h112v-50h4c33 41 86 60 136 60c72 0 137 -36 166 -118c14 -40 16 -88 16 -142s-2 -101 -16 -141c-29 -82 -94 -119 -166 -119c-50 0 -103 19 -136 60h-4v-250h-112zM186 300v-100c0 -70 44 -118 104 -118c40 0 75 20 90 63c10 29 12 55 12 105s-2 75 -12 105
c-14 42 -50 63 -90 63c-60 0 -104 -48 -104 -118z" />
    <glyph glyph-name="sigma1" unicode="&#x3c2;" horiz-adv-x="472" 
d="M160 266c0 -29 4 -62 13 -83c12 -29 34 -56 91 -77l54 -20c67 -26 114 -49 114 -115c0 -39 -20 -87 -46 -137l-96 46c11 21 28 50 28 70c0 19 -13 28 -48 41l-50 19c-88 34 -133 73 -157 137c-12 32 -19 71 -19 119c0 49 3 77 16 116c28 83 106 127 205 127
c92 0 159 -32 191 -106l-97 -45c-18 44 -54 58 -94 58c-48 0 -80 -25 -93 -61c-11 -29 -12 -47 -12 -89z" />
    <glyph glyph-name="sigma" unicode="&#x3c3;" horiz-adv-x="534" 
d="M468 116c-28 -82 -104 -126 -204 -126s-176 44 -204 126c-14 41 -16 75 -16 129s2 88 16 129c28 82 103 126 204 126h250v-93h-87v-4c10 -7 21 -19 28 -30c25 -37 29 -74 29 -128s-2 -88 -16 -129zM264 82c50 0 79 23 92 59c12 33 12 62 12 104s0 71 -12 104
c-13 35 -42 59 -92 59s-79 -24 -92 -59c-12 -33 -12 -62 -12 -104s0 -71 12 -104c13 -36 42 -59 92 -59z" />
    <glyph glyph-name="tau" unicode="&#x3c4;" horiz-adv-x="374" 
d="M364 408h-127v-252c0 -42 14 -74 54 -74h42v-92h-82c-82 0 -126 53 -126 144v274h-115v92h354v-92z" />
    <glyph glyph-name="upsilon" unicode="&#x3c5;" horiz-adv-x="560" 
d="M182 500v-297c0 -90 42 -121 98 -121s98 31 98 121v297h112v-313c0 -146 -96 -197 -210 -197s-210 51 -210 197v313h112z" />
    <glyph glyph-name="phi" unicode="&#x3c6;" horiz-adv-x="732" 
d="M167 166c12 -37 43 -83 143 -84v428h107c155 0 236 -77 259 -157c11 -38 12 -64 12 -103s-1 -65 -12 -103c-23 -81 -94 -152 -254 -157v-190h-112v190c-160 5 -231 77 -254 157c-11 38 -12 64 -12 103s1 68 11 104c18 64 61 119 141 145l36 -96c-40 -15 -57 -43 -65 -68
c-9 -29 -11 -53 -11 -85s2 -55 11 -84zM564 334c-11 35 -42 82 -142 84v-336c100 1 131 47 142 84c9 29 12 52 12 84s-2 55 -12 84z" />
    <glyph glyph-name="chi" unicode="&#x3c7;" horiz-adv-x="496" 
d="M10 0l169 265l-151 235h130l90 -152l90 152h130l-151 -235l169 -265h-132l-106 173l-106 -173h-132z" />
    <glyph glyph-name="psi" unicode="&#x3c8;" horiz-adv-x="732" 
d="M310 -200v190c-137 7 -250 73 -250 229v281h112v-270c0 -104 60 -144 138 -148v438h112v-438c78 4 138 44 138 148v270h112v-281c0 -156 -113 -222 -250 -229v-190h-112z" />
    <glyph glyph-name="omega" unicode="&#x3c9;" horiz-adv-x="796" 
d="M248 82c40 0 64 27 79 62c13 28 15 62 15 109v117h112v-117c0 -47 2 -81 15 -109c15 -35 39 -62 79 -62s66 27 80 68c10 28 12 56 12 98s-1 70 -12 97c-11 36 -38 60 -77 70l34 93c63 -10 121 -51 148 -119c16 -40 19 -77 19 -136s-3 -97 -17 -137
c-29 -81 -92 -126 -178 -126c-77 0 -126 36 -159 93c-32 -57 -82 -93 -159 -93c-86 0 -149 46 -178 127c-14 40 -17 78 -17 137s3 96 19 136c27 68 85 109 148 119l34 -94c-39 -10 -66 -34 -77 -69c-11 -28 -12 -55 -12 -97s2 -71 12 -98c14 -41 40 -69 80 -69z" />
    <glyph glyph-name="iotadieresis" unicode="&#x3ca;" horiz-adv-x="266" 
d="M186 500v-344c0 -42 14 -72 54 -72h16v-92h-56c-82 0 -126 51 -126 142v366h112zM10 574v126h96v-126h-96zM154 574v126h96v-126h-96z" />
    <glyph glyph-name="upsilondieresis" unicode="&#x3cb;" horiz-adv-x="560" 
d="M182 500v-297c0 -90 42 -121 98 -121s98 31 98 121v297h112v-313c0 -146 -96 -197 -210 -197s-210 51 -210 197v313h112zM120 576v124h110v-124h-110zM330 576v124h110v-124h-110z" />
    <glyph glyph-name="omicrontonos" unicode="&#x3cc;" horiz-adv-x="528" 
d="M468 118c-28 -82 -104 -128 -204 -128s-176 46 -204 128c-14 41 -16 78 -16 132s2 91 16 132c28 82 104 128 204 128s176 -46 204 -128c14 -41 16 -78 16 -132s-2 -91 -16 -132zM264 82c50 0 79 25 92 61c12 33 12 65 12 107s0 74 -12 107c-13 35 -42 61 -92 61
s-79 -26 -92 -61c-12 -33 -12 -65 -12 -107s0 -74 12 -107c13 -36 42 -61 92 -61zM275 560h-85l51 150h118z" />
    <glyph glyph-name="upsilontonos" unicode="&#x3cd;" horiz-adv-x="560" 
d="M182 500v-297c0 -90 42 -121 98 -121s98 31 98 121v297h112v-313c0 -146 -96 -197 -210 -197s-210 51 -210 197v313h112zM311 560h-85l51 150h118z" />
    <glyph glyph-name="omegatonos" unicode="&#x3ce;" horiz-adv-x="796" 
d="M248 82c40 0 64 27 79 62c13 28 15 62 15 109v117h112v-117c0 -47 2 -81 15 -109c15 -35 39 -62 79 -62s66 27 80 68c10 28 12 56 12 98s-1 70 -12 97c-11 36 -38 60 -77 70l34 93c63 -10 121 -51 148 -119c16 -40 19 -77 19 -136s-3 -97 -17 -137
c-29 -81 -92 -126 -178 -126c-77 0 -126 36 -159 93c-32 -57 -82 -93 -159 -93c-86 0 -149 46 -178 127c-14 40 -17 78 -17 137s3 96 19 136c27 68 85 109 148 119l34 -94c-39 -10 -66 -34 -77 -69c-11 -28 -12 -55 -12 -97s2 -71 12 -98c14 -41 40 -69 80 -69zM429 560h-85
l51 150h118z" />
    <glyph glyph-name="afii10023" unicode="&#x401;" horiz-adv-x="594" 
d="M554 100v-100h-470v700h460v-100h-340v-190h280v-100h-280v-210h350zM141 760v124h114v-124h-114zM359 760v124h114v-124h-114z" />
    <glyph glyph-name="afii10051" unicode="&#x402;" horiz-adv-x="758" 
d="M314 324v-324h-120v600h-184v100h514v-100h-210v-176h148c143 0 256 -64 256 -210s-113 -214 -256 -214h-58v100h43c86 0 147 31 147 113s-61 111 -147 111h-133z" />
    <glyph glyph-name="afii10052" unicode="&#x403;" horiz-adv-x="544" 
d="M84 0v700h450v-100h-330v-600h-120zM292 750h-100l72 160h128z" />
    <glyph glyph-name="afii10053" unicode="&#x404;" horiz-adv-x="642" 
d="M424 412v-100h-246c0 -50 3 -68 9 -100c13 -66 63 -124 153 -124s137 42 166 120l106 -45c-26 -93 -112 -175 -272 -175c-150 0 -251 88 -274 211c-10 52 -12 81 -12 151s2 98 12 151c23 122 124 211 274 211c140 0 230 -76 263 -164l-105 -46c-25 66 -78 110 -158 110
c-90 0 -136 -55 -152 -120c-6 -26 -8 -45 -9 -80h245z" />
    <glyph glyph-name="afii10054" unicode="&#x405;" horiz-adv-x="600" 
d="M36 149l102 47c41 -77 101 -106 171 -106c80 0 131 39 131 99s-37 90 -107 104l-106 22c-97 20 -175 81 -175 201s107 195 237 195c120 0 207 -40 255 -135l-103 -45c-38 63 -88 79 -152 79s-117 -31 -117 -91c0 -50 32 -84 91 -97l118 -25c111 -24 183 -89 183 -199
c0 -130 -115 -209 -255 -209s-221 55 -273 160z" />
    <glyph glyph-name="afii10055" unicode="&#x406;" horiz-adv-x="288" 
d="M84 0v700h120v-700h-120z" />
    <glyph glyph-name="afii10056" unicode="&#x407;" horiz-adv-x="292" 
d="M86 0v700h120v-700h-120zM10 760v124h106v-124h-106zM176 760v124h106v-124h-106z" />
    <glyph glyph-name="afii10057" unicode="&#x408;" horiz-adv-x="460" 
d="M101 142c17 -34 41 -54 82 -54c47 0 81 32 81 108v504h120v-503c0 -139 -79 -209 -197 -209c-88 0 -149 37 -187 104z" />
    <glyph glyph-name="afii10058" unicode="&#x409;" horiz-adv-x="1022" 
d="M149 700h455v-267h128c144 0 256 -69 256 -215s-112 -218 -256 -218h-248v600h-215v-239c0 -170 -30 -238 -61 -281c-35 -48 -92 -80 -164 -80h-34v101h8c37 0 72 19 96 58c23 38 35 106 35 236v305zM604 333v-233h113c86 0 149 35 149 117s-63 116 -149 116h-113z" />
    <glyph glyph-name="afii10059" unicode="&#x40a;" horiz-adv-x="1042" 
d="M84 0v700h120v-279h300v279h120v-279h128c144 0 256 -63 256 -209s-112 -212 -256 -212h-248v321h-300v-321h-120zM624 321v-221h113c86 0 149 29 149 111s-63 110 -149 110h-113z" />
    <glyph glyph-name="afii10060" unicode="&#x40b;" horiz-adv-x="740" 
d="M690 0h-120v181c0 90 -16 139 -126 139h-130v-320h-120v600h-184v100h510v-100h-206v-180h160c145 0 216 -70 216 -215v-205z" />
    <glyph glyph-name="afii10061" unicode="&#x40c;" horiz-adv-x="640" 
d="M84 0v700h120v-288h69l210 288h140l-249 -336l266 -364h-142l-227 312h-67v-312h-120zM343 750h-100l72 160h128z" />
    <glyph glyph-name="afii10062" unicode="&#x40e;" horiz-adv-x="588" 
d="M265 190l-259 510h134l181 -362l133 362h128l-200 -520c-40 -105 -77 -180 -210 -180h-46v100h21c76 0 98 41 118 90zM372 904h110c-12 -102 -92 -150 -188 -150s-180 48 -192 150h110c8 -42 40 -64 82 -64s70 22 78 64z" />
    <glyph glyph-name="afii10145" unicode="&#x40f;" horiz-adv-x="716" 
d="M632 700v-700h-216v-170h-116v170h-216v700h120v-600h308v600h120z" />
    <glyph glyph-name="afii10017" unicode="&#x410;" horiz-adv-x="628" 
d="M8 0l250 700h112l250 -700h-126l-57 171h-246l-57 -171h-126zM222 271h184l-92 273z" />
    <glyph glyph-name="afii10018" unicode="&#x411;" horiz-adv-x="652" 
d="M545 700v-100h-341v-175h148c143 0 256 -66 256 -212s-113 -213 -256 -213h-268v700h461zM204 325v-225h133c86 0 149 31 149 113s-63 112 -149 112h-133z" />
    <glyph glyph-name="afii10019" unicode="&#x412;" horiz-adv-x="660" 
d="M84 700h271c160 0 237 -65 237 -175c0 -90 -46 -132 -107 -157v-4c78 -23 121 -78 121 -168c0 -120 -84 -196 -244 -196h-278v700zM331 311h-127v-211h138c90 0 140 34 140 104c0 80 -51 107 -151 107zM331 600h-127v-189h136c90 0 132 38 132 98c0 67 -51 91 -141 91z
" />
    <glyph glyph-name="afii10020" unicode="&#x413;" horiz-adv-x="544" 
d="M84 0v700h450v-100h-330v-600h-120z" />
    <glyph glyph-name="afii10021" unicode="&#x414;" horiz-adv-x="736" 
d="M10 -170v270h53c26 22 51 59 67 101c21 56 31 126 31 213v286h471v-600h84v-270h-116v170h-474v-170h-116zM281 600v-210c0 -90 -9 -150 -23 -197c-11 -38 -28 -70 -44 -93h298v500h-231z" />
    <glyph glyph-name="afii10022" unicode="&#x415;" horiz-adv-x="594" 
d="M554 100v-100h-470v700h460v-100h-340v-190h280v-100h-280v-210h350z" />
    <glyph glyph-name="afii10024" unicode="&#x416;" horiz-adv-x="962" 
d="M541 700v-288h64l200 288h140l-238 -336l255 -364h-142l-217 312h-62v-312h-120v312h-62l-217 -312h-142l255 364l-238 336h140l200 -288h64v288h120z" />
    <glyph glyph-name="afii10025" unicode="&#x417;" horiz-adv-x="636" 
d="M222 312v100h91c66 0 126 23 126 102c0 66 -53 97 -130 97c-69 0 -126 -31 -159 -107l-103 46c38 86 116 161 269 161c160 0 243 -78 243 -188c0 -71 -32 -121 -97 -152v-4c70 -25 120 -80 120 -167c0 -130 -98 -213 -268 -213s-248 82 -284 170l104 44
c25 -57 74 -114 173 -114c87 0 151 37 151 119c0 81 -61 106 -145 106h-91z" />
    <glyph glyph-name="afii10026" unicode="&#x418;" horiz-adv-x="728" 
d="M524 0v502l-320 -502h-120v700h120v-502l320 502h120v-700h-120z" />
    <glyph glyph-name="afii10027" unicode="&#x419;" horiz-adv-x="728" 
d="M524 0v502l-320 -502h-120v700h120v-502l320 502h120v-700h-120zM442 904h110c-12 -102 -92 -150 -188 -150s-180 48 -192 150h110c8 -42 40 -64 82 -64s70 22 78 64z" />
    <glyph glyph-name="afii10028" unicode="&#x41a;" horiz-adv-x="640" 
d="M84 0v700h120v-288h69l210 288h140l-249 -336l266 -364h-142l-227 312h-67v-312h-120z" />
    <glyph glyph-name="afii10029" unicode="&#x41b;" horiz-adv-x="698" 
d="M149 700h465v-700h-120v600h-225v-239c0 -170 -30 -238 -61 -281c-35 -48 -92 -80 -164 -80h-34v101h8c37 0 72 19 96 58c23 38 35 106 35 236v305z" />
    <glyph glyph-name="afii10030" unicode="&#x41c;" horiz-adv-x="844" 
d="M84 0v700h156l182 -408l182 408h156v-700h-120v487h-4l-166 -367h-96l-166 367h-4v-487h-120z" />
    <glyph glyph-name="afii10031" unicode="&#x41d;" horiz-adv-x="718" 
d="M84 0v700h120v-290h310v290h120v-700h-120v310h-310v-310h-120z" />
    <glyph glyph-name="afii10032" unicode="&#x41e;" horiz-adv-x="674" 
d="M608 198c-23 -123 -121 -210 -271 -210s-248 87 -271 210c-10 52 -12 82 -12 152s2 99 12 152c23 122 121 210 271 210s248 -88 271 -210c10 -53 12 -82 12 -152s-2 -100 -12 -152zM337 88c84 0 134 53 148 123c9 45 11 73 11 139s-2 94 -11 139c-14 70 -64 123 -148 123
s-134 -54 -148 -123c-10 -45 -11 -73 -11 -139s1 -94 11 -139c15 -70 64 -123 148 -123z" />
    <glyph glyph-name="afii10033" unicode="&#x41f;" horiz-adv-x="718" 
d="M84 0v700h550v-700h-120v600h-310v-600h-120z" />
    <glyph glyph-name="afii10034" unicode="&#x420;" 
d="M84 700h244c170 0 258 -77 258 -213s-88 -214 -258 -214h-124v-273h-120v700zM204 373h120c100 0 138 44 138 114s-38 113 -138 113h-120v-227z" />
    <glyph glyph-name="afii10035" unicode="&#x421;" horiz-adv-x="638" 
d="M340 88c90 0 141 53 163 126l105 -41c-27 -108 -118 -185 -268 -185s-248 87 -274 210c-11 52 -12 82 -12 152s1 99 12 152c25 122 124 210 274 210c140 0 228 -66 262 -171l-106 -38c-25 69 -66 109 -156 109s-131 -54 -148 -117c-12 -45 -14 -74 -14 -145
s2 -100 14 -145c17 -62 58 -117 148 -117z" />
    <glyph glyph-name="afii10036" unicode="&#x422;" horiz-adv-x="530" 
d="M205 0v600h-195v100h510v-100h-195v-600h-120z" />
    <glyph glyph-name="afii10037" unicode="&#x423;" horiz-adv-x="588" 
d="M265 190l-259 510h134l181 -362l133 362h128l-200 -520c-40 -105 -77 -180 -210 -180h-46v100h21c76 0 98 41 118 90z" />
    <glyph glyph-name="afii10038" unicode="&#x424;" horiz-adv-x="858" 
d="M798 254c-25 -104 -113 -184 -309 -185v-89h-120v89c-196 1 -284 81 -309 185c-9 37 -10 66 -10 106s1 69 10 106c25 104 112 182 309 184v70h120v-70c197 -2 284 -80 309 -184c9 -37 10 -66 10 -106s-1 -69 -10 -106zM678 449c-16 52 -62 100 -189 101v-381
c127 0 173 50 189 102c9 30 10 53 10 89s-1 59 -10 89zM180 449c-9 -30 -10 -53 -10 -89s1 -59 10 -89c16 -52 62 -102 189 -102v381c-127 -1 -173 -49 -189 -101z" />
    <glyph glyph-name="afii10039" unicode="&#x425;" horiz-adv-x="600" 
d="M10 0l220 363l-200 337h138l132 -239l132 239h138l-197 -337l217 -363h-140l-150 265l-150 -265h-140z" />
    <glyph glyph-name="afii10040" unicode="&#x426;" horiz-adv-x="734" 
d="M630 700v-600h84v-270h-116v170h-514v700h120v-600h306v600h120z" />
    <glyph glyph-name="afii10041" unicode="&#x427;" horiz-adv-x="630" 
d="M50 700h120v-181c0 -90 16 -139 126 -139h130v320h120v-700h-120v280h-160c-145 0 -216 70 -216 215v205z" />
    <glyph glyph-name="afii10042" unicode="&#x428;" horiz-adv-x="978" 
d="M894 700v-700h-810v700h120v-600h225v600h120v-600h225v600h120z" />
    <glyph glyph-name="afii10043" unicode="&#x429;" horiz-adv-x="998" 
d="M894 700v-600h84v-270h-116v170h-778v700h120v-600h225v600h120v-600h225v600h120z" />
    <glyph glyph-name="afii10044" unicode="&#x42a;" horiz-adv-x="754" 
d="M10 700h316v-267h138c144 0 256 -70 256 -216s-112 -217 -256 -217h-258v600h-196v100zM326 333v-233h123c86 0 149 35 149 117s-63 116 -149 116h-123z" />
    <glyph glyph-name="afii10045" unicode="&#x42b;" horiz-adv-x="870" 
d="M84 700h120v-267h129c143 0 256 -70 256 -216s-113 -217 -256 -217h-249v700zM204 333v-233h114c86 0 149 35 149 117s-63 116 -149 116h-114zM666 0v700h120v-700h-120z" />
    <glyph glyph-name="afii10046" unicode="&#x42c;" horiz-adv-x="632" 
d="M84 700h120v-267h138c144 0 256 -70 256 -216s-112 -217 -256 -217h-258v700zM204 333v-233h123c86 0 149 35 149 117s-63 116 -149 116h-123z" />
    <glyph glyph-name="afii10047" unicode="&#x42d;" horiz-adv-x="642" 
d="M218 312v100h245c-1 35 -3 54 -9 80c-16 65 -62 120 -152 120c-80 0 -133 -44 -158 -110l-105 46c33 88 123 164 263 164c150 0 251 -89 274 -211c10 -53 12 -81 12 -151s-2 -99 -12 -151c-23 -123 -124 -211 -274 -211c-160 0 -246 82 -272 175l106 45
c29 -78 76 -120 166 -120s140 58 153 124c6 32 9 50 9 100h-246z" />
    <glyph glyph-name="afii10048" unicode="&#x42e;" horiz-adv-x="924" 
d="M858 199c-23 -123 -114 -210 -264 -210s-240 87 -263 210c-8 40 -11 65 -12 112h-115v-311h-120v700h120v-288h116c1 34 4 56 11 89c24 122 113 210 263 210s241 -88 264 -210c10 -53 12 -81 12 -151s-2 -99 -12 -151zM594 90c84 0 128 52 143 122c10 45 11 72 11 138
s-1 93 -11 138c-15 70 -59 122 -143 122s-128 -53 -142 -122c-10 -45 -11 -72 -11 -138s1 -93 11 -138c15 -70 58 -122 142 -122z" />
    <glyph glyph-name="afii10049" unicode="&#x42f;" horiz-adv-x="640" 
d="M312 700h244v-700h-120v277h-121l-143 -277h-138l160 299c-91 31 -145 102 -145 190c0 118 82 211 263 211zM436 600h-118c-93 0 -147 -39 -147 -111c0 -70 52 -112 137 -112h128v223z" />
    <glyph glyph-name="afii10065" unicode="&#x430;" horiz-adv-x="520" 
d="M450 0h-112v54c-30 -38 -77 -64 -137 -64c-100 0 -161 63 -161 153c0 120 85 167 225 167h73v26c0 54 -31 82 -81 82c-40 0 -79 -12 -108 -53l-94 51c43 67 118 94 208 94c110 0 187 -55 187 -179v-331zM338 162v56h-75c-70 0 -109 -18 -109 -68c0 -40 27 -68 77 -68
s81 31 107 80z" />
    <glyph glyph-name="afii10066" unicode="&#x431;" horiz-adv-x="528" 
d="M468 120c-28 -82 -104 -130 -204 -130c-104 0 -174 48 -202 134c-13 41 -18 92 -18 136c0 141 7 228 47 296c44 75 112 104 185 119l167 33l22 -95l-169 -32c-100 -19 -136 -61 -151 -138l3 -2c31 34 79 59 138 59c90 0 154 -48 182 -130c14 -41 16 -81 16 -125
s-2 -84 -16 -125zM264 82c50 0 79 27 92 63c12 33 12 68 12 100s0 68 -12 101c-13 35 -42 62 -92 62s-79 -28 -92 -63c-12 -33 -12 -68 -12 -100s0 -67 12 -100c13 -36 42 -63 92 -63z" />
    <glyph glyph-name="afii10067" unicode="&#x432;" horiz-adv-x="544" 
d="M74 0v500h230c71 0 170 -18 170 -128c0 -60 -37 -94 -86 -111v-4c55 -7 112 -42 112 -116c0 -120 -118 -141 -198 -141h-228zM186 414v-118h93c46 0 83 17 83 62c0 50 -41 56 -101 56h-75zM186 210v-124h101c60 0 97 14 97 64c0 60 -65 60 -115 60h-83z" />
    <glyph glyph-name="afii10068" unicode="&#x433;" horiz-adv-x="424" 
d="M74 500h340v-92h-228v-408h-112v500z" />
    <glyph glyph-name="afii10069" unicode="&#x434;" horiz-adv-x="606" 
d="M10 -150v242h48c18 17 36 44 50 90c11 35 16 95 16 163v155h388v-408h74v-242h-106v150h-364v-150h-106zM236 408v-97c0 -59 -4 -109 -12 -141c-6 -28 -19 -59 -32 -78h208v316h-164z" />
    <glyph glyph-name="afii10070" unicode="&#x435;" horiz-adv-x="526" 
d="M265 82c50 0 89 20 110 65l95 -47c-35 -76 -105 -110 -205 -110s-178 46 -205 128c-14 41 -16 78 -16 132s2 91 16 132c27 82 105 128 205 128s174 -46 201 -128c13 -41 16 -76 16 -130v-40h-322c0 -34 1 -56 12 -78c15 -33 43 -52 93 -52zM171 365
c-10 -22 -11 -40 -11 -67h206c-1 28 -2 45 -12 67c-13 30 -39 53 -89 53s-80 -23 -94 -53z" />
    <glyph glyph-name="afii10072" unicode="&#x436;" horiz-adv-x="774" 
d="M443 500v-192h49l137 192h130l-173 -236l188 -264h-132l-150 216h-49v-216h-112v216h-49l-150 -216h-132l188 264l-173 236h130l137 -192h49v192h112z" />
    <glyph glyph-name="afii10073" unicode="&#x437;" horiz-adv-x="500" 
d="M136 355l-96 46c33 58 92 109 212 109c105 0 190 -41 190 -141c0 -60 -42 -94 -97 -105v-4c60 -11 111 -50 111 -120c0 -106 -100 -150 -205 -150c-100 0 -177 34 -225 116l97 44c29 -42 58 -68 122 -68c50 0 95 18 95 68s-49 60 -95 60h-56v92h56c46 0 85 17 85 57
c0 46 -38 59 -85 59c-49 0 -81 -18 -109 -63z" />
    <glyph glyph-name="afii10074" unicode="&#x438;" horiz-adv-x="584" 
d="M74 500h112v-331l212 331h112v-500h-112v331l-212 -331h-112v500z" />
    <glyph glyph-name="afii10075" unicode="&#x439;" horiz-adv-x="584" 
d="M74 500h112v-331l212 331h112v-500h-112v331l-212 -331h-112v500zM360 700h102c-12 -85 -78 -136 -170 -136s-158 51 -170 136h102c7 -34 30 -60 68 -60s61 26 68 60z" />
    <glyph glyph-name="afii10076" unicode="&#x43a;" horiz-adv-x="532" 
d="M74 0v500h112v-192h52l147 192h132l-183 -236l198 -264h-134l-160 216h-52v-216h-112z" />
    <glyph glyph-name="afii10077" unicode="&#x43b;" horiz-adv-x="570" 
d="M116 500h380v-500h-112v408h-156v-110c0 -105 -13 -169 -37 -211c-30 -55 -89 -87 -154 -87h-27v92h6c26 0 60 16 77 55c14 33 23 80 23 182v171z" />
    <glyph glyph-name="afii10078" unicode="&#x43c;" horiz-adv-x="690" 
d="M74 0v500h140l131 -270l131 270h140v-500h-112v336h-4l-121 -250h-68l-121 250h-4v-336h-112z" />
    <glyph glyph-name="afii10079" unicode="&#x43d;" horiz-adv-x="568" 
d="M74 500h112v-192h196v192h112v-500h-112v216h-196v-216h-112v500z" />
    <glyph glyph-name="afii10080" unicode="&#x43e;" horiz-adv-x="528" 
d="M468 118c-28 -82 -104 -128 -204 -128s-176 46 -204 128c-14 41 -16 78 -16 132s2 91 16 132c28 82 104 128 204 128s176 -46 204 -128c14 -41 16 -78 16 -132s-2 -91 -16 -132zM264 82c50 0 79 25 92 61c12 33 12 65 12 107s0 74 -12 107c-13 35 -42 61 -92 61
s-79 -26 -92 -61c-12 -33 -12 -65 -12 -107s0 -74 12 -107c13 -36 42 -61 92 -61z" />
    <glyph glyph-name="afii10081" unicode="&#x43f;" horiz-adv-x="568" 
d="M74 500h420v-500h-112v408h-196v-408h-112v500z" />
    <glyph glyph-name="afii10082" unicode="&#x440;" horiz-adv-x="552" 
d="M74 -200v700h112v-50h4c33 41 86 60 136 60c72 0 137 -36 166 -118c14 -40 16 -88 16 -142s-2 -101 -16 -141c-29 -82 -94 -119 -166 -119c-50 0 -103 19 -136 60h-4v-250h-112zM186 300v-100c0 -70 44 -118 104 -118c40 0 75 20 90 63c10 29 12 55 12 105s-2 75 -12 105
c-14 42 -50 63 -90 63c-60 0 -104 -48 -104 -118z" />
    <glyph glyph-name="afii10083" unicode="&#x441;" horiz-adv-x="484" 
d="M266 82c40 0 79 24 96 67l96 -47c-33 -74 -102 -112 -192 -112c-100 0 -179 47 -206 129c-14 41 -16 77 -16 131s2 90 16 131c27 82 106 129 206 129c90 0 156 -32 188 -106l-97 -45c-17 44 -51 59 -91 59c-50 0 -80 -27 -94 -67c-9 -26 -12 -59 -12 -101s2 -75 12 -101
c15 -42 44 -67 94 -67z" />
    <glyph glyph-name="afii10084" unicode="&#x442;" horiz-adv-x="414" 
d="M10 500h394v-92h-141v-408h-112v408h-141v92z" />
    <glyph glyph-name="afii10085" unicode="&#x443;" horiz-adv-x="482" 
d="M194 -1l-188 501h122l119 -349l111 349h120l-189 -541c-39 -110 -91 -159 -191 -159h-50v92h34c63 0 91 37 112 107z" />
    <glyph glyph-name="afii10086" unicode="&#x444;" horiz-adv-x="736" 
d="M678 132c-25 -78 -95 -140 -254 -142v-190h-112v190c-159 2 -229 64 -254 142c-13 41 -14 74 -14 118s1 77 14 118c25 78 95 140 254 142v190h112v-190c159 -2 229 -64 254 -142c13 -41 14 -74 14 -118s-1 -77 -14 -118zM566 337c-11 38 -42 81 -142 81v-336
c100 0 131 42 142 81c9 33 10 55 10 87s0 54 -10 87zM170 163c11 -39 42 -81 142 -81v336c-100 0 -131 -43 -142 -81c-10 -33 -10 -55 -10 -87s1 -54 10 -87z" />
    <glyph glyph-name="afii10087" unicode="&#x445;" horiz-adv-x="488" 
d="M6 0l169 265l-151 235h130l90 -152l90 152h130l-151 -235l169 -265h-132l-106 173l-106 -173h-132z" />
    <glyph glyph-name="afii10088" unicode="&#x446;" horiz-adv-x="583" 
d="M489 92h74v-242h-106v150h-383v500h112v-408h191v408h112v-408z" />
    <glyph glyph-name="afii10089" unicode="&#x447;" horiz-adv-x="510" 
d="M40 500h112v-126c0 -70 15 -96 78 -96h94v222h112v-500h-112v186h-114c-120 0 -170 45 -170 175v139z" />
    <glyph glyph-name="afii10090" unicode="&#x448;" horiz-adv-x="776" 
d="M702 0h-628v500h112v-408h146v408h112v-408h146v408h112v-500z" />
    <glyph glyph-name="afii10091" unicode="&#x449;" horiz-adv-x="796" 
d="M702 92h74v-242h-106v150h-596v500h112v-408h146v408h112v-408h146v408h112v-408z" />
    <glyph glyph-name="afii10092" unicode="&#x44a;" horiz-adv-x="602" 
d="M10 500h252v-190h111c90 0 195 -34 195 -154s-105 -156 -195 -156h-223v408h-140v92zM262 224v-138h97c55 0 93 20 93 70s-38 68 -93 68h-97z" />
    <glyph glyph-name="afii10093" unicode="&#x44b;" horiz-adv-x="746" 
d="M186 310h108c90 0 195 -34 195 -154s-105 -156 -195 -156h-220v500h112v-190zM186 224v-138h94c55 0 93 20 93 70c0 59 -49 68 -111 68h-76zM560 0v500h112v-500h-112z" />
    <glyph glyph-name="afii10094" unicode="&#x44c;" horiz-adv-x="526" 
d="M186 310h111c90 0 195 -34 195 -154s-105 -156 -195 -156h-223v500h112v-190zM186 224v-138h97c55 0 93 20 93 70c0 59 -49 68 -111 68h-79z" />
    <glyph glyph-name="afii10095" unicode="&#x44d;" horiz-adv-x="490" 
d="M224 82c50 0 80 21 95 61c7 18 10 42 11 69h-153v92h152c-1 20 -5 38 -10 53c-14 38 -45 61 -95 61c-40 0 -76 -15 -97 -55l-97 45c34 70 104 102 194 102c100 0 179 -47 206 -129c14 -41 16 -77 16 -131s-2 -90 -16 -131c-27 -82 -106 -129 -206 -129
c-90 0 -163 34 -198 108l96 47c21 -43 62 -63 102 -63z" />
    <glyph glyph-name="afii10096" unicode="&#x44e;" horiz-adv-x="748" 
d="M688 118c-28 -82 -100 -128 -200 -128s-172 46 -200 128c-11 32 -15 61 -16 98h-86v-216h-112v500h112v-192h87c2 26 6 49 15 74c28 82 100 128 200 128s172 -46 200 -128c14 -41 16 -78 16 -132s-2 -91 -16 -132zM488 82c50 0 75 25 88 61c12 33 12 65 12 107
s0 74 -12 107c-13 35 -38 61 -88 61s-75 -26 -88 -61c-12 -33 -12 -65 -12 -107s0 -74 12 -107c13 -36 38 -61 88 -61z" />
    <glyph glyph-name="afii10097" unicode="&#x44f;" horiz-adv-x="540" 
d="M354 190h-93l-101 -190h-130l118 202c-53 19 -102 57 -102 142c0 120 111 156 191 156h229v-500h-112v190zM354 276v138h-97c-58 0 -95 -21 -95 -70c0 -58 47 -68 113 -68h79z" />
    <glyph glyph-name="afii10071" unicode="&#x451;" horiz-adv-x="526" 
d="M265 82c50 0 89 20 110 65l95 -47c-35 -76 -105 -110 -205 -110s-178 46 -205 128c-14 41 -16 78 -16 132s2 91 16 132c27 82 105 128 205 128s174 -46 201 -128c13 -41 16 -76 16 -130v-40h-322c0 -34 1 -56 12 -78c15 -33 43 -52 93 -52zM171 365
c-10 -22 -11 -40 -11 -67h206c-1 28 -2 45 -12 67c-13 30 -39 53 -89 53s-80 -23 -94 -53zM103 576v124h110v-124h-110zM313 576v124h110v-124h-110z" />
    <glyph glyph-name="afii10099" unicode="&#x452;" horiz-adv-x="574" 
d="M10 517v86h84v97h112v-97h196v-86h-196v-123h5c29 34 74 60 129 60c97 0 162 -70 175 -202c5 -47 5 -84 5 -128c0 -45 0 -81 -5 -129c-13 -131 -92 -199 -190 -199h-33v93h13c65 0 88 51 94 111c4 42 5 73 5 124s-1 81 -5 123c-6 61 -28 115 -99 115
c-65 0 -94 -60 -94 -117v-245h-112v517h-84z" />
    <glyph glyph-name="afii10100" unicode="&#x453;" horiz-adv-x="424" 
d="M74 500h340v-92h-228v-408h-112v500zM222 560h-90l72 150h118z" />
    <glyph glyph-name="afii10101" unicode="&#x454;" horiz-adv-x="490" 
d="M266 82c40 0 81 20 102 63l96 -47c-35 -74 -108 -108 -198 -108c-100 0 -179 47 -206 129c-14 41 -16 77 -16 131s2 90 16 131c27 82 106 129 206 129c90 0 160 -32 194 -102l-97 -45c-21 40 -57 55 -97 55c-50 0 -81 -23 -95 -61c-5 -15 -9 -33 -10 -53h152v-92h-153
c1 -27 4 -51 11 -69c15 -40 45 -61 95 -61z" />
    <glyph glyph-name="afii10102" unicode="&#x455;" horiz-adv-x="490" 
d="M36 94l95 48c27 -46 69 -60 119 -60s90 20 90 60s-23 59 -74 64l-56 5c-114 10 -158 67 -158 147c0 100 98 152 198 152c110 0 163 -50 188 -97l-94 -50c-18 30 -40 55 -100 55c-50 0 -82 -19 -82 -55c0 -30 19 -59 68 -63l56 -4c106 -8 168 -59 168 -149
c0 -100 -100 -157 -210 -157c-120 0 -175 45 -208 104z" />
    <glyph glyph-name="afii10103" unicode="&#x456;" horiz-adv-x="260" 
d="M70 574v126h120v-126h-120zM74 0v500h112v-500h-112z" />
    <glyph glyph-name="afii10104" unicode="&#x457;" horiz-adv-x="260" 
d="M74 0v500h112v-500h-112zM10 574v126h96v-126h-96zM154 574v126h96v-126h-96z" />
    <glyph glyph-name="afii10105" unicode="&#x458;" horiz-adv-x="262" 
d="M188 500v-542c0 -123 -73 -166 -163 -166h-61v94h40c50 0 72 25 72 79v535h112zM72 576v124h120v-124h-120z" />
    <glyph glyph-name="afii10106" unicode="&#x459;" horiz-adv-x="822" 
d="M116 500h372v-190h105c90 0 195 -34 195 -154s-105 -156 -195 -156h-217v408h-148v-110c0 -105 -13 -169 -37 -211c-30 -55 -89 -87 -154 -87h-27v92h6c26 0 60 16 77 55c14 33 23 80 23 182v171zM488 224v-138h91c55 0 93 20 93 70c0 59 -49 68 -111 68h-73z" />
    <glyph glyph-name="afii10107" unicode="&#x45a;" horiz-adv-x="821" 
d="M489 310h103c90 0 195 -34 195 -154s-105 -156 -195 -156h-216v220h-190v-220h-112v500h112v-190h190v190h113v-190zM489 220v-134h89c55 0 93 18 93 68c0 59 -49 66 -111 66h-71z" />
    <glyph glyph-name="afii10108" unicode="&#x45b;" horiz-adv-x="584" 
d="M10 517v86h84v97h112v-97h196v-86h-196v-123h4c30 34 78 60 134 60c100 0 170 -60 170 -200v-254h-112v244c0 80 -34 118 -94 118c-70 0 -102 -57 -102 -117v-245h-112v517h-84z" />
    <glyph glyph-name="afii10109" unicode="&#x45c;" horiz-adv-x="532" 
d="M74 0v500h112v-192h52l147 192h132l-183 -236l198 -264h-134l-160 216h-52v-216h-112zM279 560h-90l72 150h118z" />
    <glyph glyph-name="afii10110" unicode="&#x45e;" horiz-adv-x="482" 
d="M194 -1l-188 501h122l119 -349l111 349h120l-189 -541c-39 -110 -91 -159 -191 -159h-50v92h34c63 0 91 37 112 107zM309 700h102c-12 -85 -78 -136 -170 -136s-158 51 -170 136h102c7 -34 30 -60 68 -60s61 26 68 60z" />
    <glyph glyph-name="afii10193" unicode="&#x45f;" horiz-adv-x="566" 
d="M492 0h-156v-145h-106v145h-156v500h112v-408h194v408h112v-500z" />
    <glyph glyph-name="afii10146" unicode="&#x462;" horiz-adv-x="738" 
d="M190 725h120v-72h210v-100h-210v-120h138c144 0 256 -70 256 -216s-112 -217 -256 -217h-258v553h-180v100h180v72zM310 333v-233h123c86 0 149 35 149 117s-63 116 -149 116h-123z" />
    <glyph glyph-name="afii10194" unicode="&#x463;" horiz-adv-x="588" 
d="M248 310h111c90 0 195 -34 195 -154s-105 -156 -195 -156h-223v414h-126v86h126v200h112v-200h156v-86h-156v-104zM248 224v-138h97c55 0 93 20 93 70c0 59 -49 68 -111 68h-79z" />
    <glyph glyph-name="afii10147" unicode="&#x472;" horiz-adv-x="674" 
d="M608 198c-23 -123 -121 -210 -271 -210s-248 87 -271 210c-10 52 -12 82 -12 152s2 99 12 152c23 122 121 210 271 210s248 -88 271 -210c10 -53 12 -82 12 -152s-2 -100 -12 -152zM337 88c84 0 134 53 148 123c7 36 11 62 11 105c-22 -15 -55 -26 -80 -26
c-57 0 -115 36 -156 36c-30 0 -59 -13 -82 -32c0 -31 4 -53 11 -83c15 -70 64 -123 148 -123zM259 423c59 0 115 -36 156 -36c29 0 58 13 79 32c-1 24 -4 44 -9 70c-14 70 -64 123 -148 123s-133 -54 -148 -123c-7 -33 -11 -58 -11 -94c22 15 54 28 81 28z" />
    <glyph glyph-name="afii10195" unicode="&#x473;" horiz-adv-x="528" 
d="M468 118c-28 -82 -104 -128 -204 -128s-176 46 -204 128c-14 41 -16 78 -16 132s2 91 16 132c28 82 104 128 204 128s176 -46 204 -128c14 -41 16 -78 16 -132s-2 -91 -16 -132zM264 82c50 0 79 25 92 61c9 24 12 49 12 77c-16 -9 -33 -14 -50 -14s-31 4 -55 12
c-27 10 -38 12 -53 12c-18 0 -35 -8 -50 -20c0 -24 4 -46 12 -67c13 -36 42 -61 92 -61zM211 306c17 0 32 -4 55 -12c28 -9 38 -12 53 -12c17 0 34 7 48 17c-1 20 -4 39 -11 58c-13 35 -42 61 -92 61s-79 -26 -92 -61c-8 -22 -12 -43 -12 -67c15 9 34 16 51 16z" />
    <glyph glyph-name="afii10148" unicode="&#x474;" horiz-adv-x="640" 
d="M242 0l-236 700h128l164 -500l49 150c48 146 66 213 93 262c31 56 88 88 154 88h46v-101h-6c-50 0 -79 -23 -100 -72c-19 -42 -35 -90 -64 -177l-115 -350h-113z" />
    <glyph glyph-name="afii10196" unicode="&#x475;" horiz-adv-x="516" 
d="M193 0l-187 500h122l118 -354l33 104c59 187 95 250 203 250h34v-94h-7c-64 0 -80 -49 -136 -204l-73 -202h-107z" />
    <glyph glyph-name="afii10050" unicode="&#x490;" horiz-adv-x="544" 
d="M84 0v700h334v170h116v-270h-330v-600h-120z" />
    <glyph glyph-name="afii10098" unicode="&#x491;" horiz-adv-x="424" 
d="M74 500h234v150h106v-242h-228v-408h-112v500z" />
    <glyph glyph-name="uni0492" unicode="&#x492;" horiz-adv-x="550" 
d="M10 305v100h80v295h450v-100h-330v-195h255v-100h-255v-305h-120v305h-80z" />
    <glyph glyph-name="uni0493" unicode="&#x493;" horiz-adv-x="430" 
d="M80 500h340v-92h-228v-121h172v-92h-172v-195h-112v195h-70v92h70v213z" />
    <glyph glyph-name="uni0494" unicode="&#x494;" horiz-adv-x="652" 
d="M204 324v-324h-120v700h461v-100h-341v-176h148c143 0 256 -64 256 -210s-113 -214 -256 -214h-58v100h43c86 0 147 32 147 114s-61 110 -147 110h-133z" />
    <glyph glyph-name="uni0495" unicode="&#x495;" horiz-adv-x="526" 
d="M74 500h340v-92h-228v-143h4c29 34 67 59 122 59c92 0 145 -55 158 -172c5 -40 6 -64 6 -93c0 -30 -1 -53 -6 -94c-13 -121 -91 -165 -189 -165h-24v92h14c55 0 76 28 83 78c5 35 6 53 6 89s-1 53 -6 88c-8 51 -26 85 -79 85c-55 0 -86 -51 -89 -101v-131h-112v500z" />
    <glyph glyph-name="uni0496" unicode="&#x496;" horiz-adv-x="996" 
d="M547 700v-288h64l200 288h140l-238 -336l185 -264h88v-270h-116v170h-44l-217 312h-62v-312h-120v312h-62l-217 -312h-142l255 364l-238 336h140l200 -288h64v288h120z" />
    <glyph glyph-name="uni0497" unicode="&#x497;" horiz-adv-x="800" 
d="M449 500v-192h49l137 192h130l-173 -236l122 -171h76v-243h-106v150h-36l-150 216h-49v-216h-112v216h-49l-150 -216h-132l188 264l-173 236h130l137 -192h49v192h112z" />
    <glyph glyph-name="uni0498" unicode="&#x498;" horiz-adv-x="636" 
d="M222 312v100h91c66 0 126 23 126 102c0 66 -53 97 -130 97c-69 0 -126 -31 -159 -107l-103 46c38 86 116 161 269 161c160 0 243 -78 243 -188c0 -71 -32 -121 -97 -152v-4c70 -25 120 -80 120 -167c0 -114 -75 -192 -208 -209v-161h-116v160c-133 16 -196 89 -228 167
l104 44c25 -57 74 -114 173 -114c87 0 151 37 151 119c0 81 -61 106 -145 106h-91z" />
    <glyph glyph-name="uni0499" unicode="&#x499;" horiz-adv-x="500" 
d="M136 355l-96 46c33 58 92 109 212 109c105 0 190 -41 190 -141c0 -60 -42 -94 -97 -105v-4c60 -11 111 -50 111 -120c0 -88 -68 -133 -151 -146v-144h-106v143c-75 10 -134 46 -173 113l97 44c29 -42 58 -68 122 -68c50 0 95 18 95 68s-49 60 -95 60h-56v92h56
c46 0 85 17 85 57c0 46 -38 59 -85 59c-49 0 -81 -18 -109 -63z" />
    <glyph glyph-name="uni049A" unicode="&#x49a;" horiz-adv-x="666" 
d="M84 0v700h120v-288h69l210 288h140l-249 -336l192 -264h90v-270h-116v170h-42l-227 312h-67v-312h-120z" />
    <glyph glyph-name="uni049B" unicode="&#x49b;" horiz-adv-x="556" 
d="M74 0v500h112v-192h52l147 192h132l-183 -236l129 -172h83v-242h-106v150h-42l-160 216h-52v-216h-112z" />
    <glyph glyph-name="uni049C" unicode="&#x49c;" horiz-adv-x="756" 
d="M84 0v700h120v-288h72v177h86v-177h41l190 288h140l-229 -336l246 -364h-142l-207 312h-39v-188h-86v188h-72v-312h-120z" />
    <glyph glyph-name="uni049D" unicode="&#x49d;" horiz-adv-x="638" 
d="M74 0v500h112v-192h59v109h76v-109h37l127 192h132l-163 -236l178 -264h-134l-140 216h-37v-109h-76v109h-59v-216h-112z" />
    <glyph glyph-name="uni04A0" unicode="&#x4a0;" horiz-adv-x="766" 
d="M204 0v599h-194v101h314v-288h69l210 288h140l-249 -336l266 -364h-142l-227 312h-67v-312h-120z" />
    <glyph glyph-name="uni04A1" unicode="&#x4a1;" horiz-adv-x="614" 
d="M150 0v407h-140v93h252v-192h52l147 192h132l-183 -236l198 -264h-134l-160 216h-52v-216h-112z" />
    <glyph glyph-name="uni04A2" unicode="&#x4a2;" horiz-adv-x="738" 
d="M84 0v700h120v-290h310v290h120v-600h84v-270h-116v170h-88v310h-310v-310h-120z" />
    <glyph glyph-name="uni04A3" unicode="&#x4a3;" horiz-adv-x="588" 
d="M74 500h112v-192h196v192h112v-408h74v-242h-106v150h-80v216h-196v-216h-112v500z" />
    <glyph glyph-name="uni04A4" unicode="&#x4a4;" horiz-adv-x="864" 
d="M84 0v700h120v-290h310v290h340v-101h-220v-599h-120v310h-310v-310h-120z" />
    <glyph glyph-name="uni04A5" unicode="&#x4a5;" horiz-adv-x="688" 
d="M74 500h112v-192h196v192h296v-93h-184v-407h-112v216h-196v-216h-112v500z" />
    <glyph glyph-name="uni04AA" unicode="&#x4aa;" horiz-adv-x="638" 
d="M340 88c90 0 141 53 163 126l105 -41c-23 -93 -93 -163 -207 -180v-163h-116v162c-120 18 -197 98 -219 206c-11 52 -12 82 -12 152s1 99 12 152c25 122 124 210 274 210c140 0 228 -66 262 -171l-106 -38c-25 69 -66 109 -156 109s-131 -54 -148 -117
c-12 -45 -14 -74 -14 -145s2 -100 14 -145c17 -62 58 -117 148 -117z" />
    <glyph glyph-name="uni04AB" unicode="&#x4ab;" horiz-adv-x="484" 
d="M266 82c40 0 79 24 96 67l96 -47c-26 -58 -74 -95 -137 -107v-145h-106v144c-76 13 -133 57 -155 125c-14 41 -16 77 -16 131s2 90 16 131c27 82 106 129 206 129c90 0 156 -32 188 -106l-97 -45c-17 44 -51 59 -91 59c-50 0 -80 -27 -94 -67c-9 -26 -12 -59 -12 -101
s2 -75 12 -101c15 -42 44 -67 94 -67z" />
    <glyph glyph-name="uni04AE" unicode="&#x4ae;" horiz-adv-x="574" 
d="M347 0h-120v281l-221 419h136l145 -286l145 286h136l-221 -419v-281z" />
    <glyph glyph-name="uni04AF" unicode="&#x4af;" horiz-adv-x="492" 
d="M189 -200v200l-183 500h122l118 -352l118 352h122l-185 -501v-199h-112z" />
    <glyph glyph-name="uni04B0" unicode="&#x4b0;" horiz-adv-x="574" 
d="M347 0h-120v206h-130v100h117l-208 394h136l145 -286l145 286h136l-208 -394h117v-100h-130v-206z" />
    <glyph glyph-name="uni04B1" unicode="&#x4b1;" horiz-adv-x="492" 
d="M47 -46v92h131l-172 454h122l118 -352l118 352h122l-174 -454h131v-92h-142v-154h-112v154h-142z" />
    <glyph glyph-name="uni04B2" unicode="&#x4b2;" horiz-adv-x="624" 
d="M10 0l220 363l-200 337h138l132 -239l132 239h138l-197 -337l157 -263h84v-270h-116v170h-48l-150 265l-150 -265h-140z" />
    <glyph glyph-name="uni04B3" unicode="&#x4b3;" horiz-adv-x="510" 
d="M10 0l169 265l-151 235h130l90 -152l90 152h130l-151 -235l109 -172h74v-243h-106v150h-40l-106 173l-106 -173h-132z" />
    <glyph glyph-name="uni04B6" unicode="&#x4b6;" horiz-adv-x="656" 
d="M50 700h120v-181c0 -90 16 -139 126 -139h130v320h120v-599h90v-271h-116v170h-94v280h-160c-145 0 -216 70 -216 215v205z" />
    <glyph glyph-name="uni04B7" unicode="&#x4b7;" horiz-adv-x="532" 
d="M40 500h112v-126c0 -70 15 -96 78 -96h94v222h112v-407h76v-243h-106v150h-82v186h-114c-120 0 -170 45 -170 175v139z" />
    <glyph glyph-name="uni04B8" unicode="&#x4b8;" horiz-adv-x="684" 
d="M50 700h120v-181c0 -86 14 -135 112 -139v185h86v-185h112v320h120v-700h-120v280h-112v-180h-86v180h-16c-145 0 -216 70 -216 215v205z" />
    <glyph glyph-name="uni04B9" unicode="&#x4b9;" horiz-adv-x="570" 
d="M40 500h112v-126c0 -70 15 -96 78 -96v113h76v-113h78v222h112v-500h-112v186h-78v-105h-76v105h-20c-120 0 -170 45 -170 175v139z" />
    <glyph glyph-name="uni04BA" unicode="&#x4ba;" horiz-adv-x="630" 
d="M580 0h-120v181c0 90 -16 139 -126 139h-130v-320h-120v700h120v-280h160c145 0 216 -70 216 -215v-205z" />
    <glyph glyph-name="uni04BB" unicode="&#x4bb;" horiz-adv-x="566" 
d="M74 0v700h112v-250h4c30 34 78 60 134 60c100 0 170 -60 170 -200v-310h-112v300c0 80 -34 118 -94 118c-70 0 -102 -57 -102 -117v-301h-112z" />
    <glyph glyph-name="uni04C0" unicode="&#x4c0;" horiz-adv-x="288" 
d="M84 0v700h120v-700h-120z" />
    <glyph glyph-name="uni04C1" unicode="&#x4c1;" horiz-adv-x="962" 
d="M541 700v-288h64l200 288h140l-238 -336l255 -364h-142l-217 312h-62v-312h-120v312h-62l-217 -312h-142l255 364l-238 336h140l200 -288h64v288h120zM565 904h110c-12 -102 -92 -150 -188 -150s-180 48 -192 150h110c8 -42 40 -64 82 -64s70 22 78 64z" />
    <glyph glyph-name="uni04C2" unicode="&#x4c2;" horiz-adv-x="774" 
d="M443 500v-192h49l137 192h130l-173 -236l188 -264h-132l-150 216h-49v-216h-112v216h-49l-150 -216h-132l188 264l-173 236h130l137 -192h49v192h112zM461 700h102c-12 -85 -78 -136 -170 -136s-158 51 -170 136h102c7 -34 30 -60 68 -60s61 26 68 60z" />
    <glyph glyph-name="uni04C3" unicode="&#x4c3;" horiz-adv-x="672" 
d="M84 0v700h120v-288h69l210 288h140l-222 -299c129 -21 231 -93 231 -251c0 -171 -121 -270 -279 -270h-53v100h43c91 0 165 63 165 170c0 126 -96 162 -227 162h-77v-312h-120z" />
    <glyph glyph-name="uni04C4" unicode="&#x4c4;" horiz-adv-x="566" 
d="M74 0v500h112v-192h52l147 192h132l-157 -203c83 -18 144 -70 160 -163c5 -33 6 -59 6 -83c0 -25 -1 -50 -6 -83c-19 -120 -117 -168 -215 -168h-39v92h14c70 0 111 26 124 81c6 28 6 52 6 78s0 50 -6 78c-12 55 -54 87 -156 87h-62v-216h-112z" />
    <glyph glyph-name="uni04C7" unicode="&#x4c7;" horiz-adv-x="718" 
d="M84 0v700h120v-290h310v290h120v-653c0 -139 -77 -207 -195 -207c-88 0 -146 37 -184 104l97 49c18 -34 42 -53 83 -53c47 0 79 31 79 107v263h-310v-310h-120z" />
    <glyph glyph-name="uni04C8" unicode="&#x4c8;" horiz-adv-x="568" 
d="M74 500h112v-192h196v192h112v-542c0 -123 -73 -168 -163 -168h-61v92h40c50 0 72 29 72 83v251h-196v-216h-112v500z" />
    <glyph glyph-name="uni04CB" unicode="&#x4cb;" horiz-adv-x="631" 
d="M50 700h120v-181c0 -90 16 -139 126 -139h130v320h120v-700h-88v-170h-116v269h84v181h-160c-145 0 -216 70 -216 215v205z" />
    <glyph glyph-name="uni04CC" unicode="&#x4cc;" horiz-adv-x="510" 
d="M40 500h112v-120c0 -70 15 -96 78 -96h94v216h112v-500h-80v-150h-106v242h74v100h-114c-120 0 -170 45 -170 175v133z" />
    <glyph glyph-name="uni04D0" unicode="&#x4d0;" horiz-adv-x="628" 
d="M8 0l250 700h112l250 -700h-126l-57 171h-246l-57 -171h-126zM222 271h184l-92 273zM392 904h110c-12 -102 -92 -150 -188 -150s-180 48 -192 150h110c8 -42 40 -64 82 -64s70 22 78 64z" />
    <glyph glyph-name="uni04D1" unicode="&#x4d1;" horiz-adv-x="520" 
d="M450 0h-112v54c-30 -38 -77 -64 -137 -64c-100 0 -161 63 -161 153c0 120 85 167 225 167h73v26c0 54 -31 82 -81 82c-40 0 -79 -12 -108 -53l-94 51c43 67 118 94 208 94c110 0 187 -55 187 -179v-331zM338 162v56h-75c-70 0 -109 -18 -109 -68c0 -40 27 -68 77 -68
s81 31 107 80zM328 700h102c-12 -85 -78 -136 -170 -136s-158 51 -170 136h102c7 -34 30 -60 68 -60s61 26 68 60z" />
    <glyph glyph-name="uni04D2" unicode="&#x4d2;" horiz-adv-x="628" 
d="M8 0l250 700h112l250 -700h-126l-57 171h-246l-57 -171h-126zM222 271h184l-92 273zM148 760v124h114v-124h-114zM366 760v124h114v-124h-114z" />
    <glyph glyph-name="uni04D3" unicode="&#x4d3;" horiz-adv-x="520" 
d="M450 0h-112v54c-30 -38 -77 -64 -137 -64c-100 0 -161 63 -161 153c0 120 85 167 225 167h73v26c0 54 -31 82 -81 82c-40 0 -79 -12 -108 -53l-94 51c43 67 118 94 208 94c110 0 187 -55 187 -179v-331zM338 162v56h-75c-70 0 -109 -18 -109 -68c0 -40 27 -68 77 -68
s81 31 107 80zM100 576v124h110v-124h-110zM310 576v124h110v-124h-110z" />
    <glyph glyph-name="uni04D4" unicode="&#x4d4;" horiz-adv-x="930" 
d="M890 100v-100h-470v186h-183l-96 -186h-135l368 700h506v-100h-340v-190h280v-100h-280v-210h350zM287 286h133v258z" />
    <glyph glyph-name="uni04D5" unicode="&#x4d5;" horiz-adv-x="816" 
d="M555 82c50 0 89 20 110 65l95 -47c-35 -76 -105 -110 -205 -110c-72 0 -132 23 -170 67c-34 -28 -81 -67 -180 -67c-100 0 -165 63 -165 153c0 116 89 157 225 157h73v36c0 54 -31 82 -81 82c-40 0 -79 -12 -108 -53l-94 51c43 67 118 94 208 94c58 0 108 -16 141 -49
c37 32 90 49 151 49c100 0 174 -46 201 -128c13 -41 16 -74 16 -128v-40h-322c0 -34 1 -58 12 -80c15 -33 43 -52 93 -52zM345 142c-5 22 -7 45 -7 72h-75c-70 0 -109 -22 -109 -68c0 -40 25 -64 71 -64c50 0 94 31 120 60zM461 365c-10 -22 -11 -38 -11 -65h206
c-1 28 -2 43 -12 65c-13 30 -39 53 -89 53s-80 -23 -94 -53z" />
    <glyph glyph-name="uni04D6" unicode="&#x4d6;" horiz-adv-x="594" 
d="M554 100v-100h-470v700h460v-100h-340v-190h280v-100h-280v-210h350zM375 904h110c-12 -102 -92 -150 -188 -150s-180 48 -192 150h110c8 -42 40 -64 82 -64s70 22 78 64z" />
    <glyph glyph-name="uni04D7" unicode="&#x4d7;" horiz-adv-x="526" 
d="M265 82c50 0 89 20 110 65l95 -47c-35 -76 -105 -110 -205 -110s-178 46 -205 128c-14 41 -16 78 -16 132s2 91 16 132c27 82 105 128 205 128s174 -46 201 -128c13 -41 16 -76 16 -130v-40h-322c0 -34 1 -56 12 -78c15 -33 43 -52 93 -52zM171 365
c-10 -22 -11 -40 -11 -67h206c-1 28 -2 45 -12 67c-13 30 -39 53 -89 53s-80 -23 -94 -53zM331 700h102c-12 -85 -78 -136 -170 -136s-158 51 -170 136h102c7 -34 30 -60 68 -60s61 26 68 60z" />
    <glyph glyph-name="uni04D8" unicode="&#x4d8;" horiz-adv-x="652" 
d="M44 342v64h439c-1 35 -3 60 -9 86c-16 65 -62 120 -152 120c-80 0 -133 -44 -158 -110l-105 46c33 88 123 164 263 164c150 0 251 -89 274 -211c10 -53 12 -81 12 -151s-2 -99 -12 -151c-23 -123 -124 -211 -274 -211s-244 88 -267 211c-10 52 -11 88 -11 143zM166 306
c0 -40 1 -66 9 -98c16 -68 63 -120 147 -120c90 0 142 56 155 124c6 32 7 54 7 94h-318z" />
    <glyph glyph-name="afii10846" unicode="&#x4d9;" horiz-adv-x="526" 
d="M261 418c-50 0 -89 -20 -110 -65l-95 47c35 76 105 110 205 110s178 -46 205 -128c14 -41 16 -78 16 -132s-2 -91 -16 -132c-27 -82 -105 -128 -205 -128s-174 46 -201 128c-13 41 -16 76 -16 130v40h322c0 34 -1 56 -12 78c-15 33 -43 52 -93 52zM355 135
c10 22 11 40 11 67h-206c1 -28 2 -45 12 -67c13 -30 39 -53 89 -53s80 23 94 53z" />
    <glyph glyph-name="uni04DA" unicode="&#x4da;" horiz-adv-x="652" 
d="M44 342v64h439c-1 35 -3 60 -9 86c-16 65 -62 120 -152 120c-80 0 -133 -44 -158 -110l-105 46c33 88 123 164 263 164c150 0 251 -89 274 -211c10 -53 12 -81 12 -151s-2 -99 -12 -151c-23 -123 -124 -211 -274 -211s-244 88 -267 211c-10 52 -11 88 -11 143zM166 306
c0 -40 1 -66 9 -98c16 -68 63 -120 147 -120c90 0 142 56 155 124c6 32 7 54 7 94h-318zM160 760v124h114v-124h-114zM378 760v124h114v-124h-114z" />
    <glyph glyph-name="uni04DB" unicode="&#x4db;" horiz-adv-x="526" 
d="M261 418c-50 0 -89 -20 -110 -65l-95 47c35 76 105 110 205 110s178 -46 205 -128c14 -41 16 -78 16 -132s-2 -91 -16 -132c-27 -82 -105 -128 -205 -128s-174 46 -201 128c-13 41 -16 76 -16 130v40h322c0 34 -1 56 -12 78c-15 33 -43 52 -93 52zM355 135
c10 22 11 40 11 67h-206c1 -28 2 -45 12 -67c13 -30 39 -53 89 -53s80 23 94 53zM103 576v124h110v-124h-110zM313 576v124h110v-124h-110z" />
    <glyph glyph-name="uni04DC" unicode="&#x4dc;" horiz-adv-x="962" 
d="M541 700v-288h64l200 288h140l-238 -336l255 -364h-142l-217 312h-62v-312h-120v312h-62l-217 -312h-142l255 364l-238 336h140l200 -288h64v288h120zM321 760v124h114v-124h-114zM539 760v124h114v-124h-114z" />
    <glyph glyph-name="uni04DD" unicode="&#x4dd;" horiz-adv-x="774" 
d="M443 500v-192h49l137 192h130l-173 -236l188 -264h-132l-150 216h-49v-216h-112v216h-49l-150 -216h-132l188 264l-173 236h130l137 -192h49v192h112zM233 576v124h110v-124h-110zM443 576v124h110v-124h-110z" />
    <glyph glyph-name="uni04DE" unicode="&#x4de;" horiz-adv-x="636" 
d="M222 312v100h91c66 0 126 23 126 102c0 66 -53 97 -130 97c-69 0 -126 -31 -159 -107l-103 46c38 86 116 161 269 161c160 0 243 -78 243 -188c0 -71 -32 -121 -97 -152v-4c70 -25 120 -80 120 -167c0 -130 -98 -213 -268 -213s-248 82 -284 170l104 44
c25 -57 74 -114 173 -114c87 0 151 37 151 119c0 81 -61 106 -145 106h-91zM152 760v124h114v-124h-114zM370 760v124h114v-124h-114z" />
    <glyph glyph-name="uni04DF" unicode="&#x4df;" horiz-adv-x="500" 
d="M136 355l-96 46c33 58 92 109 212 109c105 0 190 -41 190 -141c0 -60 -42 -94 -97 -105v-4c60 -11 111 -50 111 -120c0 -106 -100 -150 -205 -150c-100 0 -177 34 -225 116l97 44c29 -42 58 -68 122 -68c50 0 95 18 95 68s-49 60 -95 60h-56v92h56c46 0 85 17 85 57
c0 46 -38 59 -85 59c-49 0 -81 -18 -109 -63zM90 576v124h110v-124h-110zM300 576v124h110v-124h-110z" />
    <glyph glyph-name="uni04E2" unicode="&#x4e2;" horiz-adv-x="728" 
d="M524 0v502l-320 -502h-120v700h120v-502l320 502h120v-700h-120zM240 760v96h250v-96h-250z" />
    <glyph glyph-name="uni04E3" unicode="&#x4e3;" horiz-adv-x="584" 
d="M74 500h112v-331l212 331h112v-500h-112v331l-212 -331h-112v500zM171 586v88h240v-88h-240z" />
    <glyph glyph-name="uni04E4" unicode="&#x4e4;" horiz-adv-x="728" 
d="M524 0v502l-320 -502h-120v700h120v-502l320 502h120v-700h-120zM198 760v124h114v-124h-114zM416 760v124h114v-124h-114z" />
    <glyph glyph-name="uni04E5" unicode="&#x4e5;" horiz-adv-x="584" 
d="M74 500h112v-331l212 331h112v-500h-112v331l-212 -331h-112v500zM132 576v124h110v-124h-110zM342 576v124h110v-124h-110z" />
    <glyph glyph-name="uni04E6" unicode="&#x4e6;" horiz-adv-x="674" 
d="M608 198c-23 -123 -121 -210 -271 -210s-248 87 -271 210c-10 52 -12 82 -12 152s2 99 12 152c23 122 121 210 271 210s248 -88 271 -210c10 -53 12 -82 12 -152s-2 -100 -12 -152zM337 88c84 0 134 53 148 123c9 45 11 73 11 139s-2 94 -11 139c-14 70 -64 123 -148 123
s-134 -54 -148 -123c-10 -45 -11 -73 -11 -139s1 -94 11 -139c15 -70 64 -123 148 -123zM171 760v124h114v-124h-114zM389 760v124h114v-124h-114z" />
    <glyph glyph-name="uni04E7" unicode="&#x4e7;" horiz-adv-x="528" 
d="M468 118c-28 -82 -104 -128 -204 -128s-176 46 -204 128c-14 41 -16 78 -16 132s2 91 16 132c28 82 104 128 204 128s176 -46 204 -128c14 -41 16 -78 16 -132s-2 -91 -16 -132zM264 82c50 0 79 25 92 61c12 33 12 65 12 107s0 74 -12 107c-13 35 -42 61 -92 61
s-79 -26 -92 -61c-12 -33 -12 -65 -12 -107s0 -74 12 -107c13 -36 42 -61 92 -61zM104 576v124h110v-124h-110zM314 576v124h110v-124h-110z" />
    <glyph glyph-name="uni04E8" unicode="&#x4e8;" horiz-adv-x="674" 
d="M608 198c-23 -123 -121 -210 -271 -210s-248 87 -271 210c-10 52 -12 82 -12 152s2 99 12 152c23 122 121 210 271 210s248 -88 271 -210c10 -53 12 -82 12 -152s-2 -100 -12 -152zM337 88c84 0 136 51 150 123c7 35 8 60 9 100h-318c0 -41 2 -65 9 -100
c15 -72 66 -123 150 -123zM187 489c-6 -28 -8 -49 -9 -77h317c-2 28 -3 49 -8 77c-14 72 -66 123 -150 123s-136 -52 -150 -123z" />
    <glyph glyph-name="uni04E9" unicode="&#x4e9;" horiz-adv-x="528" 
d="M468 118c-28 -82 -104 -128 -204 -128s-176 46 -204 128c-14 41 -16 78 -16 132s2 91 16 132c28 82 104 128 204 128s176 -46 204 -128c14 -41 16 -78 16 -132s-2 -91 -16 -132zM264 82c50 0 80 23 93 61c8 24 10 47 11 75h-208c0 -28 3 -51 11 -75c13 -38 43 -61 93 -61
zM171 357c-7 -20 -10 -40 -11 -61h207c-1 21 -3 41 -10 61c-13 37 -43 61 -93 61s-80 -24 -93 -61z" />
    <glyph glyph-name="uni04EA" unicode="&#x4ea;" horiz-adv-x="674" 
d="M608 198c-23 -123 -121 -210 -271 -210s-248 87 -271 210c-10 52 -12 82 -12 152s2 99 12 152c23 122 121 210 271 210s248 -88 271 -210c10 -53 12 -82 12 -152s-2 -100 -12 -152zM337 88c84 0 136 51 150 123c7 35 8 60 9 100h-318c0 -41 2 -65 9 -100
c15 -72 66 -123 150 -123zM187 489c-6 -28 -8 -49 -9 -77h317c-2 28 -3 49 -8 77c-14 72 -66 123 -150 123s-136 -52 -150 -123zM171 760v124h114v-124h-114zM389 760v124h114v-124h-114z" />
    <glyph glyph-name="uni04EB" unicode="&#x4eb;" horiz-adv-x="528" 
d="M468 118c-28 -82 -104 -128 -204 -128s-176 46 -204 128c-14 41 -16 78 -16 132s2 91 16 132c28 82 104 128 204 128s176 -46 204 -128c14 -41 16 -78 16 -132s-2 -91 -16 -132zM264 82c50 0 80 23 93 61c8 24 10 47 11 75h-208c0 -28 3 -51 11 -75c13 -38 43 -61 93 -61
zM171 357c-7 -20 -10 -40 -11 -61h207c-1 21 -3 41 -10 61c-13 37 -43 61 -93 61s-80 -24 -93 -61zM104 576v124h110v-124h-110zM314 576v124h110v-124h-110z" />
    <glyph glyph-name="uni04EE" unicode="&#x4ee;" horiz-adv-x="588" 
d="M265 190l-259 510h134l181 -362l133 362h128l-200 -520c-40 -105 -77 -180 -210 -180h-46v100h21c76 0 98 41 118 90zM163 760v96h250v-96h-250z" />
    <glyph glyph-name="uni04EF" unicode="&#x4ef;" horiz-adv-x="482" 
d="M194 -1l-188 501h122l119 -349l111 349h120l-189 -541c-39 -110 -91 -159 -191 -159h-50v92h34c63 0 91 37 112 107zM121 586v88h240v-88h-240z" />
    <glyph glyph-name="uni04F0" unicode="&#x4f0;" horiz-adv-x="588" 
d="M265 190l-259 510h134l181 -362l133 362h128l-200 -520c-40 -105 -77 -180 -210 -180h-46v100h21c76 0 98 41 118 90zM128 760v124h114v-124h-114zM346 760v124h114v-124h-114z" />
    <glyph glyph-name="uni04F1" unicode="&#x4f1;" horiz-adv-x="482" 
d="M194 -1l-188 501h122l119 -349l111 349h120l-189 -541c-39 -110 -91 -159 -191 -159h-50v92h34c63 0 91 37 112 107zM81 576v124h110v-124h-110zM291 576v124h110v-124h-110z" />
    <glyph glyph-name="uni04F2" unicode="&#x4f2;" horiz-adv-x="588" 
d="M265 190l-259 510h134l181 -362l133 362h128l-200 -520c-40 -105 -77 -180 -210 -180h-46v100h21c76 0 98 41 118 90zM198 750h-94l71 160h122zM389 750h-94l71 160h122z" />
    <glyph glyph-name="uni04F3" unicode="&#x4f3;" horiz-adv-x="482" 
d="M194 -1l-188 501h122l119 -349l111 349h120l-189 -541c-39 -110 -91 -159 -191 -159h-50v92h34c63 0 91 37 112 107zM147 560h-86l71 150h112zM328 560h-86l71 150h112z" />
    <glyph glyph-name="uni04F4" unicode="&#x4f4;" horiz-adv-x="630" 
d="M50 700h120v-181c0 -90 16 -139 126 -139h130v320h120v-700h-120v280h-160c-145 0 -216 70 -216 215v205zM149 760v124h114v-124h-114zM367 760v124h114v-124h-114z" />
    <glyph glyph-name="uni04F5" unicode="&#x4f5;" horiz-adv-x="510" 
d="M40 500h112v-126c0 -70 15 -96 78 -96h94v222h112v-500h-112v186h-114c-120 0 -170 45 -170 175v139zM95 576v124h110v-124h-110zM305 576v124h110v-124h-110z" />
    <glyph glyph-name="uni04F8" unicode="&#x4f8;" horiz-adv-x="870" 
d="M84 700h120v-267h129c143 0 256 -70 256 -216s-113 -217 -256 -217h-249v700zM204 333v-233h114c86 0 149 35 149 117s-63 116 -149 116h-114zM666 0v700h120v-700h-120zM269 760v124h114v-124h-114zM487 760v124h114v-124h-114z" />
    <glyph glyph-name="uni04F9" unicode="&#x4f9;" horiz-adv-x="746" 
d="M186 310h108c90 0 195 -34 195 -154s-105 -156 -195 -156h-220v500h112v-190zM186 224v-138h94c55 0 93 20 93 70c0 59 -49 68 -111 68h-76zM560 0v500h112v-500h-112zM213 576v124h110v-124h-110zM423 576v124h110v-124h-110z" />
    <glyph glyph-name="uni1E9E" unicode="&#x1e9e;" horiz-adv-x="657" 
d="M331 612c-74 0 -127 -42 -127 -127v-485h-120v485c0 120 72 227 247 227c129 0 218 -67 248 -152l-161 -155v-5c88 -10 189 -62 189 -188c0 -138 -86 -212 -255 -212h-54v100h33c102 0 152 42 152 117c0 78 -50 108 -152 108h-33v100l146 139c-19 20 -49 48 -113 48z" />
    <glyph glyph-name="uni2010" unicode="&#x2010;" horiz-adv-x="348" 
d="M54 220v100h240v-100h-240z" />
    <glyph glyph-name="uni2011" unicode="&#x2011;" horiz-adv-x="348" 
d="M54 220v100h240v-100h-240z" />
    <glyph glyph-name="figuredash" unicode="&#x2012;" horiz-adv-x="600" 
d="M50 310v90h500v-90h-500z" />
    <glyph glyph-name="endash" unicode="&#x2013;" horiz-adv-x="600" 
d="M50 226v90h500v-90h-500z" />
    <glyph glyph-name="emdash" unicode="&#x2014;" horiz-adv-x="900" 
d="M50 316h800v-90h-800v90z" />
    <glyph glyph-name="afii00208" unicode="&#x2015;" horiz-adv-x="900" 
d="M50 315h800v-89h-800v89z" />
    <glyph glyph-name="quoteleft" unicode="&#x2018;" horiz-adv-x="292" 
d="M208 716v-270h-124v154z" />
    <glyph glyph-name="quoteright" unicode="&#x2019;" horiz-adv-x="292" 
d="M84 430v270h124v-154z" />
    <glyph glyph-name="quotesinglbase" unicode="&#x201a;" horiz-adv-x="292" 
d="M84 -146v270h124v-154z" />
    <glyph glyph-name="quotedblleft" unicode="&#x201c;" horiz-adv-x="464" 
d="M380 716v-270h-118v154zM202 716v-270h-118v154z" />
    <glyph glyph-name="quotedblright" unicode="&#x201d;" horiz-adv-x="464" 
d="M84 430v270h118v-154zM262 430v270h118v-154z" />
    <glyph glyph-name="quotedblbase" unicode="&#x201e;" horiz-adv-x="464" 
d="M84 -146v270h118v-154zM262 -146v270h118v-154z" />
    <glyph glyph-name="dagger" unicode="&#x2020;" horiz-adv-x="500" 
d="M460 418h-152v-418h-116v418h-152v96h152v186h116v-186h152v-96z" />
    <glyph glyph-name="daggerdbl" unicode="&#x2021;" horiz-adv-x="500" 
d="M40 110h152v308h-152v96h152v186h116v-186h152v-96h-152v-308h152v-96h-152v-214h-116v214h-152v96z" />
    <glyph glyph-name="bullet" unicode="&#x2022;" 
d="M170 370c0 80 60 140 140 140s140 -60 140 -140s-61 -140 -141 -140s-139 60 -139 140z" />
    <glyph glyph-name="ellipsis" unicode="&#x2026;" horiz-adv-x="882" 
d="M84 0v124h118v-124h-118zM382 0v124h118v-124h-118zM680 0v124h118v-124h-118z" />
    <glyph glyph-name="perthousand" unicode="&#x2030;" horiz-adv-x="1212" 
d="M362 468c-17 -65 -71 -98 -137 -98s-120 33 -137 98c-7 26 -8 45 -8 72c0 28 1 46 8 72c17 65 71 98 137 98s120 -33 137 -98c7 -26 8 -44 8 -72c0 -27 -1 -46 -8 -72zM225 440c52 0 65 46 65 100s-13 100 -65 100s-65 -46 -65 -100s13 -100 65 -100zM262 -20h-86
l415 740h86zM764 88c-17 -65 -71 -98 -137 -98s-120 33 -137 98c-7 26 -8 45 -8 72c0 28 1 46 8 72c17 65 71 98 137 98s120 -33 137 -98c7 -26 8 -44 8 -72c0 -27 -1 -46 -8 -72zM627 60c52 0 65 46 65 100s-13 100 -65 100s-65 -46 -65 -100s13 -100 65 -100zM1124 88
c-17 -65 -71 -98 -137 -98s-120 33 -137 98c-7 26 -8 45 -8 72c0 28 1 46 8 72c17 65 71 98 137 98s120 -33 137 -98c7 -26 8 -44 8 -72c0 -27 -1 -46 -8 -72zM987 60c52 0 65 46 65 100s-13 100 -65 100s-65 -46 -65 -100s13 -100 65 -100z" />
    <glyph glyph-name="guilsinglleft" unicode="&#x2039;" horiz-adv-x="364" 
d="M294 46l-244 224l244 224v-128l-108 -96l108 -96v-128z" />
    <glyph glyph-name="guilsinglright" unicode="&#x203a;" horiz-adv-x="364" 
d="M70 494l244 -224l-244 -224v128l108 96l-108 96v128z" />
    <glyph glyph-name="fraction" unicode="&#x2044;" horiz-adv-x="260" 
d="M-34 -20h-86l414 740h86z" />
    <glyph glyph-name="Euro" unicode="&#x20ac;" 
d="M336 88c90 0 127 63 149 126l105 -41c-27 -98 -104 -185 -254 -185s-228 85 -254 208c-3 14 -5 28 -7 40h-65v76h60c0 12 -1 23 -1 38c0 20 1 32 1 48h-60v76h66c2 11 3 21 6 33c28 120 104 205 254 205c140 0 214 -76 248 -171l-106 -38c-25 59 -52 109 -142 109
c-84 0 -116 -52 -133 -107c-3 -10 -6 -21 -8 -31h191v-76h-197c-1 -16 -2 -28 -2 -48c0 -15 1 -26 1 -38h198v-76h-192c1 -11 3 -20 6 -31c17 -62 52 -117 136 -117z" />
    <glyph glyph-name="uni20B4" unicode="&#x20b4;" 
d="M580 243h-329c-37 -27 -58 -52 -58 -82c0 -51 47 -73 118 -73c55 0 110 22 151 92l104 -46c-52 -98 -129 -146 -256 -146c-123 0 -241 42 -241 167c0 30 13 62 34 88h-63v76h135c34 26 71 54 109 81h-244v76h351c24 20 40 39 40 67c0 48 -43 69 -104 69
c-50 0 -96 -15 -134 -76l-104 45c48 88 133 131 238 131c119 0 224 -49 224 -159c0 -29 -10 -56 -26 -77h55v-76h-124c-33 -26 -69 -55 -106 -81h230v-76z" />
    <glyph glyph-name="uni20B6" unicode="&#x20b6;" 
d="M90 700h244c170 0 258 -67 258 -203s-88 -204 -258 -204h-124v-75h240v-100h-240v-118h-120v118h-80v100h80v75h-80v100h80v307zM210 393h120c100 0 138 34 138 104s-38 103 -138 103h-120v-207z" />
    <glyph glyph-name="uni20B6" unicode="&#x20cf;" 
d="M90 700h244c170 0 258 -67 258 -203s-88 -204 -258 -204h-124v-75h240v-100h-240v-118h-120v118h-80v100h80v75h-80v100h80v307zM210 393h120c100 0 138 34 138 104s-38 103 -138 103h-120v-207z" />
    <glyph glyph-name="uni20B6" unicode="&#x20ce;" 
d="M90 700h244c170 0 258 -67 258 -203s-88 -204 -258 -204h-124v-75h240v-100h-240v-118h-120v118h-80v100h80v75h-80v100h80v307zM210 393h120c100 0 138 34 138 104s-38 103 -138 103h-120v-207z" />
    <glyph glyph-name="uni20B6" unicode="&#x20cd;" 
d="M90 700h244c170 0 258 -67 258 -203s-88 -204 -258 -204h-124v-75h240v-100h-240v-118h-120v118h-80v100h80v75h-80v100h80v307zM210 393h120c100 0 138 34 138 104s-38 103 -138 103h-120v-207z" />
    <glyph glyph-name="uni20B6" unicode="&#x20cc;" 
d="M90 700h244c170 0 258 -67 258 -203s-88 -204 -258 -204h-124v-75h240v-100h-240v-118h-120v118h-80v100h80v75h-80v100h80v307zM210 393h120c100 0 138 34 138 104s-38 103 -138 103h-120v-207z" />
    <glyph glyph-name="uni20B6" unicode="&#x20cb;" 
d="M90 700h244c170 0 258 -67 258 -203s-88 -204 -258 -204h-124v-75h240v-100h-240v-118h-120v118h-80v100h80v75h-80v100h80v307zM210 393h120c100 0 138 34 138 104s-38 103 -138 103h-120v-207z" />
    <glyph glyph-name="uni20B6" unicode="&#x20ca;" 
d="M90 700h244c170 0 258 -67 258 -203s-88 -204 -258 -204h-124v-75h240v-100h-240v-118h-120v118h-80v100h80v75h-80v100h80v307zM210 393h120c100 0 138 34 138 104s-38 103 -138 103h-120v-207z" />
    <glyph glyph-name="uni20B6" unicode="&#x20c9;" 
d="M90 700h244c170 0 258 -67 258 -203s-88 -204 -258 -204h-124v-75h240v-100h-240v-118h-120v118h-80v100h80v75h-80v100h80v307zM210 393h120c100 0 138 34 138 104s-38 103 -138 103h-120v-207z" />
    <glyph glyph-name="uni20B6" unicode="&#x20c8;" 
d="M90 700h244c170 0 258 -67 258 -203s-88 -204 -258 -204h-124v-75h240v-100h-240v-118h-120v118h-80v100h80v75h-80v100h80v307zM210 393h120c100 0 138 34 138 104s-38 103 -138 103h-120v-207z" />
    <glyph glyph-name="uni20B6" unicode="&#x20c7;" 
d="M90 700h244c170 0 258 -67 258 -203s-88 -204 -258 -204h-124v-75h240v-100h-240v-118h-120v118h-80v100h80v75h-80v100h80v307zM210 393h120c100 0 138 34 138 104s-38 103 -138 103h-120v-207z" />
    <glyph glyph-name="uni20B6" unicode="&#x20c6;" 
d="M90 700h244c170 0 258 -67 258 -203s-88 -204 -258 -204h-124v-75h240v-100h-240v-118h-120v118h-80v100h80v75h-80v100h80v307zM210 393h120c100 0 138 34 138 104s-38 103 -138 103h-120v-207z" />
    <glyph glyph-name="uni20B6" unicode="&#x20c5;" 
d="M90 700h244c170 0 258 -67 258 -203s-88 -204 -258 -204h-124v-75h240v-100h-240v-118h-120v118h-80v100h80v75h-80v100h80v307zM210 393h120c100 0 138 34 138 104s-38 103 -138 103h-120v-207z" />
    <glyph glyph-name="uni20B6" unicode="&#x20c4;" 
d="M90 700h244c170 0 258 -67 258 -203s-88 -204 -258 -204h-124v-75h240v-100h-240v-118h-120v118h-80v100h80v75h-80v100h80v307zM210 393h120c100 0 138 34 138 104s-38 103 -138 103h-120v-207z" />
    <glyph glyph-name="uni20B6" unicode="&#x20c3;" 
d="M90 700h244c170 0 258 -67 258 -203s-88 -204 -258 -204h-124v-75h240v-100h-240v-118h-120v118h-80v100h80v75h-80v100h80v307zM210 393h120c100 0 138 34 138 104s-38 103 -138 103h-120v-207z" />
    <glyph glyph-name="uni20B6" unicode="&#x20c2;" 
d="M90 700h244c170 0 258 -67 258 -203s-88 -204 -258 -204h-124v-75h240v-100h-240v-118h-120v118h-80v100h80v75h-80v100h80v307zM210 393h120c100 0 138 34 138 104s-38 103 -138 103h-120v-207z" />
    <glyph glyph-name="uni20B6" unicode="&#x20c1;" 
d="M90 700h244c170 0 258 -67 258 -203s-88 -204 -258 -204h-124v-75h240v-100h-240v-118h-120v118h-80v100h80v75h-80v100h80v307zM210 393h120c100 0 138 34 138 104s-38 103 -138 103h-120v-207z" />
    <glyph glyph-name="uni20B6" unicode="&#x20c0;" 
d="M90 700h244c170 0 258 -67 258 -203s-88 -204 -258 -204h-124v-75h240v-100h-240v-118h-120v118h-80v100h80v75h-80v100h80v307zM210 393h120c100 0 138 34 138 104s-38 103 -138 103h-120v-207z" />
    <glyph glyph-name="uni20B6" unicode="&#x20bf;" 
d="M90 700h244c170 0 258 -67 258 -203s-88 -204 -258 -204h-124v-75h240v-100h-240v-118h-120v118h-80v100h80v75h-80v100h80v307zM210 393h120c100 0 138 34 138 104s-38 103 -138 103h-120v-207z" />
    <glyph glyph-name="uni20B6" unicode="&#x20be;" 
d="M90 700h244c170 0 258 -67 258 -203s-88 -204 -258 -204h-124v-75h240v-100h-240v-118h-120v118h-80v100h80v75h-80v100h80v307zM210 393h120c100 0 138 34 138 104s-38 103 -138 103h-120v-207z" />
    <glyph glyph-name="uni20B6" unicode="&#x20bd;" 
d="M90 700h244c170 0 258 -67 258 -203s-88 -204 -258 -204h-124v-75h240v-100h-240v-118h-120v118h-80v100h80v75h-80v100h80v307zM210 393h120c100 0 138 34 138 104s-38 103 -138 103h-120v-207z" />
    <glyph glyph-name="uni20B6" unicode="&#x20bc;" 
d="M90 700h244c170 0 258 -67 258 -203s-88 -204 -258 -204h-124v-75h240v-100h-240v-118h-120v118h-80v100h80v75h-80v100h80v307zM210 393h120c100 0 138 34 138 104s-38 103 -138 103h-120v-207z" />
    <glyph glyph-name="uni20B6" unicode="&#x20bb;" 
d="M90 700h244c170 0 258 -67 258 -203s-88 -204 -258 -204h-124v-75h240v-100h-240v-118h-120v118h-80v100h80v75h-80v100h80v307zM210 393h120c100 0 138 34 138 104s-38 103 -138 103h-120v-207z" />
    <glyph glyph-name="uni20B6" unicode="&#x20ba;" 
d="M90 700h244c170 0 258 -67 258 -203s-88 -204 -258 -204h-124v-75h240v-100h-240v-118h-120v118h-80v100h80v75h-80v100h80v307zM210 393h120c100 0 138 34 138 104s-38 103 -138 103h-120v-207z" />
    <glyph glyph-name="uni20B6" unicode="&#x20b9;" 
d="M90 700h244c170 0 258 -67 258 -203s-88 -204 -258 -204h-124v-75h240v-100h-240v-118h-120v118h-80v100h80v75h-80v100h80v307zM210 393h120c100 0 138 34 138 104s-38 103 -138 103h-120v-207z" />
    <glyph glyph-name="uni20B6" unicode="&#x20b7;" 
d="M90 700h244c170 0 258 -67 258 -203s-88 -204 -258 -204h-124v-75h240v-100h-240v-118h-120v118h-80v100h80v75h-80v100h80v307zM210 393h120c100 0 138 34 138 104s-38 103 -138 103h-120v-207z" />
    <glyph glyph-name="uni20B8" unicode="&#x20b8;" 
d="M250 0v438h-195v90h510v-90h-195v-438h-120zM565 610h-510v90h510v-90z" />
    <glyph glyph-name="afii61352" unicode="&#x2116;" horiz-adv-x="1060" 
d="M204 482v-482h-120v700h120l320 -482v482h120v-700h-120zM998 468c-17 -65 -71 -98 -137 -98s-120 33 -137 98c-7 26 -8 45 -8 72c0 28 1 46 8 72c17 65 71 98 137 98s120 -33 137 -98c7 -26 8 -44 8 -72c0 -27 -1 -46 -8 -72zM861 440c52 0 65 46 65 100
s-13 100 -65 100s-65 -46 -65 -100s13 -100 65 -100zM726 204v100h270v-100h-270z" />
    <glyph glyph-name="uni2117" unicode="&#x2117;" horiz-adv-x="820" 
d="M60 350c0 212 148 362 350 362s350 -150 350 -362s-148 -362 -350 -362s-350 150 -350 362zM140 350c0 -163 109 -286 270 -286s270 123 270 286s-107 286 -270 286s-270 -123 -270 -286zM360 300h54c70 0 165 27 165 127s-95 125 -165 125h-138v-393h84v141zM360 376
v100h59c45 0 74 -13 74 -49c0 -35 -29 -51 -74 -51h-59z" />
    <glyph glyph-name="trademark" unicode="&#x2122;" horiz-adv-x="734" 
d="M312 700v-68h-86v-232h-80v232h-86v68h252zM448 700l65 -129l65 129h96v-300h-80v190l-58 -115h-46l-58 115v-190h-80v300h96z" />
    <glyph glyph-name="partialdiff" unicode="&#x2202;" horiz-adv-x="574" 
d="M74 120c-14 41 -20 81 -20 125s6 84 20 125c28 82 98 130 188 130c69 0 120 -29 151 -73l3 2c-6 95 -28 187 -130 187c-52 0 -99 -21 -127 -74l-97 48c42 82 121 120 224 120c200 0 234 -163 234 -370c0 -104 -13 -175 -29 -216c-33 -84 -103 -134 -207 -134
c-100 0 -182 48 -210 130zM284 82c50 0 83 27 98 63c14 33 18 66 21 98c2 22 2 39 2 62c-11 45 -51 103 -121 103c-50 0 -85 -27 -98 -62c-12 -33 -16 -69 -16 -101s4 -67 16 -100c13 -36 48 -63 98 -63z" />
    <glyph glyph-name="product" unicode="&#x220f;" horiz-adv-x="718" 
d="M84 -200v900h550v-900h-120v800h-310v-800h-120z" />
    <glyph glyph-name="summation" unicode="&#x2211;" horiz-adv-x="550" 
d="M40 -200v82l211 378l-199 358v82h437v-100h-289l168 -302v-77l-180 -321h322v-100h-470z" />
    <glyph glyph-name="minus" unicode="&#x2212;" 
d="M110 346h400v-92h-400v92z" />
    <glyph glyph-name="uni2215" unicode="&#x2215;" horiz-adv-x="366" 
d="M366 780l-271 -860h-95l270 860h96z" />
    <glyph glyph-name="radical" unicode="&#x221a;" 
d="M606 700v-92h-123l-189 -608h-112l-176 500h120l110 -316h5l151 516h214z" />
    <glyph glyph-name="infinity" unicode="&#x221e;" horiz-adv-x="750" 
d="M540 172c-70 0 -114 43 -165 106c-51 -63 -85 -106 -165 -106c-94 0 -175 72 -175 178c0 101 85 178 175 178c75 0 114 -43 165 -107c51 64 85 107 165 107c70 0 175 -48 175 -178c0 -115 -85 -178 -175 -178zM532 434c-44 0 -74 -48 -102 -84c28 -36 58 -84 102 -84
c40 0 74 32 74 84s-34 84 -74 84zM218 266c44 0 72 46 102 84c-30 37 -58 84 -102 84c-40 0 -74 -35 -74 -84c0 -48 34 -84 74 -84z" />
    <glyph glyph-name="integral" unicode="&#x222b;" horiz-adv-x="356" 
d="M234 528v-567c0 -108 -59 -161 -149 -161h-75v92h41c45 0 71 24 71 88v567c0 108 59 163 149 163h75v-92h-41c-45 0 -71 -26 -71 -90z" />
    <glyph glyph-name="approxequal" unicode="&#x2248;" 
d="M230 261c28 0 54 -10 81 -23c32 -15 56 -25 78 -25c30 0 62 23 85 48l56 -68c-35 -39 -93 -73 -141 -73c-29 0 -55 11 -82 23c-32 15 -55 25 -77 25c-30 0 -63 -23 -85 -48l-55 68c38 39 92 73 140 73zM230 460c28 0 54 -10 81 -23c32 -15 56 -25 78 -25
c30 0 62 23 85 48l56 -68c-35 -39 -93 -73 -141 -73c-29 0 -55 11 -82 23c-32 15 -55 25 -77 25c-30 0 -63 -23 -85 -48l-55 68c38 39 92 73 140 73z" />
    <glyph glyph-name="notequal" unicode="&#x2260;" 
d="M110 446h259l71 107l60 -36l-48 -71h58v-92h-119l-71 -108h190v-92h-251l-79 -119l-60 35l55 84h-65v92h126l72 108h-198v92z" />
    <glyph glyph-name="lessequal" unicode="&#x2264;" 
d="M110 92h400v-92h-400v92zM510 506l-285 -136l285 -136v-104l-400 205v70l400 205v-104z" />
    <glyph glyph-name="greaterequal" unicode="&#x2265;" 
d="M110 92h400v-92h-400v92zM395 370l-285 136v104l400 -205v-70l-400 -205v104z" />
    <glyph glyph-name="uni22C6" unicode="&#x22c6;" horiz-adv-x="840" 
d="M420 746l98 -298h312l-249 -188l93 -306l-254 186l-254 -186l93 306l-249 188h312zM420 522l-43 -142h-151l122 -87l-48 -151l120 94l121 -90l-49 147l122 87h-151z" />
    <glyph glyph-name="lozenge" unicode="&#x25ca;" 
d="M310 676l246 -343l-246 -343l-246 343zM310 543l-150 -210l150 -210l150 210z" />
    <glyph glyph-name="uniF400" unicode="&#xf400;" horiz-adv-x="2" 
d="M-195 560h-90l72 150h118z" />
    <glyph glyph-name="uniF401" unicode="&#xf401;" horiz-adv-x="2" 
d="M-265 750h-100l72 160h128z" />
    <glyph glyph-name="uniF406" unicode="&#xf406;" horiz-adv-x="500" 
d="M328 904h90c-12 -90 -82 -150 -168 -150s-157 60 -168 150h90c8 -35 36 -60 78 -60s70 25 78 60z" />
    <glyph glyph-name="uniF407" unicode="&#xf407;" horiz-adv-x="500" 
d="M146 -212v64h85c20 0 41 7 41 27s-21 27 -41 27h-53v94h86v-34c60 0 100 -35 100 -87s-43 -91 -108 -91h-110z" />
    <glyph glyph-name="uniF408" unicode="&#xf408;" horiz-adv-x="500" 
d="M75 750l119 160h112l119 -160h-114l-61 91l-61 -91h-114z" />
    <glyph glyph-name="uniF409" unicode="&#xf409;" horiz-adv-x="500" 
d="M236 -210h-100l67 150h127z" />
    <glyph glyph-name="uniF40A" unicode="&#xf40a;" horiz-adv-x="500" 
d="M270 750h-100l52 160h128z" />
    <glyph glyph-name="uniF40B" unicode="&#xf40b;" horiz-adv-x="500" 
d="M190 760v124h120v-124h-120z" />
    <glyph glyph-name="uniF40C" unicode="&#xf40c;" horiz-adv-x="500" 
d="M122 868c0 71 57 128 128 128s128 -57 128 -128s-57 -128 -128 -128s-128 57 -128 128zM200 868c0 -31 21 -54 50 -54s50 23 50 54s-21 54 -50 54s-50 -23 -50 -54z" />
    <glyph glyph-name="uniF40D" unicode="&#xf40d;" horiz-adv-x="500" 
d="M179 890c32 0 52 -12 81 -25c24 -11 41 -21 62 -21c26 0 51 19 73 43l60 -68c-35 -37 -86 -69 -135 -69c-32 0 -52 13 -79 26c-24 11 -43 20 -64 20c-26 0 -51 -19 -73 -42l-59 68c38 37 85 68 134 68z" />
    <glyph glyph-name="uniF40E" unicode="&#xf40e;" horiz-adv-x="500" 
d="M360 -124v-76h-105c-65 0 -113 25 -113 76c0 44 33 73 66 102l26 22h108l-39 -36c-26 -24 -49 -45 -49 -64c0 -18 18 -24 36 -24h70z" />
    <glyph glyph-name="uniF410" unicode="&#xf410;" horiz-adv-x="2" 
d="M-255 750h-100l-100 160h127z" />
    <glyph glyph-name="uniF4C6" unicode="&#xf4c6;" horiz-adv-x="630" 
d="M50 700h120v-181c0 -90 16 -139 126 -139h130v320h120v-594c0 -139 -77 -206 -195 -206c-88 0 -151 36 -189 103l102 50c18 -34 42 -53 83 -53c47 0 79 30 79 106v174h-160c-145 0 -216 70 -216 215v205z" />
    <glyph glyph-name="uniF4C7" unicode="&#xf4c7;" horiz-adv-x="510" 
d="M40 500h112v-126c0 -70 15 -96 78 -96h94v222h112v-542c0 -123 -73 -168 -163 -168h-61v92h40c50 0 72 29 72 83v221h-114c-120 0 -170 45 -170 175v139z" />
    <glyph glyph-name="uniF4CC" unicode="&#xf4cc;" horiz-adv-x="588" 
d="M265 190l-259 510h134l181 -362l133 362h128l-200 -520c-40 -105 -77 -180 -210 -180h-46v100h21c76 0 98 41 118 90zM318 750h-100l72 160h128z" />
    <glyph glyph-name="uniF4CD" unicode="&#xf4cd;" horiz-adv-x="482" 
d="M194 -1l-188 501h122l119 -349l111 349h120l-189 -541c-39 -110 -91 -159 -191 -159h-50v92h34c63 0 91 37 112 107zM252 560h-90l72 150h118z" />
    <glyph glyph-name="dollar.fitted" unicode="&#xf5f5;" horiz-adv-x="610" 
d="M41 149l102 47c31 -62 73 -93 123 -104v216l-34 7c-97 20 -175 81 -175 201c0 111 92 184 209 194v89h86v-92c90 -12 157 -52 197 -131l-103 -45c-26 45 -57 67 -94 75v-201l34 -8c111 -24 183 -89 183 -199c0 -118 -95 -194 -217 -207v-91h-86v92
c-111 11 -179 64 -225 157zM449 189c0 56 -35 87 -97 102v-200c59 10 97 48 97 98zM173 519c0 -50 35 -83 93 -97v187c-52 -8 -93 -39 -93 -90z" />
    <glyph glyph-name="Euro.fitted" unicode="&#xf5f6;" 
d="M336 88c90 0 127 63 149 126l105 -41c-27 -98 -104 -185 -254 -185s-228 85 -254 208c-3 14 -5 28 -7 40h-65v76h60c0 12 -1 23 -1 38c0 20 1 32 1 48h-60v76h66c2 11 3 21 6 33c28 120 104 205 254 205c140 0 214 -76 248 -171l-106 -38c-25 59 -52 109 -142 109
c-84 0 -116 -52 -133 -107c-3 -10 -6 -21 -8 -31h191v-76h-197c-1 -16 -2 -28 -2 -48c0 -15 1 -26 1 -38h198v-76h-192c1 -11 3 -20 6 -31c17 -62 52 -117 136 -117z" />
    <glyph glyph-name="cent.fitted" unicode="&#xf5f7;" horiz-adv-x="506" 
d="M316 700v-92c72 -7 133 -41 161 -104l-97 -45c-12 28 -33 50 -64 56v-328c33 8 56 34 69 62l96 -47c-27 -61 -94 -100 -165 -109v-93h-76v91c-87 8 -155 53 -179 128c-14 41 -16 77 -16 131s2 90 16 131c23 71 94 117 179 127v92h76zM168 249c12 -33 35 -55 72 -64v328
c-38 -9 -61 -31 -72 -62c-9 -26 -11 -59 -11 -101s2 -75 11 -101z" />
    <glyph glyph-name="sterling.fitted" unicode="&#xf5f8;" horiz-adv-x="545" 
d="M352 393v-86h-150v-207h330v-100h-450v307h-66v86h66v118c0 130 108 199 217 199c100 0 177 -38 224 -122l-103 -46c-32 49 -61 68 -117 68c-57 0 -101 -41 -101 -104v-113h150z" />
    <glyph glyph-name="yen.fitted" unicode="&#xf5f9;" horiz-adv-x="590" 
d="M355 0h-120v167h-150v76h150v38l-26 48h-124v76h84l-154 295h136l144 -286l144 286h136l-155 -295h85v-76h-125l-25 -48v-38h150v-76h-150v-167z" />
    <glyph glyph-name="florin.fitted" unicode="&#xf5fa;" horiz-adv-x="427" 
d="M21 -200l101 580h-113l16 92h112l15 85c18 106 91 153 191 153h74l-15 -92h-43c-50 0 -87 -16 -97 -78l-12 -68h126l-16 -92h-125l-101 -580h-113z" />
    <glyph glyph-name="uni20B4.fitted" unicode="&#xf5fb;" horiz-adv-x="590" 
d="M568 243h-329c-37 -27 -58 -52 -58 -82c0 -51 47 -73 118 -73c55 0 110 22 151 92l104 -46c-52 -98 -129 -146 -256 -146c-123 0 -241 42 -241 167c0 30 13 62 34 88h-63v76h135c34 26 71 54 109 81h-244v76h351c24 20 40 39 40 67c0 48 -43 69 -104 69
c-50 0 -96 -15 -134 -76l-104 45c48 88 133 131 238 131c119 0 224 -49 224 -159c0 -29 -10 -56 -26 -77h55v-76h-124c-33 -26 -69 -55 -106 -81h230v-76z" />
    <glyph glyph-name="uni20B6.fitted" unicode="&#xf5fc;" horiz-adv-x="615" 
d="M82 700h244c170 0 258 -67 258 -203s-88 -204 -258 -204h-124v-75h240v-100h-240v-118h-120v118h-80v100h80v75h-80v100h80v307zM202 393h120c100 0 138 34 138 104s-38 103 -138 103h-120v-207z" />
    <glyph glyph-name="uni20B8.fitted" unicode="&#xf5fd;" horiz-adv-x="540" 
d="M210 0v438h-195v90h510v-90h-195v-438h-120zM525 610h-510v90h510v-90z" />
    <glyph glyph-name="currency.fitted" unicode="&#xf5fe;" horiz-adv-x="545" 
d="M458 104l-77 78c-33 -22 -70 -31 -109 -31c-41 0 -76 9 -109 31l-77 -78l-62 63l77 77c-22 33 -32 70 -32 109s10 75 32 108l-77 77l62 62l77 -77c33 22 69 32 109 32c39 0 75 -10 109 -33l77 78l62 -62l-77 -77c22 -33 32 -69 32 -108c0 -40 -10 -76 -32 -109l77 -77z
M383 353c0 66 -46 114 -111 114s-111 -49 -111 -114s46 -114 111 -114s111 49 111 114z" />
    <glyph glyph-name="numbersign.fitted" unicode="&#xf5ff;" horiz-adv-x="589" 
d="M341 700l-60 -216h98l59 216h98l-59 -216h95l-23 -86h-95l-27 -98h95l-23 -86h-95l-59 -214h-98l59 214h-98l-58 -214h-98l58 214h-94l22 86h95l27 98h-95l23 86h95l60 216h98zM356 398h-98l-27 -98h98z" />
    <glyph glyph-name="uniF639" unicode="&#xf639;" horiz-adv-x="628" 
d="M562 192c-25 -125 -118 -202 -248 -202s-223 77 -248 202c-11 55 -12 88 -12 158s1 103 12 158c25 125 118 202 248 202s223 -77 248 -202c11 -55 12 -88 12 -158s-1 -103 -12 -158zM314 86c79 0 119 54 130 121c8 48 10 77 10 143s-2 95 -10 143
c-11 67 -51 121 -130 121s-119 -54 -131 -121c-8 -48 -9 -77 -9 -143s1 -95 9 -143c12 -67 52 -121 131 -121z" />
    <glyph glyph-name="uniF63A" unicode="&#xf63a;" horiz-adv-x="560" 
d="M502 0h-472v88l242 243c67 68 118 118 118 184c0 60 -42 99 -112 99c-60 0 -106 -28 -135 -99l-103 39c40 113 141 156 241 156c110 0 229 -57 229 -197c0 -100 -69 -172 -158 -261l-157 -156h307v-96z" />
    <glyph glyph-name="uniF63B" unicode="&#xf63b;" horiz-adv-x="584" 
d="M211 316v96h66c64 0 115 33 115 104c0 68 -45 98 -112 98c-54 0 -107 -28 -138 -101l-100 46c38 78 117 151 243 151c150 0 225 -85 225 -184c0 -70 -35 -125 -99 -155v-4c74 -27 119 -83 119 -165c0 -125 -97 -212 -247 -212c-146 0 -217 71 -253 159l102 43
c24 -60 68 -106 148 -106c75 0 130 38 130 119c0 76 -53 111 -133 111h-66z" />
    <glyph glyph-name="uniF63C" unicode="&#xf63c;" horiz-adv-x="560" 
d="M333 253v283l-189 -283h189zM333 0v157h-319v96l301 447h134v-447h101v-96h-101v-157h-116z" />
    <glyph glyph-name="uniF63D" unicode="&#xf63d;" horiz-adv-x="580" 
d="M300 389c-52 0 -89 -21 -122 -71h-110v382h428v-96h-312v-171c42 38 83 52 141 52c93 0 161 -53 186 -135c11 -37 15 -64 15 -113s-4 -75 -15 -111c-25 -82 -108 -136 -216 -136c-121 0 -200 54 -241 145l102 43c25 -54 61 -92 136 -92c54 0 87 26 100 62
c11 28 14 47 14 89s-3 62 -14 91c-13 35 -40 61 -92 61z" />
    <glyph glyph-name="uniF63E" unicode="&#xf63e;" horiz-adv-x="608" 
d="M182 509c-10 -39 -12 -73 -12 -129c39 48 94 81 167 81c93 0 158 -40 192 -113c15 -33 25 -72 25 -121s-10 -86 -25 -119c-34 -73 -109 -118 -222 -118c-136 0 -218 81 -241 206c-10 55 -12 94 -12 154s3 99 12 154c22 133 123 206 243 206s196 -58 232 -150l-101 -44
c-29 70 -69 98 -131 98c-74 0 -112 -48 -127 -105zM314 365c-68 0 -116 -44 -142 -100c0 -22 0 -61 20 -109c17 -42 52 -70 110 -70c60 0 97 20 115 57c12 25 17 45 17 82s-5 59 -17 84c-18 36 -45 56 -103 56z" />
    <glyph glyph-name="uniF63F" unicode="&#xf63f;" horiz-adv-x="480" 
d="M62 -12l280 616h-332v96h460v-78l-284 -634h-124z" />
    <glyph glyph-name="uniF640" unicode="&#xf640;" horiz-adv-x="628" 
d="M54 192c0 82 42 146 134 175c-73 27 -102 93 -102 161c0 110 88 182 228 182s228 -72 228 -182c0 -68 -36 -134 -106 -161c92 -29 138 -93 138 -175c0 -132 -110 -202 -260 -202s-260 70 -260 202zM314 318c-94 0 -140 -54 -140 -118c0 -62 52 -114 140 -114
s140 52 140 114c0 64 -46 118 -140 118zM314 414c70 0 110 52 110 104c0 58 -44 96 -110 96s-110 -38 -110 -96c0 -52 34 -104 110 -104z" />
    <glyph glyph-name="uniF641" unicode="&#xf641;" horiz-adv-x="608" 
d="M426 191c10 39 12 73 12 129c-39 -48 -94 -81 -167 -81c-93 0 -158 40 -192 113c-15 33 -25 72 -25 121s10 86 25 119c34 73 109 118 222 118c136 0 218 -81 241 -206c10 -55 12 -94 12 -154s-3 -99 -12 -154c-22 -133 -123 -206 -243 -206s-196 58 -232 150l101 44
c29 -70 69 -98 131 -98c74 0 112 48 127 105zM294 335c68 0 116 44 142 100c0 22 0 61 -20 109c-17 42 -52 70 -110 70c-60 0 -97 -20 -115 -57c-12 -25 -17 -45 -17 -82s5 -59 17 -84c18 -36 45 -56 103 -56z" />
    <glyph glyph-name="uniF643" unicode="&#xf643;" 
d="M530 157c-19 -107 -112 -167 -220 -167s-202 60 -221 167c-7 42 -7 61 -7 93s0 51 7 92c19 108 113 168 221 168s201 -60 220 -168c8 -41 8 -60 8 -92s0 -51 -8 -93zM310 82c59 0 98 40 106 89c5 29 6 52 6 79c0 26 -1 49 -6 78c-8 50 -46 90 -106 90s-99 -40 -107 -90
c-5 -29 -5 -52 -5 -78c0 -27 0 -50 5 -79c8 -49 48 -89 107 -89z" />
    <glyph glyph-name="uniF644" unicode="&#xf644;" 
d="M372 500v-408h132v-92h-375v92h131v294l-140 -100v114l140 100h112z" />
    <glyph glyph-name="uniF645" unicode="&#xf645;" 
d="M520 0h-426v74l187 140c63 47 123 93 123 139c0 44 -35 65 -81 65c-43 0 -86 -19 -115 -78l-102 41c45 93 140 129 220 129c95 0 194 -49 194 -157c0 -76 -63 -129 -136 -184l-102 -77h238v-92z" />
    <glyph glyph-name="uniF646" unicode="&#xf646;" 
d="M231 118v92h66c59 0 110 35 110 106c0 68 -45 102 -107 102c-49 0 -103 -32 -134 -105l-100 46c38 78 118 151 239 151c145 0 216 -85 216 -184c0 -70 -30 -125 -94 -155v-4c74 -27 115 -83 115 -165c0 -125 -94 -212 -239 -212c-141 0 -213 71 -249 159l102 43
c24 -60 69 -110 144 -110c70 0 126 42 126 123c0 76 -54 113 -129 113h-66z" />
    <glyph glyph-name="uniF647" unicode="&#xf647;" 
d="M356 92v282l-200 -282h200zM356 -200v200h-316v86l295 414h133v-408h102v-92h-102v-200h-112z" />
    <glyph glyph-name="uniF648" unicode="&#xf648;" 
d="M320 193c-47 0 -88 -25 -121 -75h-106v382h417v-92h-305v-175c42 38 87 52 140 52c88 0 159 -52 182 -135c10 -37 13 -64 13 -113s-3 -75 -13 -111c-23 -83 -109 -136 -212 -136c-116 0 -194 54 -235 145l102 43c25 -54 60 -96 130 -96c49 0 87 28 100 66
c10 28 12 49 12 89s-2 62 -12 91c-13 38 -45 65 -92 65z" />
    <glyph glyph-name="uniF649" unicode="&#xf649;" 
d="M197 509c-9 -38 -11 -72 -11 -126h4c37 48 90 78 155 78c122 0 205 -86 205 -236c0 -143 -81 -235 -233 -235c-186 0 -243 152 -243 360c0 48 2 81 7 127c18 153 115 233 236 233c110 0 186 -53 222 -140l-101 -44c-29 65 -69 92 -121 92c-66 0 -106 -50 -120 -109z
M320 369c-62 0 -101 -42 -128 -95c-2 -7 -3 -14 -3 -23c0 -64 26 -169 123 -169c90 0 122 64 122 143c0 80 -31 144 -114 144z" />
    <glyph glyph-name="uniF64A" unicode="&#xf64a;" 
d="M154 -210l260 618h-314v92h440v-72l-264 -638h-122z" />
    <glyph glyph-name="uniF64B" unicode="&#xf64b;" 
d="M66 192c0 82 39 146 121 175c-69 28 -97 93 -97 161c0 110 85 182 220 182s220 -72 220 -182c0 -68 -35 -133 -101 -161c82 -29 125 -93 125 -175c0 -132 -104 -202 -244 -202s-244 70 -244 202zM310 320c-89 0 -128 -51 -128 -120c0 -67 45 -118 128 -118
s128 51 128 118c0 69 -38 120 -128 120zM310 412c70 0 106 49 106 106c0 62 -40 100 -106 100s-106 -38 -106 -100c0 -57 30 -106 106 -106z" />
    <glyph glyph-name="uniF64C" unicode="&#xf64c;" 
d="M423 -9c9 38 11 72 11 126h-4c-37 -48 -90 -78 -155 -78c-122 0 -205 86 -205 236c0 143 81 235 233 235c186 0 243 -152 243 -360c0 -48 -2 -81 -7 -127c-18 -153 -115 -233 -236 -233c-110 0 -186 53 -222 140l101 44c29 -65 69 -92 121 -92c66 0 106 50 120 109z
M300 131c62 0 101 42 128 95c2 7 3 14 3 23c0 64 -26 169 -123 169c-90 0 -122 -64 -122 -143c0 -80 31 -144 114 -144z" />
    <glyph glyph-name="uniF6BA" unicode="&#xf6ba;" horiz-adv-x="348" 
d="M54 305v100h240v-100h-240z" />
    <glyph glyph-name="uniF6BB" unicode="&#xf6bb;" horiz-adv-x="600" 
d="M50 310v90h500v-90h-500z" />
    <glyph glyph-name="uniF6BC" unicode="&#xf6bc;" horiz-adv-x="900" 
d="M50 400h800v-90h-800v90z" />
    <glyph glyph-name="uniF6C3" unicode="&#xf6c3;" horiz-adv-x="500" 
d="M235 -210h-89l66 150h116z" />
    <glyph glyph-name="uniF6C9" unicode="&#xf6c9;" horiz-adv-x="500" 
d="M270 750h-100l72 160h128z" />
    <glyph glyph-name="uniF6CA" unicode="&#xf6ca;" horiz-adv-x="500" 
d="M425 910l-119 -160h-112l-119 160h114l61 -91l61 91h114z" />
    <glyph glyph-name="uniF6CB" unicode="&#xf6cb;" horiz-adv-x="500" 
d="M84 760v124h114v-124h-114zM302 760v124h114v-124h-114z" />
    <glyph glyph-name="uniF6CC" unicode="&#xf6cc;" horiz-adv-x="565" 
d="M287 750h-80l57 160h107zM88 760v124h104v-124h-104zM373 760v124h104v-124h-104z" />
    <glyph glyph-name="uniF6CE" unicode="&#xf6ce;" horiz-adv-x="500" 
d="M330 750h-100l-100 160h127z" />
    <glyph glyph-name="uniF6CF" unicode="&#xf6cf;" horiz-adv-x="500" 
d="M154 750h-94l71 160h122zM345 750h-94l71 160h122z" />
    <glyph glyph-name="uniF6D0" unicode="&#xf6d0;" horiz-adv-x="500" 
d="M125 760v96h250v-96h-250z" />
    <glyph glyph-name="uniF6D1" unicode="&#xf6d1;" horiz-adv-x="500" 
d="M328 904h110c-12 -102 -92 -150 -188 -150s-180 48 -192 150h110c8 -42 40 -64 82 -64s70 22 78 64z" />
    <glyph glyph-name="uniF6D4" unicode="&#xf6d4;" horiz-adv-x="500" 
d="M318 700h102c-12 -85 -78 -136 -170 -136s-158 51 -170 136h102c7 -34 30 -60 68 -60s61 26 68 60z" />
    <glyph glyph-name="uniF6D7" unicode="&#xf6d7;" horiz-adv-x="460" 
d="M66 576v124h100v-124h-100zM334 576v124h100v-124h-100zM253 560h-75l37 150h108z" />
    <glyph glyph-name="uniF6DC" unicode="&#xf6dc;" horiz-adv-x="430" 
d="M280 700v-604h130v-96h-376v96h130v488l-144 -100v116l144 100h116z" />
    <glyph glyph-name="uniF6DE" unicode="&#xf6de;" horiz-adv-x="675" 
d="M37 316h600v-90h-600v90z" />
    <glyph glyph-name="uniF730" unicode="&#xf730;" horiz-adv-x="556" 
d="M498 157c-19 -107 -112 -167 -220 -167s-202 60 -221 167c-7 42 -7 61 -7 93s0 51 7 92c19 108 113 168 221 168s201 -60 220 -168c8 -41 8 -60 8 -92s0 -51 -8 -93zM278 82c59 0 98 40 106 89c5 29 6 52 6 79c0 26 -1 49 -6 78c-8 50 -46 90 -106 90s-99 -40 -107 -90
c-5 -29 -5 -52 -5 -78c0 -27 0 -50 5 -79c8 -49 48 -89 107 -89z" />
    <glyph glyph-name="uniF731" unicode="&#xf731;" horiz-adv-x="424" 
d="M278 500v-408h132v-92h-375v92h131v294l-140 -100v114l140 100h112z" />
    <glyph glyph-name="uniF732" unicode="&#xf732;" horiz-adv-x="510" 
d="M460 0h-426v74l187 140c63 47 123 93 123 139c0 44 -35 65 -81 65c-43 0 -86 -19 -115 -78l-102 41c45 93 140 129 220 129c95 0 194 -49 194 -157c0 -76 -63 -129 -136 -184l-102 -77h238v-92z" />
    <glyph glyph-name="uniF733" unicode="&#xf733;" horiz-adv-x="572" 
d="M211 118v92h66c59 0 110 35 110 106c0 68 -45 102 -107 102c-49 0 -103 -32 -134 -105l-100 46c38 78 118 151 239 151c145 0 216 -85 216 -184c0 -70 -30 -125 -94 -155v-4c74 -27 115 -83 115 -165c0 -125 -94 -212 -239 -212c-141 0 -213 71 -249 159l102 43
c24 -60 69 -110 144 -110c70 0 126 42 126 123c0 76 -54 113 -129 113h-66z" />
    <glyph glyph-name="uniF734" unicode="&#xf734;" horiz-adv-x="550" 
d="M326 92v282l-200 -282h200zM326 -200v200h-316v86l295 414h133v-408h102v-92h-102v-200h-112z" />
    <glyph glyph-name="uniF735" unicode="&#xf735;" horiz-adv-x="560" 
d="M290 193c-47 0 -88 -25 -121 -75h-106v382h417v-92h-305v-175c42 38 87 52 140 52c88 0 159 -52 182 -135c10 -37 13 -64 13 -113s-3 -75 -13 -111c-23 -83 -109 -136 -212 -136c-116 0 -194 54 -235 145l102 43c25 -54 60 -96 130 -96c49 0 87 28 100 66
c10 28 12 49 12 89s-2 62 -12 91c-13 38 -45 65 -92 65z" />
    <glyph glyph-name="uniF736" unicode="&#xf736;" horiz-adv-x="576" 
d="M173 509c-9 -38 -11 -72 -11 -126h4c37 48 90 78 155 78c122 0 205 -86 205 -236c0 -143 -81 -235 -233 -235c-186 0 -243 152 -243 360c0 48 2 81 7 127c18 153 115 233 236 233c110 0 186 -53 222 -140l-101 -44c-29 65 -69 92 -121 92c-66 0 -106 -50 -120 -109z
M296 369c-62 0 -101 -42 -128 -95c-2 -7 -3 -14 -3 -23c0 -64 26 -169 123 -169c90 0 122 64 122 143c0 80 -31 144 -114 144z" />
    <glyph glyph-name="uniF737" unicode="&#xf737;" horiz-adv-x="460" 
d="M64 -210l260 618h-314v92h440v-72l-264 -638h-122z" />
    <glyph glyph-name="uniF738" unicode="&#xf738;" horiz-adv-x="588" 
d="M50 192c0 82 39 146 121 175c-69 28 -97 93 -97 161c0 110 85 182 220 182s220 -72 220 -182c0 -68 -35 -133 -101 -161c82 -29 125 -93 125 -175c0 -132 -104 -202 -244 -202s-244 70 -244 202zM294 320c-89 0 -128 -51 -128 -120c0 -67 45 -118 128 -118
s128 51 128 118c0 69 -38 120 -128 120zM294 412c70 0 106 49 106 106c0 62 -40 100 -106 100s-106 -38 -106 -100c0 -57 30 -106 106 -106z" />
    <glyph glyph-name="uniF739" unicode="&#xf739;" horiz-adv-x="576" 
d="M403 -9c9 38 11 72 11 126h-4c-37 -48 -90 -78 -155 -78c-122 0 -205 86 -205 236c0 143 81 235 233 235c186 0 243 -152 243 -360c0 -48 -2 -81 -7 -127c-18 -153 -115 -233 -236 -233c-110 0 -186 53 -222 140l101 44c29 -65 69 -92 121 -92c66 0 106 50 120 109z
M280 131c62 0 101 42 128 95c2 7 3 14 3 23c0 64 -26 169 -123 169c-90 0 -122 -64 -122 -143c0 -80 31 -144 114 -144z" />
    <glyph glyph-name="uniF8FF" unicode="&#xf8ff;" horiz-adv-x="688" 
d="M628 475c-58 -41 -81 -84 -81 -139c0 -65 36 -121 100 -150c-30 -71 -41 -96 -87 -147c-22 -24 -46 -48 -86 -48c-21 0 -39 7 -59 17c-18 9 -26 12 -53 12c-36 0 -48 -3 -72 -14c-16 -6 -34 -16 -57 -16c-55 0 -88 42 -115 81c-45 64 -84 161 -84 250
c0 122 74 224 179 224c25 0 53 -7 73 -13c27 -8 47 -17 66 -17c21 0 41 10 61 18c23 9 40 14 70 14c61 0 117 -29 145 -72zM483 710c0 -35 -6 -76 -37 -113c-26 -32 -63 -60 -111 -60c0 43 13 88 41 119c22 25 67 54 107 54z" />
    <glyph glyph-name="zero.ss01" 
d="M546 192c-23 -127 -106 -202 -236 -202s-213 75 -236 202c-10 55 -10 88 -10 158s0 103 10 158c23 127 106 202 236 202s213 -75 236 -202c10 -55 10 -88 10 -158s0 -103 -10 -158zM310 86c79 0 106 54 117 121c8 48 9 77 9 143s-1 95 -9 143c-11 67 -38 121 -117 121
s-106 -54 -118 -121c-8 -48 -8 -77 -8 -143s0 -95 8 -143c12 -67 39 -121 118 -121z" />
    <glyph glyph-name="one.ss01" 
d="M376 700v-700h-116v584l-140 -100v116l140 100h116z" />
    <glyph glyph-name="two.ss01" 
d="M532 0h-452v88l232 243c66 70 108 118 108 184c0 60 -32 99 -102 99c-60 0 -96 -28 -125 -99l-103 39c40 113 131 156 231 156c110 0 219 -57 219 -197c0 -100 -61 -169 -148 -261l-147 -156h287v-96z" />
    <glyph glyph-name="three.ss01" 
d="M235 316v96h62c64 0 109 33 109 104c0 68 -39 98 -106 98c-54 0 -101 -28 -132 -101l-100 46c38 78 111 151 237 151c150 0 219 -85 219 -184c0 -70 -35 -125 -99 -155v-4c74 -27 119 -83 119 -165c0 -125 -91 -212 -241 -212c-146 0 -211 71 -247 159l102 43
c24 -60 62 -106 142 -106c75 0 124 38 124 119c0 76 -47 111 -127 111h-62z" />
    <glyph glyph-name="four.ss01" 
d="M354 0v132h-304v72l261 496h128l-251 -472h166v182h116v-182h96v-96h-96v-132h-116z" />
    <glyph glyph-name="five.ss01" 
d="M320 381c-47 0 -88 -23 -121 -73h-106v392h417v-92h-305v-187c42 38 87 52 140 52c88 0 159 -50 182 -133c10 -37 13 -70 13 -109s-3 -71 -13 -107c-23 -83 -109 -134 -212 -134c-116 0 -194 54 -235 145l102 43c25 -54 60 -96 130 -96c49 0 87 26 100 64
c10 28 12 55 12 85s-2 58 -12 87c-13 38 -45 63 -92 63z" />
    <glyph glyph-name="six.ss01" 
d="M293 700h128l-166 -306l2 -3c28 21 59 25 79 25c110 0 204 -82 204 -212s-100 -214 -230 -214s-230 84 -230 214c0 90 27 145 63 213zM310 320c-76 0 -110 -55 -110 -116c0 -66 40 -118 110 -118s110 52 110 118s-40 116 -110 116z" />
    <glyph glyph-name="seven.ss01" 
d="M155 -10l263 614h-222v-104h-116v200h466v-86l-265 -624h-126z" />
    <glyph glyph-name="eight.ss01" 
d="M66 192c0 82 39 146 121 175c-69 28 -97 93 -97 161c0 110 85 182 220 182s220 -72 220 -182c0 -68 -35 -133 -101 -161c82 -29 125 -93 125 -175c0 -132 -104 -202 -244 -202s-244 70 -244 202zM310 320c-89 0 -128 -51 -128 -120c0 -67 45 -118 128 -118
s128 51 128 118c0 69 -38 120 -128 120zM310 412c70 0 106 49 106 106c0 62 -40 100 -106 100s-106 -38 -106 -100c0 -57 30 -106 106 -106z" />
    <glyph glyph-name="nine.ss01" 
d="M327 0h-128l166 306l-2 3c-28 -21 -59 -25 -79 -25c-110 0 -204 82 -204 212s100 214 230 214s230 -84 230 -214c0 -90 -27 -145 -63 -213zM310 380c76 0 110 55 110 116c0 66 -40 118 -110 118s-110 -52 -110 -118s40 -116 110 -116z" />
    <glyph glyph-name="uniF730.ss01" horiz-adv-x="556" 
d="M498 157c-19 -107 -112 -167 -220 -167s-202 60 -221 167c-7 42 -7 61 -7 93s0 51 7 92c19 108 113 168 221 168s201 -60 220 -168c8 -41 8 -60 8 -92s0 -51 -8 -93zM278 82c59 0 98 40 106 89c5 29 6 52 6 79c0 26 -1 49 -6 78c-8 50 -46 90 -106 90s-99 -40 -107 -90
c-5 -29 -5 -52 -5 -78c0 -27 0 -50 5 -79c8 -49 48 -89 107 -89z" />
    <glyph glyph-name="uniF731.ss01" horiz-adv-x="346" 
d="M266 500v-500h-112v386l-134 -100v114l134 100h112z" />
    <glyph glyph-name="uniF732.ss01" horiz-adv-x="510" 
d="M460 0h-426v74l187 140c63 47 123 93 123 139c0 44 -35 65 -81 65c-43 0 -86 -19 -115 -78l-102 41c45 93 140 129 220 129c95 0 194 -49 194 -157c0 -76 -63 -129 -136 -184l-102 -77h238v-92z" />
    <glyph glyph-name="uniF733.ss01" horiz-adv-x="572" 
d="M211 118v92h66c59 0 110 35 110 106c0 68 -45 102 -107 102c-49 0 -103 -32 -134 -105l-100 46c38 78 118 151 239 151c145 0 216 -85 216 -184c0 -70 -30 -125 -94 -155v-4c74 -27 115 -83 115 -165c0 -125 -94 -212 -239 -212c-141 0 -213 71 -249 159l102 43
c24 -60 69 -110 144 -110c70 0 126 42 126 123c0 76 -54 113 -129 113h-66z" />
    <glyph glyph-name="uniF734.ss01" horiz-adv-x="536" 
d="M318 -200v200h-308v68l261 432h130l-251 -408h168v186h112v-186h96v-92h-96v-200h-112z" />
    <glyph glyph-name="uniF735.ss01" horiz-adv-x="560" 
d="M290 193c-47 0 -88 -25 -121 -75h-106v382h417v-92h-305v-175c42 38 87 52 140 52c88 0 159 -52 182 -135c10 -37 13 -64 13 -113s-3 -75 -13 -111c-23 -83 -109 -136 -212 -136c-116 0 -194 54 -235 145l102 43c25 -54 60 -96 130 -96c49 0 87 28 100 66
c10 28 12 49 12 89s-2 62 -12 91c-13 38 -45 65 -92 65z" />
    <glyph glyph-name="uniF736.ss01" horiz-adv-x="548" 
d="M257 700h126l-166 -306l2 -3c28 21 61 25 81 25c110 0 204 -82 204 -212s-100 -214 -230 -214s-230 84 -230 214c0 90 27 145 63 213zM274 324c-76 0 -114 -59 -114 -120c0 -66 44 -122 114 -122s114 56 114 122s-44 120 -114 120z" />
    <glyph glyph-name="uniF737.ss01" horiz-adv-x="480" 
d="M93 -210l253 618h-218v-104h-114v196h456v-82l-255 -628h-122z" />
    <glyph glyph-name="uniF738.ss01" horiz-adv-x="588" 
d="M50 192c0 82 39 146 121 175c-69 28 -97 93 -97 161c0 110 85 182 220 182s220 -72 220 -182c0 -68 -35 -133 -101 -161c82 -29 125 -93 125 -175c0 -132 -104 -202 -244 -202s-244 70 -244 202zM294 320c-89 0 -128 -51 -128 -120c0 -67 45 -118 128 -118
s128 51 128 118c0 69 -38 120 -128 120zM294 412c70 0 106 49 106 106c0 62 -40 100 -106 100s-106 -38 -106 -100c0 -57 30 -106 106 -106z" />
    <glyph glyph-name="uniF739.ss01" horiz-adv-x="548" 
d="M291 -200h-126l166 306l-2 3c-28 -21 -61 -25 -81 -25c-110 0 -204 82 -204 212s100 214 230 214s230 -84 230 -214c0 -90 -27 -145 -63 -213zM274 176c76 0 114 59 114 120c0 66 -44 122 -114 122s-114 -56 -114 -122s44 -120 114 -120z" />
    <glyph glyph-name="uniF639.ss01" horiz-adv-x="600" 
d="M536 192c-23 -127 -106 -202 -236 -202s-213 75 -236 202c-10 55 -10 88 -10 158s0 103 10 158c23 127 106 202 236 202s213 -75 236 -202c10 -55 10 -88 10 -158s0 -103 -10 -158zM300 86c79 0 106 54 117 121c8 48 9 77 9 143s-1 95 -9 143c-11 67 -38 121 -117 121
s-106 -54 -118 -121c-8 -48 -8 -77 -8 -143s0 -95 8 -143c12 -67 39 -121 118 -121z" />
    <glyph glyph-name="uniF6DC.ss01" horiz-adv-x="360" 
d="M276 700v-700h-116v584l-140 -100v116l140 100h116z" />
    </font>
</defs>
</svg>
