<svg width="48" height="48" viewBox="0 0 48 48" fill="none" xmlns="http://www.w3.org/2000/svg">
<mask id="mask0" mask-type="alpha" maskUnits="userSpaceOnUse" x="0" y="0" width="48" height="48">
<rect width="48" height="48" fill="#C4C4C4"/>
</mask>
<g mask="url(#mask0)">
<path d="M-1.54928e-07 15.3679C6.96797e-05 10.5115 14.3794 9.1409 21.0283 8.4187L8.96772 22.6568C7.20284 21.7059 -4.37615e-05 18.4004 -1.54928e-07 15.3679Z" fill="#023DA2"/>
<path d="M32.6031 48C37.4552 47.9999 38.8246 33.6077 39.5461 26.9529L25.3208 39.0243C26.2708 40.7907 29.5733 48 32.6031 48Z" fill="#023DA2"/>
<path d="M5.89451 33.8911C4.00856 37.1375 2.47771 41.5714 1.88452 46.0815C6.22967 45.4411 10.7544 44.2195 14.11 42.517C24.7469 37.1204 12.0034 23.3754 5.89451 33.8911Z" fill="#E62C34"/>
<path d="M26.8428 3.60511C32.7524 -0.379797 42.9276 -0.456348 47.3331 0.593021C39.4204 8.51287 19.9168 28.0339 19.9168 28.0339C16.0602 24.1739 11.2821 22.6157 8.93823 22.6457C12.8831 16.5138 20.9332 7.59002 26.8428 3.60511Z" fill="#05C592"/>
<path d="M44.3237 21.1017C48.3051 15.1868 48.3816 5.0025 47.3331 0.593021C39.4204 8.51287 19.9168 28.0339 19.9168 28.0339C23.7733 31.8939 25.3301 36.6763 25.3001 39.0223C31.4266 35.0739 40.3424 27.0166 44.3237 21.1017Z" fill="#05C592"/>
<path d="M38.3713 18.4617C35.9158 20.9194 31.9347 20.9194 29.4793 18.4617C27.0238 16.0041 27.0238 12.0194 29.4793 9.56175C31.9347 7.10409 35.9158 7.10409 38.3713 9.56175C40.8268 12.0194 40.8268 16.0041 38.3713 18.4617Z" fill="white"/>
</g>
</svg>
