<svg width="48" height="48" viewBox="0 0 48 48" fill="none" xmlns="http://www.w3.org/2000/svg">
<g clip-path="url(#clip0)">
<rect x="1.32568" y="18.3455" width="28.283" height="23.8852" transform="rotate(-37.8269 1.32568 18.3455)" fill="#023DA2"/>
<rect x="19.4951" y="23.5564" width="28.283" height="23.8852" fill="#E62C34"/>
<path d="M15.5623 43.5056C9.16349 38.9662 7.65611 30.0992 12.1954 23.7003C12.2026 23.6901 12.2099 23.68 12.2171 23.6698L23.2621 8.13339L46.4718 24.6578L35.4184 40.2014C30.8461 46.5943 21.9586 48.0731 15.5623 43.5056Z" fill="#05C592"/>
<path d="M18.9677 39.0849C15.5232 36.6013 15.4201 31.8358 16.9499 29.7142L28.3456 37.9309C26.9546 39.8601 22.9645 41.9668 18.9677 39.0849Z" fill="white"/>
<circle cx="20.8959" cy="23.7023" r="2.93182" transform="rotate(34.6317 20.8959 23.7023)" fill="white"/>
<circle cx="32.3168" cy="31.7799" r="2.93182" transform="rotate(34.6317 32.3168 31.7799)" fill="white"/>
</g>
<defs>
<clipPath id="clip0">
<rect width="48" height="48" fill="white"/>
</clipPath>
</defs>
</svg>
