<svg width="48" height="49" viewBox="0 0 48 49" fill="none" xmlns="http://www.w3.org/2000/svg">
<ellipse cx="39.5476" cy="34.9346" rx="4.66333" ry="4.6131" fill="#E62C34"/>
<path d="M23.209 2.27554C22.3849 1.00378 27.3826 1.83495 29.9845 2.4095L29.7625 7.31623C27.9214 6.16591 24.033 3.54731 23.209 2.27554Z" fill="#E62C34"/>
<path d="M47.2238 41.3038V7.70598C46.5212 6.47365 45.3126 30.1954 40.5202 35.2387C38.5261 37.3372 36.056 37.2495 35.4285 37.1116V41.3038C35.4285 44.8216 38.3631 48.0356 41.3024 48.0356C45.0904 48.0356 47.2238 45.333 47.2238 41.3038Z" fill="#05C592"/>
<path d="M11.6815 47.5147C15.9711 46.7694 19.8319 44.4291 22.2123 42.2566L16.519 38.7663C15.4765 39.348 13.9455 40.5908 10.3444 40.5908C7.90576 40.5908 5.42608 37.8672 4.49054 36.4658L0 39.7181L3.76883 43.6051H0V48.2238C2.11166 48.1709 6.72004 48.3768 11.6815 47.5147Z" fill="#E62C34"/>
<path d="M47.2244 7.47242C47.2244 6.71399 42.9447 5.88886 41.3467 5.79785V9.77202C43.0944 9.28662 47.2244 8.23085 47.2244 7.47242Z" fill="#023DA2"/>
<path fill-rule="evenodd" clip-rule="evenodd" d="M29.2604 19.9486L11.6943 1.7124C9.43403 3.73333 6.02209 8.62758 8.5471 14.0912C11.2683 19.9795 12.2986 21.4134 13.1386 22.5824C13.3722 22.9075 13.591 23.2121 13.8275 23.5864C13.6369 23.7607 13.4146 23.9557 13.171 24.1694C11.192 25.9053 7.80369 28.8775 8.54678 32.0935C9.58998 36.6083 13.4104 41.2633 18.2352 42.2953C26.0791 43.973 31.217 40.4259 33.4557 34.1406C35.6017 28.1155 35.4867 21.2484 35.3955 15.8046C35.3783 14.7725 35.3618 13.7917 35.3618 12.8774C36.3616 12.9204 37.5829 12.8079 38.6711 12.2697C39.9424 11.6409 41.3197 10.8133 41.8914 9.62711V5.86834C41.4132 5.35235 40.2345 4.52679 38.1215 3.05849C36.466 1.90814 33.3529 2.07452 30.9953 2.20052C30.3437 2.23534 29.7498 2.26708 29.2604 2.26708V19.9486ZM36.6091 6.80602C37.3056 6.80602 37.8701 6.24754 37.8701 5.55862C37.8701 4.8697 37.3056 4.31122 36.6091 4.31122C35.9127 4.31122 35.3482 4.8697 35.3482 5.55862C35.3482 6.24754 35.9127 6.80602 36.6091 6.80602Z" fill="#05C592"/>
<path d="M29.3054 19.7188H0C0 38.5827 29.3054 37.9622 29.3054 19.7188Z" fill="#023DA2"/>
</svg>
