<svg width="51" height="60" viewBox="0 0 51 60" fill="none" xmlns="http://www.w3.org/2000/svg">
<rect x="0.0358887" y="39.1621" width="47.7662" height="9.55325" fill="#05C592"/>
<rect x="23.9194" y="28.5303" width="20.1851" height="6.36883" transform="rotate(90 23.9194 28.5303)" fill="#023DA2"/>
<path d="M29.6047 0.921144C29.6047 3.31088 30.0754 5.67721 30.9899 7.88503C31.9044 10.0929 33.2449 12.0989 34.9347 13.7887C36.6245 15.4785 38.6305 16.8189 40.8384 17.7335C43.0462 18.648 45.4125 19.1187 47.8022 19.1187L47.8022 0.921142L29.6047 0.921144Z" fill="#05C592"/>
<path d="M5.81474 24.0142C-0.916973 18.5937 0.0478913 9.72585 0.0478964 4.94417C6.51396 4.94437 12.9549 4.64074 18.6812 10.3351C24.4076 16.0295 23.9024 24.1212 23.9024 28.5583C19.1993 28.5583 12.4843 29.3847 5.81474 24.0142Z" fill="#E62C34"/>
<g filter="url(#filter0_d)">
<path d="M26.0112 27.4247C28.5242 24.3894 32.7066 24.839 34.8932 24.837C34.8958 27.7503 35.0056 30.6334 32.3651 33.2158C29.7247 35.7982 25.9471 35.6409 23.9105 35.6428C23.9086 33.5238 23.5214 30.4319 26.0112 27.4247Z" fill="#E62C34"/>
</g>
<defs>
<filter id="filter0_d" x="7.87939" y="16.813" width="43.0244" height="42.8318" filterUnits="userSpaceOnUse" color-interpolation-filters="sRGB">
<feFlood flood-opacity="0" result="BackgroundImageFix"/>
<feColorMatrix in="SourceAlpha" type="matrix" values="0 0 0 0 0 0 0 0 0 0 0 0 0 0 0 0 0 0 127 0"/>
<feOffset dy="8"/>
<feGaussianBlur stdDeviation="8"/>
<feColorMatrix type="matrix" values="0 0 0 0 0.912 0 0 0 0 0.208 0 0 0 0 0.208 0 0 0 0.2 0"/>
<feBlend mode="normal" in2="BackgroundImageFix" result="effect1_dropShadow"/>
<feBlend mode="normal" in="SourceGraphic" in2="effect1_dropShadow" result="shape"/>
</filter>
</defs>
</svg>
