<svg width="48" height="48" viewBox="0 0 48 48" fill="none" xmlns="http://www.w3.org/2000/svg">
<path fill-rule="evenodd" clip-rule="evenodd" d="M13.5127 47.9997L13.5127 34.428H0V13.627L13.5127 13.627L13.5127 0H24.0001V9.26348C24.0001 9.26348 24.0001 9.26348 24.0001 9.26348C15.9294 9.26348 9.38681 15.8614 9.38681 24.0004C9.38681 32.1393 15.9294 38.7373 24.0001 38.7373C24.0001 38.7373 24.0001 38.7373 24.0001 38.7373V47.9997H13.5127Z" fill="#023DA2"/>
<path fill-rule="evenodd" clip-rule="evenodd" d="M34.4872 0V13.5717H47.9999V34.3727H34.4872V47.9997H23.9998V38.7367C32.0703 38.7365 38.6127 32.1387 38.6127 23.9998C38.6127 15.861 32.0703 9.26308 23.9998 9.26292V0H34.4872Z" fill="#05C592"/>
<path d="M32.9084 21.8836C32.9084 19.2038 30.7543 17.0315 28.097 17.0315C26.3618 17.0315 24.8465 17.9608 23.9999 19.3496C23.1535 17.9608 21.6375 17.0315 19.9024 17.0315C17.2451 17.0315 15.0916 19.2038 15.0916 21.8836C15.0916 23.3426 15.7326 24.6478 16.743 25.5367L23.5609 32.4126C23.6773 32.53 23.8352 32.596 23.9999 32.596C24.1647 32.596 24.3226 32.53 24.439 32.4126L31.2569 25.5367C32.2673 24.6478 32.9084 23.3426 32.9084 21.8836Z" fill="#E62C34"/>
</svg>
