<svg width="64" height="80" viewBox="0 0 64 80" fill="none" xmlns="http://www.w3.org/2000/svg">
<path d="M17.0904 56.0005L24.6484 51.0721C11.1475 51.5186 1.1095 36.8619 7.21468 23.6341C10.3228 16.9 18.4139 11.7301 23.6553 8.00098H0.623469L6.42519 14.7611C-3.8988 24.7931 -2.76855 49.079 17.0904 56.0005Z" fill="#05C592"/>
<g filter="url(#filter0_d)">
<path d="M30.9094 7.99995L23.3514 12.9284C36.8523 12.4818 46.8903 27.1386 40.7851 40.3664C37.677 47.1005 29.5858 52.2704 24.3444 55.9995L47.3763 55.9995L41.5746 49.2394C51.8986 39.2073 50.7683 14.9215 30.9094 7.99995Z" fill="#E62C34"/>
</g>
<path fill-rule="evenodd" clip-rule="evenodd" d="M27.8296 50.9217C36.1139 48.9069 42.288 41.1173 42.2881 31.8152C42.2881 31.8152 42.2881 31.8151 42.2881 31.8152C42.2881 41.1697 36.0964 48.916 27.8296 50.9217ZM4.89014 31.8154C4.89014 41.5192 11.5673 49.5343 20.3543 51.1357C11.5688 49.5287 4.89014 41.4903 4.89014 31.8154ZM4.89026 31.7436C4.92052 22.8383 10.6092 15.3315 18.3818 12.9725C10.6244 15.321 4.92057 22.7894 4.89026 31.7436ZM27.6431 12.6641C26.3378 12.3626 24.9813 12.2037 23.5891 12.2037C21.7834 12.2037 20.0359 12.4717 18.3818 12.9725C20.0348 12.4708 21.782 12.2019 23.5891 12.2019C24.9812 12.2019 26.3378 12.3615 27.6431 12.6641ZM42.2878 31.712C42.2421 22.3581 35.9921 14.5928 27.6431 12.6641C35.9904 14.5994 42.242 22.3857 42.2878 31.712ZM42.2881 31.8152C42.2881 31.8152 42.2881 31.8151 42.2881 31.8152V31.8152ZM21.1264 43.348C22.204 46.3618 23.2925 47.0399 23.5891 47.0399C23.8857 47.0399 24.9742 46.3618 26.0518 43.348C26.3625 42.4792 26.6321 41.5236 26.8605 40.5027H20.3177C20.5461 41.5236 20.8157 42.4792 21.1264 43.348ZM19.4322 31.8154C19.4322 33.3129 19.5037 34.7741 19.6384 36.1735H27.5398C27.6745 34.7741 27.746 33.3129 27.746 31.8154C27.746 30.3178 27.6745 28.8566 27.5398 27.4572H19.6384C19.5037 28.8566 19.4322 30.3178 19.4322 31.8154ZM15.4637 27.4283H9.64782C8.84513 30.2673 8.84513 33.3339 9.64782 36.1735H15.4637C15.3403 34.7599 15.2753 33.3004 15.2753 31.8154C15.2753 30.3303 15.3403 28.8413 15.4637 27.4283ZM26.0518 20.2538C24.9742 17.24 23.8857 16.5618 23.5891 16.5618C23.2925 16.5618 22.204 17.24 21.1264 20.2538C20.8157 21.122 20.5461 22.0782 20.3177 23.0991H26.8605C26.6321 22.0782 26.3625 21.122 26.0518 20.2538ZM37.5304 27.4572H31.7145C31.8379 28.8708 31.9029 30.3303 31.9029 31.8154C31.9029 33.3004 31.8379 34.7599 31.7145 36.1735H37.5304C38.3331 33.3345 38.3331 30.2968 37.5304 27.4572ZM31.1143 23.0991H35.532C35.0481 22.371 34.4966 21.6776 33.8774 21.0284C32.632 19.7238 31.1998 18.6853 29.6453 17.9385C30.3067 19.5881 30.776 21.3518 31.1143 23.0991ZM16.0639 23.0991C16.4017 21.3552 16.8699 19.591 17.5329 17.9385C15.9779 18.6853 14.5462 19.7238 13.3003 21.0289C12.6811 21.6781 12.13 22.371 11.6462 23.0991H16.0639ZM16.0639 40.5317H11.6462C12.13 41.2597 12.6816 41.9532 13.3008 42.6023C14.5462 43.9069 15.9784 44.9454 17.5329 45.6922C16.8715 44.0426 16.4022 42.2789 16.0639 40.5317ZM31.1143 40.5027C30.7765 42.246 30.3083 44.0108 29.6453 45.6633C31.2003 44.9165 32.632 43.878 33.8779 42.5728C34.4971 41.9236 35.0481 41.2308 35.532 40.5027H31.1143Z" fill="#023DA2"/>
<defs>
<filter id="filter0_d" x="7.35132" y="0" width="56.6484" height="79.9996" filterUnits="userSpaceOnUse" color-interpolation-filters="sRGB">
<feFlood flood-opacity="0" result="BackgroundImageFix"/>
<feColorMatrix in="SourceAlpha" type="matrix" values="0 0 0 0 0 0 0 0 0 0 0 0 0 0 0 0 0 0 127 0"/>
<feOffset dy="8"/>
<feGaussianBlur stdDeviation="8"/>
<feColorMatrix type="matrix" values="0 0 0 0 0.912 0 0 0 0 0.208 0 0 0 0 0.208 0 0 0 0.2 0"/>
<feBlend mode="normal" in2="BackgroundImageFix" result="effect1_dropShadow"/>
<feBlend mode="normal" in="SourceGraphic" in2="effect1_dropShadow" result="shape"/>
</filter>
</defs>
</svg>
