<svg width="49" height="49" viewBox="0 0 49 49" fill="none" xmlns="http://www.w3.org/2000/svg">
<path d="M43.4023 24.0835C43.4023 27.9697 42.2491 31.5883 40.2654 34.6157L42.8709 39.2166C46.2193 35.0812 48.2247 29.8163 48.2247 24.0835C48.2247 10.7825 37.4292 0 24.1124 0C10.7955 0 0 10.7825 0 24.0835C0 29.8163 2.00542 35.0812 5.35379 39.2166L7.95945 34.6159C5.9756 31.5884 4.82244 27.9698 4.82244 24.0835C4.82244 13.4513 13.4534 4.82244 24.1124 4.82244C34.7713 4.82244 43.4023 13.4513 43.4023 24.0835Z" fill="#05C592"/>
<path d="M24.1122 14.4055C29.1492 14.4055 33.2812 18.2368 33.7608 23.1297L37.4924 29.719C38.2248 27.9864 38.6298 26.0821 38.6298 24.0832C38.6298 16.075 32.13 9.58306 24.1122 9.58306C16.0944 9.58306 9.59469 16.075 9.59469 24.0832C9.59469 26.0823 9.99972 27.9869 10.7323 29.7196L14.4634 23.1317C14.9422 18.2378 19.0746 14.4055 24.1122 14.4055Z" fill="#05C592"/>
<ellipse cx="24.112" cy="24.0831" rx="4.82247" ry="4.8167" fill="#E62C34"/>
<path fill-rule="evenodd" clip-rule="evenodd" d="M16.3643 28.4053L5.56592 48.2241L11.753 48.224L13.3697 45.1163H34.8546L36.4714 48.224L42.6584 48.2241L31.8597 28.4048C30.3418 31.1138 27.4409 32.9451 24.1119 32.9451C20.783 32.9451 17.8823 31.114 16.3643 28.4053ZM17.5716 37.0399H30.6527L32.5951 40.7733H15.6292L17.5716 37.0399Z" fill="#023DA2"/>
</svg>
