<svg width="49" height="48" viewBox="0 0 49 48" fill="none" xmlns="http://www.w3.org/2000/svg">
<path d="M6.34065 1.11522L9.8375 4.59929L0.0442329 14.3568L0.0441663 33.8624L19.626 14.3521L23.1229 17.8361L23.1229 1.11522L6.34065 1.11522Z" fill="#023DA2"/>
<path fill-rule="evenodd" clip-rule="evenodd" d="M30.7768 18.4043L26.1875 13.8318L48.2127 13.8318V35.7766L43.6234 31.204L27.0276 47.7389L24.1849 47.7429C24.1733 42.2376 20.409 37.6101 15.3053 36.265C17.1554 35.2065 18.4015 33.2184 18.4015 30.9402C18.4015 30.8725 18.4004 30.805 18.3982 30.7377L30.7768 18.4043ZM1.30519 47.7684L1.29883 47.7747L5.85566 47.7684H1.30519Z" fill="#05C592"/>
<path fill-rule="evenodd" clip-rule="evenodd" d="M13.5589 18.7706L10.8595 16.0811H23.8146V28.9888L21.1152 26.2992L18.1623 29.2413C17.4227 26.6791 15.0526 24.8046 12.2431 24.8046C8.84192 24.8046 6.08471 27.5518 6.08471 30.9405C6.08471 33.2185 7.33062 35.2066 9.18054 36.2651C4.30398 37.5506 0.650388 41.8327 0.324966 47.0139L0.0299086 47.3078L0.029541 32.2497L13.5589 18.7706Z" fill="#EF6C82"/>
</svg>
