<svg width="49" height="49" viewBox="0 0 49 49" fill="none" xmlns="http://www.w3.org/2000/svg">
<path d="M10.409 4.1416L19.4235 14.7965H1.39455L10.409 4.1416Z" fill="#05C592"/>
<path d="M10.409 14.0801L19.4235 24.735H1.39455L10.409 14.0801Z" fill="#05C592"/>
<path d="M10.409 24.0195L19.4235 34.6745H1.39455L10.409 24.0195Z" fill="#05C592"/>
<path d="M25.4145 5.79785L31.7807 14.31H19.0483L25.4145 5.79785Z" fill="#05C592"/>
<path d="M25.4145 18.1179L31.7807 26.6301H19.0483L25.4145 18.1179Z" fill="#05C592"/>
<path d="M31.5466 1.08423e-05H48.2244V17.1356C39.0135 17.1355 31.5466 9.46362 31.5466 1.08423e-05C31.5466 -2.67165e-05 31.5466 4.8401e-05 31.5466 1.08423e-05Z" fill="#E62C34"/>
<path fill-rule="evenodd" clip-rule="evenodd" d="M43.4708 24.7662H41.3729L46.7757 18.6319H47.616L43.4708 24.7662ZM47.616 18.6319L47.6177 18.6294H46.7779L46.7757 18.6319H46.072L1.25098 48.2244H48.2236V18.6319H47.616ZM29.8023 37.9032H34.5932L27.627 48.212H20.7228L29.8023 37.9032ZM40.2496 26.0414H42.6089L35.909 35.9561H31.5172L40.2496 26.0414Z" fill="#023DA2"/>
</svg>
