<svg width="48" height="49" viewBox="0 0 48 49" fill="none" xmlns="http://www.w3.org/2000/svg">
<mask id="mask0" mask-type="alpha" maskUnits="userSpaceOnUse" x="0" y="1" width="47" height="48">
<rect y="1.22461" width="47" height="47" fill="#C4C4C4"/>
</mask>
<g mask="url(#mask0)">
<path d="M41.4581 23.6256L40.9242 24.6457L41.4581 25.6658C43.4934 29.5547 44.5612 33.2673 44.6698 36.4026C44.778 39.5281 43.9394 41.927 42.3454 43.5233C40.7496 45.1216 38.348 45.964 35.2168 45.858C32.076 45.7516 28.3556 44.6845 24.4584 42.648L23.4395 42.1156L22.4206 42.648C18.5234 44.6845 14.803 45.7516 11.6622 45.858C8.53099 45.964 6.12945 45.1216 4.5336 43.5233C2.93965 41.927 2.10097 39.5281 2.20923 36.4026C2.31783 33.2673 3.38563 29.5547 5.4209 25.6658L5.95478 24.6457L5.4209 23.6256C3.38563 19.7367 2.31783 16.0241 2.20923 12.8888C2.10097 9.76328 2.93965 7.36443 4.5336 5.76809C6.12945 4.16985 8.53099 3.32743 11.6622 3.43345C14.803 3.53979 18.5234 4.60694 22.4206 6.64339L23.4395 7.17579L24.4584 6.64339C28.3556 4.60694 32.076 3.53979 35.2168 3.43345C38.348 3.32743 40.7496 4.16985 42.3454 5.76809C43.9394 7.36443 44.778 9.76328 44.6698 12.8888C44.5612 16.0241 43.4934 19.7367 41.4581 23.6256ZM27.4133 39.5531L24.1623 41.8929L27.8809 43.3813C28.8145 43.7549 29.7358 44.0701 30.6375 44.3244C35.9648 45.8267 39.7595 45.0234 41.8005 42.9793C43.8416 40.9351 44.6392 37.1392 43.1289 31.8142C42.8751 30.9192 42.5611 30.0049 42.1895 29.0786L40.7007 25.3676L38.3629 28.6114C36.9087 30.6291 35.2187 32.6216 33.3083 34.5292C31.4074 36.4272 29.4228 38.1069 27.4133 39.5531ZM39.3179 25.8104L40.0447 24.6457L39.3179 23.481C37.5998 20.7277 35.4091 17.948 32.7642 15.307C30.1263 12.6731 27.3513 10.4913 24.6026 8.77935L23.4395 8.05496L22.2764 8.77935C19.5278 10.4913 16.7527 12.6731 14.1148 15.307C11.4699 17.948 9.27921 20.7277 7.56107 23.481L6.83429 24.6457L7.56107 25.8104C9.27921 28.5638 11.4699 31.3434 14.1148 33.9844C16.7527 36.6183 19.5277 38.8001 22.2764 40.5121L23.4395 41.2365L24.6026 40.5121C27.3513 38.8001 30.1263 36.6183 32.7642 33.9844C35.4091 31.3434 37.5998 28.5638 39.3179 25.8104ZM38.3629 20.68L40.7007 23.9238L42.1895 20.2128C42.5611 19.2865 42.8751 18.3722 43.1289 17.4772C44.6392 12.1522 43.8416 8.35628 41.8005 6.31216C39.7595 4.26803 35.9648 3.46474 30.6375 4.96702C29.7358 5.22128 28.8145 5.5365 27.8809 5.91016L24.1623 7.39853L27.4133 9.73828C29.4228 11.1845 31.4074 12.8642 33.3083 14.7622C35.2187 16.6698 36.9087 18.6623 38.3629 20.68ZM18.9981 43.3813L22.7167 41.8929L19.4657 39.5531C17.4562 38.1069 15.4716 36.4272 13.5708 34.5292C11.6603 32.6216 9.97026 30.6291 8.5161 28.6114L6.17828 25.3676L4.6895 29.0786C4.31786 30.0049 4.00389 30.9192 3.75006 31.8142C2.2398 37.1392 3.03742 40.9351 5.07848 42.9793C7.11954 45.0234 10.9142 45.8267 16.2415 44.3244C17.1432 44.0701 18.0645 43.7549 18.9981 43.3813ZM4.6895 20.2128L6.17828 23.9238L8.5161 20.68C9.97026 18.6623 11.6603 16.6698 13.5708 14.7622C15.4716 12.8642 17.4562 11.1845 19.4657 9.73828L22.7167 7.39854L18.9981 5.91016C18.0645 5.5365 17.1432 5.22128 16.2415 4.96702C10.9142 3.46474 7.11954 4.26804 5.07848 6.31216C3.03742 8.35628 2.2398 12.1522 3.75006 17.4772C4.00389 18.3722 4.31786 19.2865 4.6895 20.2128Z" fill="#023DA2" stroke="#023DA2" stroke-width="4.4"/>
<path d="M15.2742 15.2753L23.5568 8.27466L31.7242 15.374L23.4415 22.3747L15.2742 15.2753Z" fill="#E62C34"/>
<path d="M9.71666 11.1086C9.12195 17.0203 8.8949 28.6417 10.3222 31.3493C11.1436 32.9076 12.409 34.4604 13.6204 35.9469C15.0401 37.6891 16.3856 39.3403 16.8557 40.8028C17.7268 43.5132 20.2826 44.3726 23.3514 44.3726V19.773C23.3514 19.773 22.0976 15.758 19.3313 13.8713C15.4269 11.2085 9.71666 11.1086 9.71666 11.1086Z" fill="#05C592"/>
<path d="M36.9863 11.1087C37.5811 17.0204 37.8081 28.6418 36.3808 31.3494C35.5594 32.9077 34.294 34.4605 33.0826 35.947C31.663 37.6892 30.3174 39.3404 29.8473 40.8029C28.9762 43.5133 26.4201 44.3726 23.3514 44.3726V19.773C23.3514 19.773 24.6054 15.7581 27.3717 13.8714C31.2761 11.2086 36.9863 11.1087 36.9863 11.1087Z" fill="#05C592"/>
<path d="M23.2567 30.9087C22.2996 30.8024 20.4214 27.3644 19.7349 25.6587L23.2567 21.5383L26.8454 25.6588C25.8929 27.4531 24.2138 31.0151 23.2567 30.9087Z" fill="#E62C34"/>
<circle cx="16.439" cy="20.6314" r="7.24585" fill="white"/>
<circle cx="30.2627" cy="20.6314" r="7.24585" fill="white"/>
<circle cx="16.4378" cy="20.6309" r="3.37384" fill="url(#paint0_linear)"/>
<circle cx="30.2628" cy="20.6309" r="3.37384" fill="url(#paint1_linear)"/>
</g>
<defs>
<linearGradient id="paint0_linear" x1="15.1557" y1="17.9993" x2="16.4378" y2="24.0048" gradientUnits="userSpaceOnUse">
<stop stop-color="#3D7C8F"/>
<stop offset="1" stop-color="#344865"/>
</linearGradient>
<linearGradient id="paint1_linear" x1="28.9807" y1="17.9993" x2="30.2628" y2="24.0048" gradientUnits="userSpaceOnUse">
<stop stop-color="#3D7C8F"/>
<stop offset="1" stop-color="#344865"/>
</linearGradient>
</defs>
</svg>
